<svg width="56" height="50" viewBox="0 0 56 50" fill="none" xmlns="http://www.w3.org/2000/svg">
<g id="technic">
<path id="Vector" d="M32.8606 27.2701C33.2618 28.3685 34.0993 29.1431 35.2527 29.4108C35.8573 29.5504 36.5399 29.4573 37.1783 29.4954C39.3895 29.6287 41.3802 30.3248 43.1504 31.5836C45.8893 33.5316 47.6333 36.6016 47.8802 39.9629C47.8996 40.2259 47.9095 40.6285 47.9099 41.1707C47.9115 43.0583 47.9115 44.9163 47.9099 46.7447C47.9093 47.2347 47.4984 47.625 47.0088 47.625C34.3799 47.6234 21.7116 47.6234 9.00406 47.625C8.46729 47.625 8.08969 47.2147 8.0915 46.6909C8.09755 44.7437 8.09675 42.8652 8.08908 41.0553C8.08706 40.661 8.09937 40.2936 8.12599 39.9532C8.29503 37.7941 9.01313 35.8506 10.2803 34.1225C12.3838 31.2549 15.6981 29.5341 19.2594 29.4869C19.6011 29.4825 19.9418 29.4785 20.2815 29.4749C20.549 29.472 20.8556 29.4042 21.2013 29.2712C22.1522 28.9063 22.8005 28.234 23.1462 27.2543C23.1491 27.2457 23.149 27.2364 23.1459 27.2279C23.1429 27.2193 23.137 27.212 23.1293 27.2072C22.7799 26.9945 22.44 26.7522 22.1096 26.4803C21.7514 26.1855 21.4547 25.9138 21.2195 25.6652C19.7534 24.1172 18.9042 22.2838 18.6718 20.165C18.5913 19.4333 18.6282 18.6194 18.621 17.8521C18.621 17.8442 18.6182 17.8365 18.6132 17.8303C18.6081 17.8242 18.601 17.8199 18.5931 17.8183C16.7396 17.4025 15.4646 15.7041 15.6407 13.7923C15.7282 12.8429 16.1371 12.0248 16.8673 11.338C16.9115 11.2963 16.9381 11.2419 16.9496 11.1827C17.8633 6.33325 21.8736 2.60038 26.7741 2.06685C32.6385 1.42819 37.9668 5.43296 39.0585 11.1966C39.0702 11.2574 39.0984 11.3082 39.1432 11.3489C40.2107 12.3235 40.6215 13.7694 40.2391 15.1615C39.8694 16.5083 38.7686 17.4974 37.4216 17.8176C37.3957 17.8237 37.3826 17.84 37.3822 17.8666C37.3792 18.5868 37.407 19.3638 37.3417 20.0514C37.0573 23.055 35.43 25.6036 32.8836 27.2036C32.8582 27.2197 32.8505 27.2419 32.8606 27.2701ZM31.0246 8.72716C30.5344 9.33924 29.562 9.09997 29.4331 8.30723C29.4129 8.18357 29.4452 7.96585 29.5299 7.65407C29.8607 6.43999 30.1675 5.27808 30.4503 4.16833C30.4612 4.12603 30.4455 4.09945 30.4031 4.08857C28.7862 3.66964 27.1753 3.67287 25.5704 4.09824C25.5478 4.10428 25.5396 4.11838 25.5456 4.14053C25.8595 5.3381 26.1845 6.57211 26.5205 7.84259C26.6155 8.2033 26.5962 8.53079 26.3335 8.79181C26.0431 9.08144 25.7058 9.14891 25.3217 8.99423C25.0839 8.89816 24.889 8.66614 24.8249 8.42264C24.5074 7.21742 24.1889 6.00374 23.8694 4.78161C23.8621 4.7522 23.845 4.74435 23.8179 4.75804C21.6979 5.84725 20.1756 7.47663 19.2509 9.64618C19.0815 10.0438 18.9502 10.4458 18.857 10.8522C18.8562 10.8559 18.8562 10.8598 18.857 10.8635C18.8578 10.8672 18.8595 10.8706 18.8618 10.8736C18.8641 10.8766 18.8671 10.8789 18.8704 10.8806C18.8738 10.8822 18.8775 10.883 18.8812 10.883H37.1256C37.1301 10.883 37.1345 10.8819 37.1386 10.8799C37.1426 10.8779 37.1461 10.875 37.1488 10.8715C37.1516 10.8679 37.1535 10.8638 37.1544 10.8594C37.1553 10.855 37.1552 10.8505 37.1541 10.8462C36.4588 8.20028 34.6331 5.98219 32.1774 4.75744C32.1592 4.74858 32.1475 4.75381 32.1423 4.77315C31.8179 5.98159 31.5131 7.1429 31.2279 8.25708C31.1739 8.46896 31.1061 8.62565 31.0246 8.72716ZM37.1922 16.0334C38.6397 15.5663 39.0627 13.8268 38.0079 12.7235C37.9896 12.7042 37.9675 12.6889 37.9429 12.6784C37.9184 12.6679 37.8919 12.6625 37.8651 12.6624C31.7968 12.6624 25.2233 12.6624 18.1447 12.6624C18.0854 12.6624 18.035 12.684 17.9934 12.7271C17.6255 13.111 17.4311 13.5488 17.4101 14.0407C17.3708 14.9651 17.9426 15.7657 18.8225 16.0346C19.0012 16.089 19.2172 16.1162 19.4706 16.1162C25.1085 16.1129 30.7513 16.1133 36.3989 16.1174C36.7535 16.1174 37.0179 16.0894 37.1922 16.0334ZM35.5874 17.9034H20.4273C20.4233 17.9034 20.4195 17.905 20.4166 17.9079C20.4138 17.9107 20.4122 17.9145 20.4122 17.9186V19.1802C20.4122 21.194 21.2051 23.1254 22.6164 24.5494C24.0277 25.9734 25.9419 26.7734 27.9378 26.7734H28.0769C30.0728 26.7734 31.987 25.9734 33.3983 24.5494C34.8096 23.1254 35.6025 21.194 35.6025 19.1802V17.9186C35.6025 17.9145 35.6009 17.9107 35.5981 17.9079C35.5952 17.905 35.5914 17.9034 35.5874 17.9034ZM24.8074 28.0114C24.7987 28.0084 24.7892 28.0089 24.7808 28.0128C24.7724 28.0168 24.7659 28.0239 24.7626 28.0326C24.4267 28.9027 23.8555 29.6827 23.1045 30.247C23.0807 30.2648 23.0714 30.2881 23.0766 30.3171C23.261 31.3447 23.7494 32.1465 24.5417 32.7225C25.1739 33.1821 25.8797 33.4136 26.6591 33.4168C27.1928 33.4192 27.9353 33.4226 28.8866 33.4271C29.3869 33.4295 29.7822 33.4003 30.0727 33.3394C31.5735 33.0259 32.6875 31.8247 32.9241 30.3026C32.9278 30.2793 32.9201 30.2603 32.9011 30.2458C32.1447 29.6698 31.5924 28.9333 31.2443 28.0362C31.2362 28.0145 31.2211 28.0074 31.1989 28.0151C29.0793 28.7639 26.9488 28.7627 24.8074 28.0114ZM25.9317 35.1497C23.7701 34.8578 21.9493 33.2434 21.4294 31.1177C21.4242 31.0968 21.4109 31.0889 21.3895 31.0942C20.9496 31.2029 20.5314 31.2676 20.0721 31.2627C19.6703 31.2583 19.2705 31.2619 18.8727 31.2736C18.8501 31.274 18.8388 31.2855 18.8388 31.3081L18.8394 39.6245C18.8394 39.6332 18.8411 39.6417 18.8444 39.6497C18.8477 39.6577 18.8525 39.665 18.8586 39.6711C18.8646 39.6772 18.8719 39.6821 18.8798 39.6854C18.8877 39.6887 18.8962 39.6904 18.9048 39.6904H37.0918C37.1402 39.6904 37.1644 39.6662 37.1644 39.6179L37.1656 31.3093C37.1656 31.2895 37.1557 31.2793 37.1359 31.2785C36.7615 31.2631 36.3517 31.2579 35.9063 31.2627C35.4645 31.267 35.0343 31.2029 34.6119 31.0905C34.6079 31.0894 34.6037 31.0892 34.5997 31.0897C34.5956 31.0903 34.5916 31.0916 34.5881 31.0937C34.5845 31.0958 34.5814 31.0985 34.579 31.1018C34.5765 31.1051 34.5747 31.1089 34.5738 31.1129C34.4596 31.5995 34.2728 32.0623 34.0134 32.5014C33.0155 34.192 31.2424 35.2149 29.2757 35.201C28.5843 35.1962 27.8659 35.1976 27.1208 35.2053C26.6387 35.2101 26.2423 35.1916 25.9317 35.1497ZM17.0246 31.5673C12.8183 32.682 9.87849 36.4445 9.87849 40.8034C9.87889 42.4907 9.87869 44.1562 9.87788 45.7997C9.87788 45.8109 9.88234 45.8216 9.89029 45.8296C9.89823 45.8375 9.90901 45.8419 9.92024 45.8419L13.582 45.8413C13.5865 45.8413 13.5908 45.8396 13.5939 45.8364C13.5971 45.8332 13.5989 45.8289 13.5989 45.8244C13.6029 44.765 13.6025 43.6869 13.5977 42.59C13.5953 42.0438 13.6594 41.5502 13.9233 41.0855C14.3416 40.3492 14.9613 39.8993 15.7823 39.7357C16.1798 39.6566 16.6161 39.6995 17.0301 39.6868C17.0364 39.6865 17.0424 39.6837 17.0468 39.6791C17.0512 39.6745 17.0537 39.6684 17.0537 39.662L17.0543 31.5902C17.0543 31.5866 17.0535 31.583 17.0519 31.5798C17.0503 31.5765 17.048 31.5736 17.0451 31.5714C17.0423 31.5692 17.0389 31.5677 17.0354 31.5669C17.0318 31.5662 17.0281 31.5663 17.0246 31.5673ZM44.9265 36.175C43.6654 33.9328 41.5184 32.2011 38.9822 31.5727C38.9616 31.5675 38.9514 31.5755 38.9514 31.5969L38.952 39.6572C38.952 39.6785 38.9624 39.6892 38.9834 39.6892C39.1759 39.692 39.386 39.6914 39.614 39.6874C41.1964 39.659 42.4037 40.8408 42.4043 42.4172C42.4047 43.5959 42.4047 44.7268 42.4043 45.8099C42.4043 45.8313 42.4148 45.8419 42.4358 45.8419H46.0951C46.1172 45.8419 46.1283 45.8309 46.1283 45.8087C46.1243 44.2422 46.1243 42.6561 46.1283 41.0505C46.1296 40.6255 46.1136 40.2366 46.0805 39.8837C45.9551 38.5569 45.5704 37.3206 44.9265 36.175ZM40.5465 42.0052C40.4037 41.6656 40.066 41.4686 39.6927 41.4692C32.0481 41.4716 24.2541 41.4718 16.3105 41.4698C15.9263 41.4692 15.6092 41.6674 15.4482 42.016C15.3986 42.1236 15.3756 42.3721 15.3792 42.7616C15.3885 43.8359 15.3887 44.8496 15.3798 45.8027C15.3794 45.828 15.3919 45.8407 15.4174 45.8407L40.5895 45.8401C40.6117 45.8401 40.6228 45.8309 40.6228 45.8123C40.6183 44.7429 40.6187 43.6299 40.624 42.4734C40.6252 42.2873 40.5994 42.1312 40.5465 42.0052Z" fill="#1D231F"/>
</g>
</svg>
