<svg width="56" height="50" viewBox="0 0 56 50" fill="none" xmlns="http://www.w3.org/2000/svg">
<g id="technic">
<path id="Vector" d="M20.816 23.9665C20.7787 19.6713 20.7821 15.3911 20.8262 11.1258C20.8295 10.7773 20.9058 10.437 21.055 10.1051C22.0007 7.99902 24.5174 7.44635 26.4953 8.33758C26.719 8.43716 26.8817 8.37576 26.9834 8.15336C27.5223 6.94348 28.7019 6.09706 30.0493 6.01242C32.1915 5.87633 33.605 6.85884 34.2897 8.95995C34.3575 9.17239 34.4964 9.23545 34.7066 9.14915C37.259 8.09859 39.5012 9.4927 40.0859 11.9822C40.1927 12.4552 40.1164 13.0277 40.1215 13.5207C40.1249 13.7265 40.2283 13.8028 40.4317 13.7497C42.4603 13.2319 44.9415 14.1231 44.9619 16.4184C45.0127 22.1044 45.0127 27.2841 44.9619 31.9577C44.8754 40.0833 39.369 44.3553 31.5034 43.9769C22.987 43.5636 18.6907 39.0178 15.8892 31.8133C14.974 29.4566 13.7385 27.3339 12.1827 25.4452C12.1106 25.359 12.058 25.259 12.0282 25.1517C11.9984 25.0445 11.9921 24.9324 12.0098 24.8229C12.1894 23.7441 12.8657 22.974 14.0385 22.5126C16.4129 21.5766 18.5839 22.3483 20.4092 24.1358C20.6838 24.4046 20.8194 24.3482 20.816 23.9665ZM27.5884 25.9133C27.5342 25.9066 27.48 25.9033 27.4257 25.9033C27.2148 25.8994 27.0139 25.815 26.8657 25.668C26.7175 25.521 26.6338 25.3232 26.6326 25.1166C26.6054 20.8115 26.5868 16.445 26.5766 12.017C26.5715 9.06949 22.7481 9.10434 22.7379 11.9025C22.7243 17.3661 22.7396 22.5525 22.7837 27.4617C22.7938 28.8359 22.2311 29.8981 21.0956 30.6482C20.9329 30.7544 20.7601 30.7727 20.577 30.703C19.1941 30.1603 20.2618 28.9554 20.6838 28.2633C20.7889 28.094 20.7923 27.9247 20.694 27.7555C19.3822 25.4502 17.562 23.4337 14.6232 24.315C14.5502 24.3373 14.4836 24.3762 14.429 24.4285C14.3744 24.4809 14.3332 24.5452 14.3089 24.6161C14.2846 24.6871 14.2778 24.7627 14.2891 24.8367C14.3004 24.9107 14.3295 24.9811 14.374 25.0419C15.8926 27.0999 17.1196 29.3852 18.0551 31.8979C20.516 38.515 25.4123 42.3338 33.0237 42.0152C37.7081 41.816 40.8062 39.8609 42.318 36.15C42.9213 34.6696 43.1925 32.2614 43.1315 28.9255C43.0535 24.6071 43.0417 20.614 43.0959 16.9462C43.1094 16.1661 42.7264 15.6965 41.9468 15.5371C41.8078 15.5106 41.6672 15.5073 41.5248 15.5272C40.596 15.6566 40.1317 16.1794 40.1317 17.0955V24.9822C40.1317 25.4867 39.8842 25.8087 39.3893 25.9481C39.2944 25.9747 39.1995 25.9763 39.1046 25.9531C38.5114 25.8137 38.2149 25.4452 38.2149 24.8478L38.2098 12.7639C38.2098 11.4992 37.5657 10.8237 36.2777 10.7374C36.1523 10.7308 36.0286 10.7424 35.9065 10.7723C34.8829 11.0279 34.371 11.6718 34.371 12.7041L34.3812 23.9018C34.3812 24.5424 34.0575 24.8942 33.4101 24.9573C33.166 24.9805 32.9321 24.9175 32.7084 24.7681C32.607 24.7006 32.5241 24.6094 32.4673 24.5025C32.4106 24.3956 32.3816 24.2765 32.383 24.1557C32.4 19.5983 32.3898 14.8019 32.3525 9.76654C32.3457 8.54172 31.717 7.95587 30.4662 8.00897C30.4425 8.00897 30.4171 8.01063 30.3899 8.01395C29.1392 8.06706 28.5121 8.70603 28.5087 9.93085C28.4816 15.401 28.4935 20.4397 28.5443 25.0469C28.5455 25.167 28.521 25.286 28.4724 25.3963C28.4238 25.5066 28.3522 25.6057 28.2622 25.6873C28.1722 25.7689 28.0657 25.8311 27.9497 25.87C27.8337 25.909 27.7106 25.9237 27.5884 25.9133Z" fill="#1D231F"/>
</g>
</svg>
