<svg width="56" height="50" viewBox="0 0 56 50" fill="none" xmlns="http://www.w3.org/2000/svg">
<g id="technic">
<g id="Vector">
<mask id="path-1-inside-1_245_12406" fill="white">
<path d="M4.20814 26.8816C2.93545 23.1327 4.14071 20.7269 7.82394 19.6643C8.05994 19.5962 8.12736 19.4496 8.02622 19.2243C6.57231 15.9217 8.20954 12.2556 12.0782 12.2365C21.9015 12.1855 31.7228 12.1068 41.5419 12.0006C45.9352 11.9559 48.7356 14.4999 46.9782 19.2817C46.9024 19.4857 46.9719 19.6175 47.1869 19.677C50.7352 20.6631 51.9595 22.9627 50.8595 26.5756C50.7753 26.8434 50.8617 27.0368 51.1187 27.1558C53.5124 28.2482 54.7998 29.7784 54.981 31.7464C55.2213 34.3477 53.1479 36.9872 50.4803 36.9872C35.6715 37.0043 20.8648 37.0043 6.06029 36.9872C2.98812 36.9872 0.295232 36.0181 0.0234148 32.6262C-0.195725 29.8379 1.12333 28.0633 3.98057 27.3024C4.20814 27.2429 4.284 27.1027 4.20814 26.8816ZM38.3812 14.7039C38.5372 14.3086 38.4065 14.111 37.9893 14.111L11.8064 14.0599C11.5154 14.0596 11.2274 14.1189 10.9598 14.2341C10.6923 14.3494 10.4507 14.5183 10.2497 14.7305C10.0488 14.9427 9.89262 15.1939 9.79075 15.4688C9.68889 15.7437 9.64343 16.0366 9.65712 16.3297L9.69505 17.0566C9.78355 18.863 10.7233 19.7641 12.5144 19.7599L38.2991 19.7025C38.573 19.7025 38.651 19.5771 38.533 19.3263C37.8165 17.7962 37.766 16.2553 38.3812 14.7039ZM45.4485 16.8844C45.4485 16.5227 45.3778 16.1646 45.2406 15.8304C45.1034 15.4962 44.9022 15.1926 44.6486 14.9368C44.3951 14.681 44.094 14.4782 43.7627 14.3397C43.4314 14.2013 43.0763 14.1301 42.7177 14.1301C42.3591 14.1301 42.0039 14.2013 41.6726 14.3397C41.3413 14.4782 41.0403 14.681 40.7867 14.9368C40.5331 15.1926 40.332 15.4962 40.1947 15.8304C40.0575 16.1646 39.9869 16.5227 39.9869 16.8844C39.9869 17.2461 40.0575 17.6043 40.1947 17.9384C40.332 18.2726 40.5331 18.5763 40.7867 18.832C41.0403 19.0878 41.3413 19.2907 41.6726 19.4291C42.0039 19.5675 42.3591 19.6387 42.7177 19.6387C43.0763 19.6387 43.4314 19.5675 43.7627 19.4291C44.094 19.2907 44.3951 19.0878 44.6486 18.832C44.9022 18.5763 45.1034 18.2726 45.2406 17.9384C45.3778 17.6043 45.4485 17.2461 45.4485 16.8844ZM34.7718 26.9326C33.95 25.3854 33.9226 23.8276 34.6896 22.2592C34.7165 22.2048 34.7292 22.1444 34.7265 22.0837C34.7237 22.023 34.7057 21.964 34.674 21.9123C34.6424 21.8605 34.5982 21.8178 34.5456 21.7882C34.493 21.7585 34.4338 21.7429 34.3735 21.7428H8.00094C7.71441 21.7426 7.43077 21.8005 7.1669 21.9128C6.90304 22.0252 6.66433 22.1897 6.46499 22.3967C6.26566 22.6037 6.10975 22.849 6.00656 23.1178C5.90337 23.3866 5.855 23.6735 5.86433 23.9615L5.88329 24.6437C5.93386 26.4375 6.84834 27.3322 8.62674 27.3279L34.5442 27.3152C34.8308 27.3152 34.9066 27.1877 34.7718 26.9326ZM41.6683 24.5035C41.6683 23.7713 41.38 23.0691 40.8666 22.5514C40.3533 22.0336 39.6571 21.7428 38.9312 21.7428C38.2053 21.7428 37.5091 22.0336 36.9957 22.5514C36.4824 23.0691 36.1941 23.7713 36.1941 24.5035C36.1941 24.866 36.2649 25.225 36.4024 25.5599C36.54 25.8949 36.7416 26.1992 36.9957 26.4556C37.2499 26.7119 37.5516 26.9153 37.8837 27.054C38.2158 27.1928 38.5718 27.2642 38.9312 27.2642C39.2906 27.2642 39.6466 27.1928 39.9787 27.054C40.3107 26.9153 40.6125 26.7119 40.8666 26.4556C41.1208 26.1992 41.3224 25.8949 41.46 25.5599C41.5975 25.225 41.6683 24.866 41.6683 24.5035ZM49.2476 24.5098C49.2476 24.1456 49.1765 23.785 49.0383 23.4485C48.9001 23.112 48.6975 22.8062 48.4422 22.5487C48.1869 22.2912 47.8837 22.0869 47.5501 21.9475C47.2165 21.8081 46.8589 21.7364 46.4978 21.7364C45.7685 21.7364 45.0691 22.0286 44.5534 22.5487C44.0378 23.0688 43.7481 23.7743 43.7481 24.5098C43.7481 25.2454 44.0378 25.9508 44.5534 26.471C45.0691 26.9911 45.7685 27.2833 46.4978 27.2833C46.8589 27.2833 47.2165 27.2116 47.5501 27.0722C47.8837 26.9328 48.1869 26.7285 48.4422 26.471C48.6975 26.2134 48.9001 25.9077 49.0383 25.5712C49.1765 25.2347 49.2476 24.8741 49.2476 24.5098ZM31.0043 29.5212C31.0114 29.4999 31.0135 29.4771 31.0106 29.4549C31.0076 29.4326 30.9996 29.4115 30.9871 29.3934C30.9747 29.3752 30.9583 29.3606 30.9393 29.3507C30.9203 29.3407 30.8992 29.3358 30.8778 29.3363L4.20814 29.3746C3.92791 29.3745 3.65045 29.4306 3.39186 29.5395C3.13328 29.6485 2.8987 29.8081 2.70172 30.0091C2.50475 30.2102 2.3493 30.4487 2.24438 30.7107C2.13945 30.9728 2.08715 31.2533 2.09049 31.5359L2.10314 32.2309C2.12421 34.0246 3.02395 34.9236 4.80235 34.9279L30.7261 34.998C30.9115 34.998 30.9895 34.9066 30.96 34.7238C30.5997 32.5369 30.1635 31.9567 31.0043 29.5212ZM37.9008 32.1289C37.9008 31.3883 37.6091 30.678 37.0899 30.1542C36.5706 29.6305 35.8664 29.3363 35.1321 29.3363C34.7685 29.3363 34.4084 29.4085 34.0725 29.5489C33.7366 29.6892 33.4314 29.8949 33.1743 30.1542C32.9172 30.4136 32.7132 30.7214 32.5741 31.0602C32.4349 31.399 32.3633 31.7622 32.3633 32.1289C32.3633 32.4956 32.4349 32.8588 32.5741 33.1976C32.7132 33.5364 32.9172 33.8442 33.1743 34.1036C33.4314 34.3629 33.7366 34.5686 34.0725 34.7089C34.4084 34.8493 34.7685 34.9215 35.1321 34.9215C35.8664 34.9215 36.5706 34.6273 37.0899 34.1036C37.6091 33.5798 37.9008 32.8695 37.9008 32.1289ZM45.4422 32.1225C45.4422 31.3887 45.1531 30.6848 44.6386 30.1659C44.1241 29.647 43.4263 29.3554 42.6987 29.3554C41.9711 29.3554 41.2733 29.647 40.7588 30.1659C40.2443 30.6848 39.9553 31.3887 39.9553 32.1225C39.9553 32.8564 40.2443 33.5602 40.7588 34.0792C41.2733 34.5981 41.9711 34.8896 42.6987 34.8896C43.4263 34.8896 44.1241 34.5981 44.6386 34.0792C45.1531 33.5602 45.4422 32.8564 45.4422 32.1225ZM53.0214 32.1225C53.0214 31.3853 52.7311 30.6782 52.2142 30.1569C51.6973 29.6356 50.9963 29.3427 50.2653 29.3427C49.5344 29.3427 48.8334 29.6356 48.3165 30.1569C47.7996 30.6782 47.5092 31.3853 47.5092 32.1225C47.5092 32.8598 47.7996 33.5668 48.3165 34.0882C48.8334 34.6095 49.5344 34.9024 50.2653 34.9024C50.9963 34.9024 51.6973 34.6095 52.2142 34.0882C52.7311 33.5668 53.0214 32.8598 53.0214 32.1225Z"/>
</mask>
<path d="M4.20814 26.8816C2.93545 23.1327 4.14071 20.7269 7.82394 19.6643C8.05994 19.5962 8.12736 19.4496 8.02622 19.2243C6.57231 15.9217 8.20954 12.2556 12.0782 12.2365C21.9015 12.1855 31.7228 12.1068 41.5419 12.0006C45.9352 11.9559 48.7356 14.4999 46.9782 19.2817C46.9024 19.4857 46.9719 19.6175 47.1869 19.677C50.7352 20.6631 51.9595 22.9627 50.8595 26.5756C50.7753 26.8434 50.8617 27.0368 51.1187 27.1558C53.5124 28.2482 54.7998 29.7784 54.981 31.7464C55.2213 34.3477 53.1479 36.9872 50.4803 36.9872C35.6715 37.0043 20.8648 37.0043 6.06029 36.9872C2.98812 36.9872 0.295232 36.0181 0.0234148 32.6262C-0.195725 29.8379 1.12333 28.0633 3.98057 27.3024C4.20814 27.2429 4.284 27.1027 4.20814 26.8816ZM38.3812 14.7039C38.5372 14.3086 38.4065 14.111 37.9893 14.111L11.8064 14.0599C11.5154 14.0596 11.2274 14.1189 10.9598 14.2341C10.6923 14.3494 10.4507 14.5183 10.2497 14.7305C10.0488 14.9427 9.89262 15.1939 9.79075 15.4688C9.68889 15.7437 9.64343 16.0366 9.65712 16.3297L9.69505 17.0566C9.78355 18.863 10.7233 19.7641 12.5144 19.7599L38.2991 19.7025C38.573 19.7025 38.651 19.5771 38.533 19.3263C37.8165 17.7962 37.766 16.2553 38.3812 14.7039ZM45.4485 16.8844C45.4485 16.5227 45.3778 16.1646 45.2406 15.8304C45.1034 15.4962 44.9022 15.1926 44.6486 14.9368C44.3951 14.681 44.094 14.4782 43.7627 14.3397C43.4314 14.2013 43.0763 14.1301 42.7177 14.1301C42.3591 14.1301 42.0039 14.2013 41.6726 14.3397C41.3413 14.4782 41.0403 14.681 40.7867 14.9368C40.5331 15.1926 40.332 15.4962 40.1947 15.8304C40.0575 16.1646 39.9869 16.5227 39.9869 16.8844C39.9869 17.2461 40.0575 17.6043 40.1947 17.9384C40.332 18.2726 40.5331 18.5763 40.7867 18.832C41.0403 19.0878 41.3413 19.2907 41.6726 19.4291C42.0039 19.5675 42.3591 19.6387 42.7177 19.6387C43.0763 19.6387 43.4314 19.5675 43.7627 19.4291C44.094 19.2907 44.3951 19.0878 44.6486 18.832C44.9022 18.5763 45.1034 18.2726 45.2406 17.9384C45.3778 17.6043 45.4485 17.2461 45.4485 16.8844ZM34.7718 26.9326C33.95 25.3854 33.9226 23.8276 34.6896 22.2592C34.7165 22.2048 34.7292 22.1444 34.7265 22.0837C34.7237 22.023 34.7057 21.964 34.674 21.9123C34.6424 21.8605 34.5982 21.8178 34.5456 21.7882C34.493 21.7585 34.4338 21.7429 34.3735 21.7428H8.00094C7.71441 21.7426 7.43077 21.8005 7.1669 21.9128C6.90304 22.0252 6.66433 22.1897 6.46499 22.3967C6.26566 22.6037 6.10975 22.849 6.00656 23.1178C5.90337 23.3866 5.855 23.6735 5.86433 23.9615L5.88329 24.6437C5.93386 26.4375 6.84834 27.3322 8.62674 27.3279L34.5442 27.3152C34.8308 27.3152 34.9066 27.1877 34.7718 26.9326ZM41.6683 24.5035C41.6683 23.7713 41.38 23.0691 40.8666 22.5514C40.3533 22.0336 39.6571 21.7428 38.9312 21.7428C38.2053 21.7428 37.5091 22.0336 36.9957 22.5514C36.4824 23.0691 36.1941 23.7713 36.1941 24.5035C36.1941 24.866 36.2649 25.225 36.4024 25.5599C36.54 25.8949 36.7416 26.1992 36.9957 26.4556C37.2499 26.7119 37.5516 26.9153 37.8837 27.054C38.2158 27.1928 38.5718 27.2642 38.9312 27.2642C39.2906 27.2642 39.6466 27.1928 39.9787 27.054C40.3107 26.9153 40.6125 26.7119 40.8666 26.4556C41.1208 26.1992 41.3224 25.8949 41.46 25.5599C41.5975 25.225 41.6683 24.866 41.6683 24.5035ZM49.2476 24.5098C49.2476 24.1456 49.1765 23.785 49.0383 23.4485C48.9001 23.112 48.6975 22.8062 48.4422 22.5487C48.1869 22.2912 47.8837 22.0869 47.5501 21.9475C47.2165 21.8081 46.8589 21.7364 46.4978 21.7364C45.7685 21.7364 45.0691 22.0286 44.5534 22.5487C44.0378 23.0688 43.7481 23.7743 43.7481 24.5098C43.7481 25.2454 44.0378 25.9508 44.5534 26.471C45.0691 26.9911 45.7685 27.2833 46.4978 27.2833C46.8589 27.2833 47.2165 27.2116 47.5501 27.0722C47.8837 26.9328 48.1869 26.7285 48.4422 26.471C48.6975 26.2134 48.9001 25.9077 49.0383 25.5712C49.1765 25.2347 49.2476 24.8741 49.2476 24.5098ZM31.0043 29.5212C31.0114 29.4999 31.0135 29.4771 31.0106 29.4549C31.0076 29.4326 30.9996 29.4115 30.9871 29.3934C30.9747 29.3752 30.9583 29.3606 30.9393 29.3507C30.9203 29.3407 30.8992 29.3358 30.8778 29.3363L4.20814 29.3746C3.92791 29.3745 3.65045 29.4306 3.39186 29.5395C3.13328 29.6485 2.8987 29.8081 2.70172 30.0091C2.50475 30.2102 2.3493 30.4487 2.24438 30.7107C2.13945 30.9728 2.08715 31.2533 2.09049 31.5359L2.10314 32.2309C2.12421 34.0246 3.02395 34.9236 4.80235 34.9279L30.7261 34.998C30.9115 34.998 30.9895 34.9066 30.96 34.7238C30.5997 32.5369 30.1635 31.9567 31.0043 29.5212ZM37.9008 32.1289C37.9008 31.3883 37.6091 30.678 37.0899 30.1542C36.5706 29.6305 35.8664 29.3363 35.1321 29.3363C34.7685 29.3363 34.4084 29.4085 34.0725 29.5489C33.7366 29.6892 33.4314 29.8949 33.1743 30.1542C32.9172 30.4136 32.7132 30.7214 32.5741 31.0602C32.4349 31.399 32.3633 31.7622 32.3633 32.1289C32.3633 32.4956 32.4349 32.8588 32.5741 33.1976C32.7132 33.5364 32.9172 33.8442 33.1743 34.1036C33.4314 34.3629 33.7366 34.5686 34.0725 34.7089C34.4084 34.8493 34.7685 34.9215 35.1321 34.9215C35.8664 34.9215 36.5706 34.6273 37.0899 34.1036C37.6091 33.5798 37.9008 32.8695 37.9008 32.1289ZM45.4422 32.1225C45.4422 31.3887 45.1531 30.6848 44.6386 30.1659C44.1241 29.647 43.4263 29.3554 42.6987 29.3554C41.9711 29.3554 41.2733 29.647 40.7588 30.1659C40.2443 30.6848 39.9553 31.3887 39.9553 32.1225C39.9553 32.8564 40.2443 33.5602 40.7588 34.0792C41.2733 34.5981 41.9711 34.8896 42.6987 34.8896C43.4263 34.8896 44.1241 34.5981 44.6386 34.0792C45.1531 33.5602 45.4422 32.8564 45.4422 32.1225ZM53.0214 32.1225C53.0214 31.3853 52.7311 30.6782 52.2142 30.1569C51.6973 29.6356 50.9963 29.3427 50.2653 29.3427C49.5344 29.3427 48.8334 29.6356 48.3165 30.1569C47.7996 30.6782 47.5092 31.3853 47.5092 32.1225C47.5092 32.8598 47.7996 33.5668 48.3165 34.0882C48.8334 34.6095 49.5344 34.9024 50.2653 34.9024C50.9963 34.9024 51.6973 34.6095 52.2142 34.0882C52.7311 33.5668 53.0214 32.8598 53.0214 32.1225Z" fill="#1D231F" stroke="white" stroke-width="0.6" mask="url(#path-1-inside-1_245_12406)"/>
</g>
</g>
</svg>
