<svg width="90" height="80" viewBox="0 0 90 80" fill="none" xmlns="http://www.w3.org/2000/svg">
<g id="&#208;&#161;&#208;&#190;&#208;&#177;&#209;&#129;&#209;&#130;&#208;&#178;&#208;&#181;&#208;&#189;&#208;&#189;&#208;&#190;&#208;&#181; &#208;&#191;&#209;&#128;&#208;&#190;&#208;&#184;&#208;&#183;&#208;&#178;&#208;&#190;&#208;&#180;&#209;&#129;&#209;&#130;&#208;&#178;&#208;&#190;">
<g id="Vector">
<path d="M44.5663 12.5956C44.5474 12.5832 44.5257 12.5766 44.5037 12.5766C44.4816 12.5766 44.4599 12.5832 44.441 12.5956C34.0552 19.5779 23.5081 26.6857 12.7998 33.9189C11.0912 35.0704 9.35133 35.5264 7.64974 34.1355C5.24176 32.1632 5.53057 28.4693 8.11949 26.7288C19.3382 19.1738 30.6323 11.567 42.0017 3.90814C43.4702 2.92007 45.0744 2.61984 46.5498 3.60791C58.2904 11.4973 69.8292 19.265 81.1662 26.9112C83.9187 28.7695 83.4524 33.2995 80.5712 34.6334C79.2767 35.2338 77.9811 35.097 76.6843 34.2229C66.1059 27.1012 55.3999 19.8921 44.5663 12.5956ZM44.4271 9.47174C44.499 9.42107 44.5721 9.42107 44.6463 9.47174C55.8093 16.9836 66.9503 24.4854 78.0693 31.977C79.9796 33.2615 81.5768 30.358 79.6839 29.0849C68.1729 21.3375 56.7036 13.6166 45.2762 5.92228C45.0458 5.76807 44.7809 5.68645 44.5107 5.68645C44.2404 5.68645 43.9755 5.76807 43.7451 5.92228C32.3571 13.576 20.8716 21.3109 9.28868 29.1268C8.42571 29.7069 8.24939 30.4708 8.75975 31.4183C8.76903 31.4386 8.7795 31.4576 8.7911 31.4753C9.31074 32.433 10.0067 32.6167 10.8789 32.0264C22.2322 24.3549 33.4149 16.8367 44.4271 9.47174Z" fill="#1D231F"/>
<path d="M50.1349 23.9697C50.1349 25.3995 49.567 26.7708 48.5559 27.7819C47.5448 28.7929 46.1736 29.3609 44.7437 29.3609C43.3139 29.3609 41.9426 28.7929 40.9315 27.7819C39.9205 26.7708 39.3525 25.3995 39.3525 23.9697C39.3525 22.5398 39.9205 21.1685 40.9315 20.1575C41.9426 19.1464 43.3139 18.5784 44.7437 18.5784C46.1736 18.5784 47.5448 19.1464 48.5559 20.1575C49.567 21.1685 50.1349 22.5398 50.1349 23.9697ZM47.6529 23.9697C47.6529 23.1981 47.3464 22.4582 46.8008 21.9126C46.2552 21.367 45.5153 21.0605 44.7437 21.0605C43.9722 21.0605 43.2322 21.367 42.6866 21.9126C42.141 22.4582 41.8345 23.1981 41.8345 23.9697C41.8345 24.7412 42.141 25.4812 42.6866 26.0268C43.2322 26.5724 43.9722 26.8789 44.7437 26.8789C45.5153 26.8789 46.2552 26.5724 46.8008 26.0268C47.3464 25.4812 47.6529 24.7412 47.6529 23.9697Z" fill="#1D231F"/>
<path d="M75.831 40.735C75.831 42.5065 75.1273 44.2055 73.8746 45.4582C72.622 46.7108 70.923 47.4146 69.1515 47.4146H18.7398C16.9683 47.4146 15.2693 46.7108 14.0167 45.4582C12.764 44.2055 12.0602 42.5065 12.0602 40.735V40.4269C12.0602 39.5498 12.233 38.6812 12.5687 37.8708C12.9044 37.0604 13.3964 36.324 14.0167 35.7038C14.6369 35.0835 15.3733 34.5915 16.1837 34.2558C16.9941 33.9202 17.8626 33.7474 18.7398 33.7474H69.1515C70.0287 33.7474 70.8972 33.9202 71.7076 34.2558C72.518 34.5915 73.2544 35.0835 73.8746 35.7038C74.4949 36.324 74.9869 37.0604 75.3226 37.8708C75.6582 38.6812 75.831 39.5498 75.831 40.4269V40.735ZM63.9003 44.7189C61.9608 42.1528 62.0133 39.0301 63.8898 36.4185C63.9831 36.2901 63.9493 36.226 63.7882 36.226H24.0856C24.07 36.2256 24.0546 36.2297 24.0411 36.2376C24.0277 36.2455 24.0167 36.257 24.0094 36.2708C24.0021 36.2846 23.9988 36.3002 23.9999 36.3158C24.001 36.3314 24.0064 36.3463 24.0155 36.359C25.9713 39.1363 25.983 41.9335 24.0505 44.7504C23.9665 44.8718 23.9992 44.9325 24.1486 44.9325H63.7917C63.9714 44.9325 64.0076 44.8613 63.9003 44.7189ZM22.9933 40.581C22.9933 39.4631 22.5492 38.391 21.7588 37.6005C20.9683 36.8101 19.8962 36.366 18.7783 36.366C17.6604 36.366 16.5884 36.8101 15.7979 37.6005C15.0074 38.391 14.5633 39.4631 14.5633 40.581C14.5633 41.6989 15.0074 42.771 15.7979 43.5614C16.5884 44.3519 17.6604 44.7959 18.7783 44.7959C19.8962 44.7959 20.9683 44.3519 21.7588 43.5614C22.5492 42.771 22.9933 41.6989 22.9933 40.581ZM69.0783 44.8135C69.6158 44.8125 70.1478 44.7022 70.6439 44.4888C71.1401 44.2754 71.5907 43.9631 71.97 43.5698C72.3493 43.1764 72.65 42.7097 72.8547 42.1962C73.0595 41.6828 73.1644 41.1327 73.1634 40.5773C73.1624 40.022 73.0556 39.4722 72.8491 38.9595C72.6425 38.4468 72.3402 37.9811 71.9595 37.5891C71.5788 37.1971 71.1271 36.8863 70.6302 36.6747C70.1333 36.463 69.601 36.3546 69.0636 36.3555C68.5262 36.3564 67.9942 36.4668 67.498 36.6801C67.0019 36.8935 66.5513 37.2058 66.172 37.5992C65.7926 37.9926 65.492 38.4593 65.2872 38.9727C65.0825 39.4862 64.9775 40.0363 64.9785 40.5916C64.9795 41.147 65.0863 41.6967 65.2929 42.2094C65.4994 42.7222 65.8017 43.1878 66.1824 43.5799C66.5631 43.9719 67.0148 44.2826 67.5117 44.4943C68.0086 44.7059 68.5409 44.8144 69.0783 44.8135Z" fill="#1D231F"/>
<path d="M63.7811 51.0099H24.0084C23.9986 51.0099 23.9891 51.0126 23.9808 51.0177C23.9725 51.0229 23.9658 51.0302 23.9614 51.0389C23.9571 51.0477 23.9553 51.0574 23.9561 51.0671C23.957 51.0768 23.9605 51.0861 23.9664 51.0939C25.9712 53.8922 26.0004 56.7092 24.0539 59.5449C23.9676 59.6686 24.0002 59.7304 24.1519 59.7304L32.1548 59.7269C32.9693 59.7269 33.4384 60.1295 33.5621 60.9347C33.5855 61.0841 33.5586 61.2253 33.4816 61.3583C33.1385 61.9534 32.6227 62.2463 31.9342 62.237C28.06 62.1787 24.0236 62.1787 19.8249 62.237C18.406 62.258 17.274 62.118 16.4292 61.8169C13.429 60.7492 11.7451 57.6404 12.0987 54.4967C12.4663 51.2305 15.2354 48.5488 18.6242 48.5558C34.5318 48.5768 51.247 48.5733 68.7698 48.5453C70.9963 48.5418 72.8692 49.361 74.3151 51.0834C77.4168 54.7733 75.6804 60.2555 71.2064 61.8344C70.4362 62.1051 69.4828 62.237 68.3462 62.23C63.8535 62.1973 59.6548 62.1915 55.7503 62.2125C54.9427 62.2172 54.5005 61.8181 54.4234 61.0152C54.4094 60.8822 54.4281 60.7503 54.4795 60.6196C54.7082 60.0268 55.1399 59.7304 55.7747 59.7304L63.7881 59.7339C63.9818 59.7339 64.0204 59.6569 63.9037 59.5029C62.0062 57.0138 61.9607 53.723 63.9037 51.2585C64.032 51.0928 63.9911 51.0099 63.7811 51.0099ZM22.9932 55.3789C22.9932 54.261 22.5491 53.1889 21.7586 52.3985C20.9682 51.608 19.8961 51.1639 18.7782 51.1639C17.6603 51.1639 16.5882 51.608 15.7978 52.3985C15.0073 53.1889 14.5632 54.261 14.5632 55.3789C14.5632 56.4968 15.0073 57.5689 15.7978 58.3594C16.5882 59.1498 17.6603 59.5939 18.7782 59.5939C19.8961 59.5939 20.9682 59.1498 21.7586 58.3594C22.5491 57.5689 22.9932 56.4968 22.9932 55.3789ZM69.0856 59.6114C70.171 59.6076 71.2104 59.158 71.9751 58.3616C72.7398 57.5652 73.1672 56.4871 73.1632 55.3646C73.1593 54.2421 72.7244 53.1671 71.9542 52.376C71.1839 51.585 70.1414 51.1427 69.0561 51.1465C67.9707 51.1503 66.9313 51.5998 66.1666 52.3962C65.4019 53.1926 64.9745 54.2707 64.9784 55.3932C64.9824 56.5157 65.4173 57.5907 66.1875 58.3818C66.9578 59.1729 68.0002 59.6152 69.0856 59.6114Z" fill="#1D231F"/>
<path d="M33.6217 64.1346C33.6987 62.9268 33.5587 61.6665 33.7057 60.4377C34.8085 51.3496 45.8605 48.1183 51.7594 55.0745C53.2437 56.8249 53.9859 58.9884 53.9859 61.565C53.9859 65.8499 53.9941 70.1198 54.0104 74.3744C54.0104 74.4888 54.0676 74.546 54.182 74.546H63.7006C63.8337 74.546 63.8617 74.4911 63.7847 74.3814C61.8102 71.5434 61.8289 68.7124 63.8407 65.8885C63.8827 65.8278 63.8664 65.7974 63.7917 65.7974L55.5298 65.7939C54.8903 65.7939 54.4702 65.4905 54.2695 64.8837C54.2345 64.7694 54.2216 64.655 54.231 64.5406C54.301 63.7285 54.7444 63.3259 55.5613 63.3329C59.3585 63.3679 63.4148 63.3609 67.7301 63.3119C69.2471 63.2955 70.4234 63.4391 71.2589 63.7425C77.2488 65.9305 77.1263 74.2484 71.3359 76.5729C70.6334 76.8553 69.9414 76.9965 69.2599 76.9965C52.9298 76.9895 36.1143 76.9907 18.8133 77C16.2402 77.0035 13.8736 75.6137 12.7464 73.3802C11.4347 70.7849 11.6611 68.304 13.4255 65.9375C14.8853 63.977 16.9718 63.2909 19.5414 63.3154C24.0738 63.3597 28.3588 63.3655 32.3964 63.3329C32.9075 63.3294 33.2856 63.7074 33.4676 64.159C33.554 64.3738 33.6054 64.3656 33.6217 64.1346ZM36.4083 74.588L51.2798 74.56C51.3596 74.56 51.4362 74.5283 51.4927 74.4718C51.5491 74.4153 51.5808 74.3387 51.5808 74.2589L51.5599 61.6595C51.5561 59.5695 50.7421 57.5667 49.2971 56.0915C47.8521 54.6162 45.8944 53.7895 43.8546 53.7932H43.7635C42.7535 53.7949 41.7537 54.0006 40.8212 54.3983C39.8887 54.796 39.0419 55.378 38.329 56.111C37.6161 56.8441 37.0511 57.7139 36.6663 58.6707C36.2815 59.6275 36.0844 60.6526 36.0862 61.6875L36.1073 74.2869C36.1073 74.3668 36.139 74.4433 36.1954 74.4998C36.2519 74.5563 36.3285 74.588 36.4083 74.588ZM33.0091 65.6329C32.8798 65.7371 32.718 65.7939 32.5504 65.7939L23.9105 65.7974C23.8926 65.7974 23.8751 65.8025 23.8599 65.812C23.8448 65.8215 23.8328 65.8351 23.8251 65.8512C23.8174 65.8674 23.8144 65.8853 23.8165 65.9031C23.8186 65.9208 23.8257 65.9376 23.8369 65.9515C25.7729 68.3565 25.8814 71.9099 23.8614 74.3324C23.8452 74.3514 23.8348 74.3747 23.8316 74.3995C23.8283 74.4243 23.8323 74.4495 23.843 74.4721C23.8537 74.4947 23.8708 74.5136 23.892 74.5267C23.9133 74.5399 23.938 74.5465 23.9629 74.546H33.4502C33.5022 74.546 33.552 74.5257 33.5888 74.4896C33.6255 74.4535 33.6462 74.4045 33.6462 74.3534V65.0938C33.6462 64.8044 33.589 64.795 33.4747 65.0658C33.393 65.2595 33.2378 65.4485 33.0091 65.6329ZM18.6989 74.4059C19.8019 74.4001 20.8574 73.9486 21.6332 73.1508C22.409 72.353 22.8415 71.2742 22.8356 70.1517C22.8298 69.0292 22.386 67.9549 21.6019 67.1653C20.8178 66.3756 19.7576 65.9353 18.6546 65.941C17.5516 65.9468 16.4961 66.3983 15.7203 67.1961C14.9445 67.9939 14.512 69.0727 14.5178 70.1952C14.5237 71.3177 14.9675 72.392 15.7516 73.1816C16.5357 73.9713 17.5959 74.4116 18.6989 74.4059ZM69.0716 74.4017C69.6181 74.3912 70.1572 74.2714 70.658 74.0492C71.1588 73.827 71.6116 73.5068 71.9905 73.1067C72.3695 72.7067 72.6671 72.2347 72.8663 71.7177C73.0656 71.2007 73.1627 70.6488 73.1521 70.0935C73.1305 68.9721 72.6715 67.9051 71.8758 67.1271C71.0801 66.3492 70.013 65.924 68.9092 65.9452C68.3627 65.9557 67.8236 66.0755 67.3228 66.2977C66.8219 66.5199 66.3691 66.8401 65.9902 67.2402C65.6113 67.6402 65.3137 68.1122 65.1144 68.6292C64.9151 69.1462 64.818 69.6981 64.8287 70.2534C64.8502 71.3748 65.3093 72.4418 66.105 73.2197C66.9007 73.9977 67.9678 74.4229 69.0716 74.4017Z" fill="#1D231F"/>
</g>
</g>
</svg>
