<svg width="56" height="50" viewBox="0 0 56 50" fill="none" xmlns="http://www.w3.org/2000/svg">
<g id="technic">
<g id="Group 71">
<path id="Vector" d="M40.3763 13.3196L40.3757 13.8535L40.3601 14.087C40.3584 14.1101 40.3476 14.1158 40.3276 14.104L37.9519 12.6912C37.9202 12.6723 37.9042 12.6816 37.9038 12.7189C37.9013 17.1052 37.9007 21.4081 37.9019 25.6277C37.9023 26.0793 37.7339 26.3813 37.3967 26.5337C37.1456 26.6477 36.7746 26.6074 36.4805 26.6093L35.9446 26.6086C30.3758 26.6086 24.8131 26.6086 19.2563 26.6086C18.9341 26.6086 18.7045 26.5774 18.5675 26.5148C18.2639 26.3776 18.1122 26.1133 18.1122 25.7222C18.1143 21.338 18.1141 17.0046 18.1116 12.7221C18.1116 12.6851 18.0957 12.6761 18.0641 12.695L15.6983 14.1022C15.6784 14.1139 15.6648 14.1087 15.6577 14.0864C15.6386 14.023 15.6328 13.9406 15.6403 13.839L15.639 13.3189L15.6371 12.7712L15.624 12.2127C19.5295 9.8966 23.4353 7.5807 27.3416 5.26501C27.4719 5.18778 27.5981 5.12062 27.7201 5.06354C28.0223 4.92251 28.2996 5.03836 28.5644 5.19576C32.499 7.53117 36.4136 9.85169 40.3082 12.1573C40.3286 12.1694 40.3455 12.1866 40.3572 12.2072C40.3689 12.2279 40.3751 12.2512 40.3751 12.275L40.3763 13.3196ZM20.9963 10.9579L20.5878 11.2016L19.7891 11.6719C19.7724 11.682 19.7641 11.6969 19.7641 11.7166V24.9351C19.7641 24.9393 19.7657 24.9433 19.7687 24.9463C19.7716 24.9492 19.7756 24.9509 19.7797 24.9509H36.2231C36.2303 24.9509 36.2371 24.948 36.2421 24.943C36.2472 24.9379 36.25 24.931 36.25 24.9238L36.2506 22.7038V22.1661V13.8503L36.2494 13.3189V12.7762L36.2488 12.2234L36.2438 11.7128C36.2433 11.691 36.2338 11.6744 36.215 11.6631L28.0492 6.82077C28.0378 6.81408 28.0248 6.81056 28.0116 6.81056C27.9983 6.81056 27.9852 6.81408 27.9736 6.82077L20.9963 10.9579Z" fill="#1D231F"/>
<path id="Vector_2" d="M13.9654 26.5289L13.9666 27.0672L13.9673 27.6484L13.9698 28.6346C13.9698 28.6915 13.9875 28.6975 14.0231 28.6527C14.1743 28.4616 14.3482 28.292 14.5446 28.1437C14.8952 27.8683 15.2791 27.6879 15.6962 27.6023L16.1331 27.5805C16.8402 27.6247 17.4263 27.9967 17.9171 28.4838C19.4755 30.0313 21.0327 31.5801 22.5885 33.13C23.006 33.5454 23.294 33.8463 23.4523 34.0327C24.5193 35.2883 25.1708 36.7527 25.4069 38.426C25.5711 39.5929 25.5668 40.7111 25.5542 41.868C25.5517 42.1118 25.5392 42.2991 25.5166 42.4299L25.4458 42.5975C25.3672 42.7096 25.269 42.8081 25.1511 42.8928C25.0914 42.9094 25.0425 42.9335 25.0045 42.9651C24.8377 43.0066 24.6678 43.0112 24.4948 42.9788L24.2936 42.8903C24.0391 42.713 23.9081 42.4916 23.9006 42.2262C23.8943 42.0119 23.8928 41.5276 23.8962 40.7734L23.8905 40.2769C23.8901 39.46 23.8193 38.7028 23.678 38.0055C23.4154 36.7066 22.7672 35.6369 21.7786 34.6532C20.1024 32.9845 18.4218 31.3124 16.7368 29.637C16.4697 29.3716 16.1362 29.0825 15.7457 29.3143C15.4903 29.4659 15.2785 29.6741 15.11 29.9391C14.8518 30.3453 15.1502 30.673 15.426 30.944C17.0119 32.501 18.5998 34.0782 20.1895 35.6755C20.3751 35.862 20.4933 36.0213 20.5443 36.1534C20.7305 36.6356 20.4196 37.1215 19.9319 37.2286C19.6481 37.2909 19.3842 37.1998 19.1402 36.9551C17.5065 35.3192 15.864 33.6915 14.2124 32.0722C13.7556 31.6245 13.4718 31.0858 13.3611 30.4562C13.3586 30.4429 13.3479 30.4199 13.3291 30.387C13.3174 30.3663 13.302 30.3465 13.2827 30.3279C13.0575 30.1015 12.8322 29.8754 12.607 29.6494C12.4076 29.4492 12.3092 29.2183 12.3117 28.9567C12.3151 28.6705 12.3161 28.3929 12.3149 28.1237L12.3142 27.6783L12.3149 27.0142L12.3155 26.5719V22.6621L12.3142 22.1817L12.3149 21.5687L12.3155 21.1495C12.3146 20.5302 12.3111 19.9085 12.3048 19.2842C12.3006 18.8598 12.1055 18.5591 11.7193 18.3822C11.2423 18.1635 10.6568 18.7323 10.6568 19.1864C10.6551 22.8978 10.6553 26.5347 10.6574 30.0974C10.6578 30.6381 10.7032 31.1664 10.7935 31.6822C10.8956 32.2647 11.157 32.7376 11.5795 33.1867C11.898 33.5238 12.2039 33.8708 12.5035 34.2265C14.5939 36.7105 16.6837 39.1948 18.7728 41.6792C18.9099 41.8424 18.9617 42.0455 18.9283 42.2885C18.8936 42.5402 18.7592 42.7395 18.5252 42.8866L18.403 42.9495C17.8206 43.1121 17.5768 42.8224 17.2445 42.428C15.2072 40.0084 13.1718 37.5873 11.1382 35.1647C10.806 34.7691 10.4148 34.376 10.065 33.9679C9.19119 32.9481 9.0257 31.5389 9.00815 30.2475L9.00501 29.8438L9.00564 29.2345L9.00313 28.7692L9.00815 28.1748L9 27.5886L9.00627 27.0883L9.00376 26.5146L9.00627 25.995L9.00439 25.4667L9.00815 24.8537L9.00439 24.3373L9.0069 23.756L9.00313 23.2857L9.00815 22.7144L9.00188 22.1194L9.00564 21.5992L9.00313 21.0915L9.00627 20.519L9.00564 19.9714C9.00251 19.5378 8.98119 19.0674 9.06018 18.6694C9.20185 17.956 9.79988 17.2658 10.4361 16.9456C11.1842 16.5693 11.9243 16.5913 12.6565 17.0116C13.2457 17.3499 13.7472 17.9691 13.9077 18.6494C13.9466 18.8135 13.966 19.0726 13.966 19.4269C13.9639 21.7947 13.9637 24.162 13.9654 26.5289Z" fill="#1D231F"/>
<path id="Vector_3" d="M46.9881 18.9117L46.9994 19.3673L47.0001 20.0054L46.9982 20.5157V22.1614L46.9963 22.7061C46.9984 25.2772 46.9938 27.8472 46.9825 30.4162C46.9792 31.1723 46.8907 31.8584 46.7172 32.4745C46.5546 33.0523 46.2732 33.5737 45.8731 34.0385C45.5646 34.3969 45.2265 34.7358 44.9299 35.0892C42.8106 37.6112 40.7269 40.0897 38.6787 42.5245C38.5002 42.7368 38.3618 42.8662 38.2636 42.9127C37.8045 43.1308 37.2765 42.9009 37.1122 42.4261C36.9805 42.0459 37.1517 41.7686 37.3937 41.4814C39.4127 39.0906 41.3921 36.7365 43.332 34.4193C43.771 33.8946 44.1604 33.4526 44.5003 33.0932C44.8653 32.7073 45.0974 32.2528 45.1964 31.7298C45.2671 31.3576 45.3116 30.982 45.33 30.6032C45.3547 30.0922 45.3593 29.2711 45.3438 28.1399L45.3457 27.6862L45.3463 27.0276V26.5826L45.347 22.6325L45.3457 22.1895L45.3463 21.5034V21.0828C45.348 20.5344 45.3482 19.9858 45.347 19.4371C45.3461 19.1728 45.316 18.978 45.2566 18.8525C45.1588 18.6444 44.9968 18.488 44.7706 18.3833C44.3479 18.1877 43.8763 18.5609 43.7403 18.941C43.706 19.0366 43.6886 19.1797 43.6882 19.3704C43.6857 22.128 43.6857 24.8871 43.6882 27.6476L43.6888 28.1978C43.6884 28.4973 43.6874 28.7904 43.6857 29.0771C43.6849 29.2599 43.5981 29.4383 43.4254 29.6124C43.1834 29.8566 42.9365 30.1042 42.6848 30.3551C42.6547 30.3851 42.6365 30.422 42.6302 30.4661C42.5721 30.8665 42.4312 31.2313 42.2076 31.5603C42.083 31.7439 41.8332 32.02 41.4581 32.3885C39.9689 33.8524 38.4874 35.3245 37.0137 36.8047C36.798 37.0215 36.6334 37.1503 36.5201 37.191C35.6742 37.4976 35.0238 36.4725 35.6616 35.8276C37.0844 34.3894 38.731 32.7534 40.6015 30.9197C40.762 30.7623 40.878 30.604 40.9495 30.4449C41.1458 30.0068 40.5758 29.4977 40.2365 29.2977C39.9693 29.1394 39.679 29.2541 39.4695 29.4497C39.2851 29.6221 39.1043 29.7962 38.9271 29.9719C37.3918 31.4945 35.8579 33.0185 34.3252 34.5439C34.206 34.6623 34.0792 34.7921 33.9445 34.9334C33.054 35.8693 32.4982 36.9677 32.277 38.2286C32.1825 38.7661 32.1298 39.2757 32.119 39.7571C32.0964 40.7562 32.0912 41.5275 32.1033 42.0709C32.1183 42.7395 31.5985 43.1526 30.9475 42.947C30.9157 42.92 30.875 42.898 30.8252 42.8809C30.5731 42.694 30.4456 42.4441 30.4427 42.1313C30.4376 41.5399 30.4427 40.9486 30.4427 40.3572C30.4433 38.37 30.8497 36.4289 31.9835 34.762C32.642 33.8223 33.4472 33.0895 34.2355 32.3056C35.5412 31.0103 36.845 29.7141 38.1469 28.4172C38.6047 27.9617 39.198 27.627 39.859 27.5747L40.3055 27.5971C40.6943 27.6723 41.0562 27.8354 41.391 28.0863C41.6206 28.2549 41.8212 28.4465 41.9931 28.6608C42.0148 28.6878 42.0259 28.6841 42.0263 28.6496L42.0351 27.6314V27.0693V26.5085L42.0364 25.9919L42.0345 25.4504L42.0382 24.8628L42.0338 24.315L42.0364 23.7835L42.0332 23.2787L42.0382 22.6624L42.0295 22.1384L42.037 21.5657L42.0326 21.036L42.0364 20.4821L42.0357 19.9667C42.0326 19.538 42.0056 19.0326 42.0909 18.6575C42.1632 18.3409 42.3004 18.0462 42.5023 17.7733C43.5678 16.3301 45.4065 16.3164 46.4933 17.7203C46.7672 18.0742 46.9321 18.4714 46.9881 18.9117Z" fill="#1D231F"/>
<path id="Vector_4" d="M29.9011 16.1125C30.4269 15.5868 30.7223 14.8737 30.7223 14.1301C30.7223 13.3865 30.4269 12.6734 29.9011 12.1476C29.3753 11.6218 28.6622 11.3265 27.9187 11.3265C27.1751 11.3265 26.462 11.6218 25.9362 12.1476C25.4104 12.6734 25.115 13.3865 25.115 14.1301C25.115 14.8737 25.4104 15.5868 25.9362 16.1125C26.462 16.6383 27.1751 16.9337 27.9187 16.9337C28.6622 16.9337 29.3753 16.6383 29.9011 16.1125ZM28.934 13.1148C29.2033 13.384 29.3545 13.7493 29.3545 14.1301C29.3545 14.5109 29.2033 14.8761 28.934 15.1454C28.6647 15.4147 28.2995 15.566 27.9187 15.566C27.5378 15.566 27.1726 15.4147 26.9033 15.1454C26.6341 14.8761 26.4828 14.5109 26.4828 14.1301C26.4828 13.7493 26.6341 13.384 26.9033 13.1148C27.1726 12.8455 27.5378 12.6942 27.9187 12.6942C28.2995 12.6942 28.6647 12.8455 28.934 13.1148Z" fill="#1D231F" stroke="#1D231F" stroke-width="0.1"/>
</g>
</g>
</svg>
