<svg width="56" height="50" viewBox="0 0 56 50" fill="none" xmlns="http://www.w3.org/2000/svg">
<g id="technic">
<g id="Group 49">
<path id="Vector" d="M14.7083 12.1586L41.2311 12.1619C41.2821 12.1616 41.3312 12.1431 41.3697 12.1096C41.4081 12.0761 41.4333 12.03 41.4405 11.9795C41.641 10.6149 42.2388 9.56775 43.2342 8.83814C45.5108 7.17286 48.8583 8.16933 49.7601 10.8615C49.9178 11.3299 49.9966 12.1484 49.9966 13.3171C49.9898 20.9826 49.991 28.648 50 36.3135C50.0022 38.0632 49.839 39.2736 49.5102 39.9446C48.5982 41.8092 46.9701 42.228 44.869 42.2314C33.6636 42.2584 22.4582 42.2584 11.2528 42.2314C7.73987 42.2247 6.02055 40.8668 6.01379 37.293C5.99803 29.4024 5.99578 21.5118 6.00704 13.6212C6.01041 11.0844 6.3178 9.23672 8.71944 8.29768C11.3947 7.25056 14.2118 9.08134 14.5158 11.9829C14.5271 12.1 14.5912 12.1586 14.7083 12.1586ZM7.82769 33.7463C9.35109 32.7667 11.0974 32.7769 12.6242 33.6956C12.651 33.7112 12.6815 33.7195 12.7125 33.7198C12.7435 33.7201 12.7739 33.7123 12.8007 33.6972C12.8275 33.6821 12.8496 33.6602 12.8649 33.6338C12.8802 33.6075 12.8881 33.5775 12.8877 33.547C12.8652 26.5369 12.8663 19.493 12.8911 12.4153C12.9046 8.77396 7.62502 8.74694 7.6284 12.4119C7.63515 19.4761 7.63403 26.5504 7.62502 33.6348C7.62494 33.6585 7.63123 33.6818 7.64324 33.7021C7.65525 33.7225 7.67253 33.7393 7.69327 33.7507C7.71401 33.7621 7.73743 33.7677 7.76109 33.767C7.78474 33.7662 7.80775 33.759 7.82769 33.7463ZM48.3583 12.4963C48.3752 8.72329 43.0788 8.76045 43.0923 12.4963C43.1171 19.5493 43.1216 26.592 43.1058 33.6247C43.1054 33.6493 43.1118 33.6735 43.1241 33.6947C43.1365 33.7159 43.1544 33.7334 43.1759 33.7452C43.1975 33.757 43.2218 33.7627 43.2464 33.7617C43.2709 33.7607 43.2947 33.7531 43.3152 33.7395C44.8668 32.7757 46.4364 32.751 48.0239 33.6652C48.2379 33.7891 48.3448 33.7272 48.3448 33.4795C48.3223 26.5481 48.3268 19.5538 48.3583 12.4963ZM14.1679 37.9956C13.8504 38.1375 13.5329 38.1409 13.2153 38.0058C13.1658 37.9835 13.1221 37.9504 13.0876 37.9088C13.053 37.8672 13.0285 37.8183 13.016 37.7659C12.8674 37.1545 12.8269 36.4857 12.5161 35.9757C11.9351 35.013 10.9285 34.5266 9.79021 34.7597C7.22306 35.2866 6.78394 39.2116 9.03358 40.2925C9.47945 40.5087 10.2969 40.6168 11.4859 40.6168C22.635 40.6191 33.7819 40.6179 44.9265 40.6134C45.9331 40.6134 46.6514 40.4885 47.0815 40.2385C49.6385 38.7624 48.2063 33.6551 44.8927 34.8238C43.5145 35.3102 43.3085 36.3067 43.0079 37.6207C42.9707 37.7863 42.8703 37.931 42.7279 38.0243C42.5855 38.1175 42.4122 38.1521 42.2445 38.1206C41.7108 38.0215 41.4439 37.7276 41.4439 37.239C41.4529 29.5375 41.4586 21.7888 41.4608 13.9927C41.4608 13.9318 41.4366 13.8734 41.3935 13.8303C41.3505 13.7872 41.292 13.763 41.2311 13.763L14.7117 13.7664C14.6678 13.7664 14.6257 13.7838 14.5947 13.8149C14.5636 13.8459 14.5462 13.888 14.5462 13.9319L14.5428 37.4146C14.5427 37.5376 14.5073 37.6578 14.4408 37.7609C14.3743 37.864 14.2795 37.9455 14.1679 37.9956Z" fill="#1D231F"/>
<path id="Vector_2" d="M31.6549 19.512C31.6718 18.9074 31.9353 18.6743 32.5466 18.6608C33.4947 18.6428 34.472 18.6451 35.4786 18.6676C35.9267 18.6766 36.1508 18.9052 36.1508 19.3533V23.4303C36.1508 23.4735 36.1605 23.5162 36.1792 23.5554C36.1979 23.5945 36.2251 23.6291 36.2589 23.6567L38.2383 25.2983C38.4108 25.4418 38.5256 25.6426 38.5616 25.8637C38.5976 26.0847 38.5524 26.311 38.4342 26.5008C37.8645 27.4083 37.2801 28.273 36.6811 29.095C36.501 29.3427 36.2487 29.462 35.9245 29.453C35.8893 29.4521 35.8543 29.4583 35.8216 29.4711C35.7888 29.4839 35.759 29.5032 35.7338 29.5278C35.7086 29.5523 35.6886 29.5817 35.6749 29.6141C35.6613 29.6465 35.6542 29.6813 35.6542 29.7165L35.661 35.0906C35.661 35.2608 35.593 35.4241 35.472 35.5444C35.351 35.6648 35.1869 35.7324 35.0158 35.7324H21.0856C20.5992 35.7324 20.356 35.4881 20.356 34.9994V29.6658C20.356 29.5757 20.3121 29.5206 20.2243 29.5003L19.5183 29.3415C19.4627 29.3298 19.4101 29.3069 19.3637 29.2744C19.3172 29.2419 19.2779 29.2004 19.2481 29.1524L17.468 26.2914C17.3857 26.1594 17.354 26.002 17.3789 25.8481C17.4037 25.6942 17.4833 25.5541 17.6031 25.4537L27.4495 17.2185C27.6047 17.0882 27.8008 17.0167 28.0034 17.0167C28.2061 17.0167 28.4022 17.0882 28.5574 17.2185L31.4117 19.6235C31.5693 19.7564 31.6504 19.7192 31.6549 19.512ZM33.1884 21.9576C33.1613 22.0705 33.1057 22.1745 33.0269 22.2598C32.9481 22.345 32.8488 22.4088 32.7382 22.445C32.6276 22.4812 32.5095 22.4886 32.395 22.4665C32.2805 22.4445 32.1734 22.3937 32.0839 22.319L28.1723 19.0391C28.1244 18.9993 28.0641 18.9775 28.0018 18.9775C27.9394 18.9775 27.8791 18.9993 27.8312 19.0391L19.542 25.957C19.4737 26.0134 19.4282 26.0926 19.4139 26.1796C19.3996 26.2666 19.4175 26.3556 19.4643 26.4299L19.873 27.0885C20.0036 27.298 20.1635 27.3239 20.3526 27.1662L27.3752 21.3766C27.7918 21.0321 28.2095 21.0321 28.6283 21.3766L35.6576 27.1797C35.8535 27.3396 36.0157 27.3115 36.144 27.0953L36.5291 26.4501C36.5814 26.3636 36.6003 26.2611 36.5822 26.1621C36.5642 26.0631 36.5104 25.9744 36.4312 25.913C35.9853 25.5663 35.5034 25.1722 34.9854 24.7308C34.2254 24.089 34.5159 21.6367 34.5193 20.6234C34.5215 20.3576 34.3909 20.2304 34.1275 20.2417L33.6444 20.2585C33.5938 20.2601 33.544 20.2722 33.4981 20.294C33.4523 20.3159 33.4113 20.3471 33.3778 20.3857C33.3443 20.4243 33.3189 20.4695 33.3031 20.5185C33.2874 20.5675 33.2817 20.6193 33.2864 20.6706C33.3269 21.0985 33.2943 21.5275 33.1884 21.9576ZM34.0498 28.112C34.0498 28.0791 34.0426 28.0466 34.0286 28.0168C34.0145 27.987 33.9941 27.9607 33.9687 27.9397L28.1453 23.1432C28.1054 23.1103 28.0552 23.0923 28.0034 23.0923C27.9517 23.0923 27.9015 23.1103 27.8616 23.1432L22.0483 27.9262C22.0229 27.9472 22.0025 27.9735 21.9885 28.0033C21.9745 28.0331 21.9672 28.0656 21.9673 28.0985V33.8949C21.9673 33.954 21.9907 34.0107 22.0326 34.0525C22.0744 34.0943 22.1311 34.1178 22.1902 34.1178L33.8167 34.1144C33.8758 34.1144 33.9325 34.0909 33.9743 34.0491C34.0162 34.0073 34.0396 33.9506 34.0396 33.8915L34.0498 28.112Z" fill="#1D231F"/>
</g>
</g>
</svg>
