<svg width="56" height="50" viewBox="0 0 56 50" fill="none" xmlns="http://www.w3.org/2000/svg">
<g id="technic">
<g id="Group 50">
<path id="Vector" d="M25.8741 13.9362C26.2126 16.7256 24.2796 19.3595 21.4283 19.6372C19.606 19.8147 17.8579 18.9335 16.8553 17.4158C16.1567 16.3583 15.8771 15.1942 16.0166 13.9234C16.0174 13.9173 16.0164 13.911 16.0137 13.9054C16.0111 13.8998 16.007 13.895 16.0017 13.8916C15.9591 13.8636 15.9155 13.8378 15.8709 13.8145C14.3874 13.0426 14.5323 10.9837 15.9935 10.2878C16.0018 10.2839 16.009 10.278 16.0145 10.2707C16.02 10.2633 16.0237 10.2548 16.0253 10.2457C16.2234 9.08299 16.5883 7.97308 17.4299 7.08564C17.9835 6.50173 18.638 6.0814 19.3934 5.82466C19.4184 5.81606 19.4403 5.80025 19.4561 5.77926C20.1739 4.8167 21.5286 4.7358 22.3644 5.59269C22.4329 5.66327 22.513 5.8032 22.6232 5.84324C24.1579 6.40005 25.2773 7.6664 25.7016 9.22745C25.7941 9.56812 25.8708 9.90864 25.9319 10.249C25.9337 10.2592 25.938 10.2688 25.9443 10.2769C25.9506 10.2851 25.9588 10.2915 25.9682 10.2957C27.5194 11.004 27.4752 13.2486 25.8927 13.9044C25.8784 13.9105 25.8722 13.9211 25.8741 13.9362ZM20.4695 10.1128H21.4642C21.4722 10.1128 21.4799 10.1096 21.4855 10.104C21.4912 10.0983 21.4943 10.0907 21.4943 10.0827V6.82272C21.4943 6.75252 21.481 6.68301 21.455 6.61816C21.429 6.55331 21.391 6.49438 21.343 6.44475C21.295 6.39511 21.238 6.35574 21.1753 6.32888C21.1126 6.30202 21.0454 6.28819 20.9776 6.28819H20.9561C20.819 6.28819 20.6876 6.34451 20.5907 6.44475C20.4938 6.54499 20.4393 6.68095 20.4393 6.82272V10.0827C20.4393 10.0907 20.4425 10.0983 20.4481 10.104C20.4538 10.1096 20.4615 10.1128 20.4695 10.1128ZM19.0917 7.3915C18.1085 8.01889 17.6074 8.97237 17.4121 10.0992C17.4099 10.111 17.4149 10.1169 17.427 10.1169H19.0863C19.1009 10.1169 19.1082 10.1097 19.1082 10.0951V7.40058C19.1082 7.39865 19.1077 7.39676 19.1067 7.3951C19.1057 7.39343 19.1043 7.39207 19.1026 7.39114C19.1009 7.39021 19.099 7.38975 19.0971 7.38982C19.0952 7.38988 19.0933 7.39046 19.0917 7.3915ZM24.5504 10.1108C24.3556 8.98599 23.8714 8.04655 22.8965 7.40347C22.8948 7.40241 22.8929 7.40179 22.891 7.40169C22.889 7.40159 22.8871 7.40201 22.8854 7.40291C22.8837 7.4038 22.8823 7.40513 22.8813 7.40676C22.8804 7.40839 22.8799 7.41025 22.88 7.41214V10.1017C22.88 10.1057 22.8815 10.1096 22.8843 10.1125C22.8871 10.1153 22.8909 10.1169 22.8948 10.1169H24.545C24.5492 10.1169 24.551 10.1149 24.5504 10.1108ZM25.7734 11.9839C25.7272 11.7234 25.5212 11.4782 25.2368 11.4791C22.4303 11.4865 19.6236 11.4861 16.8165 11.4778C16.6916 11.4775 16.5925 11.4945 16.5193 11.5286C15.9043 11.8163 16.0983 12.726 16.7753 12.726C19.535 12.726 22.2947 12.7259 25.0544 12.7256C25.2068 12.7256 25.3194 12.7105 25.392 12.6802C25.669 12.5646 25.8262 12.2819 25.7734 11.9839ZM19.4149 17.9507C20.76 18.6033 22.3892 18.3333 23.4537 17.2886C24.2916 16.4664 24.6818 15.4476 24.6243 14.2322C24.6218 14.1782 24.6138 14.1228 24.6004 14.0658C24.5973 14.0532 24.5892 14.0468 24.576 14.0468H17.3531C17.3391 14.0468 17.3308 14.0536 17.3284 14.0671C17.3179 14.1229 17.3107 14.1884 17.3069 14.2635C17.2227 15.8134 18.0139 17.2709 19.4149 17.9507Z" fill="#1D231F"/>
<path id="Vector_2" d="M11.3087 24.5272C11.5827 24.2849 11.8973 24.36 12.1833 24.3484C12.207 24.3476 12.2297 24.335 12.2514 24.3105C13.2557 23.1816 14.4423 22.2331 15.757 21.493C18.3863 20.0116 21.515 19.7061 24.3775 20.7116C26.4714 21.4467 28.1897 22.6916 29.6806 24.3162C29.6901 24.3267 29.7017 24.335 29.7146 24.3407C29.7276 24.3463 29.7416 24.3493 29.7557 24.3493C30.0546 24.3493 30.3992 24.2989 30.6444 24.4917C30.6459 24.4928 30.6476 24.4937 30.6494 24.4941C30.6513 24.4945 30.6532 24.4945 30.655 24.494C30.6568 24.4936 30.6585 24.4927 30.66 24.4916C30.6614 24.4904 30.6626 24.4888 30.6634 24.4871C31.4728 22.8472 33.317 22.0477 35.0704 22.1167C36.572 22.1757 38.0972 22.9789 38.6602 24.4265C38.7298 24.6053 38.7975 24.8714 38.8633 25.2247C39.8049 30.2802 40.7477 35.3354 41.6915 40.3903C41.7105 40.4919 41.7441 40.6061 41.7922 40.7329C42.1029 41.5521 42.0652 42.3615 41.6791 43.1612C40.8924 44.7904 38.9772 45.6543 37.2325 45.5808C35.7486 45.5181 34.2821 44.7619 33.6551 43.3676C33.5771 43.1938 33.5164 42.9643 33.4516 42.7612C33.3546 42.4566 33.3306 42.0905 33.2815 41.7747C33.2806 41.7684 33.2774 41.7625 33.2725 41.7582C33.2676 41.754 33.2612 41.7517 33.2547 41.7516H8.63441C8.6298 41.7517 8.62535 41.7533 8.62187 41.7562C8.61839 41.7592 8.61611 41.7633 8.61542 41.7677C8.56836 42.069 8.58859 42.4104 8.54112 42.668C8.17872 44.65 6.11038 45.6667 4.26906 45.5705C2.74267 45.4908 1.23651 44.7553 0.450207 43.4179C-0.00327822 42.6466 -0.114173 41.8247 0.117523 40.9521C0.142564 40.8583 0.163889 40.7639 0.1815 40.669C1.14158 35.5386 2.10014 30.408 3.0572 25.2772C3.12709 24.9013 3.19121 24.6342 3.24954 24.476C3.5166 23.7512 4.06268 23.1597 4.72351 22.7659C6.88719 21.4777 10.1546 22.1608 11.2802 24.5214C11.2871 24.536 11.2966 24.5379 11.3087 24.5272ZM14.0923 24.3394L27.8034 24.339C27.805 24.339 27.8065 24.3385 27.8078 24.3376C27.8091 24.3367 27.8102 24.3355 27.8107 24.334C27.8113 24.3325 27.8114 24.3309 27.8111 24.3293C27.8107 24.3278 27.8099 24.3264 27.8087 24.3253C26.8099 23.4082 25.6649 22.6215 24.4068 22.1022C21.3775 20.852 18.0606 21.3502 15.4251 23.2616C14.9626 23.5971 14.5171 23.9529 14.0886 24.329C14.0877 24.3298 14.087 24.3308 14.0866 24.332C14.0863 24.3332 14.0863 24.3344 14.0867 24.3355C14.0872 24.3367 14.0879 24.3377 14.0889 24.3384C14.0899 24.339 14.0911 24.3394 14.0923 24.3394ZM1.9638 38.8759C2.82894 38.4665 3.73866 38.3256 4.69296 38.4533C5.48133 38.5589 6.20229 38.8241 6.85582 39.2487C7.09853 39.4066 7.3305 39.5992 7.55174 39.8265C7.56192 39.837 7.56811 39.835 7.57031 39.8207C7.62397 39.4521 7.6702 39.0811 7.74161 38.7195C8.55337 34.6081 9.36513 30.4968 10.1769 26.3854C10.2253 26.1397 10.2471 25.9475 10.2421 25.8088C10.2074 24.8541 9.44837 24.1326 8.62326 23.7607C7.83517 23.4057 7.02162 23.3282 6.18261 23.5283C5.48753 23.6942 4.81101 24.1144 4.50186 24.7785C4.43389 24.9247 4.36908 25.1636 4.30745 25.4955C3.47807 29.9671 2.64843 34.4385 1.81851 38.9098C1.81603 38.9233 1.82126 38.9281 1.83419 38.9242C1.88042 38.911 1.92362 38.8949 1.9638 38.8759ZM34.3369 39.8711C34.3389 39.8857 34.3451 39.8877 34.3555 39.8773C35.8373 38.3587 38.1508 38.0174 40.0549 38.8879C40.0687 38.894 40.0742 38.8897 40.0714 38.8751C39.2404 34.409 38.4101 29.9427 37.5804 25.4761C37.5185 25.144 37.4536 24.9048 37.3856 24.7587C37.1066 24.1577 36.4808 23.7347 35.8551 23.5626C34.6354 23.227 33.1635 23.5027 32.2876 24.4615C32.0424 24.7298 31.8795 24.9867 31.7989 25.2322C31.7217 25.467 31.6507 25.777 31.704 26.0226C31.732 26.1514 31.7258 26.2641 31.7481 26.3776C32.2498 28.9634 33.0457 33.0324 34.1359 38.5845C34.2181 39.0026 34.273 39.4365 34.3369 39.8711ZM12.0364 25.72C11.8791 25.9442 11.7227 26.1695 11.5737 26.4003C11.5382 26.4548 11.5588 26.5344 11.5468 26.5959C10.6586 31.202 9.77004 35.8093 8.88124 40.4176C8.88087 40.4192 8.88088 40.4209 8.88126 40.4225C8.88165 40.4241 8.88241 40.4256 8.88347 40.4269C8.88454 40.4282 8.88589 40.4293 8.88743 40.43C8.88897 40.4308 8.89066 40.4312 8.89238 40.4312H33.0376C33.0464 40.4312 33.05 40.4269 33.0483 40.4184C32.1584 35.8035 31.2695 31.1938 30.3815 26.5893C30.3773 26.5684 30.3753 26.5215 30.3753 26.4486C30.3753 26.4343 30.3713 26.4213 30.3633 26.4098L29.8886 25.7139C29.8864 25.7105 29.8833 25.7078 29.8797 25.706C29.8761 25.7041 29.8721 25.7031 29.868 25.7031H12.0686C12.0548 25.7031 12.0441 25.7088 12.0364 25.72ZM2.62462 40.0366C2.02117 40.3181 1.55805 40.7552 1.3913 41.3975C1.1292 42.4092 1.82676 43.3102 2.65847 43.7684C2.67636 43.7783 2.68104 43.774 2.6725 43.7556C2.32826 43.0068 2.31505 42.0979 2.81037 41.4185C3.27844 40.7763 4.21169 40.6095 4.83041 41.1032C5.23368 41.4247 5.44088 42.0653 4.96869 42.4323C4.80854 42.5569 4.52249 42.6411 4.33758 42.5268C4.02016 42.3307 4.18444 41.9217 4.50516 41.9233C4.51589 41.9234 4.52646 41.9208 4.5359 41.9157C4.54534 41.9106 4.55334 41.9032 4.55918 41.8942C4.56502 41.8852 4.5685 41.8748 4.5693 41.8641C4.5701 41.8534 4.5682 41.8427 4.56377 41.8329C4.48039 41.6483 4.35423 41.5382 4.18527 41.5027C3.88643 41.4396 3.58264 41.5027 3.37874 41.7421C2.89828 42.3047 3.03037 43.3841 3.54879 43.8943C3.69408 44.0375 3.88767 44.2162 4.09983 44.2414C5.23409 44.3755 6.72539 43.9442 7.15053 42.746C7.17062 42.6896 7.18356 42.6252 7.18933 42.5528C7.20337 42.3856 7.22607 42.2106 7.21204 42.0587C7.10265 40.8456 5.94486 40.0651 4.86467 39.8232C4.13863 39.6606 3.29784 39.7225 2.62462 40.0366ZM37.3658 41.8515C37.8421 41.7793 37.8929 42.5561 37.3307 42.5144C36.5213 42.4537 36.5093 41.5506 36.9832 41.0966C37.3976 40.6999 37.9284 40.6231 38.4509 40.8237C39.0903 41.0693 39.4473 41.7603 39.4861 42.4347C39.5136 42.9191 39.4015 43.3962 39.1497 43.8662C39.1406 43.883 39.1448 43.8872 39.1621 43.879C39.9232 43.5129 40.6485 42.7484 40.66 41.8507C40.6604 41.7875 40.6109 41.7116 40.5956 41.6517C40.5755 41.5728 40.5559 41.4935 40.5366 41.414C40.2906 40.4007 39.2991 39.8694 38.3213 39.763C37.1383 39.6342 35.9133 40.0379 35.1666 40.9922C34.3629 42.0203 34.7662 43.3081 35.8794 43.886C36.4193 44.1661 36.9992 44.2916 37.6192 44.2624C37.6996 44.2586 37.7737 44.2384 37.8417 44.2018C38.0051 44.1137 38.1544 44.0075 38.2895 43.8831C38.4467 43.7381 38.5675 43.5671 38.6519 43.3701C38.8823 42.8326 38.9227 42.204 38.5681 41.7112C38.3246 41.3731 37.8442 41.2563 37.5061 41.5259C37.4062 41.6055 37.3517 41.7071 37.3443 41.8321C37.3435 41.8473 37.3506 41.8537 37.3658 41.8515Z" fill="#1D231F"/>
<path id="Vector 10" d="M22.8608 27.3291H26.8306C27.3051 27.3291 27.7143 27.6626 27.81 28.1274L29.5064 36.3671" stroke="#1D231F" stroke-linecap="round"/>
<path id="Vector 7" d="M14.0885 27.595L12.1944 37.3022C12.0739 37.9197 12.5468 38.4937 13.1759 38.4937H28.7088" stroke="#1D231F" stroke-linecap="round"/>
<path id="Vector 8" d="M17.5444 31.8481L16.2153 35.8355" stroke="#1D231F" stroke-linecap="round"/>
<path id="Vector 9" d="M20.7344 31.8481H26.5825" stroke="#1D231F" stroke-linecap="round"/>
</g>
</g>
</svg>
