<svg width="56" height="50" viewBox="0 0 56 50" fill="none" xmlns="http://www.w3.org/2000/svg">
<g id="technic">
<g id="Group 45">
<path id="Vector" d="M27.1428 40.7645C27.1465 40.5497 27.0391 40.4478 26.8205 40.4589L24.1641 40.6089C23.864 40.6238 23.7158 40.7812 23.7195 41.0813L23.7418 45.5438C23.7492 46.759 23.1434 47.3628 21.9246 47.3554L20.0351 47.3443C18.8199 47.3369 18.2142 46.7256 18.2179 45.5104L18.2346 41.0869C18.2346 40.8201 18.1012 40.6775 17.8344 40.659L15.1836 40.4811C14.9873 40.4663 14.8872 40.5571 14.8835 40.7534L14.8169 44.3656C14.814 44.5328 14.778 44.6977 14.7111 44.851C14.6442 45.0043 14.5476 45.143 14.4269 45.2591C14.3061 45.3752 14.1635 45.4665 14.0073 45.5277C13.8511 45.589 13.6843 45.619 13.5165 45.616L10.8545 45.5604C10.546 45.5546 10.252 45.4285 10.0358 45.2092C9.81969 44.99 9.69861 44.695 9.69863 44.3879L9.68752 40.27C9.68786 40.1103 9.63697 39.9545 9.54213 39.8247C9.4473 39.6949 9.31339 39.5979 9.15958 39.5475C8.81503 39.4401 8.4464 39.3456 8.05369 39.2641C7.54613 39.1567 7.23122 38.9936 7.10896 38.7751C6.93483 38.4638 6.96447 38.0508 7.19788 37.5358C7.30161 37.3061 7.22937 37.169 6.98115 37.1246L0.768153 35.9909C0.618037 35.9631 0.476962 35.8991 0.357145 35.8045C0.237328 35.7099 0.142382 35.5875 0.0805298 35.4479C0.0186777 35.3083 -0.00821519 35.1558 0.00217973 35.0035C0.0125747 34.8511 0.0599447 34.7037 0.140186 34.5738L4.08582 28.1607C4.10694 28.1271 4.11952 28.0888 4.12253 28.0491C4.12554 28.0094 4.1189 27.9695 4.10315 27.9325C4.0874 27.8956 4.063 27.8628 4.03196 27.8367C4.00092 27.8107 3.96414 27.7922 3.92466 27.7828L2.28528 27.4105C2.14383 27.3799 2.01216 27.3147 1.90196 27.2209C1.79177 27.1271 1.70648 27.0075 1.65368 26.8727C1.60088 26.738 1.5822 26.5922 1.59932 26.4485C1.61644 26.3048 1.66881 26.1676 1.75178 26.049L6.84777 18.719C7.00708 18.493 6.95707 18.3337 6.69773 18.2411C5.73818 17.8854 5.40289 17.4501 5.69187 16.9351C7.82585 13.0969 9.97279 9.28279 12.1327 5.49276C12.2072 5.36203 12.3149 5.25326 12.4449 5.17742C12.5748 5.10158 12.7225 5.06135 12.873 5.06079C13.0235 5.06022 13.1714 5.09935 13.302 5.17421C13.4325 5.24908 13.541 5.35703 13.6165 5.4872L16.8508 11.0389C16.9879 11.2723 17.1231 11.2723 17.2565 11.0389L20.174 5.93178C20.2468 5.80447 20.3524 5.69894 20.4797 5.62613C21.0873 5.28528 21.5596 5.41681 21.8968 6.02069C22.8378 7.70639 23.7899 9.38282 24.7532 11.05C24.7736 11.0858 24.8031 11.1156 24.8387 11.1363C24.8743 11.157 24.9148 11.1679 24.956 11.1679C24.9972 11.1679 25.0377 11.157 25.0733 11.1363C25.109 11.1156 25.1385 11.0858 25.1589 11.05L28.3821 5.42051C28.4547 5.29325 28.5595 5.18738 28.6861 5.11356C28.8126 5.03973 28.9564 5.00057 29.1029 5.00001C29.2494 4.99944 29.3935 5.0375 29.5206 5.11035C29.6477 5.1832 29.7534 5.28826 29.827 5.41495L36.4234 16.8906C36.5099 17.0419 36.5374 17.2197 36.5004 17.3892C36.4634 17.5588 36.3646 17.708 36.2233 17.8076C35.901 18.0373 35.5361 18.1503 35.1286 18.1466C35.0923 18.1465 35.0567 18.1563 35.0256 18.1749C34.9944 18.1935 34.969 18.2202 34.9518 18.2522C34.9347 18.2841 34.9266 18.3202 34.9284 18.3564C34.9301 18.3926 34.9417 18.4276 34.9618 18.4578L40.1356 25.9434C40.23 26.0795 40.2892 26.2368 40.3078 26.4014C40.3264 26.566 40.3038 26.7326 40.2421 26.8863C40.1804 27.04 40.0815 27.176 39.9543 27.282C39.8271 27.388 39.6755 27.4608 39.5132 27.4939L38.085 27.7828C37.8479 27.831 37.7923 27.9588 37.9183 28.1663L41.8695 34.6071C41.9448 34.7308 41.989 34.871 41.9982 35.0156C42.0074 35.1601 41.9814 35.3048 41.9223 35.4371C41.8633 35.5693 41.773 35.6853 41.6593 35.775C41.5455 35.8647 41.4117 35.9254 41.2693 35.952L34.9785 37.1357C34.939 37.1434 34.9019 37.1601 34.8699 37.1846C34.8379 37.2091 34.8118 37.2407 34.7936 37.2771C34.7754 37.3134 34.7656 37.3535 34.7649 37.3945C34.7642 37.4355 34.7727 37.4762 34.7896 37.5136L35.123 38.2304C35.1668 38.3253 35.1774 38.4319 35.1532 38.5328C35.129 38.6338 35.0713 38.7231 34.9896 38.7862C34.3894 39.2345 33.7078 39.4716 32.9446 39.4975C32.4778 39.5123 32.2444 39.7513 32.2444 40.2144V44.1156C32.2444 45.0455 31.7812 45.5178 30.855 45.5327L28.4765 45.5716C27.5615 45.5864 27.1076 45.1362 27.115 44.2211L27.1428 40.7645ZM32.7778 29.789L30.6883 30.2892C30.6523 30.2977 30.6189 30.3147 30.5907 30.3387C30.5626 30.3627 30.5406 30.393 30.5264 30.4272C30.5123 30.4614 30.5066 30.4985 30.5096 30.5353C30.5126 30.5722 30.5243 30.6078 30.5438 30.6393L33.178 34.9461C33.2659 35.0884 33.3936 35.202 33.5455 35.2731C33.6975 35.3441 33.8672 35.3696 34.0338 35.3462L39.1798 34.6182C39.2385 34.6104 39.2944 34.5879 39.3423 34.553C39.3902 34.518 39.4286 34.4717 39.454 34.4181C39.4794 34.3646 39.491 34.3055 39.4877 34.2463C39.4845 34.1871 39.4665 34.1297 39.4354 34.0792L35.4286 27.6106C35.3577 27.4963 35.3157 27.3664 35.3062 27.2322C35.2967 27.098 35.3201 26.9635 35.3743 26.8404C35.4284 26.7173 35.5118 26.6092 35.6171 26.5255C35.7225 26.4419 35.8466 26.3851 35.9788 26.3602L37.5237 26.0712C37.5729 26.0617 37.6189 26.0401 37.6575 26.0083C37.6962 25.9765 37.7263 25.9355 37.745 25.8891C37.7638 25.8428 37.7707 25.7924 37.765 25.7427C37.7594 25.6929 37.7414 25.6454 37.7127 25.6044L32.6389 18.2855C32.2017 17.6557 32.3259 17.1667 33.0113 16.8184C33.1891 16.7258 33.3873 16.6665 33.6059 16.6406C33.9949 16.5924 34.0894 16.3998 33.8893 16.0626L29.1267 7.93238C29.1222 7.92299 29.1151 7.91506 29.1062 7.90952C29.0974 7.90397 29.0872 7.90103 29.0767 7.90103C29.0663 7.90103 29.0561 7.90397 29.0472 7.90952C29.0384 7.91506 29.0313 7.92299 29.0267 7.93238L26.0869 12.9672C26.0565 13.0178 26.04 13.0754 26.039 13.134C26.0381 13.1926 26.0527 13.2501 26.0814 13.3007L29.0323 18.4578C29.079 18.542 29.0983 18.6387 29.0873 18.7344C29.0764 18.83 29.0357 18.9199 28.9711 18.9913C28.5821 19.4062 28.0986 19.6452 27.5207 19.7082C27.4771 19.7126 27.4354 19.7284 27.3999 19.7541C27.3643 19.7797 27.3361 19.8142 27.3181 19.8542C27.3001 19.8942 27.2929 19.9382 27.2972 19.9818C27.3016 20.0254 27.3173 20.0671 27.3429 20.1027L33.2558 28.5275C33.3328 28.6356 33.3819 28.761 33.3988 28.8927C33.4157 29.0244 33.3998 29.1584 33.3527 29.2829C33.3055 29.4074 33.2284 29.5186 33.1282 29.6069C33.028 29.6951 32.9077 29.7577 32.7778 29.789ZM13.0219 19.0191C12.9548 18.952 12.9115 18.8651 12.8984 18.7717C12.8854 18.6784 12.9033 18.5837 12.9496 18.5022L15.9616 13.2395C15.9768 13.2144 15.9849 13.1856 15.9849 13.1562C15.9849 13.1268 15.9768 13.098 15.9616 13.0728L13.033 8.0213C13.0211 7.99924 13.0034 7.98082 12.9819 7.96798C12.9604 7.95514 12.9358 7.94835 12.9107 7.94835C12.8857 7.94835 12.8611 7.95514 12.8395 7.96798C12.818 7.98082 12.8004 7.99924 12.7885 8.0213L8.03146 16.2682C7.90179 16.4905 7.96292 16.6258 8.21485 16.6739L8.98731 16.824C9.12023 16.8505 9.24448 16.9096 9.34883 16.9961C9.4532 17.0826 9.53439 17.1937 9.58511 17.3194C9.63583 17.4451 9.65448 17.5815 9.63937 17.7162C9.62427 17.8509 9.57588 17.9797 9.49857 18.091L4.1803 25.7433C4.16317 25.7684 4.15255 25.7974 4.14939 25.8276C4.14623 25.8579 4.15064 25.8884 4.16221 25.9165C4.17378 25.9446 4.19216 25.9694 4.21569 25.9887C4.23922 26.0079 4.26716 26.021 4.297 26.0268L6.29205 26.4324C6.39627 26.4535 6.49093 26.5075 6.562 26.5866C6.63307 26.6657 6.67677 26.7656 6.68661 26.8715C6.72366 27.3234 6.57547 27.7921 6.24203 28.2774C4.912 30.2299 3.6857 32.1934 2.56314 34.1681C2.53723 34.2141 2.52299 34.2657 2.52168 34.3184C2.52036 34.3711 2.53201 34.4234 2.55561 34.4706C2.5792 34.5178 2.61401 34.5584 2.65699 34.589C2.69997 34.6196 2.74979 34.6392 2.8021 34.646L7.92032 35.3296C8.0976 35.3526 8.27761 35.3239 8.43843 35.247C8.59925 35.17 8.73395 35.0481 8.82615 34.8961L11.3491 30.8004C11.4714 30.6004 11.4269 30.4503 11.2158 30.3503C10.5044 30.0113 9.35409 30.0446 8.90395 29.5167C8.57422 29.1351 8.60756 28.6646 9.00398 28.1052C10.8934 25.4599 12.7644 22.7887 14.6168 20.0916C14.7576 19.8916 14.7057 19.773 14.4612 19.736C13.9018 19.6507 13.422 19.4118 13.0219 19.0191ZM28.0931 29.061C28.7748 28.6831 29.5195 28.5016 30.3271 28.5164C30.3911 28.518 30.4543 28.5017 30.5096 28.4694C30.5648 28.4371 30.61 28.39 30.64 28.3334C30.67 28.2769 30.6837 28.2131 30.6794 28.1492C30.6752 28.0853 30.6533 28.0239 30.6161 27.9718L24.7754 19.5026C24.6495 19.321 24.6402 19.1339 24.7476 18.9413C25.0996 18.3189 25.6498 18.078 26.3981 18.2188C26.4348 18.2265 26.4728 18.2232 26.5075 18.2093C26.5423 18.1954 26.5723 18.1715 26.5939 18.1405C26.6156 18.1094 26.6281 18.0725 26.6298 18.0342C26.6316 17.9958 26.6225 17.9577 26.6038 17.9243L21.1132 8.30472C21.1029 8.28597 21.0879 8.27025 21.0697 8.25912C21.0514 8.24798 21.0306 8.24183 21.0092 8.24127C20.9878 8.24071 20.9667 8.24576 20.9479 8.25592C20.9291 8.26607 20.9133 8.28098 20.902 8.29916L15.4448 17.7131C15.3337 17.9058 15.3855 18.028 15.6004 18.0799L16.6563 18.3189C16.7875 18.3481 16.9095 18.409 17.0118 18.4963C17.114 18.5836 17.1932 18.6947 17.2425 18.8197C17.2919 18.9447 17.3099 19.0799 17.2949 19.2135C17.2798 19.3471 17.2323 19.475 17.1564 19.5859L11.4214 27.9273C11.3845 27.9816 11.3618 28.0444 11.3557 28.1097C11.3496 28.175 11.3601 28.2406 11.3863 28.3003C11.4126 28.36 11.4536 28.4117 11.5054 28.4505C11.5573 28.4893 11.6183 28.5139 11.6826 28.5219L13.1997 28.722C13.3645 28.7438 13.521 28.8067 13.6551 28.905C13.7892 29.0032 13.8965 29.1338 13.9672 29.2846C14.038 29.4355 14.0699 29.6019 14.0601 29.7686C14.0503 29.9354 13.999 30.0971 13.911 30.2391L9.48746 37.3079C9.46135 37.3499 9.44581 37.3976 9.44217 37.4469C9.43853 37.4962 9.44691 37.5457 9.46658 37.591C9.48626 37.6364 9.51663 37.6763 9.55512 37.7073C9.5936 37.7383 9.63903 37.7596 9.68752 37.7692C17.2046 39.2808 24.7273 39.303 32.2555 37.8359C32.5852 37.7729 32.663 37.5988 32.4889 37.3135L27.8819 29.8835C27.8394 29.8162 27.8112 29.7411 27.7988 29.6625C27.7864 29.5839 27.7903 29.5037 27.81 29.4267C27.8298 29.3496 27.8651 29.2775 27.9138 29.2146C27.9625 29.1517 28.0235 29.0994 28.0931 29.061ZM12.9818 40.5582C12.9813 40.4983 12.969 40.4392 12.9456 40.3841C12.9222 40.329 12.8882 40.279 12.8455 40.2371C12.8028 40.1951 12.7523 40.162 12.6968 40.1396C12.6413 40.1172 12.5819 40.1059 12.5221 40.1065L11.9664 40.1113C11.8456 40.1124 11.7301 40.1614 11.6454 40.2476C11.5607 40.3338 11.5137 40.4501 11.5147 40.5709L11.5392 43.3828C11.5398 43.4426 11.5521 43.5018 11.5755 43.5569C11.5988 43.612 11.6329 43.6619 11.6755 43.7038C11.7182 43.7458 11.7688 43.7789 11.8243 43.8013C11.8797 43.8237 11.9391 43.835 11.9989 43.8345L12.5546 43.8296C12.6755 43.8286 12.7909 43.7796 12.8756 43.6934C12.9604 43.6072 13.0074 43.4908 13.0063 43.37L12.9818 40.5582ZM30.4596 40.5989C30.4607 40.534 30.4489 40.4695 30.425 40.4091C30.4011 40.3487 30.3655 40.2936 30.3203 40.247C30.2751 40.2003 30.2212 40.163 30.1615 40.1372C30.1019 40.1114 30.0378 40.0976 29.9729 40.0966L29.4283 40.0881C29.3634 40.087 29.2989 40.0988 29.2385 40.1227C29.1781 40.1466 29.123 40.1822 29.0764 40.2274C29.0297 40.2726 28.9924 40.3266 28.9666 40.3862C28.9408 40.4458 28.927 40.5099 28.926 40.5748L28.8831 43.3086C28.882 43.3736 28.8938 43.4381 28.9177 43.4985C28.9416 43.5589 28.9772 43.614 29.0224 43.6606C29.0676 43.7073 29.1215 43.7446 29.1812 43.7703C29.2408 43.7961 29.3049 43.8099 29.3698 43.811L29.9144 43.8195C29.9793 43.8205 30.0438 43.8088 30.1042 43.7849C30.1646 43.7609 30.2197 43.7254 30.2663 43.6802C30.313 43.635 30.3503 43.581 30.3761 43.5214C30.4019 43.4618 30.4157 43.3977 30.4167 43.3328L30.4596 40.5989ZM21.9121 41.1634C21.9127 41.1014 21.9011 41.0398 21.878 40.9822C21.8549 40.9247 21.8206 40.8722 21.7772 40.8279C21.7338 40.7836 21.6821 40.7483 21.625 40.7239C21.568 40.6996 21.5067 40.6867 21.4446 40.6861L20.5333 40.6766C20.408 40.6753 20.2874 40.7238 20.1979 40.8114C20.1084 40.8991 20.0574 41.0187 20.0561 41.1439L20.0143 45.1338C20.0136 45.1958 20.0252 45.2574 20.0483 45.315C20.0715 45.3725 20.1057 45.425 20.1491 45.4693C20.1925 45.5136 20.2442 45.5489 20.3013 45.5733C20.3583 45.5976 20.4196 45.6105 20.4817 45.6111L21.393 45.6206C21.5183 45.6219 21.6389 45.5734 21.7284 45.4858C21.8179 45.3981 21.8689 45.2785 21.8703 45.1533L21.9121 41.1634Z" fill="#1D231F"/>
</g>
</g>
</svg>
