<svg width="54" height="54" viewBox="0 0 54 54" fill="none" xmlns="http://www.w3.org/2000/svg">
<g id="eco-friendly" clip-path="url(#clip0_245_14018)">
<g id="Group 72">
<g id="Vector">
<mask id="path-1-outside-1_245_14018" maskUnits="userSpaceOnUse" x="-1" y="0" width="56" height="53" fill="black">
<rect fill="white" x="-1" width="56" height="53"/>
<path d="M19.3049 46.5652C18.9543 47.1561 18.6864 47.7865 18.2688 48.3341C14.8294 52.8372 8.62037 53.8655 4.07392 50.4537C-0.862565 46.7503 -1.39836 39.7061 2.93534 35.2936C5.03128 33.1583 7.18368 31.0006 9.39256 28.8206C9.45563 28.7577 9.50227 28.6802 9.52838 28.595C9.55449 28.5098 9.55925 28.4196 9.54227 28.3321C9.11152 26.0628 9.36892 23.9104 10.3145 21.8749C10.8319 20.7639 11.8129 19.4927 13.2574 18.0612C18.1873 13.1733 22.8546 8.50474 27.2592 4.05547C30.3047 0.982478 35.182 0.0723965 39.0233 2.03832C43.424 4.29185 45.4608 8.94862 44.2868 13.7827C44.011 14.9173 43.3924 15.9653 42.7818 16.9738C42.6715 17.1603 42.724 17.2483 42.9394 17.2378C46.9842 17.0566 50.0755 18.5064 52.2135 21.5873C54.467 24.8376 54.6128 29.2304 52.5129 32.5555C51.8826 33.5562 50.9147 34.6895 49.6093 35.9555C45.751 39.693 41.9269 43.4974 38.1368 47.3689C35.9148 49.6382 34.2431 51.021 33.1216 51.5174C27.862 53.8458 22.1376 51.7538 19.6359 46.577C19.5334 46.3669 19.4231 46.3629 19.3049 46.5652ZM34.8393 6.34839C35.1151 6.77125 35.0744 7.16129 34.7171 7.51849L24.8836 17.3363C24.8609 17.3586 24.8435 17.3857 24.8326 17.4157C24.8217 17.4456 24.8176 17.4778 24.8206 17.5097C24.8236 17.5417 24.8337 17.5727 24.85 17.6006C24.8663 17.6285 24.8885 17.6526 24.9151 17.6712C27.6703 19.5885 29.2147 22.1178 29.5482 25.2591C29.6428 26.1534 29.5049 27.0871 29.4064 27.9736C29.3723 28.273 29.4616 28.315 29.6743 28.0996C33.0546 24.6983 36.4007 21.3693 39.7127 18.1124C40.9104 16.9331 41.7299 15.9101 42.1711 15.0434C44.862 9.76414 41.525 3.30692 35.6666 2.6608C32.18 2.27865 29.9973 3.43299 27.5626 5.91502C24.0851 9.46866 20.7482 12.8135 17.5517 15.9495C17.2654 16.2306 17.3206 16.3382 17.7172 16.2726C19.624 15.9495 21.1842 16.1623 23.024 16.6823C23.1005 16.7038 23.1812 16.705 23.258 16.6856C23.3347 16.6662 23.4049 16.627 23.4613 16.572C26.8705 13.1523 30.2495 9.7707 33.5983 6.42718C33.8951 6.13302 34.2496 6.06079 34.662 6.2105C34.7355 6.23677 34.7946 6.28273 34.8393 6.34839ZM28.0314 26.1849C28.0314 23.9102 27.1278 21.7287 25.5193 20.1202C23.9109 18.5118 21.7293 17.6081 19.4546 17.6081C17.1799 17.6081 14.9984 18.5118 13.3899 20.1202C11.7815 21.7287 10.8778 23.9102 10.8778 26.1849C10.8778 28.4596 11.7815 30.6412 13.3899 32.2497C14.9984 33.8581 17.1799 34.7617 19.4546 34.7617C21.7293 34.7617 23.9109 33.8581 25.5193 32.2497C27.1278 30.6412 28.0314 28.4596 28.0314 26.1849ZM36.427 30.0183C36.167 29.6033 36.2103 29.2225 36.557 28.8758L45.5356 19.8893C46.2789 19.146 46.1253 18.7888 45.0747 18.8176C44.1843 18.8413 43.332 18.8636 42.5178 18.8846C41.5329 18.9135 40.6911 19.2747 39.9925 19.968L27.8975 32.0118C27.6847 32.2219 27.7281 32.3178 28.0275 32.2994C31.7203 32.084 34.7211 33.4813 37.0298 36.4913C37.0469 36.5136 37.0686 36.5319 37.0936 36.545C37.1186 36.5581 37.1462 36.5656 37.1746 36.5671C37.2029 36.5686 37.2314 36.564 37.2581 36.5537C37.2847 36.5433 37.309 36.5274 37.3292 36.507L44.8147 29.0137C45.164 28.6617 45.5343 28.6394 45.9257 28.9467C46.1936 29.1594 46.1397 29.5889 45.7642 30.235C45.7302 30.2925 45.6891 30.3455 45.642 30.3926L38.1565 37.815C38.0843 37.8876 38.0367 37.981 38.0204 38.0821C38.0042 38.1832 38.0201 38.2868 38.0659 38.3784C39.0154 40.2892 38.9445 42.066 38.8145 44.1698C38.7987 44.4325 38.8841 44.4692 39.0706 44.2801C41.6603 41.6405 44.5442 38.7619 47.7222 35.6442C49.8864 33.522 51.1892 31.9737 51.6304 30.9993C53.5609 26.7483 52.0835 22.2097 48.0965 19.8223C47.9625 19.7435 47.8417 19.7592 47.734 19.8696L37.6089 30.0222C37.3279 30.3059 37.0035 30.365 36.6358 30.1995C36.5465 30.1601 36.4769 30.0997 36.427 30.0183ZM8.27367 32.4609C9.35053 32.2561 10.3171 32.2154 11.1733 32.3388C11.436 32.3756 11.4806 32.2928 11.3073 32.0906C10.8949 31.61 10.564 31.0728 10.3145 30.4792C10.2304 30.2823 10.1109 30.2586 9.95593 30.4083L8.13185 32.193C7.87971 32.4399 7.92698 32.5292 8.27367 32.4609ZM18.6864 42.3772C18.6864 40.1025 17.7828 37.921 16.1743 36.3125C14.5658 34.7041 12.3843 33.8004 10.1096 33.8004C7.83488 33.8004 5.65334 34.7041 4.04488 36.3125C2.43642 37.921 1.5328 40.1025 1.5328 42.3772C1.5328 44.6519 2.43642 46.8335 4.04488 48.4419C5.65334 50.0504 7.83488 50.954 10.1096 50.954C12.3843 50.954 14.5658 50.0504 16.1743 48.4419C17.7828 46.8335 18.6864 44.6519 18.6864 42.3772ZM37.3844 42.3733C37.3844 40.0975 36.4803 37.915 34.8711 36.3058C33.2619 34.6966 31.0794 33.7926 28.8036 33.7926C27.6768 33.7926 26.561 34.0145 25.5199 34.4457C24.4788 34.877 23.5329 35.509 22.7361 36.3058C21.9393 37.1026 21.3073 38.0485 20.8761 39.0896C20.4448 40.1306 20.2229 41.2465 20.2229 42.3733C20.2229 43.5001 20.4448 44.6159 20.8761 45.657C21.3073 46.6981 21.9393 47.644 22.7361 48.4408C23.5329 49.2376 24.4788 49.8696 25.5199 50.3009C26.561 50.7321 27.6768 50.954 28.8036 50.954C31.0794 50.954 33.2619 50.05 34.8711 48.4408C36.4803 46.8316 37.3844 44.6491 37.3844 42.3733ZM19.6634 38.2129C19.7816 37.5944 20.2583 36.9877 20.6129 36.4716C20.7153 36.3271 20.6773 36.2536 20.4987 36.251L18.3988 36.2431C18.3755 36.2426 18.3526 36.2483 18.3323 36.2597C18.312 36.2711 18.2952 36.2877 18.2835 36.3078C18.2718 36.3279 18.2657 36.3508 18.2659 36.3741C18.2661 36.3973 18.2725 36.4201 18.2845 36.4401L19.3916 38.2602C19.4076 38.2858 19.431 38.3061 19.4586 38.3185C19.4863 38.3309 19.5168 38.3348 19.5463 38.3297C19.5757 38.3246 19.6027 38.3107 19.6236 38.2898C19.6445 38.269 19.6584 38.2422 19.6634 38.2129Z"/>
</mask>
<path d="M19.3049 46.5652C18.9543 47.1561 18.6864 47.7865 18.2688 48.3341C14.8294 52.8372 8.62037 53.8655 4.07392 50.4537C-0.862565 46.7503 -1.39836 39.7061 2.93534 35.2936C5.03128 33.1583 7.18368 31.0006 9.39256 28.8206C9.45563 28.7577 9.50227 28.6802 9.52838 28.595C9.55449 28.5098 9.55925 28.4196 9.54227 28.3321C9.11152 26.0628 9.36892 23.9104 10.3145 21.8749C10.8319 20.7639 11.8129 19.4927 13.2574 18.0612C18.1873 13.1733 22.8546 8.50474 27.2592 4.05547C30.3047 0.982478 35.182 0.0723965 39.0233 2.03832C43.424 4.29185 45.4608 8.94862 44.2868 13.7827C44.011 14.9173 43.3924 15.9653 42.7818 16.9738C42.6715 17.1603 42.724 17.2483 42.9394 17.2378C46.9842 17.0566 50.0755 18.5064 52.2135 21.5873C54.467 24.8376 54.6128 29.2304 52.5129 32.5555C51.8826 33.5562 50.9147 34.6895 49.6093 35.9555C45.751 39.693 41.9269 43.4974 38.1368 47.3689C35.9148 49.6382 34.2431 51.021 33.1216 51.5174C27.862 53.8458 22.1376 51.7538 19.6359 46.577C19.5334 46.3669 19.4231 46.3629 19.3049 46.5652ZM34.8393 6.34839C35.1151 6.77125 35.0744 7.16129 34.7171 7.51849L24.8836 17.3363C24.8609 17.3586 24.8435 17.3857 24.8326 17.4157C24.8217 17.4456 24.8176 17.4778 24.8206 17.5097C24.8236 17.5417 24.8337 17.5727 24.85 17.6006C24.8663 17.6285 24.8885 17.6526 24.9151 17.6712C27.6703 19.5885 29.2147 22.1178 29.5482 25.2591C29.6428 26.1534 29.5049 27.0871 29.4064 27.9736C29.3723 28.273 29.4616 28.315 29.6743 28.0996C33.0546 24.6983 36.4007 21.3693 39.7127 18.1124C40.9104 16.9331 41.7299 15.9101 42.1711 15.0434C44.862 9.76414 41.525 3.30692 35.6666 2.6608C32.18 2.27865 29.9973 3.43299 27.5626 5.91502C24.0851 9.46866 20.7482 12.8135 17.5517 15.9495C17.2654 16.2306 17.3206 16.3382 17.7172 16.2726C19.624 15.9495 21.1842 16.1623 23.024 16.6823C23.1005 16.7038 23.1812 16.705 23.258 16.6856C23.3347 16.6662 23.4049 16.627 23.4613 16.572C26.8705 13.1523 30.2495 9.7707 33.5983 6.42718C33.8951 6.13302 34.2496 6.06079 34.662 6.2105C34.7355 6.23677 34.7946 6.28273 34.8393 6.34839ZM28.0314 26.1849C28.0314 23.9102 27.1278 21.7287 25.5193 20.1202C23.9109 18.5118 21.7293 17.6081 19.4546 17.6081C17.1799 17.6081 14.9984 18.5118 13.3899 20.1202C11.7815 21.7287 10.8778 23.9102 10.8778 26.1849C10.8778 28.4596 11.7815 30.6412 13.3899 32.2497C14.9984 33.8581 17.1799 34.7617 19.4546 34.7617C21.7293 34.7617 23.9109 33.8581 25.5193 32.2497C27.1278 30.6412 28.0314 28.4596 28.0314 26.1849ZM36.427 30.0183C36.167 29.6033 36.2103 29.2225 36.557 28.8758L45.5356 19.8893C46.2789 19.146 46.1253 18.7888 45.0747 18.8176C44.1843 18.8413 43.332 18.8636 42.5178 18.8846C41.5329 18.9135 40.6911 19.2747 39.9925 19.968L27.8975 32.0118C27.6847 32.2219 27.7281 32.3178 28.0275 32.2994C31.7203 32.084 34.7211 33.4813 37.0298 36.4913C37.0469 36.5136 37.0686 36.5319 37.0936 36.545C37.1186 36.5581 37.1462 36.5656 37.1746 36.5671C37.2029 36.5686 37.2314 36.564 37.2581 36.5537C37.2847 36.5433 37.309 36.5274 37.3292 36.507L44.8147 29.0137C45.164 28.6617 45.5343 28.6394 45.9257 28.9467C46.1936 29.1594 46.1397 29.5889 45.7642 30.235C45.7302 30.2925 45.6891 30.3455 45.642 30.3926L38.1565 37.815C38.0843 37.8876 38.0367 37.981 38.0204 38.0821C38.0042 38.1832 38.0201 38.2868 38.0659 38.3784C39.0154 40.2892 38.9445 42.066 38.8145 44.1698C38.7987 44.4325 38.8841 44.4692 39.0706 44.2801C41.6603 41.6405 44.5442 38.7619 47.7222 35.6442C49.8864 33.522 51.1892 31.9737 51.6304 30.9993C53.5609 26.7483 52.0835 22.2097 48.0965 19.8223C47.9625 19.7435 47.8417 19.7592 47.734 19.8696L37.6089 30.0222C37.3279 30.3059 37.0035 30.365 36.6358 30.1995C36.5465 30.1601 36.4769 30.0997 36.427 30.0183ZM8.27367 32.4609C9.35053 32.2561 10.3171 32.2154 11.1733 32.3388C11.436 32.3756 11.4806 32.2928 11.3073 32.0906C10.8949 31.61 10.564 31.0728 10.3145 30.4792C10.2304 30.2823 10.1109 30.2586 9.95593 30.4083L8.13185 32.193C7.87971 32.4399 7.92698 32.5292 8.27367 32.4609ZM18.6864 42.3772C18.6864 40.1025 17.7828 37.921 16.1743 36.3125C14.5658 34.7041 12.3843 33.8004 10.1096 33.8004C7.83488 33.8004 5.65334 34.7041 4.04488 36.3125C2.43642 37.921 1.5328 40.1025 1.5328 42.3772C1.5328 44.6519 2.43642 46.8335 4.04488 48.4419C5.65334 50.0504 7.83488 50.954 10.1096 50.954C12.3843 50.954 14.5658 50.0504 16.1743 48.4419C17.7828 46.8335 18.6864 44.6519 18.6864 42.3772ZM37.3844 42.3733C37.3844 40.0975 36.4803 37.915 34.8711 36.3058C33.2619 34.6966 31.0794 33.7926 28.8036 33.7926C27.6768 33.7926 26.561 34.0145 25.5199 34.4457C24.4788 34.877 23.5329 35.509 22.7361 36.3058C21.9393 37.1026 21.3073 38.0485 20.8761 39.0896C20.4448 40.1306 20.2229 41.2465 20.2229 42.3733C20.2229 43.5001 20.4448 44.6159 20.8761 45.657C21.3073 46.6981 21.9393 47.644 22.7361 48.4408C23.5329 49.2376 24.4788 49.8696 25.5199 50.3009C26.561 50.7321 27.6768 50.954 28.8036 50.954C31.0794 50.954 33.2619 50.05 34.8711 48.4408C36.4803 46.8316 37.3844 44.6491 37.3844 42.3733ZM19.6634 38.2129C19.7816 37.5944 20.2583 36.9877 20.6129 36.4716C20.7153 36.3271 20.6773 36.2536 20.4987 36.251L18.3988 36.2431C18.3755 36.2426 18.3526 36.2483 18.3323 36.2597C18.312 36.2711 18.2952 36.2877 18.2835 36.3078C18.2718 36.3279 18.2657 36.3508 18.2659 36.3741C18.2661 36.3973 18.2725 36.4201 18.2845 36.4401L19.3916 38.2602C19.4076 38.2858 19.431 38.3061 19.4586 38.3185C19.4863 38.3309 19.5168 38.3348 19.5463 38.3297C19.5757 38.3246 19.6027 38.3107 19.6236 38.2898C19.6445 38.269 19.6584 38.2422 19.6634 38.2129Z" fill="#1D231F"/>
<path d="M19.3049 46.5652C18.9543 47.1561 18.6864 47.7865 18.2688 48.3341C14.8294 52.8372 8.62037 53.8655 4.07392 50.4537C-0.862565 46.7503 -1.39836 39.7061 2.93534 35.2936C5.03128 33.1583 7.18368 31.0006 9.39256 28.8206C9.45563 28.7577 9.50227 28.6802 9.52838 28.595C9.55449 28.5098 9.55925 28.4196 9.54227 28.3321C9.11152 26.0628 9.36892 23.9104 10.3145 21.8749C10.8319 20.7639 11.8129 19.4927 13.2574 18.0612C18.1873 13.1733 22.8546 8.50474 27.2592 4.05547C30.3047 0.982478 35.182 0.0723965 39.0233 2.03832C43.424 4.29185 45.4608 8.94862 44.2868 13.7827C44.011 14.9173 43.3924 15.9653 42.7818 16.9738C42.6715 17.1603 42.724 17.2483 42.9394 17.2378C46.9842 17.0566 50.0755 18.5064 52.2135 21.5873C54.467 24.8376 54.6128 29.2304 52.5129 32.5555C51.8826 33.5562 50.9147 34.6895 49.6093 35.9555C45.751 39.693 41.9269 43.4974 38.1368 47.3689C35.9148 49.6382 34.2431 51.021 33.1216 51.5174C27.862 53.8458 22.1376 51.7538 19.6359 46.577C19.5334 46.3669 19.4231 46.3629 19.3049 46.5652ZM34.8393 6.34839C35.1151 6.77125 35.0744 7.16129 34.7171 7.51849L24.8836 17.3363C24.8609 17.3586 24.8435 17.3857 24.8326 17.4157C24.8217 17.4456 24.8176 17.4778 24.8206 17.5097C24.8236 17.5417 24.8337 17.5727 24.85 17.6006C24.8663 17.6285 24.8885 17.6526 24.9151 17.6712C27.6703 19.5885 29.2147 22.1178 29.5482 25.2591C29.6428 26.1534 29.5049 27.0871 29.4064 27.9736C29.3723 28.273 29.4616 28.315 29.6743 28.0996C33.0546 24.6983 36.4007 21.3693 39.7127 18.1124C40.9104 16.9331 41.7299 15.9101 42.1711 15.0434C44.862 9.76414 41.525 3.30692 35.6666 2.6608C32.18 2.27865 29.9973 3.43299 27.5626 5.91502C24.0851 9.46866 20.7482 12.8135 17.5517 15.9495C17.2654 16.2306 17.3206 16.3382 17.7172 16.2726C19.624 15.9495 21.1842 16.1623 23.024 16.6823C23.1005 16.7038 23.1812 16.705 23.258 16.6856C23.3347 16.6662 23.4049 16.627 23.4613 16.572C26.8705 13.1523 30.2495 9.7707 33.5983 6.42718C33.8951 6.13302 34.2496 6.06079 34.662 6.2105C34.7355 6.23677 34.7946 6.28273 34.8393 6.34839ZM28.0314 26.1849C28.0314 23.9102 27.1278 21.7287 25.5193 20.1202C23.9109 18.5118 21.7293 17.6081 19.4546 17.6081C17.1799 17.6081 14.9984 18.5118 13.3899 20.1202C11.7815 21.7287 10.8778 23.9102 10.8778 26.1849C10.8778 28.4596 11.7815 30.6412 13.3899 32.2497C14.9984 33.8581 17.1799 34.7617 19.4546 34.7617C21.7293 34.7617 23.9109 33.8581 25.5193 32.2497C27.1278 30.6412 28.0314 28.4596 28.0314 26.1849ZM36.427 30.0183C36.167 29.6033 36.2103 29.2225 36.557 28.8758L45.5356 19.8893C46.2789 19.146 46.1253 18.7888 45.0747 18.8176C44.1843 18.8413 43.332 18.8636 42.5178 18.8846C41.5329 18.9135 40.6911 19.2747 39.9925 19.968L27.8975 32.0118C27.6847 32.2219 27.7281 32.3178 28.0275 32.2994C31.7203 32.084 34.7211 33.4813 37.0298 36.4913C37.0469 36.5136 37.0686 36.5319 37.0936 36.545C37.1186 36.5581 37.1462 36.5656 37.1746 36.5671C37.2029 36.5686 37.2314 36.564 37.2581 36.5537C37.2847 36.5433 37.309 36.5274 37.3292 36.507L44.8147 29.0137C45.164 28.6617 45.5343 28.6394 45.9257 28.9467C46.1936 29.1594 46.1397 29.5889 45.7642 30.235C45.7302 30.2925 45.6891 30.3455 45.642 30.3926L38.1565 37.815C38.0843 37.8876 38.0367 37.981 38.0204 38.0821C38.0042 38.1832 38.0201 38.2868 38.0659 38.3784C39.0154 40.2892 38.9445 42.066 38.8145 44.1698C38.7987 44.4325 38.8841 44.4692 39.0706 44.2801C41.6603 41.6405 44.5442 38.7619 47.7222 35.6442C49.8864 33.522 51.1892 31.9737 51.6304 30.9993C53.5609 26.7483 52.0835 22.2097 48.0965 19.8223C47.9625 19.7435 47.8417 19.7592 47.734 19.8696L37.6089 30.0222C37.3279 30.3059 37.0035 30.365 36.6358 30.1995C36.5465 30.1601 36.4769 30.0997 36.427 30.0183ZM8.27367 32.4609C9.35053 32.2561 10.3171 32.2154 11.1733 32.3388C11.436 32.3756 11.4806 32.2928 11.3073 32.0906C10.8949 31.61 10.564 31.0728 10.3145 30.4792C10.2304 30.2823 10.1109 30.2586 9.95593 30.4083L8.13185 32.193C7.87971 32.4399 7.92698 32.5292 8.27367 32.4609ZM18.6864 42.3772C18.6864 40.1025 17.7828 37.921 16.1743 36.3125C14.5658 34.7041 12.3843 33.8004 10.1096 33.8004C7.83488 33.8004 5.65334 34.7041 4.04488 36.3125C2.43642 37.921 1.5328 40.1025 1.5328 42.3772C1.5328 44.6519 2.43642 46.8335 4.04488 48.4419C5.65334 50.0504 7.83488 50.954 10.1096 50.954C12.3843 50.954 14.5658 50.0504 16.1743 48.4419C17.7828 46.8335 18.6864 44.6519 18.6864 42.3772ZM37.3844 42.3733C37.3844 40.0975 36.4803 37.915 34.8711 36.3058C33.2619 34.6966 31.0794 33.7926 28.8036 33.7926C27.6768 33.7926 26.561 34.0145 25.5199 34.4457C24.4788 34.877 23.5329 35.509 22.7361 36.3058C21.9393 37.1026 21.3073 38.0485 20.8761 39.0896C20.4448 40.1306 20.2229 41.2465 20.2229 42.3733C20.2229 43.5001 20.4448 44.6159 20.8761 45.657C21.3073 46.6981 21.9393 47.644 22.7361 48.4408C23.5329 49.2376 24.4788 49.8696 25.5199 50.3009C26.561 50.7321 27.6768 50.954 28.8036 50.954C31.0794 50.954 33.2619 50.05 34.8711 48.4408C36.4803 46.8316 37.3844 44.6491 37.3844 42.3733ZM19.6634 38.2129C19.7816 37.5944 20.2583 36.9877 20.6129 36.4716C20.7153 36.3271 20.6773 36.2536 20.4987 36.251L18.3988 36.2431C18.3755 36.2426 18.3526 36.2483 18.3323 36.2597C18.312 36.2711 18.2952 36.2877 18.2835 36.3078C18.2718 36.3279 18.2657 36.3508 18.2659 36.3741C18.2661 36.3973 18.2725 36.4201 18.2845 36.4401L19.3916 38.2602C19.4076 38.2858 19.431 38.3061 19.4586 38.3185C19.4863 38.3309 19.5168 38.3348 19.5463 38.3297C19.5757 38.3246 19.6027 38.3107 19.6236 38.2898C19.6445 38.269 19.6584 38.2422 19.6634 38.2129Z" stroke="#1D231F" stroke-width="0.4" mask="url(#path-1-outside-1_245_14018)"/>
</g>
<path id="Vector_2" d="M22.0509 26.1849C22.0509 26.5253 21.9838 26.8624 21.8536 27.1769C21.7233 27.4914 21.5323 27.7772 21.2916 28.0179C21.0509 28.2587 20.7651 28.4496 20.4506 28.5799C20.1361 28.7102 19.799 28.7772 19.4586 28.7772C18.771 28.7772 18.1117 28.5041 17.6255 28.0179C17.1393 27.5318 16.8662 26.8724 16.8662 26.1849C16.8662 25.4973 17.1393 24.838 17.6255 24.3518C18.1117 23.8656 18.771 23.5925 19.4586 23.5925C19.799 23.5925 20.1361 23.6596 20.4506 23.7899C20.7651 23.9201 21.0509 24.1111 21.2916 24.3518C21.5323 24.5925 21.7233 24.8783 21.8536 25.1928C21.9838 25.5073 22.0509 25.8444 22.0509 26.1849ZM20.5065 26.1849C20.5065 25.9028 20.3945 25.6322 20.195 25.4327C19.9955 25.2332 19.7249 25.1211 19.4428 25.1211C19.1607 25.1211 18.8901 25.2332 18.6906 25.4327C18.4911 25.6322 18.3791 25.9028 18.3791 26.1849C18.3791 26.467 18.4911 26.7376 18.6906 26.937C18.8901 27.1365 19.1607 27.2486 19.4428 27.2486C19.7249 27.2486 19.9955 27.1365 20.195 26.937C20.3945 26.7376 20.5065 26.467 20.5065 26.1849Z" fill="#1D231F"/>
<path id="Vector_3" d="M12.6979 42.3731C12.6979 43.0617 12.4244 43.7221 11.9375 44.209C11.4506 44.6959 10.7902 44.9694 10.1017 44.9694C9.41309 44.9694 8.75271 44.6959 8.26581 44.209C7.77891 43.7221 7.50537 43.0617 7.50537 42.3731C7.50537 41.6846 7.77891 41.0242 8.26581 40.5373C8.75271 40.0504 9.41309 39.7769 10.1017 39.7769C10.7902 39.7769 11.4506 40.0504 11.9375 40.5373C12.4244 41.0242 12.6979 41.6846 12.6979 42.3731ZM11.1772 42.3692C11.1772 42.2285 11.1495 42.0891 11.0956 41.9591C11.0418 41.8291 10.9628 41.711 10.8633 41.6115C10.7638 41.512 10.6457 41.433 10.5157 41.3792C10.3857 41.3253 10.2463 41.2976 10.1056 41.2976C9.82139 41.2976 9.54883 41.4105 9.34786 41.6115C9.1469 41.8124 9.03399 42.085 9.03399 42.3692C9.03399 42.6534 9.1469 42.926 9.34786 43.1269C9.54883 43.3279 9.82139 43.4408 10.1056 43.4408C10.2463 43.4408 10.3857 43.4131 10.5157 43.3592C10.6457 43.3054 10.7638 43.2265 10.8633 43.1269C10.9628 43.0274 11.0418 42.9093 11.0956 42.7793C11.1495 42.6493 11.1772 42.5099 11.1772 42.3692Z" fill="#1D231F"/>
<path id="Vector_4" d="M31.3999 42.3694C31.3999 43.0559 31.1272 43.7143 30.6418 44.1997C30.1563 44.6851 29.498 44.9578 28.8115 44.9578C28.125 44.9578 27.4666 44.6851 26.9812 44.1997C26.4958 43.7143 26.2231 43.0559 26.2231 42.3694C26.2231 42.0295 26.29 41.6929 26.4201 41.3789C26.5502 41.0648 26.7409 40.7795 26.9812 40.5391C27.2216 40.2988 27.5069 40.1081 27.821 39.978C28.135 39.848 28.4716 39.781 28.8115 39.781C29.1514 39.781 29.488 39.848 29.802 39.978C30.1161 40.1081 30.4014 40.2988 30.6418 40.5391C30.8821 40.7795 31.0728 41.0648 31.2029 41.3789C31.3329 41.6929 31.3999 42.0295 31.3999 42.3694ZM29.8634 42.3694C29.8634 42.0894 29.7522 41.8208 29.5541 41.6228C29.3561 41.4248 29.0876 41.3136 28.8075 41.3136C28.5275 41.3136 28.259 41.4248 28.0609 41.6228C27.8629 41.8208 27.7517 42.0894 27.7517 42.3694C27.7517 42.6494 27.8629 42.918 28.0609 43.116C28.259 43.314 28.5275 43.4253 28.8075 43.4253C29.0876 43.4253 29.3561 43.314 29.5541 43.116C29.7522 42.918 29.8634 42.6494 29.8634 42.3694Z" fill="#1D231F"/>
</g>
</g>
<defs>
<clipPath id="clip0_245_14018">
<rect width="54" height="54" fill="white"/>
</clipPath>
</defs>
</svg>
