<svg width="54" height="54" viewBox="0 0 54 54" fill="none" xmlns="http://www.w3.org/2000/svg">
<g id="Durability">
<g id="Group 80">
<path id="Vector" d="M20.1331 10.0063L21.4611 10.0428C21.9084 10.0743 22.3585 10.155 22.8112 10.2851L23.9788 10.7427L24.2029 10.8491C24.6409 11.0614 25.0948 11.3218 25.5643 11.6302L26.1937 12.1218L26.8987 12.7587L26.9679 12.8387C26.9826 12.855 26.9979 12.8559 27.0138 12.8412L27.8264 12.0941L28.4426 11.6069C29.3309 10.993 30.2478 10.5405 31.1932 10.2492C31.6497 10.1557 32.1035 10.0932 32.5546 10.0617L33.9878 10C34.4422 10.0021 34.8803 10.0539 35.302 10.1555C35.6255 10.2335 35.9471 10.3267 36.2669 10.4349C36.8938 10.6477 37.493 10.9259 38.0645 11.2695C39.0632 11.8847 39.9047 12.6612 40.5891 13.599L40.7867 13.8822L41.2474 14.6797C41.7208 15.6104 42.0162 16.5912 42.1336 17.6222L42.1922 18.939C42.1767 19.8873 42.0451 20.8171 41.7975 21.7285L41.3758 22.9855C40.9743 23.9799 40.4386 24.928 39.7689 25.8298L39.4265 26.2735L38.6026 27.2435L38.0204 27.8521L37.2116 28.6414L36.6647 29.1254L35.5802 29.9852L35.2906 30.1973C34.3805 30.8607 33.4385 31.4563 32.4646 31.9842L29.7663 33.3513C29.2548 33.5901 28.7374 33.8196 28.2141 34.0399C27.8302 34.2019 27.4351 34.3252 27.0289 34.41C26.9484 34.3942 26.8634 34.3961 26.7879 34.3766C26.4484 34.2902 26.1167 34.1798 25.7928 34.0455C25.2678 33.8282 24.7477 33.5995 24.2325 33.3595C23.3085 32.9273 22.3849 32.4615 21.4618 31.9622L20.4352 31.3724L20.1526 31.1949L18.7452 30.2395L18.36 29.9556L17.3146 29.1248L16.6958 28.591L16.0073 27.9308L15.3306 27.2271L14.6389 26.4158L14.1895 25.8248C13.5488 24.9276 13.0362 24.019 12.6518 23.0988C12.45 22.5986 12.2866 22.1137 12.1615 21.6442C11.9379 20.7882 11.8139 19.9057 11.7895 18.9969C11.7593 18.0485 11.8804 17.1078 12.1527 16.1746C12.2828 15.7361 12.4511 15.3003 12.6575 14.8673C13.4053 13.3315 14.5168 12.1108 15.9922 11.2053L16.8689 10.7339L17.3227 10.5514C17.8019 10.3718 18.2629 10.235 18.7056 10.141C19.199 10.0638 19.6749 10.0189 20.1331 10.0063ZM18.6489 11.9682C18.1206 12.1176 17.6574 12.3016 17.2592 12.5202C16.8135 12.7539 16.4107 13.021 16.0507 13.3214L15.9128 13.4423C15.4697 13.8241 15.0896 14.2467 14.7723 14.7099C14.1631 15.5693 13.7823 16.5115 13.63 17.5366C13.5695 18.036 13.542 18.5214 13.5475 18.9931C13.5567 19.4819 13.5962 19.9338 13.6658 20.3488C13.7447 20.8343 13.8643 21.2902 14.0246 21.7166L14.3733 22.5927L14.6144 23.1113C14.8582 23.6249 15.1303 24.0981 15.4307 24.5307L15.8914 25.1456L16.5687 25.9368L17.307 26.6946L17.8703 27.2277L18.703 27.9484L19.6969 28.7301L19.9971 28.9517L21.3982 29.8889L21.8961 30.1784L22.6174 30.5737L24.2394 31.4045L24.5132 31.5336L25.5763 32.0465L26.893 32.584C26.9543 32.6159 27.0176 32.6185 27.0831 32.5916C27.5476 32.4032 28.0092 32.2104 28.4678 32.0132L29.4572 31.5543L29.7713 31.4026L31.1906 30.6744L32.2008 30.1079L32.5854 29.8813C34.1623 28.9208 35.5926 27.7959 36.8761 26.5064L37.3753 25.967C38.1725 25.0909 38.8414 24.1333 39.3818 23.0944C39.8233 22.2333 40.1329 21.3435 40.3109 20.425C40.3914 19.9051 40.433 19.4009 40.4355 18.9125C40.4435 18.4564 40.4193 18.0229 40.3631 17.6121C40.2968 17.0725 40.1613 16.5631 39.9565 16.0839L39.6122 15.3557L39.1899 14.6747C38.884 14.2328 38.5208 13.8281 38.1004 13.4605L37.9493 13.3346C37.5612 13.0057 37.1634 12.7354 36.7559 12.524C35.2118 11.7149 33.5631 11.5125 31.81 11.9166L31.1101 12.123C29.7789 12.631 28.7089 13.5423 27.8025 14.6004C27.6174 14.8163 27.2725 15.2097 26.9679 15.216L26.4241 14.8301L25.6417 14.0811L24.9267 13.4007L24.2897 12.8808C23.8496 12.5502 23.3702 12.2946 22.8515 12.1142C21.4425 11.6358 20.0416 11.5872 18.6489 11.9682Z" fill="white"/>
<path id="Vector_2" d="M6.1154 15.1617C6.66425 15.2729 7.13673 15.5276 7.53284 15.9258L7.79405 16.2071C8.16582 16.6523 8.36325 17.1208 8.38633 17.6126C8.4178 18.0385 8.41969 18.473 8.39199 18.9161L8.3152 20.3569L8.2189 21.712L8.12323 23.1074L8.02882 24.528L7.96651 25.6886C7.96525 25.7096 7.97448 25.7241 7.9942 25.7321L8.71488 26.0109L8.9207 26.1166C9.53186 26.5025 9.94476 27.0261 10.391 27.6216C10.6772 28.0038 10.9489 28.38 11.2061 28.7501L11.7159 29.4922L12.0609 30.0115C12.2753 30.3425 12.4903 30.6778 12.706 31.0173C13.0899 31.6223 13.4363 32.2293 13.7452 32.8382C13.9827 33.3098 14.1629 33.7867 14.2858 34.2688C14.3907 34.9952 14.4239 35.7297 14.3853 36.4724C14.3244 37.6368 14.2609 38.8012 14.1946 39.9657C14.1841 40.1566 14.1851 40.5468 14.1977 41.1364L14.4885 43.9599L14.4382 44.2772C14.2487 44.7712 13.6281 44.8512 13.2152 44.6158C13.0008 44.4211 12.8583 44.1744 12.7878 43.8756C12.6812 43.4564 12.6145 43.0336 12.5877 42.6073L12.5279 41.0722L12.526 39.8278L12.5575 38.3166L12.5883 37.1333L12.672 35.476C12.6884 35.2692 12.6997 35.0608 12.706 34.851C12.7094 34.7436 12.6896 34.6435 12.6468 34.5508C12.5952 34.4388 12.5405 34.333 12.4826 34.2336C12.253 33.7569 12.0946 33.4437 12.0074 33.2939C11.354 32.1706 10.6587 31.0739 9.92147 30.0039L9.0705 28.7961C9.02896 28.721 8.98175 28.6595 8.92888 28.6116C8.649 28.1757 8.34626 27.8391 8.02064 27.6021C7.90441 27.5177 7.76614 27.4797 7.60585 27.4881C7.21729 27.4504 6.87741 27.5796 6.5862 27.8759C6.35164 28.1134 6.25324 28.3836 6.291 28.6865C6.35353 29.1338 6.47668 29.5656 6.66047 29.9819C6.70495 30.1279 6.7744 30.3104 6.86881 30.5295C7.28254 31.4929 7.62075 32.265 7.88342 32.8457L8.48577 34.1964C8.57956 34.4558 8.67334 34.6716 8.60159 34.914C8.51557 35.2077 8.32653 35.4026 8.03448 35.4987C7.88594 35.5323 7.7439 35.5388 7.60837 35.5182L7.4529 35.4716C7.26912 35.3894 7.13043 35.265 7.03686 35.0984C6.8921 34.8408 6.72992 34.5099 6.55032 34.1058L6.2438 33.4607L5.97189 32.8451C5.55585 31.8846 5.13099 30.9443 4.76656 29.9636C4.63564 29.5625 4.55424 29.1385 4.52235 28.6916C4.52319 27.7596 4.883 26.9846 5.60179 26.3665C5.72978 26.2566 5.90454 26.1515 6.1261 26.0512C6.13492 26.0472 6.14257 26.0409 6.1483 26.0331C6.15403 26.0253 6.15765 26.0161 6.15883 26.0065L6.1796 25.8391L6.26898 24.5834C6.40703 22.675 6.53459 20.774 6.65166 18.8803C6.67348 18.5227 6.67705 18.2122 6.66236 17.9487C6.64683 17.6672 6.5262 17.4083 6.30045 17.172C5.80027 16.7797 5.28268 16.7874 4.74768 17.1953L4.49277 17.459C4.28967 17.9042 4.1147 18.3916 3.96783 18.9212L3.53542 20.3443L2.77698 23.0325L2.38485 24.5097L2.06196 25.8838C1.92811 26.5241 1.83202 27.0954 1.77369 27.5977C1.64235 28.7189 1.71683 29.8476 1.99713 30.9839L2.10288 31.3232L2.71404 32.8526L3.92881 35.5226L5.19393 38.3978L5.70439 39.7246C6.02455 40.6519 6.25534 41.5822 6.39675 42.5154C6.4857 42.9883 6.53983 43.4482 6.55914 43.8951C6.51948 44.2136 6.47794 44.4647 6.18023 44.6347C5.92385 44.7509 5.6639 44.7662 5.40038 44.6806C5.14987 44.5994 5.0863 44.4137 4.99189 44.1714L4.9151 43.8888L4.63942 42.5727L4.29261 41.0791L3.83943 39.7227L3.44542 38.7553L3.29751 38.3871L2.01539 35.5642L1.39604 34.2015C1.24582 33.8629 1.10106 33.5324 0.961746 33.2101C0.695294 32.5925 0.469334 31.9738 0.283866 31.354C0.180642 30.931 0.112246 30.5127 0.0786768 30.0989L0 28.6677L0.0327295 27.3604C0.0885376 26.8338 0.180013 26.3088 0.307155 25.7856L0.599833 24.5311L1.3331 21.7126L1.70509 20.3751L2.55102 17.5761C2.72914 17.0455 2.88398 16.676 3.24904 16.238L3.5499 15.9447C3.9628 15.5515 4.44724 15.2976 5.00322 15.1831C5.37709 15.1096 5.74782 15.1025 6.1154 15.1617Z" fill="white"/>
<path id="Vector_3" d="M49.1163 15.2197C49.6618 15.3699 50.1397 15.6353 50.5501 16.0159L50.7043 16.1745C50.9615 16.4607 51.1505 16.7819 51.2714 17.1381C51.4795 17.7512 51.6769 18.3714 51.8637 18.9987L52.2507 20.3035L52.6523 21.7178L53.0419 23.1409L53.2509 23.8855L53.3894 24.4796L53.7129 25.9122L53.9206 27.2189L53.9999 28.6376L53.9363 30.0128C53.8872 30.4698 53.7966 30.9395 53.6644 31.4221C53.4999 31.9772 53.2979 32.5334 53.0583 33.0907C52.9047 33.4469 52.7471 33.8025 52.5856 34.1575L51.3123 36.9578L50.703 38.3633C50.3019 39.2554 49.9513 40.1875 49.6513 41.1598L49.3466 42.5199C49.2484 43.1135 49.1528 43.7202 48.9337 44.2747C48.7185 44.8198 48.1935 44.8249 47.7315 44.6033C47.5142 44.4736 47.411 44.2424 47.4219 43.9097C47.4273 43.4469 47.4768 42.9821 47.5704 42.5155L47.8392 41.2013C48.0729 40.2803 48.388 39.3487 48.7846 38.4067L49.9792 35.6795L51.3318 32.7206L51.8372 31.4674C52.1163 30.619 52.2606 29.7644 52.2703 28.9038C52.2791 28.0642 52.1868 27.1874 51.9933 26.2735L51.9178 25.9097L51.5848 24.474L51.2462 23.1881L50.4349 20.3179L50.0289 18.9628C49.9181 18.5973 49.7979 18.2373 49.6683 17.8827C49.5877 17.6624 49.5046 17.4996 49.419 17.3943C48.8802 16.7303 47.8876 16.6881 47.4483 17.4931C47.3724 17.6324 47.3323 17.7856 47.3281 17.9526C47.3205 18.2447 47.326 18.5642 47.3445 18.9112C47.4259 20.4285 47.522 21.9452 47.6327 23.4612L47.6913 24.3128L47.8008 25.909C47.7949 25.9476 47.7991 25.9827 47.8134 26.0142C47.8219 26.0328 47.8369 26.0476 47.8555 26.0557C48.3528 26.271 48.704 26.6329 49.0036 27.076L49.1263 27.2843C49.3521 27.698 49.4597 28.1451 49.4492 28.6256C49.4383 29.0972 49.354 29.5622 49.1962 30.0204L49.0829 30.3294L48.6379 31.3982L48.0431 32.7476C47.7213 33.4648 47.3829 34.1963 47.0279 34.9424C46.8025 35.4151 46.4205 35.6606 45.8861 35.4913C45.5546 35.3398 45.3704 35.0689 45.3335 34.6787C45.3251 34.5876 45.3652 34.4435 45.4537 34.2463L46.124 32.7885L46.5136 31.9269L46.7031 31.5008L47.2828 30.1009C47.4305 29.7262 47.5545 29.3427 47.6548 28.9504C47.6766 28.8648 47.6864 28.7716 47.6843 28.6709C47.7087 28.5064 47.6948 28.3522 47.6428 28.2083C47.6067 28.1088 47.5385 28.0098 47.4382 27.9112C47.138 27.6166 46.8095 27.4417 46.3701 27.4882C46.1133 27.5113 45.9014 27.6034 45.7344 27.7646C45.5003 27.9907 45.2521 28.2832 44.9898 28.642C44.6697 29.0809 44.3484 29.5389 44.0262 30.016L43.5824 30.6876L43.1532 31.3415L42.284 32.7583L42.046 33.1731L41.5721 34.0965C41.4798 34.2505 41.4009 34.4059 41.3354 34.5629C41.2935 34.6648 41.2748 34.7771 41.2794 34.8996C41.2891 35.1308 41.3014 35.3629 41.3165 35.5957L41.3826 36.9125L41.4349 38.3979L41.4632 39.6983L41.4556 41.1736L41.4009 42.3569C41.3711 42.8978 41.2935 43.4215 41.168 43.9279C41.0954 44.2028 40.9769 44.422 40.8124 44.5857C40.3781 44.8588 39.8368 44.7802 39.5611 44.3377C39.4516 44.1621 39.4944 43.8851 39.5158 43.6799C39.5687 43.1815 39.6264 42.6727 39.6889 42.1536C39.7329 41.7911 39.7621 41.4285 39.7764 41.066L39.7694 39.714C39.7304 39.0128 39.692 38.3098 39.6543 37.6048C39.6085 36.756 39.5873 36.0317 39.5907 35.4321C39.5951 34.6189 39.6763 34.0052 39.9923 33.3336C40.0636 33.1826 40.1418 33.0162 40.227 32.8345C40.7171 31.9256 41.2549 31.0256 41.8402 30.1343C42.3815 29.3064 42.9442 28.4945 43.5283 27.6985C43.9368 27.1414 44.4139 26.5221 44.9961 26.1564C45.3102 25.9594 45.6727 25.87 46.0214 25.7341C46.0424 25.7261 46.0521 25.711 46.0504 25.6887L45.9497 24.4557L45.8502 23.1692L45.7319 21.6108L45.6469 20.3979L45.5689 18.9118L45.5821 17.6127C45.6131 17.2242 45.7313 16.8721 45.9365 16.5566C46.0367 16.4021 46.1377 16.2664 46.2392 16.1493L46.3714 15.9926C46.7709 15.5701 47.2547 15.299 47.8228 15.1794C48.2554 15.1009 48.6866 15.1144 49.1163 15.2197Z" fill="white"/>
</g>
</g>
</svg>
