<svg width="54" height="54" viewBox="0 0 54 54" fill="none" xmlns="http://www.w3.org/2000/svg">
<g id="Coziness and comfort">
<g id="Vector">
<path d="M30.3003 38.72C29.9201 39.391 29.4197 40.0821 28.7989 40.7934C28.5775 41.0478 28.1855 41.0667 27.9249 40.8533C27.67 40.6439 27.6116 40.2716 27.8293 40.0188C28.5175 39.2185 29.1265 38.3804 29.5345 37.4472C29.9257 36.5523 30.1602 35.2946 29.4103 34.518C29.3548 34.4604 29.3002 34.4001 29.2465 34.3369C27.7582 32.5858 26.8364 30.3093 27.7864 28.099C28.2194 27.0913 28.9619 26.2213 29.8359 25.5358C30.0292 25.3838 30.2304 25.2299 30.4395 25.0739C30.4629 25.0563 30.4893 25.0436 30.5188 25.0357C30.8044 24.9592 31.0436 25.0057 31.2363 25.1753C31.3104 25.2405 31.3578 25.3199 31.3785 25.4135C31.4463 25.7219 31.3556 25.9968 31.0848 26.1629C30.3056 26.6413 29.5965 27.3347 29.1501 28.1046C28.559 29.1234 28.461 30.2036 28.8561 31.345C29.1203 32.1082 29.5582 32.8201 30.0654 33.459C30.143 33.5571 30.2303 33.6502 30.3272 33.7382C30.5178 33.9118 30.6817 34.1328 30.8189 34.4012C31.5316 35.7962 31.0281 37.4362 30.3003 38.72Z" fill="#1D231F"/>
<path d="M18.2806 29.6603C18.1275 31.0512 18.8501 32.3756 19.68 33.4649C19.7496 33.5562 19.8347 33.648 19.9352 33.7401C20.4705 34.2306 20.7571 35.0648 20.7647 35.788C20.7844 37.6234 19.6828 39.2989 18.5442 40.6736C18.433 40.8078 18.3386 40.8932 18.2609 40.9299C18.0717 41.02 17.8909 41.0232 17.7183 40.9398C17.4471 40.8087 17.296 40.5173 17.3727 40.2311C17.3955 40.1464 17.4536 40.0499 17.5471 39.9418C18.1327 39.2635 18.6475 38.521 19.0221 37.773C19.5293 36.7596 19.8411 35.4483 19.0197 34.5042C19.0149 34.4987 19.0087 34.4944 19.0018 34.4919C18.9948 34.4893 18.9873 34.4886 18.9799 34.4897C18.8939 34.5019 18.8911 34.4361 18.8517 34.3893C17.7485 33.0748 16.9198 31.4618 17.0062 29.7288C17.1014 27.8159 18.4088 26.1459 19.9939 25.1251C20.2241 24.9767 20.4733 24.9507 20.7141 25.0995C20.9198 25.2265 21.0145 25.4169 20.9982 25.6707C20.9865 25.8601 20.8933 26.0676 20.7253 26.1589C20.6414 26.2048 20.5636 26.2522 20.4918 26.301C19.3243 27.0963 18.4337 28.2706 18.2806 29.6603Z" fill="#1D231F"/>
<path d="M24.6185 34.5096C24.607 34.4965 24.592 34.4907 24.5736 34.4923C24.4888 34.4998 24.4965 34.4443 24.4579 34.3986C23.5143 33.2868 22.7667 31.93 22.6238 30.4693C22.5333 29.5446 22.701 28.6555 23.1269 27.8019C23.6075 26.8381 24.3676 25.999 25.2485 25.3596C25.4107 25.2418 25.5664 25.1434 25.7155 25.0644C25.8517 24.9919 25.9972 24.9806 26.1519 25.0305C26.3415 25.0917 26.4716 25.1993 26.5422 25.3533C26.6755 25.6451 26.5751 26.0396 26.2712 26.1924C26.2169 26.2197 26.1664 26.2491 26.1198 26.2806C25.4327 26.7441 24.8847 27.305 24.476 27.9633C23.923 28.8544 23.744 29.7944 23.9391 30.7831C24.1299 31.7481 24.6494 32.6533 25.2714 33.46C25.3456 33.5563 25.4376 33.6555 25.5476 33.7576C26.0853 34.2573 26.3668 35.1109 26.3647 35.8491C26.3615 36.9456 25.9375 38.0464 25.3577 38.998C24.9707 39.6335 24.5224 40.2414 24.013 40.8217C23.9512 40.8923 23.8714 40.9413 23.7737 40.9686C23.4836 41.0502 23.2493 40.9728 23.0711 40.7363C22.9169 40.5316 22.9112 40.2197 23.0875 40.0162C23.5688 39.4608 23.984 38.8916 24.333 38.3086C24.9939 37.2039 25.5814 35.6203 24.6185 34.5096Z" fill="#1D231F"/>
<path d="M33.0812 28.9725C33.4115 27.4095 34.5359 26.074 35.8624 25.1752C36.0023 25.0805 36.1286 25.0253 36.2415 25.0095C36.4873 24.9751 36.6903 25.0342 36.8506 25.187C37.0572 25.3842 37.0309 25.7687 36.885 25.9786C36.8405 26.0425 36.7526 26.1167 36.6211 26.2014C35.7315 26.7741 34.928 27.6272 34.5218 28.6167C33.8108 30.3493 34.5929 32.0741 35.6761 33.4557C35.758 33.5603 35.8432 33.6524 35.9315 33.7318C36.3931 34.1455 36.6675 34.8412 36.7399 35.4407C36.8417 36.2875 36.6227 37.2013 36.2686 38.0012C35.8204 39.0128 35.1927 39.8955 34.4247 40.7928C34.3682 40.859 34.3021 40.9085 34.2267 40.9411C33.9632 41.0555 33.6972 41.0018 33.4967 40.7932C33.3468 40.6366 33.2829 40.3688 33.3735 40.1673C33.4047 40.0981 33.4495 40.0299 33.5077 39.9626C34.0347 39.3523 34.4797 38.7243 34.8427 38.0785C35.0677 37.6783 35.2423 37.2693 35.3665 36.8515C35.6001 36.0678 35.6066 35.1323 35.029 34.5158C34.9716 34.4548 34.9168 34.3925 34.8645 34.3289C33.8055 33.0372 32.9972 31.4762 33 29.7964C33.0003 29.5019 33.0274 29.2273 33.0812 28.9725Z" fill="#1D231F"/>
<path d="M35.749 9.05832L36.6859 9.76994C36.6896 9.77299 36.6941 9.77487 36.6988 9.77539C36.7035 9.77591 36.7083 9.77504 36.7126 9.77287C36.717 9.77071 36.7207 9.76734 36.7233 9.76314C36.7259 9.75895 36.7274 9.7541 36.7275 9.74915V8.36404C36.7152 7.76563 36.7198 7.168 36.7413 6.57114C36.7772 5.54646 37.3328 5.33159 38.2697 5.32927C40.3391 5.32619 42.4089 5.32658 44.479 5.33043C45.8098 5.33274 45.9092 5.97504 45.9126 7.08752C45.9211 10.3329 45.9246 13.5779 45.923 16.8226C45.923 16.8406 45.9272 16.8584 45.9352 16.8746C45.9432 16.8908 45.9549 16.905 45.9692 16.9161C48.3721 18.7552 50.7707 20.5963 53.1651 22.4392C53.7647 22.9002 54.2094 23.3241 53.8975 24.0716C53.7127 24.5144 53.3457 24.737 52.7966 24.7393C50.5347 24.7485 48.2712 24.7489 46.0062 24.7404C45.9854 24.7404 45.9654 24.7488 45.9507 24.7638C45.9359 24.7787 45.9277 24.799 45.9277 24.8201C45.9261 31.4334 45.9176 38.0567 45.9022 44.6899C45.9015 44.9533 45.8953 45.2163 45.8838 45.4789C45.7844 47.8113 43.9384 49.7221 41.6187 49.9289C41.3838 49.9496 41.1504 49.9747 40.9186 50.0039H13.8241C13.0763 49.9346 12.5595 49.8403 12.2738 49.7209C10.5564 49.0062 9.52937 47.8079 9.19282 46.1259C9.11195 45.7215 9.07114 44.9537 9.07036 43.8224C9.06959 37.4787 9.06959 31.1357 9.07036 24.7936C9.07036 24.7789 9.0644 24.7648 9.05379 24.7544C9.04317 24.744 9.02877 24.7381 9.01376 24.7381C6.76955 24.7451 4.51726 24.7481 2.25688 24.7474C1.52216 24.7474 1.1032 24.3862 1 23.6638C1.03774 23.5382 1.04659 23.427 1.02657 23.3299C1.15441 23.0534 1.40856 22.7685 1.78902 22.4751C7.03679 18.4379 12.2877 14.4012 17.5416 10.3649L17.6225 10.299C20.3619 8.20423 23.0928 6.09981 25.8153 3.98575C26.1796 3.70234 26.5538 3.43317 26.9382 3.17826C27.2539 2.96801 27.5843 2.94375 27.9293 3.10548C28.1627 3.21561 28.5339 3.46899 29.043 3.86561C31.2725 5.60306 33.5079 7.33397 35.749 9.05832ZM26.8192 9.64864C27.2662 9.31132 27.7792 9.34135 28.2112 9.66713C33.8117 13.8929 39.4084 18.1245 45.0012 22.3618C45.129 22.4589 45.263 22.5074 45.4032 22.5074C46.7679 22.512 48.1287 22.5132 49.4857 22.5109C49.5489 22.5109 49.5554 22.4912 49.5054 22.4519L27.562 5.58458C27.5219 5.55377 27.4819 5.55377 27.4418 5.58458L5.49958 22.4473C5.44413 22.4897 5.45145 22.5109 5.52153 22.5109C6.87237 22.5124 8.23861 22.5062 9.62025 22.4924C9.76735 22.4908 9.93255 22.4208 10.1158 22.2821C15.6771 18.0625 21.2448 13.8513 26.8192 9.64864ZM43.608 15.1036C43.6141 15.1083 43.6214 15.1112 43.6291 15.112C43.6368 15.1128 43.6445 15.1115 43.6515 15.1081C43.6584 15.1048 43.6643 15.0995 43.6685 15.093C43.6726 15.0865 43.6749 15.079 43.675 15.0712L43.668 7.63856C43.668 7.62753 43.6637 7.61695 43.6559 7.60915C43.6481 7.60135 43.6375 7.59697 43.6265 7.59697L38.9813 7.60159C38.9703 7.60159 38.9597 7.60597 38.9519 7.61377C38.9441 7.62157 38.9397 7.63215 38.9397 7.64318L38.9328 11.4866C38.9327 11.4931 38.9341 11.4994 38.9369 11.5053C38.9397 11.5111 38.9439 11.5162 38.949 11.5201L43.608 15.1036ZM41.8982 47.6207C42.901 47.295 43.6715 46.35 43.6715 45.2387C43.6692 38.2688 43.6615 31.299 43.6484 24.3292C43.6473 24.0311 43.2834 23.8925 43.0789 23.7377C37.9174 19.8123 32.7443 15.8861 27.5597 11.9591C27.5431 11.9464 27.5228 11.9396 27.5018 11.9396C27.4807 11.9396 27.4601 11.9464 27.443 11.9591L11.4305 24.0947C11.396 24.1205 11.3681 24.154 11.3488 24.1925C11.3296 24.231 11.3196 24.2734 11.3196 24.3165C11.3265 30.9713 11.3265 37.6296 11.3196 44.2914C11.3188 45.1701 11.3789 45.7751 11.4998 46.1062C11.9284 47.2811 12.9692 47.757 14.1834 47.757C22.886 47.7609 31.5887 47.7617 40.2913 47.7594C40.8216 47.7594 41.4211 47.7755 41.8982 47.6207Z" fill="#1D231F"/>
</g>
</g>
</svg>
