<svg width="54" height="54" viewBox="0 0 54 54" fill="none" xmlns="http://www.w3.org/2000/svg">
<g id="Aesthetics" clip-path="url(#clip0_245_14060)">
<g id="Vector">
<mask id="path-1-outside-1_245_14060" maskUnits="userSpaceOnUse" x="7" y="11" width="48" height="40" fill="black">
<rect fill="white" x="7" y="11" width="48" height="40"/>
<path d="M40.3517 32.8909C40.6211 32.8909 40.6691 32.7911 40.4955 32.5915C38.2833 30.046 35.9791 27.3783 33.5829 24.5884C33.2488 24.1991 33.2552 23.836 33.6024 23.4991C33.6992 23.4057 33.8306 23.3532 33.9676 23.3531L38.4711 23.3643C38.496 23.3649 38.5205 23.3586 38.5418 23.346C38.563 23.3334 38.58 23.3151 38.591 23.2932C38.602 23.2713 38.6064 23.2467 38.6037 23.2222C38.6011 23.1977 38.5915 23.1743 38.576 23.1547L31.271 14.2495C31.2422 14.2144 31.2056 14.1861 31.1639 14.1666C31.1222 14.1472 31.0764 14.137 31.0301 14.137C30.9837 14.137 30.9379 14.1472 30.8962 14.1666C30.8545 14.1861 30.8179 14.2144 30.7892 14.2495L23.5657 23.0686C23.5423 23.0969 23.5278 23.131 23.524 23.1669C23.5203 23.2029 23.5273 23.2392 23.5444 23.2717C23.5615 23.3043 23.5879 23.3316 23.6206 23.3507C23.6532 23.3697 23.6908 23.3796 23.7289 23.3793C25.0993 23.3494 26.4981 23.3431 27.9254 23.3606C28.0472 23.3606 28.1612 23.3805 28.2674 23.4205C28.3761 23.4592 28.4735 23.5225 28.5514 23.6051C28.6294 23.6877 28.6856 23.7871 28.7153 23.895C28.745 24.0029 28.7474 24.1161 28.7222 24.225C28.697 24.334 28.6449 24.4355 28.5704 24.521L21.5724 32.6064C21.5496 32.6333 21.5352 32.6659 21.5308 32.7004C21.5265 32.7349 21.5324 32.7698 21.5479 32.8012C21.5633 32.8325 21.5877 32.859 21.6182 32.8776C21.6487 32.8961 21.684 32.9059 21.72 32.9059L26.6509 32.8685C26.8022 32.8674 26.948 32.923 27.0575 33.0236C27.167 33.1242 27.2316 33.2619 27.2377 33.4075C27.261 33.9952 26.9385 34.4069 26.6548 34.9085C25.3674 37.1944 24.067 39.4192 22.7536 41.5828C22.7344 41.6155 22.7243 41.6525 22.7244 41.6901C22.7244 41.7276 22.7346 41.7644 22.754 41.7967C22.7733 41.829 22.801 41.8557 22.8344 41.874C22.8678 41.8923 22.9056 41.9016 22.944 41.901L28.2052 41.856C28.3069 41.855 28.4078 41.8736 28.502 41.9106C28.5962 41.9476 28.682 42.0023 28.7542 42.0716C28.8265 42.1408 28.8839 42.2233 28.923 42.3141C28.9622 42.405 28.9823 42.5025 28.9823 42.6009L28.9668 49.2976C28.9668 49.8142 28.7013 50.0363 28.1702 49.9639L27.9759 49.9377C27.8423 49.9198 27.7197 49.8559 27.6305 49.7577C27.5414 49.6594 27.4916 49.5334 27.4902 49.4025L27.432 43.5368C27.432 43.412 27.3659 43.3484 27.2338 43.3459H21.2305C21.107 43.3463 20.9856 43.3155 20.8784 43.2564C20.7712 43.1973 20.6819 43.112 20.6194 43.0091C20.5569 42.9061 20.5234 42.789 20.5222 42.6695C20.5211 42.55 20.5522 42.4321 20.6126 42.3277L25.12 34.5604C25.1359 34.5339 25.1442 34.5038 25.144 34.4732C25.1438 34.4426 25.1351 34.4126 25.1189 34.3863C25.1027 34.36 25.0795 34.3383 25.0516 34.3235C25.0238 34.3087 24.9924 34.3014 24.9607 34.3021C23.4479 34.3196 21.6812 34.3208 19.6607 34.3059C19.3912 34.3059 19.1711 34.1836 19.0001 33.939C18.9307 33.8423 18.8962 33.7264 18.9018 33.6094C18.9075 33.4924 18.9529 33.3806 19.0312 33.2915L26.138 25.06C26.1592 25.0363 26.1727 25.0072 26.1769 24.9763C26.1812 24.9453 26.176 24.9138 26.162 24.8856C26.148 24.8574 26.1258 24.8338 26.0981 24.8176C26.0703 24.8014 26.0383 24.7932 26.0059 24.7943L21.7045 24.8167C21.6126 24.8168 21.522 24.7951 21.4407 24.7533C21.3594 24.7115 21.2898 24.651 21.2382 24.5771C20.9999 24.2278 21.0051 23.8959 21.2538 23.5814C22.2407 22.3387 23.2471 21.1109 24.2729 19.8981C24.3711 19.7819 24.4253 19.6368 24.4267 19.4866C24.4282 19.3363 24.3767 19.1898 24.2807 19.0708L20.3057 14.1896C20.2813 14.1593 20.2501 14.1348 20.2144 14.1179C20.1787 14.101 20.1395 14.0922 20.0997 14.0922C20.06 14.0922 20.0207 14.101 19.985 14.1179C19.9493 14.1348 19.9181 14.1593 19.8938 14.1896L12.6082 23.1173C12.589 23.1407 12.5771 23.1689 12.574 23.1986C12.5708 23.2283 12.5765 23.2583 12.5904 23.285C12.6042 23.3117 12.6257 23.334 12.6522 23.3494C12.6788 23.3648 12.7093 23.3725 12.7403 23.3718L17.0573 23.3381C17.2007 23.3376 17.3414 23.3764 17.4627 23.4502C17.584 23.5239 17.681 23.6295 17.7422 23.7545C17.8034 23.8795 17.8263 24.0187 17.8082 24.1558C17.7901 24.2929 17.7318 24.4222 17.6401 24.5285L10.5954 32.6514C10.5769 32.6734 10.565 32.7002 10.5612 32.7284C10.5575 32.7566 10.562 32.7852 10.5742 32.8107C10.5865 32.8363 10.6059 32.8578 10.6303 32.8726C10.6547 32.8875 10.6831 32.8951 10.712 32.8947L15.5768 32.8722C15.7141 32.8719 15.8492 32.9061 15.9685 32.9715C16.0878 33.0369 16.1873 33.1311 16.2569 33.2448C16.3265 33.3584 16.3638 33.4876 16.3652 33.6192C16.3666 33.7509 16.3319 33.8806 16.2646 33.9952L11.8233 41.6202C11.8062 41.6501 11.7974 41.6838 11.7977 41.7179C11.7981 41.752 11.8076 41.7853 11.8253 41.8146C11.8431 41.8438 11.8684 41.8678 11.8987 41.8843C11.929 41.9008 11.9633 41.9091 11.9981 41.9084L17.1544 41.8897C17.7269 41.8872 18.0131 42.1617 18.0131 42.7132V49.2976C18.0131 49.7693 17.7683 49.9989 17.2787 49.9864H17.1661C16.7516 49.9764 16.5431 49.7718 16.5405 49.3725L16.4938 43.4881C16.4938 43.4454 16.4762 43.4045 16.4449 43.3743C16.4136 43.3441 16.3711 43.3271 16.3268 43.3271C14.3166 43.3471 12.3284 43.3508 10.3623 43.3384C10.2431 43.3384 10.1292 43.3172 10.0204 43.2747C9.93063 43.2394 9.84973 43.1862 9.78299 43.1185C9.71625 43.0508 9.66521 42.9702 9.63325 42.8821C9.60128 42.794 9.58913 42.7003 9.59758 42.6073C9.60604 42.5143 9.63492 42.4241 9.6823 42.3427L14.1935 34.5604C14.2093 34.5342 14.2175 34.5045 14.2175 34.4742C14.2175 34.4439 14.2091 34.4142 14.1934 34.388C14.1776 34.3618 14.155 34.34 14.1277 34.325C14.1004 34.3099 14.0695 34.302 14.0381 34.3021L8.67592 34.3059C8.57204 34.307 8.46916 34.2846 8.37542 34.2404C8.28167 34.1962 8.19964 34.1315 8.13581 34.0513C7.85993 33.7107 8.05033 33.3326 8.29901 33.0481C10.5967 30.4054 12.8841 27.7577 15.1611 25.1049C15.1865 25.0748 15.2024 25.0382 15.2068 24.9996C15.2112 24.9609 15.2039 24.9219 15.1859 24.8871C15.1678 24.8524 15.1398 24.8234 15.105 24.8036C15.0703 24.7838 15.0304 24.774 14.9901 24.7755C13.7337 24.8454 12.2986 24.8454 10.6848 24.7755C10.4128 24.7631 10.2405 24.5397 10.168 24.1055C10.152 24.0122 10.1562 23.9168 10.1802 23.8253C10.2043 23.7338 10.2478 23.6482 10.3079 23.574L19.5052 12.3217C19.5762 12.2352 19.6665 12.1654 19.7694 12.1173C19.8724 12.0693 19.9853 12.0443 20.0997 12.0443C20.2141 12.0443 20.3271 12.0693 20.43 12.1173C20.533 12.1654 20.6233 12.2352 20.6942 12.3217L25.3687 18.0339C25.4956 18.1911 25.6238 18.1911 25.7534 18.0339L30.4705 12.2918C30.5389 12.2084 30.626 12.141 30.7253 12.0947C30.8245 12.0484 30.9334 12.0244 31.0437 12.0244C31.154 12.0244 31.2628 12.0484 31.3621 12.0947C31.4613 12.141 31.5484 12.2084 31.6168 12.2918L36.299 18.0339C36.3215 18.0619 36.3504 18.0846 36.3834 18.1001C36.4164 18.1157 36.4527 18.1238 36.4894 18.1238C36.5262 18.1238 36.5624 18.1157 36.5954 18.1001C36.6284 18.0846 36.6573 18.0619 36.6798 18.0339L41.463 12.2431C41.5263 12.1669 41.6066 12.1055 41.6979 12.0634C41.7892 12.0213 41.8892 11.9996 41.9905 12C42.0917 12.0004 42.1916 12.0228 42.2826 12.0655C42.3736 12.1082 42.4534 12.1702 42.5161 12.2468L51.8028 23.6451C51.8906 23.7517 51.9454 23.88 51.9609 24.0154C51.9763 24.1507 51.9517 24.2874 51.89 24.4099C51.8283 24.5323 51.7319 24.6355 51.612 24.7075C51.492 24.7794 51.3534 24.8173 51.2121 24.8167L46.9457 24.8092C46.918 24.8086 46.8906 24.8157 46.867 24.8298C46.8434 24.8438 46.8245 24.8641 46.8126 24.8882C46.8006 24.9124 46.7962 24.9393 46.7999 24.9658C46.8035 24.9923 46.815 25.0172 46.833 25.0376L53.8039 33.1005C53.8856 33.194 53.9429 33.3044 53.971 33.4225C54.0836 33.9053 53.866 34.2872 53.3609 34.2909C51.558 34.3009 49.7706 34.3021 47.9987 34.2946C47.9683 34.2948 47.9384 34.3026 47.9121 34.3173C47.8858 34.332 47.8639 34.353 47.8486 34.3784C47.8333 34.4037 47.8251 34.4324 47.8248 34.4617C47.8246 34.491 47.8323 34.5199 47.8472 34.5454C49.3574 37.1158 50.8793 39.7411 52.4128 42.4213C52.5423 42.6484 52.4931 42.8892 52.2652 43.1437C52.2077 43.2074 52.1368 43.2586 52.0571 43.2941C51.9774 43.3296 51.8907 43.3485 51.8028 43.3496H45.7917C45.631 43.3496 45.5507 43.4282 45.5507 43.5854L45.5741 49.1741C45.5766 49.6532 45.3331 49.9265 44.8436 49.9939C44.6519 50.0213 44.4628 49.9565 44.2762 49.7992C44.2137 49.745 44.1634 49.6787 44.1286 49.6046C44.0939 49.5306 44.0753 49.4502 44.0742 49.3688L44.0703 42.7058C44.0703 42.1667 44.3501 41.8985 44.9096 41.901L50.1475 41.9309C50.3003 41.9334 50.3405 41.8685 50.2679 41.7362C48.851 39.1958 47.3925 36.6716 45.8927 34.1636C45.7554 33.9341 45.6971 33.6907 45.7178 33.4337C45.7296 33.2838 45.7994 33.1437 45.9133 33.0417C46.0272 32.9396 46.1767 32.8831 46.3318 32.8834L51.422 32.8872C51.445 32.887 51.4675 32.8806 51.487 32.8688C51.5065 32.857 51.5221 32.8402 51.532 32.8205C51.5418 32.8008 51.5454 32.7789 51.5425 32.7576C51.5395 32.7362 51.53 32.7162 51.5152 32.7L44.4045 24.4798C44.3459 24.4105 44.3034 24.3298 44.28 24.2432C44.2565 24.1567 44.2526 24.0663 44.2685 23.9782C44.3384 23.5864 44.5858 23.3855 45.0106 23.3756C46.5157 23.3481 47.987 23.3556 49.4247 23.398C49.451 23.3993 49.4771 23.3933 49.4999 23.3806C49.5226 23.3679 49.5411 23.3492 49.553 23.3266C49.5649 23.304 49.5698 23.2786 49.567 23.2534C49.5643 23.2282 49.554 23.2043 49.5374 23.1847L42.1508 14.1671C42.129 14.1406 42.1012 14.1192 42.0696 14.1045C42.038 14.0898 42.0033 14.0822 41.9682 14.0822C41.9331 14.0822 41.8984 14.0898 41.8668 14.1045C41.8351 14.1192 41.8074 14.1406 41.7855 14.1671L37.6473 19.2205C37.5919 19.29 37.5618 19.3749 37.5618 19.4617C37.5618 19.5485 37.5919 19.6323 37.6473 19.6997C38.6602 20.93 39.686 22.1827 40.7248 23.4579C40.888 23.66 40.9734 23.8772 40.9812 24.1092C40.9849 24.2001 40.9694 24.2907 40.9357 24.3757C40.9021 24.4607 40.8509 24.5383 40.7853 24.604C40.7197 24.6696 40.6409 24.722 40.5538 24.7579C40.4666 24.7938 40.3728 24.8125 40.2779 24.813H36.0581C36.0272 24.8135 35.9969 24.8223 35.9708 24.8385C35.9448 24.8546 35.924 24.8774 35.9109 24.9041C35.8979 24.9308 35.8931 24.9604 35.8972 24.9893C35.9012 25.0183 35.9139 25.0454 35.9338 25.0675C38.0165 27.4807 40.1911 30.0011 42.4578 32.6289C42.7764 32.9995 43.1183 33.2578 43.0678 33.7781C43.0552 33.9188 42.988 34.0499 42.8794 34.1455C42.7708 34.2411 42.6287 34.2943 42.4811 34.2946L36.9635 34.2984C36.944 34.2986 36.9249 34.3038 36.9081 34.3132C36.8913 34.3227 36.8774 34.3362 36.8676 34.3524C36.8578 34.3686 36.8525 34.387 36.8523 34.4057C36.8521 34.4245 36.8569 34.4429 36.8663 34.4593L41.4397 42.3352C41.5002 42.4384 41.5315 42.555 41.5306 42.6735C41.5297 42.792 41.4965 42.9082 41.4343 43.0105C41.3722 43.1128 41.2833 43.1976 41.1765 43.2564C41.0697 43.3153 40.9488 43.3461 40.8258 43.3459L34.9196 43.3533C34.844 43.3533 34.7715 43.382 34.7176 43.4331C34.6638 43.4843 34.6331 43.5538 34.6321 43.6266L34.6282 49.2901C34.6282 49.7593 34.3847 49.9939 33.8977 49.9939H33.7928C33.3731 49.9914 33.1633 49.7892 33.1633 49.3875V42.5261C33.1633 42.0969 33.3861 41.8822 33.8316 41.8822L39.1161 41.901C39.1504 41.9012 39.1841 41.8928 39.2139 41.8765C39.2437 41.8602 39.2686 41.8366 39.2862 41.808C39.3038 41.7793 39.3135 41.7466 39.3143 41.7131C39.3152 41.6795 39.3071 41.6462 39.291 41.6165C37.8041 39.0062 36.356 36.5119 34.9468 34.1337C34.8095 33.8991 34.7694 33.6446 34.8263 33.3701C34.856 33.2308 34.9346 33.1059 35.0487 33.0164C35.1628 32.927 35.3053 32.8787 35.4519 32.8797L40.3517 32.8909Z"/>
</mask>
<path d="M40.3517 32.8909C40.6211 32.8909 40.6691 32.7911 40.4955 32.5915C38.2833 30.046 35.9791 27.3783 33.5829 24.5884C33.2488 24.1991 33.2552 23.836 33.6024 23.4991C33.6992 23.4057 33.8306 23.3532 33.9676 23.3531L38.4711 23.3643C38.496 23.3649 38.5205 23.3586 38.5418 23.346C38.563 23.3334 38.58 23.3151 38.591 23.2932C38.602 23.2713 38.6064 23.2467 38.6037 23.2222C38.6011 23.1977 38.5915 23.1743 38.576 23.1547L31.271 14.2495C31.2422 14.2144 31.2056 14.1861 31.1639 14.1666C31.1222 14.1472 31.0764 14.137 31.0301 14.137C30.9837 14.137 30.9379 14.1472 30.8962 14.1666C30.8545 14.1861 30.8179 14.2144 30.7892 14.2495L23.5657 23.0686C23.5423 23.0969 23.5278 23.131 23.524 23.1669C23.5203 23.2029 23.5273 23.2392 23.5444 23.2717C23.5615 23.3043 23.5879 23.3316 23.6206 23.3507C23.6532 23.3697 23.6908 23.3796 23.7289 23.3793C25.0993 23.3494 26.4981 23.3431 27.9254 23.3606C28.0472 23.3606 28.1612 23.3805 28.2674 23.4205C28.3761 23.4592 28.4735 23.5225 28.5514 23.6051C28.6294 23.6877 28.6856 23.7871 28.7153 23.895C28.745 24.0029 28.7474 24.1161 28.7222 24.225C28.697 24.334 28.6449 24.4355 28.5704 24.521L21.5724 32.6064C21.5496 32.6333 21.5352 32.6659 21.5308 32.7004C21.5265 32.7349 21.5324 32.7698 21.5479 32.8012C21.5633 32.8325 21.5877 32.859 21.6182 32.8776C21.6487 32.8961 21.684 32.9059 21.72 32.9059L26.6509 32.8685C26.8022 32.8674 26.948 32.923 27.0575 33.0236C27.167 33.1242 27.2316 33.2619 27.2377 33.4075C27.261 33.9952 26.9385 34.4069 26.6548 34.9085C25.3674 37.1944 24.067 39.4192 22.7536 41.5828C22.7344 41.6155 22.7243 41.6525 22.7244 41.6901C22.7244 41.7276 22.7346 41.7644 22.754 41.7967C22.7733 41.829 22.801 41.8557 22.8344 41.874C22.8678 41.8923 22.9056 41.9016 22.944 41.901L28.2052 41.856C28.3069 41.855 28.4078 41.8736 28.502 41.9106C28.5962 41.9476 28.682 42.0023 28.7542 42.0716C28.8265 42.1408 28.8839 42.2233 28.923 42.3141C28.9622 42.405 28.9823 42.5025 28.9823 42.6009L28.9668 49.2976C28.9668 49.8142 28.7013 50.0363 28.1702 49.9639L27.9759 49.9377C27.8423 49.9198 27.7197 49.8559 27.6305 49.7577C27.5414 49.6594 27.4916 49.5334 27.4902 49.4025L27.432 43.5368C27.432 43.412 27.3659 43.3484 27.2338 43.3459H21.2305C21.107 43.3463 20.9856 43.3155 20.8784 43.2564C20.7712 43.1973 20.6819 43.112 20.6194 43.0091C20.5569 42.9061 20.5234 42.789 20.5222 42.6695C20.5211 42.55 20.5522 42.4321 20.6126 42.3277L25.12 34.5604C25.1359 34.5339 25.1442 34.5038 25.144 34.4732C25.1438 34.4426 25.1351 34.4126 25.1189 34.3863C25.1027 34.36 25.0795 34.3383 25.0516 34.3235C25.0238 34.3087 24.9924 34.3014 24.9607 34.3021C23.4479 34.3196 21.6812 34.3208 19.6607 34.3059C19.3912 34.3059 19.1711 34.1836 19.0001 33.939C18.9307 33.8423 18.8962 33.7264 18.9018 33.6094C18.9075 33.4924 18.9529 33.3806 19.0312 33.2915L26.138 25.06C26.1592 25.0363 26.1727 25.0072 26.1769 24.9763C26.1812 24.9453 26.176 24.9138 26.162 24.8856C26.148 24.8574 26.1258 24.8338 26.0981 24.8176C26.0703 24.8014 26.0383 24.7932 26.0059 24.7943L21.7045 24.8167C21.6126 24.8168 21.522 24.7951 21.4407 24.7533C21.3594 24.7115 21.2898 24.651 21.2382 24.5771C20.9999 24.2278 21.0051 23.8959 21.2538 23.5814C22.2407 22.3387 23.2471 21.1109 24.2729 19.8981C24.3711 19.7819 24.4253 19.6368 24.4267 19.4866C24.4282 19.3363 24.3767 19.1898 24.2807 19.0708L20.3057 14.1896C20.2813 14.1593 20.2501 14.1348 20.2144 14.1179C20.1787 14.101 20.1395 14.0922 20.0997 14.0922C20.06 14.0922 20.0207 14.101 19.985 14.1179C19.9493 14.1348 19.9181 14.1593 19.8938 14.1896L12.6082 23.1173C12.589 23.1407 12.5771 23.1689 12.574 23.1986C12.5708 23.2283 12.5765 23.2583 12.5904 23.285C12.6042 23.3117 12.6257 23.334 12.6522 23.3494C12.6788 23.3648 12.7093 23.3725 12.7403 23.3718L17.0573 23.3381C17.2007 23.3376 17.3414 23.3764 17.4627 23.4502C17.584 23.5239 17.681 23.6295 17.7422 23.7545C17.8034 23.8795 17.8263 24.0187 17.8082 24.1558C17.7901 24.2929 17.7318 24.4222 17.6401 24.5285L10.5954 32.6514C10.5769 32.6734 10.565 32.7002 10.5612 32.7284C10.5575 32.7566 10.562 32.7852 10.5742 32.8107C10.5865 32.8363 10.6059 32.8578 10.6303 32.8726C10.6547 32.8875 10.6831 32.8951 10.712 32.8947L15.5768 32.8722C15.7141 32.8719 15.8492 32.9061 15.9685 32.9715C16.0878 33.0369 16.1873 33.1311 16.2569 33.2448C16.3265 33.3584 16.3638 33.4876 16.3652 33.6192C16.3666 33.7509 16.3319 33.8806 16.2646 33.9952L11.8233 41.6202C11.8062 41.6501 11.7974 41.6838 11.7977 41.7179C11.7981 41.752 11.8076 41.7853 11.8253 41.8146C11.8431 41.8438 11.8684 41.8678 11.8987 41.8843C11.929 41.9008 11.9633 41.9091 11.9981 41.9084L17.1544 41.8897C17.7269 41.8872 18.0131 42.1617 18.0131 42.7132V49.2976C18.0131 49.7693 17.7683 49.9989 17.2787 49.9864H17.1661C16.7516 49.9764 16.5431 49.7718 16.5405 49.3725L16.4938 43.4881C16.4938 43.4454 16.4762 43.4045 16.4449 43.3743C16.4136 43.3441 16.3711 43.3271 16.3268 43.3271C14.3166 43.3471 12.3284 43.3508 10.3623 43.3384C10.2431 43.3384 10.1292 43.3172 10.0204 43.2747C9.93063 43.2394 9.84973 43.1862 9.78299 43.1185C9.71625 43.0508 9.66521 42.9702 9.63325 42.8821C9.60128 42.794 9.58913 42.7003 9.59758 42.6073C9.60604 42.5143 9.63492 42.4241 9.6823 42.3427L14.1935 34.5604C14.2093 34.5342 14.2175 34.5045 14.2175 34.4742C14.2175 34.4439 14.2091 34.4142 14.1934 34.388C14.1776 34.3618 14.155 34.34 14.1277 34.325C14.1004 34.3099 14.0695 34.302 14.0381 34.3021L8.67592 34.3059C8.57204 34.307 8.46916 34.2846 8.37542 34.2404C8.28167 34.1962 8.19964 34.1315 8.13581 34.0513C7.85993 33.7107 8.05033 33.3326 8.29901 33.0481C10.5967 30.4054 12.8841 27.7577 15.1611 25.1049C15.1865 25.0748 15.2024 25.0382 15.2068 24.9996C15.2112 24.9609 15.2039 24.9219 15.1859 24.8871C15.1678 24.8524 15.1398 24.8234 15.105 24.8036C15.0703 24.7838 15.0304 24.774 14.9901 24.7755C13.7337 24.8454 12.2986 24.8454 10.6848 24.7755C10.4128 24.7631 10.2405 24.5397 10.168 24.1055C10.152 24.0122 10.1562 23.9168 10.1802 23.8253C10.2043 23.7338 10.2478 23.6482 10.3079 23.574L19.5052 12.3217C19.5762 12.2352 19.6665 12.1654 19.7694 12.1173C19.8724 12.0693 19.9853 12.0443 20.0997 12.0443C20.2141 12.0443 20.3271 12.0693 20.43 12.1173C20.533 12.1654 20.6233 12.2352 20.6942 12.3217L25.3687 18.0339C25.4956 18.1911 25.6238 18.1911 25.7534 18.0339L30.4705 12.2918C30.5389 12.2084 30.626 12.141 30.7253 12.0947C30.8245 12.0484 30.9334 12.0244 31.0437 12.0244C31.154 12.0244 31.2628 12.0484 31.3621 12.0947C31.4613 12.141 31.5484 12.2084 31.6168 12.2918L36.299 18.0339C36.3215 18.0619 36.3504 18.0846 36.3834 18.1001C36.4164 18.1157 36.4527 18.1238 36.4894 18.1238C36.5262 18.1238 36.5624 18.1157 36.5954 18.1001C36.6284 18.0846 36.6573 18.0619 36.6798 18.0339L41.463 12.2431C41.5263 12.1669 41.6066 12.1055 41.6979 12.0634C41.7892 12.0213 41.8892 11.9996 41.9905 12C42.0917 12.0004 42.1916 12.0228 42.2826 12.0655C42.3736 12.1082 42.4534 12.1702 42.5161 12.2468L51.8028 23.6451C51.8906 23.7517 51.9454 23.88 51.9609 24.0154C51.9763 24.1507 51.9517 24.2874 51.89 24.4099C51.8283 24.5323 51.7319 24.6355 51.612 24.7075C51.492 24.7794 51.3534 24.8173 51.2121 24.8167L46.9457 24.8092C46.918 24.8086 46.8906 24.8157 46.867 24.8298C46.8434 24.8438 46.8245 24.8641 46.8126 24.8882C46.8006 24.9124 46.7962 24.9393 46.7999 24.9658C46.8035 24.9923 46.815 25.0172 46.833 25.0376L53.8039 33.1005C53.8856 33.194 53.9429 33.3044 53.971 33.4225C54.0836 33.9053 53.866 34.2872 53.3609 34.2909C51.558 34.3009 49.7706 34.3021 47.9987 34.2946C47.9683 34.2948 47.9384 34.3026 47.9121 34.3173C47.8858 34.332 47.8639 34.353 47.8486 34.3784C47.8333 34.4037 47.8251 34.4324 47.8248 34.4617C47.8246 34.491 47.8323 34.5199 47.8472 34.5454C49.3574 37.1158 50.8793 39.7411 52.4128 42.4213C52.5423 42.6484 52.4931 42.8892 52.2652 43.1437C52.2077 43.2074 52.1368 43.2586 52.0571 43.2941C51.9774 43.3296 51.8907 43.3485 51.8028 43.3496H45.7917C45.631 43.3496 45.5507 43.4282 45.5507 43.5854L45.5741 49.1741C45.5766 49.6532 45.3331 49.9265 44.8436 49.9939C44.6519 50.0213 44.4628 49.9565 44.2762 49.7992C44.2137 49.745 44.1634 49.6787 44.1286 49.6046C44.0939 49.5306 44.0753 49.4502 44.0742 49.3688L44.0703 42.7058C44.0703 42.1667 44.3501 41.8985 44.9096 41.901L50.1475 41.9309C50.3003 41.9334 50.3405 41.8685 50.2679 41.7362C48.851 39.1958 47.3925 36.6716 45.8927 34.1636C45.7554 33.9341 45.6971 33.6907 45.7178 33.4337C45.7296 33.2838 45.7994 33.1437 45.9133 33.0417C46.0272 32.9396 46.1767 32.8831 46.3318 32.8834L51.422 32.8872C51.445 32.887 51.4675 32.8806 51.487 32.8688C51.5065 32.857 51.5221 32.8402 51.532 32.8205C51.5418 32.8008 51.5454 32.7789 51.5425 32.7576C51.5395 32.7362 51.53 32.7162 51.5152 32.7L44.4045 24.4798C44.3459 24.4105 44.3034 24.3298 44.28 24.2432C44.2565 24.1567 44.2526 24.0663 44.2685 23.9782C44.3384 23.5864 44.5858 23.3855 45.0106 23.3756C46.5157 23.3481 47.987 23.3556 49.4247 23.398C49.451 23.3993 49.4771 23.3933 49.4999 23.3806C49.5226 23.3679 49.5411 23.3492 49.553 23.3266C49.5649 23.304 49.5698 23.2786 49.567 23.2534C49.5643 23.2282 49.554 23.2043 49.5374 23.1847L42.1508 14.1671C42.129 14.1406 42.1012 14.1192 42.0696 14.1045C42.038 14.0898 42.0033 14.0822 41.9682 14.0822C41.9331 14.0822 41.8984 14.0898 41.8668 14.1045C41.8351 14.1192 41.8074 14.1406 41.7855 14.1671L37.6473 19.2205C37.5919 19.29 37.5618 19.3749 37.5618 19.4617C37.5618 19.5485 37.5919 19.6323 37.6473 19.6997C38.6602 20.93 39.686 22.1827 40.7248 23.4579C40.888 23.66 40.9734 23.8772 40.9812 24.1092C40.9849 24.2001 40.9694 24.2907 40.9357 24.3757C40.9021 24.4607 40.8509 24.5383 40.7853 24.604C40.7197 24.6696 40.6409 24.722 40.5538 24.7579C40.4666 24.7938 40.3728 24.8125 40.2779 24.813H36.0581C36.0272 24.8135 35.9969 24.8223 35.9708 24.8385C35.9448 24.8546 35.924 24.8774 35.9109 24.9041C35.8979 24.9308 35.8931 24.9604 35.8972 24.9893C35.9012 25.0183 35.9139 25.0454 35.9338 25.0675C38.0165 27.4807 40.1911 30.0011 42.4578 32.6289C42.7764 32.9995 43.1183 33.2578 43.0678 33.7781C43.0552 33.9188 42.988 34.0499 42.8794 34.1455C42.7708 34.2411 42.6287 34.2943 42.4811 34.2946L36.9635 34.2984C36.944 34.2986 36.9249 34.3038 36.9081 34.3132C36.8913 34.3227 36.8774 34.3362 36.8676 34.3524C36.8578 34.3686 36.8525 34.387 36.8523 34.4057C36.8521 34.4245 36.8569 34.4429 36.8663 34.4593L41.4397 42.3352C41.5002 42.4384 41.5315 42.555 41.5306 42.6735C41.5297 42.792 41.4965 42.9082 41.4343 43.0105C41.3722 43.1128 41.2833 43.1976 41.1765 43.2564C41.0697 43.3153 40.9488 43.3461 40.8258 43.3459L34.9196 43.3533C34.844 43.3533 34.7715 43.382 34.7176 43.4331C34.6638 43.4843 34.6331 43.5538 34.6321 43.6266L34.6282 49.2901C34.6282 49.7593 34.3847 49.9939 33.8977 49.9939H33.7928C33.3731 49.9914 33.1633 49.7892 33.1633 49.3875V42.5261C33.1633 42.0969 33.3861 41.8822 33.8316 41.8822L39.1161 41.901C39.1504 41.9012 39.1841 41.8928 39.2139 41.8765C39.2437 41.8602 39.2686 41.8366 39.2862 41.808C39.3038 41.7793 39.3135 41.7466 39.3143 41.7131C39.3152 41.6795 39.3071 41.6462 39.291 41.6165C37.8041 39.0062 36.356 36.5119 34.9468 34.1337C34.8095 33.8991 34.7694 33.6446 34.8263 33.3701C34.856 33.2308 34.9346 33.1059 35.0487 33.0164C35.1628 32.927 35.3053 32.8787 35.4519 32.8797L40.3517 32.8909Z" fill="white"/>
<path d="M40.3517 32.8909C40.6211 32.8909 40.6691 32.7911 40.4955 32.5915C38.2833 30.046 35.9791 27.3783 33.5829 24.5884C33.2488 24.1991 33.2552 23.836 33.6024 23.4991C33.6992 23.4057 33.8306 23.3532 33.9676 23.3531L38.4711 23.3643C38.496 23.3649 38.5205 23.3586 38.5418 23.346C38.563 23.3334 38.58 23.3151 38.591 23.2932C38.602 23.2713 38.6064 23.2467 38.6037 23.2222C38.6011 23.1977 38.5915 23.1743 38.576 23.1547L31.271 14.2495C31.2422 14.2144 31.2056 14.1861 31.1639 14.1666C31.1222 14.1472 31.0764 14.137 31.0301 14.137C30.9837 14.137 30.9379 14.1472 30.8962 14.1666C30.8545 14.1861 30.8179 14.2144 30.7892 14.2495L23.5657 23.0686C23.5423 23.0969 23.5278 23.131 23.524 23.1669C23.5203 23.2029 23.5273 23.2392 23.5444 23.2717C23.5615 23.3043 23.5879 23.3316 23.6206 23.3507C23.6532 23.3697 23.6908 23.3796 23.7289 23.3793C25.0993 23.3494 26.4981 23.3431 27.9254 23.3606C28.0472 23.3606 28.1612 23.3805 28.2674 23.4205C28.3761 23.4592 28.4735 23.5225 28.5514 23.6051C28.6294 23.6877 28.6856 23.7871 28.7153 23.895C28.745 24.0029 28.7474 24.1161 28.7222 24.225C28.697 24.334 28.6449 24.4355 28.5704 24.521L21.5724 32.6064C21.5496 32.6333 21.5352 32.6659 21.5308 32.7004C21.5265 32.7349 21.5324 32.7698 21.5479 32.8012C21.5633 32.8325 21.5877 32.859 21.6182 32.8776C21.6487 32.8961 21.684 32.9059 21.72 32.9059L26.6509 32.8685C26.8022 32.8674 26.948 32.923 27.0575 33.0236C27.167 33.1242 27.2316 33.2619 27.2377 33.4075C27.261 33.9952 26.9385 34.4069 26.6548 34.9085C25.3674 37.1944 24.067 39.4192 22.7536 41.5828C22.7344 41.6155 22.7243 41.6525 22.7244 41.6901C22.7244 41.7276 22.7346 41.7644 22.754 41.7967C22.7733 41.829 22.801 41.8557 22.8344 41.874C22.8678 41.8923 22.9056 41.9016 22.944 41.901L28.2052 41.856C28.3069 41.855 28.4078 41.8736 28.502 41.9106C28.5962 41.9476 28.682 42.0023 28.7542 42.0716C28.8265 42.1408 28.8839 42.2233 28.923 42.3141C28.9622 42.405 28.9823 42.5025 28.9823 42.6009L28.9668 49.2976C28.9668 49.8142 28.7013 50.0363 28.1702 49.9639L27.9759 49.9377C27.8423 49.9198 27.7197 49.8559 27.6305 49.7577C27.5414 49.6594 27.4916 49.5334 27.4902 49.4025L27.432 43.5368C27.432 43.412 27.3659 43.3484 27.2338 43.3459H21.2305C21.107 43.3463 20.9856 43.3155 20.8784 43.2564C20.7712 43.1973 20.6819 43.112 20.6194 43.0091C20.5569 42.9061 20.5234 42.789 20.5222 42.6695C20.5211 42.55 20.5522 42.4321 20.6126 42.3277L25.12 34.5604C25.1359 34.5339 25.1442 34.5038 25.144 34.4732C25.1438 34.4426 25.1351 34.4126 25.1189 34.3863C25.1027 34.36 25.0795 34.3383 25.0516 34.3235C25.0238 34.3087 24.9924 34.3014 24.9607 34.3021C23.4479 34.3196 21.6812 34.3208 19.6607 34.3059C19.3912 34.3059 19.1711 34.1836 19.0001 33.939C18.9307 33.8423 18.8962 33.7264 18.9018 33.6094C18.9075 33.4924 18.9529 33.3806 19.0312 33.2915L26.138 25.06C26.1592 25.0363 26.1727 25.0072 26.1769 24.9763C26.1812 24.9453 26.176 24.9138 26.162 24.8856C26.148 24.8574 26.1258 24.8338 26.0981 24.8176C26.0703 24.8014 26.0383 24.7932 26.0059 24.7943L21.7045 24.8167C21.6126 24.8168 21.522 24.7951 21.4407 24.7533C21.3594 24.7115 21.2898 24.651 21.2382 24.5771C20.9999 24.2278 21.0051 23.8959 21.2538 23.5814C22.2407 22.3387 23.2471 21.1109 24.2729 19.8981C24.3711 19.7819 24.4253 19.6368 24.4267 19.4866C24.4282 19.3363 24.3767 19.1898 24.2807 19.0708L20.3057 14.1896C20.2813 14.1593 20.2501 14.1348 20.2144 14.1179C20.1787 14.101 20.1395 14.0922 20.0997 14.0922C20.06 14.0922 20.0207 14.101 19.985 14.1179C19.9493 14.1348 19.9181 14.1593 19.8938 14.1896L12.6082 23.1173C12.589 23.1407 12.5771 23.1689 12.574 23.1986C12.5708 23.2283 12.5765 23.2583 12.5904 23.285C12.6042 23.3117 12.6257 23.334 12.6522 23.3494C12.6788 23.3648 12.7093 23.3725 12.7403 23.3718L17.0573 23.3381C17.2007 23.3376 17.3414 23.3764 17.4627 23.4502C17.584 23.5239 17.681 23.6295 17.7422 23.7545C17.8034 23.8795 17.8263 24.0187 17.8082 24.1558C17.7901 24.2929 17.7318 24.4222 17.6401 24.5285L10.5954 32.6514C10.5769 32.6734 10.565 32.7002 10.5612 32.7284C10.5575 32.7566 10.562 32.7852 10.5742 32.8107C10.5865 32.8363 10.6059 32.8578 10.6303 32.8726C10.6547 32.8875 10.6831 32.8951 10.712 32.8947L15.5768 32.8722C15.7141 32.8719 15.8492 32.9061 15.9685 32.9715C16.0878 33.0369 16.1873 33.1311 16.2569 33.2448C16.3265 33.3584 16.3638 33.4876 16.3652 33.6192C16.3666 33.7509 16.3319 33.8806 16.2646 33.9952L11.8233 41.6202C11.8062 41.6501 11.7974 41.6838 11.7977 41.7179C11.7981 41.752 11.8076 41.7853 11.8253 41.8146C11.8431 41.8438 11.8684 41.8678 11.8987 41.8843C11.929 41.9008 11.9633 41.9091 11.9981 41.9084L17.1544 41.8897C17.7269 41.8872 18.0131 42.1617 18.0131 42.7132V49.2976C18.0131 49.7693 17.7683 49.9989 17.2787 49.9864H17.1661C16.7516 49.9764 16.5431 49.7718 16.5405 49.3725L16.4938 43.4881C16.4938 43.4454 16.4762 43.4045 16.4449 43.3743C16.4136 43.3441 16.3711 43.3271 16.3268 43.3271C14.3166 43.3471 12.3284 43.3508 10.3623 43.3384C10.2431 43.3384 10.1292 43.3172 10.0204 43.2747C9.93063 43.2394 9.84973 43.1862 9.78299 43.1185C9.71625 43.0508 9.66521 42.9702 9.63325 42.8821C9.60128 42.794 9.58913 42.7003 9.59758 42.6073C9.60604 42.5143 9.63492 42.4241 9.6823 42.3427L14.1935 34.5604C14.2093 34.5342 14.2175 34.5045 14.2175 34.4742C14.2175 34.4439 14.2091 34.4142 14.1934 34.388C14.1776 34.3618 14.155 34.34 14.1277 34.325C14.1004 34.3099 14.0695 34.302 14.0381 34.3021L8.67592 34.3059C8.57204 34.307 8.46916 34.2846 8.37542 34.2404C8.28167 34.1962 8.19964 34.1315 8.13581 34.0513C7.85993 33.7107 8.05033 33.3326 8.29901 33.0481C10.5967 30.4054 12.8841 27.7577 15.1611 25.1049C15.1865 25.0748 15.2024 25.0382 15.2068 24.9996C15.2112 24.9609 15.2039 24.9219 15.1859 24.8871C15.1678 24.8524 15.1398 24.8234 15.105 24.8036C15.0703 24.7838 15.0304 24.774 14.9901 24.7755C13.7337 24.8454 12.2986 24.8454 10.6848 24.7755C10.4128 24.7631 10.2405 24.5397 10.168 24.1055C10.152 24.0122 10.1562 23.9168 10.1802 23.8253C10.2043 23.7338 10.2478 23.6482 10.3079 23.574L19.5052 12.3217C19.5762 12.2352 19.6665 12.1654 19.7694 12.1173C19.8724 12.0693 19.9853 12.0443 20.0997 12.0443C20.2141 12.0443 20.3271 12.0693 20.43 12.1173C20.533 12.1654 20.6233 12.2352 20.6942 12.3217L25.3687 18.0339C25.4956 18.1911 25.6238 18.1911 25.7534 18.0339L30.4705 12.2918C30.5389 12.2084 30.626 12.141 30.7253 12.0947C30.8245 12.0484 30.9334 12.0244 31.0437 12.0244C31.154 12.0244 31.2628 12.0484 31.3621 12.0947C31.4613 12.141 31.5484 12.2084 31.6168 12.2918L36.299 18.0339C36.3215 18.0619 36.3504 18.0846 36.3834 18.1001C36.4164 18.1157 36.4527 18.1238 36.4894 18.1238C36.5262 18.1238 36.5624 18.1157 36.5954 18.1001C36.6284 18.0846 36.6573 18.0619 36.6798 18.0339L41.463 12.2431C41.5263 12.1669 41.6066 12.1055 41.6979 12.0634C41.7892 12.0213 41.8892 11.9996 41.9905 12C42.0917 12.0004 42.1916 12.0228 42.2826 12.0655C42.3736 12.1082 42.4534 12.1702 42.5161 12.2468L51.8028 23.6451C51.8906 23.7517 51.9454 23.88 51.9609 24.0154C51.9763 24.1507 51.9517 24.2874 51.89 24.4099C51.8283 24.5323 51.7319 24.6355 51.612 24.7075C51.492 24.7794 51.3534 24.8173 51.2121 24.8167L46.9457 24.8092C46.918 24.8086 46.8906 24.8157 46.867 24.8298C46.8434 24.8438 46.8245 24.8641 46.8126 24.8882C46.8006 24.9124 46.7962 24.9393 46.7999 24.9658C46.8035 24.9923 46.815 25.0172 46.833 25.0376L53.8039 33.1005C53.8856 33.194 53.9429 33.3044 53.971 33.4225C54.0836 33.9053 53.866 34.2872 53.3609 34.2909C51.558 34.3009 49.7706 34.3021 47.9987 34.2946C47.9683 34.2948 47.9384 34.3026 47.9121 34.3173C47.8858 34.332 47.8639 34.353 47.8486 34.3784C47.8333 34.4037 47.8251 34.4324 47.8248 34.4617C47.8246 34.491 47.8323 34.5199 47.8472 34.5454C49.3574 37.1158 50.8793 39.7411 52.4128 42.4213C52.5423 42.6484 52.4931 42.8892 52.2652 43.1437C52.2077 43.2074 52.1368 43.2586 52.0571 43.2941C51.9774 43.3296 51.8907 43.3485 51.8028 43.3496H45.7917C45.631 43.3496 45.5507 43.4282 45.5507 43.5854L45.5741 49.1741C45.5766 49.6532 45.3331 49.9265 44.8436 49.9939C44.6519 50.0213 44.4628 49.9565 44.2762 49.7992C44.2137 49.745 44.1634 49.6787 44.1286 49.6046C44.0939 49.5306 44.0753 49.4502 44.0742 49.3688L44.0703 42.7058C44.0703 42.1667 44.3501 41.8985 44.9096 41.901L50.1475 41.9309C50.3003 41.9334 50.3405 41.8685 50.2679 41.7362C48.851 39.1958 47.3925 36.6716 45.8927 34.1636C45.7554 33.9341 45.6971 33.6907 45.7178 33.4337C45.7296 33.2838 45.7994 33.1437 45.9133 33.0417C46.0272 32.9396 46.1767 32.8831 46.3318 32.8834L51.422 32.8872C51.445 32.887 51.4675 32.8806 51.487 32.8688C51.5065 32.857 51.5221 32.8402 51.532 32.8205C51.5418 32.8008 51.5454 32.7789 51.5425 32.7576C51.5395 32.7362 51.53 32.7162 51.5152 32.7L44.4045 24.4798C44.3459 24.4105 44.3034 24.3298 44.28 24.2432C44.2565 24.1567 44.2526 24.0663 44.2685 23.9782C44.3384 23.5864 44.5858 23.3855 45.0106 23.3756C46.5157 23.3481 47.987 23.3556 49.4247 23.398C49.451 23.3993 49.4771 23.3933 49.4999 23.3806C49.5226 23.3679 49.5411 23.3492 49.553 23.3266C49.5649 23.304 49.5698 23.2786 49.567 23.2534C49.5643 23.2282 49.554 23.2043 49.5374 23.1847L42.1508 14.1671C42.129 14.1406 42.1012 14.1192 42.0696 14.1045C42.038 14.0898 42.0033 14.0822 41.9682 14.0822C41.9331 14.0822 41.8984 14.0898 41.8668 14.1045C41.8351 14.1192 41.8074 14.1406 41.7855 14.1671L37.6473 19.2205C37.5919 19.29 37.5618 19.3749 37.5618 19.4617C37.5618 19.5485 37.5919 19.6323 37.6473 19.6997C38.6602 20.93 39.686 22.1827 40.7248 23.4579C40.888 23.66 40.9734 23.8772 40.9812 24.1092C40.9849 24.2001 40.9694 24.2907 40.9357 24.3757C40.9021 24.4607 40.8509 24.5383 40.7853 24.604C40.7197 24.6696 40.6409 24.722 40.5538 24.7579C40.4666 24.7938 40.3728 24.8125 40.2779 24.813H36.0581C36.0272 24.8135 35.9969 24.8223 35.9708 24.8385C35.9448 24.8546 35.924 24.8774 35.9109 24.9041C35.8979 24.9308 35.8931 24.9604 35.8972 24.9893C35.9012 25.0183 35.9139 25.0454 35.9338 25.0675C38.0165 27.4807 40.1911 30.0011 42.4578 32.6289C42.7764 32.9995 43.1183 33.2578 43.0678 33.7781C43.0552 33.9188 42.988 34.0499 42.8794 34.1455C42.7708 34.2411 42.6287 34.2943 42.4811 34.2946L36.9635 34.2984C36.944 34.2986 36.9249 34.3038 36.9081 34.3132C36.8913 34.3227 36.8774 34.3362 36.8676 34.3524C36.8578 34.3686 36.8525 34.387 36.8523 34.4057C36.8521 34.4245 36.8569 34.4429 36.8663 34.4593L41.4397 42.3352C41.5002 42.4384 41.5315 42.555 41.5306 42.6735C41.5297 42.792 41.4965 42.9082 41.4343 43.0105C41.3722 43.1128 41.2833 43.1976 41.1765 43.2564C41.0697 43.3153 40.9488 43.3461 40.8258 43.3459L34.9196 43.3533C34.844 43.3533 34.7715 43.382 34.7176 43.4331C34.6638 43.4843 34.6331 43.5538 34.6321 43.6266L34.6282 49.2901C34.6282 49.7593 34.3847 49.9939 33.8977 49.9939H33.7928C33.3731 49.9914 33.1633 49.7892 33.1633 49.3875V42.5261C33.1633 42.0969 33.3861 41.8822 33.8316 41.8822L39.1161 41.901C39.1504 41.9012 39.1841 41.8928 39.2139 41.8765C39.2437 41.8602 39.2686 41.8366 39.2862 41.808C39.3038 41.7793 39.3135 41.7466 39.3143 41.7131C39.3152 41.6795 39.3071 41.6462 39.291 41.6165C37.8041 39.0062 36.356 36.5119 34.9468 34.1337C34.8095 33.8991 34.7694 33.6446 34.8263 33.3701C34.856 33.2308 34.9346 33.1059 35.0487 33.0164C35.1628 32.927 35.3053 32.8787 35.4519 32.8797L40.3517 32.8909Z" stroke="white" stroke-width="0.8" mask="url(#path-1-outside-1_245_14060)"/>
</g>
<path id="Vector_2" d="M9.9985 5.24074L14.7195 7.08127C14.8016 7.11279 14.8723 7.16839 14.9224 7.24076C14.9724 7.31314 14.9995 7.39893 15 7.48692C15.0005 7.57491 14.9744 7.66101 14.9252 7.73395C14.8759 7.80688 14.8059 7.86326 14.7241 7.89571L10.0077 9.75004C9.95136 9.77202 9.90018 9.80544 9.85741 9.84821C9.81464 9.89098 9.78121 9.94217 9.75924 9.99852L7.91871 14.7195C7.88719 14.8016 7.83161 14.8723 7.75924 14.9224C7.68686 14.9724 7.60106 14.9995 7.51307 15C7.42507 15.0005 7.33899 14.9744 7.26605 14.9252C7.19312 14.876 7.13674 14.8059 7.10429 14.7241L5.24996 10.0077C5.22798 9.95136 5.19456 9.90018 5.15179 9.85741C5.10902 9.81464 5.05783 9.78121 5.00148 9.75924L0.280533 7.91871C0.198378 7.88719 0.127648 7.83161 0.0775966 7.75924C0.0275456 7.68686 0.00050412 7.60107 6.98004e-06 7.51308C-0.00049016 7.42509 0.0255793 7.33899 0.0748093 7.26605C0.124039 7.19312 0.194134 7.13674 0.275927 7.10429L4.99228 5.24996C5.04864 5.22798 5.09981 5.19456 5.14258 5.15179C5.18535 5.10902 5.21877 5.05783 5.24074 5.00148L7.08127 0.280526C7.11279 0.198371 7.16839 0.127655 7.24076 0.0776036C7.31314 0.0275527 7.39893 0.00050412 7.48692 6.98004e-06C7.57491 -0.00049016 7.66101 0.0255793 7.73395 0.0748093C7.80688 0.124039 7.86326 0.194141 7.89571 0.275934L9.75004 4.99228C9.77202 5.04864 9.80544 5.09981 9.84821 5.14258C9.89098 5.18535 9.94215 5.21877 9.9985 5.24074ZM7.23312 4.82663C6.66563 5.85119 5.87574 6.65489 4.86345 7.23773C4.63952 7.36657 4.63184 7.50613 4.84043 7.65644C5.81898 8.38344 6.64569 9.21629 7.32055 10.155C7.47393 10.3697 7.61963 10.3651 7.75767 10.1412C8.37117 9.15954 9.19788 8.33897 10.2378 7.67945C10.4372 7.55675 10.4372 7.43251 10.2378 7.30675C9.21629 6.66563 8.38038 5.83432 7.73006 4.81283C7.70312 4.77064 7.66573 4.73615 7.6215 4.71271C7.57727 4.68926 7.52772 4.67767 7.47768 4.67906C7.42764 4.68045 7.37883 4.69476 7.33597 4.72063C7.29311 4.74649 7.25768 4.78301 7.23312 4.82663Z" fill="white"/>
<path id="Vector_3" d="M5.33254 19.7951L7.85038 20.7767C7.8942 20.7935 7.93192 20.8231 7.95861 20.8617C7.98531 20.9003 7.99973 20.9461 8 20.993C8.00026 21.04 7.98635 21.0859 7.96009 21.1248C7.93384 21.1637 7.89646 21.1937 7.85284 21.211L5.33745 22.2C5.30739 22.2117 5.2801 22.2296 5.25729 22.2524C5.23448 22.2752 5.21665 22.3025 5.20493 22.3325L4.22331 24.8504C4.2065 24.8942 4.17686 24.9319 4.13826 24.9586C4.09966 24.9853 4.0539 24.9997 4.00697 25C3.96004 25.0003 3.91413 24.9864 3.87523 24.9601C3.83633 24.9338 3.80626 24.8965 3.78895 24.8528L2.79998 22.3374C2.78826 22.3074 2.77043 22.2801 2.74762 22.2573C2.72481 22.2345 2.69751 22.2166 2.66746 22.2049L0.149618 21.2233C0.105802 21.2065 0.0680787 21.1769 0.0413849 21.1383C0.014691 21.0997 0.000268864 21.0539 3.72269e-06 21.007C-0.000261419 20.96 0.0136423 20.9141 0.0398983 20.8752C0.0661543 20.8363 0.103538 20.8063 0.147161 20.789L2.66255 19.8C2.69261 19.7883 2.7199 19.7704 2.74271 19.7476C2.76552 19.7248 2.78335 19.6975 2.79506 19.6675L3.77668 17.1496C3.79349 17.1058 3.82314 17.0681 3.86174 17.0414C3.90034 17.0147 3.94609 17.0003 3.99302 17C4.03995 16.9997 4.08587 17.0136 4.12477 17.0399C4.16367 17.0662 4.19374 17.1035 4.21105 17.1472L5.20002 19.6626C5.21174 19.6926 5.22957 19.7199 5.25238 19.7427C5.27519 19.7655 5.30248 19.7833 5.33254 19.7951ZM3.85767 19.5742C3.555 20.1206 3.13373 20.5493 2.59384 20.8601C2.47441 20.9288 2.47031 21.0033 2.58156 21.0834C3.10346 21.4712 3.54437 21.9154 3.90429 22.416C3.98609 22.5305 4.0638 22.528 4.13742 22.4086C4.46463 21.8851 4.90554 21.4475 5.46015 21.0957C5.56649 21.0303 5.56649 20.964 5.46015 20.8969C4.91535 20.555 4.46954 20.1116 4.1227 19.5668C4.10833 19.5443 4.08839 19.5259 4.0648 19.5134C4.04121 19.5009 4.01478 19.4948 3.9881 19.4955C3.96141 19.4962 3.93537 19.5039 3.91252 19.5177C3.88966 19.5315 3.87076 19.5509 3.85767 19.5742Z" fill="white"/>
</g>
<defs>
<clipPath id="clip0_245_14060">
<rect width="54" height="54" fill="white"/>
</clipPath>
</defs>
</svg>
