<svg width="54" height="54" viewBox="0 0 54 54" fill="none" xmlns="http://www.w3.org/2000/svg">
<g id="Coziness and comfort">
<g id="Group 61">
<path id="Vector" d="M23.8487 3L25.8003 3.04776L27.8806 3.29206L29.8304 3.68974C31.1364 4.01425 32.4289 4.46704 33.708 5.0481C35.2222 5.73447 36.6503 6.57483 37.9925 7.56918L38.3148 7.8043L39.8697 9.11122L40.5641 9.77249L41.9279 11.2677L42.3541 11.793C43.3135 13.0274 44.13 14.3 44.8035 15.6109C45.2162 16.429 45.5805 17.2568 45.8965 18.0944C46.1463 18.7575 46.2749 19.393 45.6843 19.844C45.0184 20.351 44.111 20.0965 43.8291 19.3021C43.6289 18.737 43.4103 18.1954 43.1733 17.6774C42.6884 16.5961 42.126 15.573 41.4862 14.608C41.4678 14.5805 41.4436 14.5731 41.4136 14.586L39.9083 15.2289L38.9256 15.6082L37.9557 15.9563L35.8819 16.5909L33.8605 17.1006L33.0421 17.2889C33.0085 17.2969 32.9941 17.318 32.999 17.3523L33.0605 17.772L33.3177 19.6465L33.539 22.0115C33.5562 22.2564 33.5739 22.5004 33.5923 22.7435C33.6192 23.0968 33.55 23.4038 33.3847 23.6646C32.9635 24.1624 32.4504 24.2821 31.8454 24.0238L31.5929 23.8336C31.3718 23.5808 31.2524 23.3172 31.2347 23.0429C31.2071 22.6112 31.1799 22.182 31.1529 21.7552L30.859 18.8346C30.8584 18.8285 30.8581 18.8285 30.8581 18.8346C30.8581 18.8457 30.8599 18.8585 30.859 18.8668C30.8584 18.8747 30.8578 18.875 30.8572 18.8677L30.6965 17.7435C30.6944 17.7295 30.687 17.7168 30.6758 17.7082C30.6646 17.6996 30.6506 17.6958 30.6368 17.6976L27.8043 18.0466L25.826 18.1835L23.8202 18.2285L21.7418 18.2009L19.8149 18.0935L17.6897 17.8767C17.6578 17.8736 17.6395 17.888 17.6346 17.9199C17.4325 19.2087 17.2804 20.5046 17.1781 21.8076L17.0826 23.4516L17.0137 25.8239L17.0156 26.8268C17.0156 26.8611 17.0327 26.8798 17.067 26.8828L17.765 26.9462L19.8416 27.0867L21.7418 27.173L23.8156 27.2245L25.8692 27.263C26.1551 27.3959 26.3799 27.5928 26.5433 27.8536C26.7331 28.3024 26.7065 28.7087 26.4634 29.0724C26.3134 29.2964 26.0801 29.4633 25.7636 29.5729C22.8932 29.6158 20.0237 29.516 17.1552 29.2735C17.1215 29.2704 17.1056 29.286 17.1074 29.3203C17.2133 31.5374 17.4778 33.7429 17.9009 35.9367L18.1213 37.0223C18.1293 37.0621 18.1538 37.0798 18.1948 37.0755L20.0693 36.8799C20.7967 36.8064 21.2596 36.7679 21.7473 37.4117C21.8428 37.6401 21.8903 37.8663 21.8897 38.0904C21.8499 38.3476 21.7896 38.5361 21.7087 38.6562C21.4559 38.9892 21.1148 39.1708 20.6856 39.2008C20.0519 39.2449 19.4243 39.3036 18.8028 39.3771C18.795 39.378 18.7875 39.3806 18.7808 39.3847C18.7741 39.3888 18.7684 39.3944 18.7641 39.4009C18.7598 39.4075 18.757 39.415 18.7559 39.4228C18.7548 39.4306 18.7555 39.4385 18.7578 39.446C18.9789 40.174 19.2228 40.8833 19.4898 41.574C19.5363 41.6952 19.5529 41.8511 19.5394 42.0415C19.4292 42.9562 18.5264 43.3732 17.7163 42.936C17.4347 42.7242 17.2442 42.4288 17.1451 42.0498L16.3993 39.8207C16.3883 39.7883 16.3659 39.7751 16.3322 39.7812L15.5755 39.9181L13.7386 40.3571L11.6069 41.0009L10.1953 41.5024C10.1877 41.5052 10.181 41.5099 10.1758 41.5161C10.1706 41.5223 10.1671 41.5297 10.1656 41.5377C10.1641 41.5457 10.1647 41.5539 10.1674 41.5615C10.17 41.5692 10.1746 41.576 10.1806 41.5814L10.7326 42.0626L11.6464 42.7918C12.8594 43.7152 14.1969 44.5029 15.659 45.155C16.2762 45.4397 16.9672 45.7048 17.7319 45.9503L18.3096 46.1239C18.8129 46.28 19.3447 46.3351 19.724 46.7484C20.0228 47.114 20.0709 47.5459 19.8682 48.0443L19.6661 48.3015C19.094 48.8746 18.5098 48.645 17.8265 48.4457C16.4262 48.0544 15.0422 47.5116 13.6743 46.8173L12.1663 45.9696L11.7585 45.718L9.73334 44.2815L9.29892 43.9362L7.77708 42.5448L7.1397 41.8808L5.76389 40.2616C5.7198 40.1593 5.64449 40.0509 5.53796 39.9364L4.2145 37.9499L3.66895 36.9736L3.17668 35.9844C2.52888 34.5982 2.03721 33.2255 1.70168 31.8662L1.29665 29.9054L1.05878 27.8334L1 25.9782L1.11848 23.784L1.39492 21.882C1.66494 20.4511 2.07119 19.0434 2.61368 17.659L3.44027 15.8139L3.83794 15.0525L4.52126 13.8907C6.42608 10.8758 8.88471 8.41659 11.8972 6.51299L12.9543 5.88754L13.7919 5.44486L15.7628 4.56959C17.0958 4.04487 18.4526 3.65545 19.8333 3.40135L21.8437 3.11021L23.8487 3ZM21.5553 6.97312L21.2128 7.41856C20.6911 8.17351 20.2625 8.93734 19.927 9.71004L19.7571 10.1279L19.1426 11.6782L18.5273 13.6648L18.0855 15.4833C18.0776 15.5157 18.0904 15.5338 18.1241 15.5375L19.7617 15.7092L21.9558 15.8479L23.8156 15.8745L25.8655 15.8093L27.9035 15.6569L30.1684 15.3841C30.1767 15.3831 30.1848 15.3803 30.192 15.3758C30.1992 15.3714 30.2054 15.3655 30.2102 15.3585C30.2149 15.3515 30.2182 15.3435 30.2197 15.3351C30.2212 15.3267 30.2209 15.318 30.2189 15.3097L29.824 13.7438L29.1746 11.6351L28.3921 9.69535L27.9081 8.7512L27.3001 7.72256C26.9113 7.09252 26.446 6.5482 25.9041 6.08959C25.6708 5.88448 25.4219 5.72406 25.1574 5.60834C23.7559 4.86533 22.3764 5.90223 21.5553 6.97312ZM17.641 6.40094L15.6838 7.15865L14.984 7.48928L13.7019 8.18729C11.5656 9.42349 9.73058 11.0197 8.14537 12.8933C8.14307 12.896 8.14142 12.8991 8.14058 12.9025C8.13974 12.9059 8.13972 12.9095 8.14053 12.9129C8.14134 12.9163 8.14295 12.9195 8.14523 12.9221C8.14751 12.9248 8.15039 12.9269 8.15364 12.9282L9.68191 13.5215L10.6334 13.8439L11.7144 14.1966L13.6468 14.7155L15.6949 15.1628C15.7002 15.164 15.7058 15.1641 15.7112 15.1631C15.7166 15.1621 15.7218 15.1601 15.7264 15.1571C15.731 15.1541 15.735 15.1502 15.7381 15.1457C15.7412 15.1411 15.7434 15.136 15.7445 15.1306C15.9943 13.9789 16.2967 12.8339 16.6519 11.6957L17.3434 9.75412C17.8596 8.41383 18.5343 7.14762 19.3677 5.9555C19.3934 5.91877 19.3848 5.90652 19.3419 5.91877L17.641 6.40094ZM30.0196 7.64174L30.9821 9.71463C31.5068 11.0537 31.9385 12.413 32.2771 13.7925L32.537 14.9267C32.5382 14.932 32.5404 14.9371 32.5436 14.9415C32.5467 14.946 32.5507 14.9497 32.5553 14.9526C32.5599 14.9555 32.5651 14.9575 32.5704 14.9584C32.5758 14.9593 32.5813 14.9592 32.5866 14.9579L33.9964 14.6328C35.4083 14.2844 36.7489 13.8794 38.0182 13.4177L39.9294 12.6518C39.9625 12.6383 39.9671 12.6184 39.9432 12.5921L39.1589 11.7343L37.9107 10.5467L36.7636 9.60075L36.0436 9.08183C35.4509 8.65262 34.7581 8.22861 33.9652 7.80981L33.3856 7.51316L31.9419 6.86016C30.9879 6.47258 30.0153 6.16246 29.024 5.92979C28.9873 5.92122 28.9787 5.93285 28.9983 5.96469L30.0196 7.64174ZM6.15514 15.7643L5.64358 16.7131L5.1513 17.7279L4.38165 19.7172C4.16062 20.3675 3.97295 21.0722 3.81866 21.8315L3.4871 23.8033L3.42281 24.5041C3.42154 24.5186 3.42554 24.5332 3.43413 24.5451C3.44271 24.5571 3.4553 24.5656 3.46965 24.5693L5.64633 25.1204L7.61544 25.5437L11.7337 26.2684L14.5937 26.6541C14.6298 26.659 14.6482 26.6434 14.6488 26.6073L14.7195 23.3524L14.8141 21.826L14.9867 19.9175L15.3009 17.5351C15.302 17.5254 15.2995 17.5156 15.2939 17.5078C15.2882 17.4999 15.2799 17.4946 15.2705 17.4928C14.0307 17.2528 12.7969 16.9604 11.5693 16.6157L9.70854 16.0454C8.73011 15.7147 7.74188 15.3339 6.74385 14.9028C6.71263 14.8894 6.68813 14.897 6.67038 14.9258L6.15514 15.7643ZM3.69926 29.909L4.14286 31.8175C4.34369 32.5645 4.59014 33.2855 4.8822 33.9804L5.43142 35.2121L5.77675 35.9055C6.49924 37.2794 7.35185 38.5377 8.33457 39.6802C8.34081 39.6872 8.34907 39.692 8.35826 39.6942C8.36745 39.6963 8.37713 39.6956 8.386 39.6921L9.66262 39.1833C11.0458 38.6623 12.4078 38.2392 13.7487 37.9141L15.7628 37.4631C15.7928 37.4564 15.8048 37.438 15.7986 37.408L15.4983 35.9486L15.1594 33.839L14.939 31.9342L14.8453 30.8679L14.8141 30.0358C14.8141 30.0297 14.8147 30.0297 14.8159 30.0358C14.8269 30.0848 14.8239 30.1319 14.8067 30.1772C14.7933 30.2146 14.7859 30.2137 14.7847 30.1745L14.7709 29.7713L14.725 29.0825C14.7239 29.0674 14.7176 29.0531 14.7072 29.0421C14.6969 29.031 14.683 29.0239 14.6681 29.0218L11.7328 28.6545L9.56251 28.3119L7.61912 27.9528L3.65334 27.0638L3.43108 27.0114C3.39557 27.0028 3.37873 27.0166 3.38057 27.0527C3.42404 27.995 3.53027 28.9471 3.69926 29.909Z" fill="#1D231F"/>
<path id="Vector_2" d="M48.0999 22.581C48.3772 22.5773 48.6693 22.5599 48.9218 22.6416C49.4374 22.81 49.7114 23.1969 49.7438 23.8025L49.6731 25.6623L49.4463 27.6902L48.9944 29.9257L48.4397 31.8534C48.0784 32.939 47.7104 33.8498 47.3357 34.5858C47.0994 35.0505 46.6864 35.2529 46.0968 35.1929C45.4783 35.0447 45.1505 34.6326 45.1131 33.9566L45.8975 31.9196L46.1601 31.138L46.5257 30.0166L46.9987 27.9602L47.2926 25.7973L47.3568 25.0066C47.3571 25.0028 47.3566 24.9989 47.3552 24.9953C47.3539 24.9918 47.3518 24.9885 47.3491 24.9858C47.3464 24.9831 47.3432 24.981 47.3396 24.9797C47.336 24.9784 47.3322 24.9778 47.3284 24.9781L46.0361 25.0773C44.6218 25.2334 43.249 25.5111 41.9179 25.9103L40.003 26.5734C39.8077 26.6426 39.6035 26.724 39.3904 26.8177C38.1175 27.3779 36.9015 28.0417 35.7424 28.8089L34.4024 29.7833L33.844 30.226C33.2127 30.7281 32.6124 31.2761 32.043 31.87L31.9199 31.994C31.3486 32.5665 30.842 33.1429 30.3999 33.7234L29.6615 34.6997L28.9038 35.8256C28.0754 37.1304 27.3826 38.5252 26.8254 40.01L26.1953 41.9525C26.0031 42.5905 25.8573 43.2343 25.7582 43.8839C25.7514 43.9268 25.7627 43.9323 25.7921 43.9005C26.3842 43.257 27.0106 42.6419 27.6712 42.0553L27.8972 41.8634C29.1995 40.7741 30.5943 39.86 32.0815 39.121C33.3422 38.4977 34.6455 38.0008 35.9913 37.6304L38.0927 37.1721L40.2905 36.9186L41.9987 36.8773L44.0422 37.0141L46.06 37.3512L48.0172 37.8673C49.4242 38.3143 50.7884 38.9137 52.1097 39.6656L52.4964 39.9907C52.9767 40.7585 52.5882 41.2912 52.1336 42.0094L52.0482 42.1472L50.7541 43.9675L50.0175 44.8446L48.8465 46.0643L48.0934 46.7467L46.4347 48.0554L46.0775 48.2979C44.7978 49.1661 43.4324 49.8883 41.9813 50.4645L39.9479 51.1524L37.7409 51.6685L35.983 51.8871C33.8027 52.0763 31.8832 51.9349 29.7781 51.5335L27.9045 51.0449C26.5097 50.6157 25.1529 50.0392 23.834 49.3155C23.3454 49.0593 23.0268 48.7709 22.9827 48.1721L23.08 45.9431L23.2995 44.1191L23.7358 41.9681L23.9351 41.1489L24.3144 40.0091L25.0427 38.1116C25.655 36.6807 26.4112 35.2899 27.3112 33.9392L27.9165 33.074L28.7835 31.9508L30.0941 30.4896L30.601 29.9633L31.9998 28.6766L32.932 27.9161L33.9662 27.1612C35.3009 26.2428 36.6703 25.4624 38.0743 24.8201C39.3497 24.2501 40.678 23.7798 42.0593 23.4094L44.0303 22.9796L46.2446 22.6802L48.0999 22.581ZM39.9396 39.3102C38.5503 39.443 37.2091 39.7124 35.916 40.1184L33.9854 40.8329C31.2553 42.0373 28.9316 43.7933 27.0146 46.101C26.9858 46.1347 26.9928 46.146 27.0357 46.135L30.039 45.3268L31.908 44.818C32.6831 44.6086 33.4552 44.3983 34.2242 44.187C34.7082 44.0539 35.105 44.0245 35.4889 44.3101C36.2815 44.8988 36.0418 46.1286 35.0563 46.4032C34.6945 46.5036 34.3225 46.6074 33.9404 46.7145L31.8969 47.2711L27.6593 48.4228C27.6549 48.4239 27.651 48.4264 27.6481 48.4299C27.6452 48.4335 27.6436 48.4378 27.6434 48.4423C27.6432 48.4469 27.6444 48.4514 27.647 48.4551C27.6495 48.4589 27.6532 48.4617 27.6575 48.4632C28.3738 48.7381 29.1123 48.961 29.8727 49.1318L31.8244 49.4735C32.5291 49.5635 33.2427 49.6076 33.9652 49.6057L35.972 49.5157C36.7025 49.4527 37.4274 49.3379 38.1468 49.1713L40.1141 48.6313L41.2869 48.196L42.0345 47.8718C43.5983 47.1591 45.0341 46.2449 46.342 45.1293L47.3431 44.2127L48.2018 43.3145L49.1873 42.1233L49.8403 41.203C49.8629 41.1706 49.8562 41.1464 49.8201 41.1305L48.0695 40.3912C46.7837 39.9068 45.4572 39.5787 44.09 39.4066L42.1071 39.2495L39.9396 39.3102Z" fill="#1D231F"/>
</g>
</g>
</svg>
