<svg width="54" height="54" viewBox="0 0 54 54" fill="none" xmlns="http://www.w3.org/2000/svg">
<g id="Aesthetics">
<g id="Group 73">
<g id="Vector">
<mask id="path-1-outside-1_245_14081" maskUnits="userSpaceOnUse" x="3" y="1" width="49" height="51" fill="black">
<rect fill="white" x="3" y="1" width="49" height="51"/>
<path d="M13.921 35.5791C13.3777 36.0935 12.8392 36.6248 12.3055 37.173C12.1179 37.3701 12.0915 37.5841 12.2261 37.8149C13.4138 39.8392 13.1902 41.8154 11.5554 43.7435C11.4179 43.9075 11.3297 44.1074 11.3012 44.3197C11.2727 44.5319 11.305 44.7477 11.3944 44.9416C11.4838 45.1355 11.6265 45.2995 11.8058 45.4144C11.9851 45.5292 12.1935 45.5901 12.4065 45.5898L48.3674 45.5826C49.9637 45.5826 50.7427 46.3832 50.7042 47.9844L50.6754 48.9797C50.6369 50.5279 49.8436 51.3021 48.2953 51.3021L7.19909 51.2876C6.94944 51.2877 6.70228 51.2379 6.472 51.1411C6.24171 51.0444 6.03291 50.9026 5.85773 50.724C5.68255 50.5455 5.54448 50.3338 5.45159 50.1012C5.3587 49.8685 5.31284 49.6197 5.31667 49.3691L5.3816 44.3493C5.38641 44.0416 5.29982 43.7651 5.12192 43.5199C3.58568 41.349 3.37655 38.0457 6.09562 36.5527C6.7255 36.2065 7.30487 35.8171 7.83378 35.3843C7.98445 35.26 8.08342 35.084 8.11142 34.8907C8.13942 34.6973 8.09446 34.5005 7.98526 34.3385C1.89079 25.1355 4.24202 12.5427 13.207 6.00105C21.3426 0.0580477 32.9401 0.743226 40.2319 8.0061C40.3184 8.09304 40.3869 8.19624 40.4334 8.30976C40.4799 8.42327 40.5035 8.54486 40.5028 8.66753C40.5021 8.7902 40.4772 8.91153 40.4295 9.02453C40.3817 9.13753 40.3121 9.23997 40.2246 9.32596L38.0898 11.3959C37.8926 11.5883 37.7917 11.8239 37.7868 12.1027L37.758 14.6126C37.758 14.8483 37.8614 15.0189 38.0681 15.1247L40.8377 16.5744C41.0116 16.6649 41.1433 16.8199 41.2052 17.0068C41.267 17.1938 41.2542 17.3982 41.1695 17.5769L39.8496 20.3681C39.7101 20.6614 39.739 20.9379 39.9361 21.1976L41.9412 23.8157C42.0189 23.9187 42.0547 24.0471 42.0412 24.1746C42.0278 24.302 41.9662 24.4187 41.869 24.5008L39.2942 26.679C39.049 26.8905 38.972 27.1502 39.0634 27.4579C39.3134 28.2657 39.5443 29.0951 39.7558 29.9462C39.9674 30.7828 39.6573 31.2901 38.8254 31.468C37.9215 31.6603 37.0584 31.9152 36.2362 32.2325C35.9861 32.3287 35.8371 32.509 35.789 32.7734L35.2697 35.7377C35.2378 35.9252 35.1359 36.0935 34.9846 36.2086C34.8333 36.3238 34.6439 36.3771 34.4547 36.358L31.1947 36.0046C30.9783 35.9805 30.8076 36.0599 30.6826 36.2426L28.7641 39.0338C28.5814 39.303 28.353 39.3487 28.079 39.1708L25.3166 37.411C25.1897 37.3293 25.042 37.2859 24.8911 37.2859C24.7402 37.2859 24.5924 37.3293 24.4655 37.411L21.8258 39.1131C21.6751 39.2095 21.4926 39.2431 21.3173 39.2067C21.1421 39.1704 20.9881 39.0669 20.8882 38.9184L19.1067 36.2859C19.0372 36.1836 18.9411 36.1026 18.8291 36.0517C18.7171 36.0008 18.5935 35.982 18.4721 35.9974L15.3275 36.3436C15.0774 36.3676 14.849 36.2955 14.6423 36.1272C14.5509 36.0503 14.5005 35.9493 14.4908 35.8243C14.4668 35.329 14.2768 35.2473 13.921 35.5791ZM7.91311 14.728C4.87429 21.0509 5.41522 27.5156 9.5359 34.1221C9.8292 34.5885 9.8292 35.055 9.5359 35.5214C9.38203 35.7618 9.42771 35.9565 9.67293 36.1056C10.2643 36.4517 10.9351 36.5022 11.4472 35.9974C20.655 26.7319 29.7162 17.6731 38.6307 8.8211C38.6588 8.7921 38.6808 8.75778 38.6954 8.72026C38.71 8.68274 38.7168 8.64281 38.7154 8.60294C38.7141 8.56307 38.7046 8.5241 38.6875 8.48843C38.6705 8.45277 38.6462 8.42116 38.6162 8.39557C28.4684 -0.468457 13.5243 3.0584 7.91311 14.728ZM37.6354 26.1669L39.9361 24.2412C40.1477 24.0633 40.1669 23.8661 39.9938 23.6498L38.1835 21.3057C38.02 21.0942 37.996 20.8682 38.1114 20.6278L39.3519 17.9592C39.4769 17.6995 39.412 17.5 39.1572 17.3606L36.6689 15.9974C36.3804 15.8436 36.2386 15.6031 36.2434 15.2762L36.2578 13.776C36.2626 13.4154 36.1376 13.3625 35.8828 13.6173L29.4277 20.0652C29.2257 20.2623 29.1945 20.4859 29.3339 20.736C30.2138 22.3371 30.1634 23.8469 29.1825 25.2653C27.7688 27.2944 25.8311 27.7656 23.3693 26.679C23.1096 26.5636 22.8812 26.6068 22.6841 26.8088C20.4386 29.0591 18.2437 31.2588 16.0992 33.4081C15.8636 33.6437 15.6785 33.9154 15.5438 34.2231C15.519 34.2816 15.5085 34.3452 15.5134 34.4085C15.5183 34.4717 15.5383 34.5327 15.5717 34.586C15.6052 34.6394 15.651 34.6835 15.7052 34.7145C15.7594 34.7456 15.8204 34.7626 15.8828 34.7641C16.6858 34.7881 17.4816 34.6871 18.2701 34.4611C19.7054 34.05 20.5925 35.7161 21.0613 36.7547C21.321 37.3461 21.7297 37.4759 22.2874 37.1441C23.4054 36.4734 24.5809 35.0381 25.9441 36.0983C26.473 36.507 27.0187 36.8989 27.5813 37.274C27.8842 37.4759 28.1366 37.4278 28.3386 37.1297L29.983 34.6775C30.1369 34.4467 30.3532 34.3529 30.6321 34.3962L33.4955 34.829C33.7936 34.877 33.9691 34.752 34.022 34.4539L34.5701 31.4103C34.6086 31.2132 34.7264 31.0881 34.9235 31.0352L37.8012 30.2491C38.1186 30.1625 38.2364 29.9582 38.1547 29.636L37.4406 26.7655C37.4125 26.6576 37.416 26.5438 37.4505 26.4377C37.485 26.3316 37.5491 26.2377 37.6354 26.1669ZM27.9059 21.6159L24.2564 25.2509C24.2483 25.259 24.2419 25.2685 24.2376 25.279C24.2332 25.2895 24.231 25.3008 24.231 25.3122C24.231 25.3236 24.2332 25.3349 24.2376 25.3454C24.2419 25.3559 24.2483 25.3655 24.2564 25.3735L24.2708 25.388C24.4561 25.5743 24.6869 25.7117 24.95 25.7923C25.2132 25.8729 25.5034 25.8951 25.8043 25.8576C26.1051 25.82 26.4105 25.7236 26.7031 25.5737C26.9956 25.4238 27.2696 25.2234 27.5092 24.9841L27.6318 24.8614C28.1149 24.3792 28.4295 23.768 28.5066 23.1621C28.5837 22.5562 28.4169 22.0053 28.0429 21.6303L28.0285 21.6159C28.0204 21.6078 28.0109 21.6014 28.0004 21.597C27.9899 21.5927 27.9786 21.5904 27.9672 21.5904C27.9558 21.5904 27.9445 21.5927 27.934 21.597C27.9235 21.6014 27.9139 21.6078 27.9059 21.6159ZM11.541 40.3681C11.541 39.5551 11.218 38.7755 10.6432 38.2006C10.0683 37.6258 9.28865 37.3028 8.4757 37.3028C7.66274 37.3028 6.88309 37.6258 6.30824 38.2006C5.73339 38.7755 5.41043 39.5551 5.41043 40.3681C5.41043 41.181 5.73339 41.9607 6.30824 42.5355C6.88309 43.1104 7.66274 43.4333 8.4757 43.4333C9.28865 43.4333 10.0683 43.1104 10.6432 42.5355C11.218 41.9607 11.541 41.181 11.541 40.3681ZM11.916 47.0035C10.7091 46.8063 10.0696 46.1524 9.9975 45.0417C9.99405 44.9895 9.97907 44.9386 9.95361 44.893C9.92815 44.8474 9.89291 44.8081 9.85056 44.7783C9.8082 44.7484 9.75982 44.7287 9.70907 44.7206C9.65832 44.7125 9.60651 44.7163 9.55755 44.7316C8.84112 44.9479 8.14154 44.9503 7.45877 44.7388C7.02122 44.6041 6.80242 44.7652 6.80242 45.222L6.77358 49.0085C6.76877 49.5374 7.0308 49.8019 7.55971 49.8019L48.5261 49.8235C49.0742 49.8235 49.3314 49.5494 49.2978 49.0013L49.2185 47.7247C49.1896 47.2535 48.9396 47.0179 48.4684 47.0179H12.0458C12.0027 47.0179 11.9592 47.0131 11.916 47.0035Z"/>
</mask>
<path d="M13.921 35.5791C13.3777 36.0935 12.8392 36.6248 12.3055 37.173C12.1179 37.3701 12.0915 37.5841 12.2261 37.8149C13.4138 39.8392 13.1902 41.8154 11.5554 43.7435C11.4179 43.9075 11.3297 44.1074 11.3012 44.3197C11.2727 44.5319 11.305 44.7477 11.3944 44.9416C11.4838 45.1355 11.6265 45.2995 11.8058 45.4144C11.9851 45.5292 12.1935 45.5901 12.4065 45.5898L48.3674 45.5826C49.9637 45.5826 50.7427 46.3832 50.7042 47.9844L50.6754 48.9797C50.6369 50.5279 49.8436 51.3021 48.2953 51.3021L7.19909 51.2876C6.94944 51.2877 6.70228 51.2379 6.472 51.1411C6.24171 51.0444 6.03291 50.9026 5.85773 50.724C5.68255 50.5455 5.54448 50.3338 5.45159 50.1012C5.3587 49.8685 5.31284 49.6197 5.31667 49.3691L5.3816 44.3493C5.38641 44.0416 5.29982 43.7651 5.12192 43.5199C3.58568 41.349 3.37655 38.0457 6.09562 36.5527C6.7255 36.2065 7.30487 35.8171 7.83378 35.3843C7.98445 35.26 8.08342 35.084 8.11142 34.8907C8.13942 34.6973 8.09446 34.5005 7.98526 34.3385C1.89079 25.1355 4.24202 12.5427 13.207 6.00105C21.3426 0.0580477 32.9401 0.743226 40.2319 8.0061C40.3184 8.09304 40.3869 8.19624 40.4334 8.30976C40.4799 8.42327 40.5035 8.54486 40.5028 8.66753C40.5021 8.7902 40.4772 8.91153 40.4295 9.02453C40.3817 9.13753 40.3121 9.23997 40.2246 9.32596L38.0898 11.3959C37.8926 11.5883 37.7917 11.8239 37.7868 12.1027L37.758 14.6126C37.758 14.8483 37.8614 15.0189 38.0681 15.1247L40.8377 16.5744C41.0116 16.6649 41.1433 16.8199 41.2052 17.0068C41.267 17.1938 41.2542 17.3982 41.1695 17.5769L39.8496 20.3681C39.7101 20.6614 39.739 20.9379 39.9361 21.1976L41.9412 23.8157C42.0189 23.9187 42.0547 24.0471 42.0412 24.1746C42.0278 24.302 41.9662 24.4187 41.869 24.5008L39.2942 26.679C39.049 26.8905 38.972 27.1502 39.0634 27.4579C39.3134 28.2657 39.5443 29.0951 39.7558 29.9462C39.9674 30.7828 39.6573 31.2901 38.8254 31.468C37.9215 31.6603 37.0584 31.9152 36.2362 32.2325C35.9861 32.3287 35.8371 32.509 35.789 32.7734L35.2697 35.7377C35.2378 35.9252 35.1359 36.0935 34.9846 36.2086C34.8333 36.3238 34.6439 36.3771 34.4547 36.358L31.1947 36.0046C30.9783 35.9805 30.8076 36.0599 30.6826 36.2426L28.7641 39.0338C28.5814 39.303 28.353 39.3487 28.079 39.1708L25.3166 37.411C25.1897 37.3293 25.042 37.2859 24.8911 37.2859C24.7402 37.2859 24.5924 37.3293 24.4655 37.411L21.8258 39.1131C21.6751 39.2095 21.4926 39.2431 21.3173 39.2067C21.1421 39.1704 20.9881 39.0669 20.8882 38.9184L19.1067 36.2859C19.0372 36.1836 18.9411 36.1026 18.8291 36.0517C18.7171 36.0008 18.5935 35.982 18.4721 35.9974L15.3275 36.3436C15.0774 36.3676 14.849 36.2955 14.6423 36.1272C14.5509 36.0503 14.5005 35.9493 14.4908 35.8243C14.4668 35.329 14.2768 35.2473 13.921 35.5791ZM7.91311 14.728C4.87429 21.0509 5.41522 27.5156 9.5359 34.1221C9.8292 34.5885 9.8292 35.055 9.5359 35.5214C9.38203 35.7618 9.42771 35.9565 9.67293 36.1056C10.2643 36.4517 10.9351 36.5022 11.4472 35.9974C20.655 26.7319 29.7162 17.6731 38.6307 8.8211C38.6588 8.7921 38.6808 8.75778 38.6954 8.72026C38.71 8.68274 38.7168 8.64281 38.7154 8.60294C38.7141 8.56307 38.7046 8.5241 38.6875 8.48843C38.6705 8.45277 38.6462 8.42116 38.6162 8.39557C28.4684 -0.468457 13.5243 3.0584 7.91311 14.728ZM37.6354 26.1669L39.9361 24.2412C40.1477 24.0633 40.1669 23.8661 39.9938 23.6498L38.1835 21.3057C38.02 21.0942 37.996 20.8682 38.1114 20.6278L39.3519 17.9592C39.4769 17.6995 39.412 17.5 39.1572 17.3606L36.6689 15.9974C36.3804 15.8436 36.2386 15.6031 36.2434 15.2762L36.2578 13.776C36.2626 13.4154 36.1376 13.3625 35.8828 13.6173L29.4277 20.0652C29.2257 20.2623 29.1945 20.4859 29.3339 20.736C30.2138 22.3371 30.1634 23.8469 29.1825 25.2653C27.7688 27.2944 25.8311 27.7656 23.3693 26.679C23.1096 26.5636 22.8812 26.6068 22.6841 26.8088C20.4386 29.0591 18.2437 31.2588 16.0992 33.4081C15.8636 33.6437 15.6785 33.9154 15.5438 34.2231C15.519 34.2816 15.5085 34.3452 15.5134 34.4085C15.5183 34.4717 15.5383 34.5327 15.5717 34.586C15.6052 34.6394 15.651 34.6835 15.7052 34.7145C15.7594 34.7456 15.8204 34.7626 15.8828 34.7641C16.6858 34.7881 17.4816 34.6871 18.2701 34.4611C19.7054 34.05 20.5925 35.7161 21.0613 36.7547C21.321 37.3461 21.7297 37.4759 22.2874 37.1441C23.4054 36.4734 24.5809 35.0381 25.9441 36.0983C26.473 36.507 27.0187 36.8989 27.5813 37.274C27.8842 37.4759 28.1366 37.4278 28.3386 37.1297L29.983 34.6775C30.1369 34.4467 30.3532 34.3529 30.6321 34.3962L33.4955 34.829C33.7936 34.877 33.9691 34.752 34.022 34.4539L34.5701 31.4103C34.6086 31.2132 34.7264 31.0881 34.9235 31.0352L37.8012 30.2491C38.1186 30.1625 38.2364 29.9582 38.1547 29.636L37.4406 26.7655C37.4125 26.6576 37.416 26.5438 37.4505 26.4377C37.485 26.3316 37.5491 26.2377 37.6354 26.1669ZM27.9059 21.6159L24.2564 25.2509C24.2483 25.259 24.2419 25.2685 24.2376 25.279C24.2332 25.2895 24.231 25.3008 24.231 25.3122C24.231 25.3236 24.2332 25.3349 24.2376 25.3454C24.2419 25.3559 24.2483 25.3655 24.2564 25.3735L24.2708 25.388C24.4561 25.5743 24.6869 25.7117 24.95 25.7923C25.2132 25.8729 25.5034 25.8951 25.8043 25.8576C26.1051 25.82 26.4105 25.7236 26.7031 25.5737C26.9956 25.4238 27.2696 25.2234 27.5092 24.9841L27.6318 24.8614C28.1149 24.3792 28.4295 23.768 28.5066 23.1621C28.5837 22.5562 28.4169 22.0053 28.0429 21.6303L28.0285 21.6159C28.0204 21.6078 28.0109 21.6014 28.0004 21.597C27.9899 21.5927 27.9786 21.5904 27.9672 21.5904C27.9558 21.5904 27.9445 21.5927 27.934 21.597C27.9235 21.6014 27.9139 21.6078 27.9059 21.6159ZM11.541 40.3681C11.541 39.5551 11.218 38.7755 10.6432 38.2006C10.0683 37.6258 9.28865 37.3028 8.4757 37.3028C7.66274 37.3028 6.88309 37.6258 6.30824 38.2006C5.73339 38.7755 5.41043 39.5551 5.41043 40.3681C5.41043 41.181 5.73339 41.9607 6.30824 42.5355C6.88309 43.1104 7.66274 43.4333 8.4757 43.4333C9.28865 43.4333 10.0683 43.1104 10.6432 42.5355C11.218 41.9607 11.541 41.181 11.541 40.3681ZM11.916 47.0035C10.7091 46.8063 10.0696 46.1524 9.9975 45.0417C9.99405 44.9895 9.97907 44.9386 9.95361 44.893C9.92815 44.8474 9.89291 44.8081 9.85056 44.7783C9.8082 44.7484 9.75982 44.7287 9.70907 44.7206C9.65832 44.7125 9.60651 44.7163 9.55755 44.7316C8.84112 44.9479 8.14154 44.9503 7.45877 44.7388C7.02122 44.6041 6.80242 44.7652 6.80242 45.222L6.77358 49.0085C6.76877 49.5374 7.0308 49.8019 7.55971 49.8019L48.5261 49.8235C49.0742 49.8235 49.3314 49.5494 49.2978 49.0013L49.2185 47.7247C49.1896 47.2535 48.9396 47.0179 48.4684 47.0179H12.0458C12.0027 47.0179 11.9592 47.0131 11.916 47.0035Z" fill="white"/>
<path d="M13.921 35.5791C13.3777 36.0935 12.8392 36.6248 12.3055 37.173C12.1179 37.3701 12.0915 37.5841 12.2261 37.8149C13.4138 39.8392 13.1902 41.8154 11.5554 43.7435C11.4179 43.9075 11.3297 44.1074 11.3012 44.3197C11.2727 44.5319 11.305 44.7477 11.3944 44.9416C11.4838 45.1355 11.6265 45.2995 11.8058 45.4144C11.9851 45.5292 12.1935 45.5901 12.4065 45.5898L48.3674 45.5826C49.9637 45.5826 50.7427 46.3832 50.7042 47.9844L50.6754 48.9797C50.6369 50.5279 49.8436 51.3021 48.2953 51.3021L7.19909 51.2876C6.94944 51.2877 6.70228 51.2379 6.472 51.1411C6.24171 51.0444 6.03291 50.9026 5.85773 50.724C5.68255 50.5455 5.54448 50.3338 5.45159 50.1012C5.3587 49.8685 5.31284 49.6197 5.31667 49.3691L5.3816 44.3493C5.38641 44.0416 5.29982 43.7651 5.12192 43.5199C3.58568 41.349 3.37655 38.0457 6.09562 36.5527C6.7255 36.2065 7.30487 35.8171 7.83378 35.3843C7.98445 35.26 8.08342 35.084 8.11142 34.8907C8.13942 34.6973 8.09446 34.5005 7.98526 34.3385C1.89079 25.1355 4.24202 12.5427 13.207 6.00105C21.3426 0.0580477 32.9401 0.743226 40.2319 8.0061C40.3184 8.09304 40.3869 8.19624 40.4334 8.30976C40.4799 8.42327 40.5035 8.54486 40.5028 8.66753C40.5021 8.7902 40.4772 8.91153 40.4295 9.02453C40.3817 9.13753 40.3121 9.23997 40.2246 9.32596L38.0898 11.3959C37.8926 11.5883 37.7917 11.8239 37.7868 12.1027L37.758 14.6126C37.758 14.8483 37.8614 15.0189 38.0681 15.1247L40.8377 16.5744C41.0116 16.6649 41.1433 16.8199 41.2052 17.0068C41.267 17.1938 41.2542 17.3982 41.1695 17.5769L39.8496 20.3681C39.7101 20.6614 39.739 20.9379 39.9361 21.1976L41.9412 23.8157C42.0189 23.9187 42.0547 24.0471 42.0412 24.1746C42.0278 24.302 41.9662 24.4187 41.869 24.5008L39.2942 26.679C39.049 26.8905 38.972 27.1502 39.0634 27.4579C39.3134 28.2657 39.5443 29.0951 39.7558 29.9462C39.9674 30.7828 39.6573 31.2901 38.8254 31.468C37.9215 31.6603 37.0584 31.9152 36.2362 32.2325C35.9861 32.3287 35.8371 32.509 35.789 32.7734L35.2697 35.7377C35.2378 35.9252 35.1359 36.0935 34.9846 36.2086C34.8333 36.3238 34.6439 36.3771 34.4547 36.358L31.1947 36.0046C30.9783 35.9805 30.8076 36.0599 30.6826 36.2426L28.7641 39.0338C28.5814 39.303 28.353 39.3487 28.079 39.1708L25.3166 37.411C25.1897 37.3293 25.042 37.2859 24.8911 37.2859C24.7402 37.2859 24.5924 37.3293 24.4655 37.411L21.8258 39.1131C21.6751 39.2095 21.4926 39.2431 21.3173 39.2067C21.1421 39.1704 20.9881 39.0669 20.8882 38.9184L19.1067 36.2859C19.0372 36.1836 18.9411 36.1026 18.8291 36.0517C18.7171 36.0008 18.5935 35.982 18.4721 35.9974L15.3275 36.3436C15.0774 36.3676 14.849 36.2955 14.6423 36.1272C14.5509 36.0503 14.5005 35.9493 14.4908 35.8243C14.4668 35.329 14.2768 35.2473 13.921 35.5791ZM7.91311 14.728C4.87429 21.0509 5.41522 27.5156 9.5359 34.1221C9.8292 34.5885 9.8292 35.055 9.5359 35.5214C9.38203 35.7618 9.42771 35.9565 9.67293 36.1056C10.2643 36.4517 10.9351 36.5022 11.4472 35.9974C20.655 26.7319 29.7162 17.6731 38.6307 8.8211C38.6588 8.7921 38.6808 8.75778 38.6954 8.72026C38.71 8.68274 38.7168 8.64281 38.7154 8.60294C38.7141 8.56307 38.7046 8.5241 38.6875 8.48843C38.6705 8.45277 38.6462 8.42116 38.6162 8.39557C28.4684 -0.468457 13.5243 3.0584 7.91311 14.728ZM37.6354 26.1669L39.9361 24.2412C40.1477 24.0633 40.1669 23.8661 39.9938 23.6498L38.1835 21.3057C38.02 21.0942 37.996 20.8682 38.1114 20.6278L39.3519 17.9592C39.4769 17.6995 39.412 17.5 39.1572 17.3606L36.6689 15.9974C36.3804 15.8436 36.2386 15.6031 36.2434 15.2762L36.2578 13.776C36.2626 13.4154 36.1376 13.3625 35.8828 13.6173L29.4277 20.0652C29.2257 20.2623 29.1945 20.4859 29.3339 20.736C30.2138 22.3371 30.1634 23.8469 29.1825 25.2653C27.7688 27.2944 25.8311 27.7656 23.3693 26.679C23.1096 26.5636 22.8812 26.6068 22.6841 26.8088C20.4386 29.0591 18.2437 31.2588 16.0992 33.4081C15.8636 33.6437 15.6785 33.9154 15.5438 34.2231C15.519 34.2816 15.5085 34.3452 15.5134 34.4085C15.5183 34.4717 15.5383 34.5327 15.5717 34.586C15.6052 34.6394 15.651 34.6835 15.7052 34.7145C15.7594 34.7456 15.8204 34.7626 15.8828 34.7641C16.6858 34.7881 17.4816 34.6871 18.2701 34.4611C19.7054 34.05 20.5925 35.7161 21.0613 36.7547C21.321 37.3461 21.7297 37.4759 22.2874 37.1441C23.4054 36.4734 24.5809 35.0381 25.9441 36.0983C26.473 36.507 27.0187 36.8989 27.5813 37.274C27.8842 37.4759 28.1366 37.4278 28.3386 37.1297L29.983 34.6775C30.1369 34.4467 30.3532 34.3529 30.6321 34.3962L33.4955 34.829C33.7936 34.877 33.9691 34.752 34.022 34.4539L34.5701 31.4103C34.6086 31.2132 34.7264 31.0881 34.9235 31.0352L37.8012 30.2491C38.1186 30.1625 38.2364 29.9582 38.1547 29.636L37.4406 26.7655C37.4125 26.6576 37.416 26.5438 37.4505 26.4377C37.485 26.3316 37.5491 26.2377 37.6354 26.1669ZM27.9059 21.6159L24.2564 25.2509C24.2483 25.259 24.2419 25.2685 24.2376 25.279C24.2332 25.2895 24.231 25.3008 24.231 25.3122C24.231 25.3236 24.2332 25.3349 24.2376 25.3454C24.2419 25.3559 24.2483 25.3655 24.2564 25.3735L24.2708 25.388C24.4561 25.5743 24.6869 25.7117 24.95 25.7923C25.2132 25.8729 25.5034 25.8951 25.8043 25.8576C26.1051 25.82 26.4105 25.7236 26.7031 25.5737C26.9956 25.4238 27.2696 25.2234 27.5092 24.9841L27.6318 24.8614C28.1149 24.3792 28.4295 23.768 28.5066 23.1621C28.5837 22.5562 28.4169 22.0053 28.0429 21.6303L28.0285 21.6159C28.0204 21.6078 28.0109 21.6014 28.0004 21.597C27.9899 21.5927 27.9786 21.5904 27.9672 21.5904C27.9558 21.5904 27.9445 21.5927 27.934 21.597C27.9235 21.6014 27.9139 21.6078 27.9059 21.6159ZM11.541 40.3681C11.541 39.5551 11.218 38.7755 10.6432 38.2006C10.0683 37.6258 9.28865 37.3028 8.4757 37.3028C7.66274 37.3028 6.88309 37.6258 6.30824 38.2006C5.73339 38.7755 5.41043 39.5551 5.41043 40.3681C5.41043 41.181 5.73339 41.9607 6.30824 42.5355C6.88309 43.1104 7.66274 43.4333 8.4757 43.4333C9.28865 43.4333 10.0683 43.1104 10.6432 42.5355C11.218 41.9607 11.541 41.181 11.541 40.3681ZM11.916 47.0035C10.7091 46.8063 10.0696 46.1524 9.9975 45.0417C9.99405 44.9895 9.97907 44.9386 9.95361 44.893C9.92815 44.8474 9.89291 44.8081 9.85056 44.7783C9.8082 44.7484 9.75982 44.7287 9.70907 44.7206C9.65832 44.7125 9.60651 44.7163 9.55755 44.7316C8.84112 44.9479 8.14154 44.9503 7.45877 44.7388C7.02122 44.6041 6.80242 44.7652 6.80242 45.222L6.77358 49.0085C6.76877 49.5374 7.0308 49.8019 7.55971 49.8019L48.5261 49.8235C49.0742 49.8235 49.3314 49.5494 49.2978 49.0013L49.2185 47.7247C49.1896 47.2535 48.9396 47.0179 48.4684 47.0179H12.0458C12.0027 47.0179 11.9592 47.0131 11.916 47.0035Z" stroke="white" stroke-width="0.6" mask="url(#path-1-outside-1_245_14081)"/>
</g>
</g>
</g>
</svg>
