<svg width="54" height="54" viewBox="0 0 54 54" fill="none" xmlns="http://www.w3.org/2000/svg">
<g id="Coziness and comfort" clip-path="url(#clip0_245_14089)">
<path id="Vector" d="M31.7752 2.26621L34.268 1.54352C34.408 1.50184 34.5571 1.50184 34.6972 1.54352C36.1033 1.94603 38.1167 2.76934 38.9066 4.08206C39.4773 5.02886 39.2764 6.75324 39.2581 7.87385L39.2307 17.2641C39.2277 17.7429 39.3753 17.7962 39.6736 17.4242C40.3067 16.6375 40.9078 15.8752 41.477 15.1373C42.2029 14.2042 43.2895 14.0258 44.3624 14.3826C46.3773 15.0504 47.8504 16.3448 48.7818 18.2658C49.1516 19.0297 49.0466 19.9765 48.5033 20.6443C45.4048 24.465 42.4022 28.1608 39.4955 31.7315C39.3464 31.9114 39.2718 32.1188 39.2718 32.3535C39.2718 37.5617 39.2596 43.3691 39.2353 49.7757C39.2262 53.014 32.2592 54.2078 29.4423 54.5417C29.1561 54.5783 28.8929 54.5219 28.6524 54.3725C27.1732 53.4485 25.6879 52.5017 24.1965 51.5321C24.0139 51.4131 23.9225 51.4634 23.9225 51.683L23.9271 54.066C23.9277 54.1879 23.9043 54.3088 23.8583 54.4217C23.8123 54.5346 23.7445 54.6373 23.6589 54.7239C23.5733 54.8106 23.4714 54.8795 23.3592 54.9267C23.247 54.9739 23.1266 54.9985 23.0049 54.9991C20.0008 55.022 5.01674 54.6423 5.01217 49.89C5 35.0003 4.99696 20.2037 5.00304 5.49998C5.00304 3.00718 7.98889 1.90487 9.96119 1.37429C15.6453 -0.153406 21.617 -0.203718 27.5978 0.249101C27.8081 0.265262 28.0044 0.360051 28.1475 0.514449C28.2907 0.668848 28.3699 0.871434 28.3694 1.08156L28.3739 2.89741C28.3739 3.10171 28.4713 3.17642 28.6661 3.12153L31.7752 2.26621ZM37.3908 5.16608C35.7959 3.55606 34.0945 3.20234 32.2866 4.10493L22.215 6.99565C22.0533 7.04171 21.8808 7.0336 21.7235 6.97256C21.5662 6.91151 21.4327 6.80084 21.343 6.65718C21.0113 6.11441 21.0934 5.6128 21.5896 5.15236C22.7005 4.1156 23.7567 3.17489 24.758 2.33024C24.9711 2.15338 24.9391 2.05885 24.6622 2.04666C19.3753 1.82406 14.6363 2.24791 10.4451 3.31821C9.25506 3.62314 8.16847 4.09883 7.18536 4.74528C7.11472 4.79122 7.05614 4.85351 7.01457 4.92689C6.97301 5.00027 6.94968 5.0826 6.94654 5.16692C6.94341 5.25123 6.96057 5.33507 6.99657 5.41135C7.03257 5.48762 7.08636 5.5541 7.1534 5.60518C7.91128 6.1754 8.74981 6.58857 9.669 6.84471C9.8151 6.8874 9.96272 6.88283 10.1119 6.83099C13.1555 5.78509 16.2023 4.71479 19.252 3.62009C20.3432 3.22673 21.1878 4.06834 20.5943 5.07003C19.9521 6.15558 19.3098 7.18928 18.6676 8.17116C18.6582 8.18657 18.6528 8.20417 18.6521 8.22226C18.6514 8.24035 18.6554 8.25831 18.6637 8.27441C18.6719 8.2905 18.6842 8.30419 18.6993 8.31415C18.7144 8.32411 18.7318 8.32999 18.7498 8.33124C23.5314 8.66362 28.2156 8.35411 32.8025 7.40274C34.7565 6.99718 36.286 6.25163 37.3908 5.16608ZM11.2487 8.54164C11.066 8.60568 10.9884 8.73375 11.0158 8.92586L13.3397 24.7883C13.4097 25.2792 13.4812 25.2792 13.5543 24.7883C14.2665 20.0192 14.9848 15.2287 15.7092 10.417C15.9238 9.00818 16.2433 8.0934 17.0925 7.0048C17.473 6.51996 17.3725 6.3797 16.7912 6.584L11.2487 8.54164ZM17.1884 35.6834C17.7241 35.9883 17.89 36.4335 17.686 37.019C16.9677 39.0986 16.8536 41.2163 17.3436 43.3722C18.0467 46.4687 17.6815 49.5287 16.4031 52.4651C16.2997 52.6969 16.3757 52.8189 16.6314 52.8311L21.7402 53.0735C21.9168 53.0826 22.005 52.9972 22.005 52.8173C22.0172 43.5658 22.0096 34.4667 21.9822 25.5201C21.9776 24.7105 21.9 23.9558 22.836 23.7683C23.0785 23.7207 23.3299 23.7702 23.5364 23.9062C23.7429 24.0421 23.8881 24.2537 23.9408 24.4955L29.949 52.2685C29.9795 52.4148 30.0677 52.4773 30.2138 52.456C32.3551 52.1404 35.1172 51.5686 36.9388 50.2742C37.0446 50.1995 37.1308 50.1003 37.1904 49.9848C37.25 49.8694 37.2812 49.7412 37.2812 49.611L37.2675 34.8646C37.2676 34.8356 37.2591 34.8073 37.2431 34.7832C37.2271 34.7591 37.2043 34.7401 37.1774 34.7285C37.1504 34.717 37.1205 34.7133 37.0912 34.718C37.0618 34.7226 37.0343 34.7354 37.0119 34.7549C35.3409 36.278 32.9851 35.1116 32.0309 33.3598C30.7297 30.9631 32.1131 27.0478 33.533 25.0353C34.5404 23.6021 35.6331 22.2238 36.811 20.9004C37.1215 20.5528 37.2767 20.1472 37.2767 19.6837L37.2995 8.12084C37.2996 8.08896 37.2916 8.05757 37.2763 8.02964C37.2609 8.00171 37.2387 7.97816 37.2118 7.96122C37.1848 7.94428 37.154 7.93451 37.1222 7.93283C37.0904 7.93115 37.0587 7.93761 37.0301 7.95161C35.4383 8.72308 33.6882 9.2567 31.7798 9.55248C31.6552 9.57182 31.5403 9.63199 31.4528 9.72373C31.3654 9.81546 31.3102 9.93368 31.2959 10.0602C30.8621 13.8611 30.4238 17.4471 30.8667 21.3624C30.9184 21.8411 30.7373 22.2009 30.3234 22.4418C30.2108 22.5089 30.0921 22.5379 29.9673 22.5287C29.3464 22.4799 29.004 22.1445 28.94 21.5225C28.5748 17.9213 28.7148 14.227 29.3601 10.4398C29.4149 10.1105 29.2779 9.96566 28.9492 10.0053C25.3942 10.4383 21.757 10.5267 18.0376 10.2706C17.8367 10.2584 17.721 10.3499 17.6906 10.545L14.3624 32.3627C14.3274 32.5938 14.2071 32.8033 14.0254 32.9499C13.8436 33.0964 13.6136 33.1692 13.3808 33.154C12.842 33.1204 12.5346 32.8399 12.4585 32.3124C11.4663 25.5155 10.3295 17.6926 9.04809 8.84352C9.03896 8.80083 9.01461 8.77034 8.97504 8.75204L7.03926 7.86928C7.02634 7.86413 7.01238 7.86219 6.99854 7.86358C6.98471 7.86498 6.97142 7.86969 6.95978 7.87731C6.94815 7.88493 6.93851 7.89524 6.93168 7.90738C6.92486 7.91951 6.92104 7.93311 6.92056 7.94703V49.7254C6.92064 49.8298 6.94603 49.9326 6.99454 50.025C7.04305 50.1175 7.11323 50.1967 7.19906 50.2559C9.13483 51.5824 11.7189 52.0992 14.0473 52.4697C14.2178 52.4972 14.338 52.4316 14.408 52.273C15.659 49.4875 16.0972 46.6471 15.4261 43.7335C14.9285 41.5746 14.8828 38.0938 16.0744 35.967C16.1625 35.8112 16.3062 35.695 16.4762 35.6422C16.7532 35.5568 16.9906 35.5705 17.1884 35.6834ZM46.9137 19.1631C46.9649 19.1003 46.9704 19.001 46.9297 18.8708C46.889 18.7407 46.803 18.5821 46.6765 18.4043C46.55 18.2265 46.3856 18.0329 46.1926 17.8346C45.9996 17.6362 45.7819 17.437 45.5517 17.2483C45.087 16.8672 44.6001 16.552 44.1983 16.3722C43.7964 16.1923 43.5125 16.1624 43.409 16.2892C43.3577 16.3519 43.3523 16.4512 43.3929 16.5814C43.4336 16.7116 43.5197 16.8701 43.6461 17.0479C43.7726 17.2257 43.937 17.4193 44.13 17.6177C44.323 17.816 44.5408 18.0152 44.7709 18.2039C45.2357 18.585 45.7225 18.9002 46.1244 19.0801C46.5262 19.2599 46.8101 19.2898 46.9137 19.1631ZM41.9837 18.0463C41.8833 17.9304 41.7844 17.9319 41.687 18.0509C39.6507 20.5818 37.6967 22.9831 35.8248 25.2548C34.373 27.0203 31.7433 31.9876 34.9072 33.465C35.0206 33.5175 35.1483 33.5308 35.2705 33.5026C35.3927 33.4745 35.5025 33.4066 35.5829 33.3095L45.5768 21.12C45.5954 21.0967 45.6077 21.0691 45.6126 21.0398C45.6175 21.0104 45.6147 20.9803 45.6047 20.9522C45.5946 20.9242 45.5775 20.8993 45.555 20.8798C45.5325 20.8603 45.5055 20.8469 45.4763 20.841L45.2983 20.8044C45.2092 20.7852 45.1164 20.7912 45.0302 20.8219C44.9439 20.8526 44.8677 20.9067 44.8098 20.9782L40.9747 25.7076C40.6369 26.1254 40.223 26.2275 39.7329 26.0141C39.6386 25.9744 39.5594 25.915 39.4955 25.8357C39.0968 25.3265 39.1044 24.8218 39.5183 24.3217L43.2027 19.8621C43.3245 19.7158 43.3229 19.5725 43.1982 19.4322L41.9837 18.0463ZM24.1736 34.8097C24.0032 34.0261 23.9195 34.0352 23.9225 34.8372L23.9271 48.9569C23.9272 48.9891 23.9352 49.0206 23.9503 49.0486C23.9655 49.0765 23.9873 49.1001 24.0139 49.117L27.7165 51.468C27.7239 51.4724 27.7324 51.4746 27.741 51.4744C27.7496 51.4742 27.7579 51.4715 27.7651 51.4667C27.7722 51.462 27.7779 51.4552 27.7814 51.4474C27.7849 51.4395 27.7862 51.4308 27.785 51.4223L24.1736 34.8097Z" fill="#1D231F"/>
</g>
<defs>
<clipPath id="clip0_245_14089">
<rect width="54" height="54" fill="white"/>
</clipPath>
</defs>
</svg>
