<svg width="54" height="54" viewBox="0 0 54 54" fill="none" xmlns="http://www.w3.org/2000/svg">
<g id="Aesthetics" clip-path="url(#clip0_245_14104)">
<g id="Vector">
<path d="M57.5987 46.6047V46.836C57.4721 47.4852 57.0324 47.7699 56.4134 47.7693C52.2366 47.7646 48.1183 47.764 44.0587 47.7675C43.5042 47.7681 43.0633 47.3663 42.987 46.8248C42.9676 46.6863 43 46.4636 43.084 46.1567C44.0873 42.4923 45.0612 38.9243 46.0057 35.4525C46.0079 35.4439 46.0082 35.435 46.0067 35.4263C46.0052 35.4176 46.0018 35.4094 45.9968 35.4022L27.3272 8.87248C27.309 8.84644 27.2907 8.84644 27.2721 8.87248L8.60844 35.3945C8.59306 35.4162 8.58891 35.4399 8.59602 35.4655C9.59061 39.1156 10.5824 42.7517 11.5715 46.3739C11.723 46.9284 11.4739 47.4764 10.9424 47.6876C10.8075 47.7413 10.5978 47.7681 10.3134 47.7681C6.41786 47.7673 2.33395 47.7665 -1.93834 47.7657C-2.49462 47.7657 -2.89289 47.3941 -3 46.8414V46.5946C-2.9132 46.1784 -2.70214 45.902 -2.36679 45.7655C-2.21332 45.7028 -1.96793 45.6718 -1.63061 45.6726C1.98756 45.6785 5.59133 45.6795 9.1807 45.6756C9.18478 45.6755 9.1888 45.6745 9.19245 45.6727C9.1961 45.6709 9.19928 45.6683 9.20174 45.6651C9.2042 45.6619 9.20588 45.6582 9.20664 45.6542C9.20741 45.6503 9.20724 45.6463 9.20615 45.6424C8.32478 42.4113 7.40357 39.0344 6.44251 35.5117C6.38807 35.312 6.38807 35.1211 6.44251 34.9388C6.47565 34.8272 6.56186 34.6725 6.70112 34.4749C13.2336 25.1909 19.7665 15.9072 26.2998 6.6237C26.4734 6.37673 26.6164 6.2201 26.7289 6.15382C27.1911 5.88042 27.8408 5.97096 28.1634 6.42959C34.8083 15.8725 41.4138 25.259 47.9799 34.5891C48.1854 34.881 48.241 35.1998 48.1467 35.5454C47.2386 38.8752 46.3201 42.2428 45.3914 45.6483C45.3905 45.6517 45.3904 45.6552 45.391 45.6586C45.3917 45.662 45.3932 45.6652 45.3953 45.668C45.3974 45.6707 45.4001 45.673 45.4033 45.6745C45.4064 45.676 45.4098 45.6768 45.4133 45.6767C49.0828 45.6775 52.7579 45.6769 56.4388 45.675C56.644 45.6746 56.8144 45.702 56.9501 45.7572C57.3032 45.9004 57.5194 46.1829 57.5987 46.6047Z" fill="white"/>
<path d="M21.1453 31L34.8547 31.0006C35.1584 31.0006 35.4498 31.1213 35.6645 31.336C35.8793 31.5508 36 31.842 36 32.1457V45.855C36 46.1586 35.8793 46.4499 35.6645 46.6646C35.4498 46.8794 35.1584 47 34.8547 47H21.1453C20.8416 47 20.5502 46.8794 20.3355 46.6646C20.1207 46.4499 20 46.1586 20 45.855V32.145C20 31.8414 20.1207 31.5501 20.3355 31.3354C20.5502 31.1206 20.8416 31 21.1453 31ZM26.8557 33.3082C26.8557 33.303 26.8536 33.2981 26.85 33.2945C26.8463 33.2908 26.8414 33.2888 26.8362 33.2888H22.3055C22.3004 33.2888 22.2954 33.2908 22.2918 33.2945C22.2881 33.2981 22.2861 33.303 22.2861 33.3082V37.8365C22.2861 37.8417 22.2881 37.8466 22.2918 37.8503C22.2954 37.8539 22.3004 37.8559 22.3055 37.8559H26.8362C26.8414 37.8559 26.8463 37.8539 26.85 37.8503C26.8536 37.8466 26.8557 37.8417 26.8557 37.8365V33.3082ZM33.7152 33.3095C33.7152 33.304 33.713 33.2987 33.7091 33.2948C33.7053 33.2909 33.7 33.2888 33.6945 33.2888H29.1651C29.1596 33.2888 29.1543 33.2909 29.1504 33.2948C29.1465 33.2987 29.1443 33.304 29.1443 33.3095V37.8352C29.1443 37.8407 29.1465 37.846 29.1504 37.8499C29.1543 37.8538 29.1596 37.8559 29.1651 37.8559H33.6945C33.7 37.8559 33.7053 37.8538 33.7091 37.8499C33.713 37.846 33.7152 37.8407 33.7152 37.8352V33.3095ZM26.8557 40.1687C26.8557 40.1623 26.8531 40.1562 26.8486 40.1517C26.8442 40.1472 26.8381 40.1447 26.8317 40.1447H22.31C22.3037 40.1447 22.2976 40.1472 22.2931 40.1517C22.2886 40.1562 22.2861 40.1623 22.2861 40.1687V44.6905C22.2861 44.6969 22.2886 44.703 22.2931 44.7075C22.2976 44.7119 22.3037 44.7145 22.31 44.7145H26.8317C26.8381 44.7145 26.8442 44.7119 26.8486 44.7075C26.8531 44.703 26.8557 44.6969 26.8557 44.6905V40.1687ZM33.7152 40.1725C33.7152 40.1689 33.7145 40.1653 33.7131 40.1619C33.7117 40.1585 33.7096 40.1554 33.7071 40.1529C33.7045 40.1503 33.7014 40.1482 33.698 40.1468C33.6946 40.1454 33.691 40.1447 33.6874 40.1447H29.1722C29.1685 40.1447 29.1649 40.1454 29.1615 40.1468C29.1581 40.1482 29.1551 40.1503 29.1525 40.1529C29.1499 40.1554 29.1479 40.1585 29.1465 40.1619C29.1451 40.1653 29.1443 40.1689 29.1443 40.1725V44.6866C29.1443 44.694 29.1473 44.7011 29.1525 44.7063C29.1577 44.7115 29.1648 44.7145 29.1722 44.7145H33.6874C33.6948 44.7145 33.7018 44.7115 33.7071 44.7063C33.7123 44.7011 33.7152 44.694 33.7152 44.6866V40.1725Z" fill="white"/>
</g>
</g>
<defs>
<clipPath id="clip0_245_14104">
<rect width="54" height="54" fill="white"/>
</clipPath>
</defs>
</svg>
