<svg width="16" height="16" viewBox="0 0 16 16" fill="none" xmlns="http://www.w3.org/2000/svg">
<g id="fa-brands:telegram" clip-path="url(#clip0_259_5487)">
<path id="Vector" d="M8.3372 0.666748C4.10057 0.666748 0.667969 4.10417 0.667969 8.34675C0.667969 12.5893 4.10057 16.0267 8.3372 16.0267C12.5738 16.0267 16.0064 12.5893 16.0064 8.34675C16.0064 4.10417 12.5738 0.666748 8.3372 0.666748ZM12.1038 5.92817L10.8452 11.8678C10.7524 12.2889 10.5019 12.3911 10.1525 12.1929L8.23515 10.7777L7.31051 11.6696C7.20846 11.7718 7.12187 11.8585 6.92396 11.8585L7.06002 9.90443L10.6132 6.68997C10.7678 6.55372 10.5792 6.4763 10.3751 6.61255L5.98386 9.38107L4.09129 8.78959C3.68 8.65952 3.67072 8.37772 4.17788 8.17952L11.5719 5.3243C11.9151 5.20043 12.2151 5.40791 12.1038 5.92817Z" fill="#587410"/>
</g>
<defs>
<clipPath id="clip0_259_5487">
<rect width="16" height="16" fill="white"/>
</clipPath>
</defs>
</svg>
