<svg width="16" height="16" viewBox="0 0 16 16" fill="none" xmlns="http://www.w3.org/2000/svg">
<g id="ri:whatsapp-fill" clip-path="url(#clip0_259_5485)">
<path id="Vector" d="M0.00308227 15.36L1.04142 11.5446C0.357236 10.3717 -0.00222 9.03781 1.0316e-05 7.68C1.0316e-05 3.43833 3.43834 0 7.68001 0C11.9217 0 15.36 3.43833 15.36 7.68C15.36 11.9217 11.9217 15.36 7.68001 15.36C6.32278 15.3622 4.98944 15.003 3.81697 14.3194L0.00308227 15.36ZM4.9083 4.07654C4.80912 4.0827 4.71221 4.10882 4.62337 4.15334C4.54006 4.20052 4.464 4.2595 4.39758 4.32845C4.30542 4.41523 4.25319 4.49049 4.19713 4.56345C3.91328 4.93286 3.7606 5.3863 3.76321 5.85216C3.76474 6.22848 3.86305 6.59481 4.01665 6.93734C4.33076 7.63008 4.84762 8.36351 5.53038 9.04319C5.69473 9.20678 5.85524 9.37113 6.02804 9.52396C6.87544 10.27 7.88526 10.8081 8.97716 11.0953L9.41415 11.1621C9.55623 11.1698 9.69831 11.159 9.84116 11.1521C10.0648 11.1406 10.2832 11.08 10.4809 10.9747C10.5815 10.9229 10.6796 10.8665 10.775 10.8058C10.775 10.8058 10.8081 10.7842 10.871 10.7366C10.9747 10.6598 11.0385 10.6053 11.1245 10.5154C11.1882 10.4494 11.2435 10.3718 11.2858 10.2835C11.3457 10.1583 11.4056 9.91948 11.4301 9.72057C11.4486 9.56851 11.4432 9.48556 11.4409 9.43411C11.4378 9.35193 11.3695 9.26668 11.295 9.23059L10.848 9.03014C10.848 9.03014 10.1798 8.73907 9.77204 8.55321C9.72904 8.53447 9.68296 8.52379 9.6361 8.52172C9.58355 8.51633 9.53046 8.52224 9.48039 8.53906C9.43032 8.55589 9.38442 8.58323 9.3458 8.61926V8.61772C9.34196 8.61772 9.2905 8.6615 8.73524 9.33427C8.70337 9.37709 8.65947 9.40946 8.60913 9.42724C8.5588 9.44502 8.50431 9.44741 8.45261 9.43411C8.40257 9.42073 8.35355 9.40379 8.30592 9.38342C8.21069 9.34348 8.17767 9.32812 8.11239 9.29971L8.10855 9.29817C7.66918 9.10634 7.26239 8.84724 6.90279 8.53017C6.80602 8.44569 6.71617 8.35353 6.62401 8.26444C6.32186 7.97509 6.05854 7.64775 5.84065 7.29062L5.79533 7.21766C5.76279 7.16863 5.73647 7.11575 5.717 7.06022C5.68782 6.94732 5.76385 6.8567 5.76385 6.8567C5.76385 6.8567 5.95047 6.65241 6.03725 6.54182C6.10952 6.44991 6.17693 6.35429 6.23924 6.25536C6.32986 6.10944 6.35828 5.95968 6.31066 5.84371C6.09562 5.3184 5.8729 4.79539 5.64404 4.27622C5.59873 4.17331 5.46433 4.09958 5.34222 4.08499C5.30074 4.08038 5.25927 4.07577 5.2178 4.0727C5.11466 4.06758 5.01131 4.0686 4.9083 4.07577V4.07654Z" fill="#587410"/>
</g>
<defs>
<clipPath id="clip0_259_5485">
<rect width="16" height="16" fill="white"/>
</clipPath>
</defs>
</svg>
