<svg width="16" height="16" viewBox="0 0 16 16" fill="none" xmlns="http://www.w3.org/2000/svg">
<g id="fa-brands:telegram" clip-path="url(#clip0_267_5247)">
<path id="Vector" d="M8.3372 0.666504C4.10057 0.666504 0.667969 4.10392 0.667969 8.3465C0.667969 12.5891 4.10057 16.0265 8.3372 16.0265C12.5738 16.0265 16.0064 12.5891 16.0064 8.3465C16.0064 4.10392 12.5738 0.666504 8.3372 0.666504ZM12.1038 5.92792L10.8452 11.8675C10.7524 12.2887 10.5019 12.3909 10.1525 12.1927L8.23515 10.7775L7.31051 11.6693C7.20846 11.7715 7.12187 11.8582 6.92396 11.8582L7.06002 9.90418L10.6132 6.68973C10.7678 6.55347 10.5792 6.47605 10.3751 6.61231L5.98386 9.38083L4.09129 8.78934C3.68 8.65928 3.67072 8.37747 4.17788 8.17928L11.5719 5.32405C11.9151 5.20018 12.2151 5.40767 12.1038 5.92792Z" fill="#587410"/>
</g>
<defs>
<clipPath id="clip0_267_5247">
<rect width="16" height="16" fill="white"/>
</clipPath>
</defs>
</svg>
