<svg width="90" height="80" viewBox="0 0 90 80" fill="none" xmlns="http://www.w3.org/2000/svg">
<g id="technic">
<path id="Vector" d="M52.8117 47.4321C53.4565 49.1896 54.8025 50.429 56.6562 50.8573C57.6278 51.0806 58.7248 50.9317 59.7509 50.9926C63.3046 51.206 66.5039 52.3197 69.349 54.3337C73.7507 57.4505 76.5536 62.3626 76.9504 67.7406C76.9815 68.1615 76.9974 68.8057 76.9981 69.6732C77.0007 72.6933 77.0007 75.6661 76.9981 78.5914C76.9971 79.3755 76.3367 80 75.5499 80C55.2535 79.9974 34.8938 79.9974 14.4708 80C13.6082 80 13.0013 79.3436 13.0042 78.5054C13.014 75.3899 13.0127 72.3843 13.0003 69.4885C12.9971 68.8576 13.0169 68.2698 13.0597 67.7252C13.3313 64.2706 14.4854 61.1609 16.5219 58.396C19.9025 53.8078 25.2292 51.0545 30.9527 50.9791C31.5018 50.972 32.0494 50.9656 32.5953 50.9598C33.0252 50.9552 33.5179 50.8467 34.0736 50.634C35.6018 50.05 36.6437 48.9744 37.1993 47.407C37.204 47.3932 37.2038 47.3782 37.1989 47.3646C37.1939 47.3509 37.1845 47.3393 37.1721 47.3315C36.6106 46.9912 36.0644 46.6036 35.5334 46.1685C34.9576 45.6968 34.4807 45.2621 34.1027 44.8644C31.7466 42.3876 30.3818 39.4541 30.0083 36.0641C29.879 34.8933 29.9383 33.5911 29.9266 32.3633C29.9266 32.3507 29.9222 32.3384 29.914 32.3286C29.9059 32.3187 29.8945 32.3119 29.8819 32.3092C26.903 31.6441 24.8538 28.9265 25.1368 25.8677C25.2775 24.3486 25.9346 23.0397 27.1082 21.9408C27.1792 21.8741 27.2219 21.7871 27.2404 21.6923C28.709 13.9332 35.1541 7.9606 43.0298 7.10696C52.4548 6.08511 61.0181 12.4927 62.7726 21.7146C62.7914 21.8119 62.8368 21.8931 62.9087 21.9582C64.6243 23.5176 65.2847 25.831 64.67 28.0584C64.0758 30.2133 62.3067 31.7959 60.1418 32.3082C60.1003 32.3179 60.0792 32.344 60.0786 32.3865C60.0737 33.5389 60.1185 34.7821 60.0134 35.8823C59.5563 40.688 56.9412 44.7658 52.8487 47.3257C52.8078 47.3515 52.7955 47.387 52.8117 47.4321ZM49.861 17.7635C49.0732 18.7428 47.5103 18.3599 47.3032 17.0916C47.2708 16.8937 47.3226 16.5454 47.4588 16.0465C47.9904 14.104 48.4835 12.2449 48.938 10.4693C48.9555 10.4016 48.9303 10.3591 48.8622 10.3417C46.2635 9.67143 43.6746 9.67659 41.0954 10.3572C41.0591 10.3668 41.0458 10.3894 41.0555 10.4249C41.5599 12.341 42.0822 14.3154 42.6223 16.3481C42.775 16.9253 42.7439 17.4493 42.3218 17.8669C41.8549 18.3303 41.3129 18.4383 40.6957 18.1908C40.3135 18.0371 40.0003 17.6658 39.8972 17.2762C39.3869 15.3479 38.8751 13.406 38.3615 11.4506C38.3499 11.4035 38.3223 11.391 38.2789 11.4129C34.8717 13.1556 32.4251 15.7626 30.939 19.2339C30.6667 19.87 30.4557 20.5132 30.3059 21.1635C30.3046 21.1695 30.3046 21.1756 30.3059 21.1816C30.3073 21.1875 30.3099 21.193 30.3137 21.1978C30.3174 21.2025 30.3221 21.2063 30.3275 21.2089C30.3329 21.2115 30.3388 21.2129 30.3448 21.2128H59.6662C59.6734 21.2128 59.6805 21.2111 59.687 21.2079C59.6935 21.2047 59.6991 21.2001 59.7035 21.1944C59.7079 21.1887 59.7109 21.1821 59.7124 21.1751C59.7139 21.1681 59.7137 21.1608 59.7119 21.1539C58.5945 16.9205 55.6603 13.3715 51.7137 11.4119C51.6845 11.3977 51.6657 11.4061 51.6573 11.437C51.136 13.3705 50.6462 15.2286 50.1878 17.0113C50.1009 17.3503 49.992 17.601 49.861 17.7635ZM59.7732 29.4534C62.0996 28.7061 62.7794 25.9228 61.0842 24.1576C61.0548 24.1267 61.0192 24.1022 60.9798 24.0854C60.9403 24.0686 60.8978 24.0599 60.8547 24.0599C51.102 24.0599 40.5375 24.0599 29.1612 24.0599C29.0659 24.0599 28.9849 24.0944 28.9181 24.1634C28.3268 24.7776 28.0143 25.4781 27.9805 26.2651C27.9173 27.7442 28.8364 29.0251 30.2505 29.4553C30.5377 29.5424 30.8849 29.5859 31.2921 29.5859C40.353 29.5807 49.4217 29.5813 58.4982 29.5878C59.0681 29.5878 59.4931 29.543 59.7732 29.4534ZM57.194 32.4455H32.8297C32.8232 32.4455 32.817 32.4481 32.8125 32.4526C32.8079 32.4571 32.8054 32.4633 32.8054 32.4697V34.4883C32.8054 37.7104 34.0796 40.8006 36.3478 43.079C38.616 45.3574 41.6923 46.6374 44.9 46.6374H45.1237C48.3314 46.6374 51.4077 45.3574 53.6759 43.079C55.9441 40.8006 57.2183 37.7104 57.2183 34.4883V32.4697C57.2183 32.4633 57.2158 32.4571 57.2112 32.4526C57.2066 32.4481 57.2005 32.4455 57.194 32.4455ZM39.869 48.6183C39.8551 48.6134 39.8398 48.6142 39.8263 48.6205C39.8129 48.6268 39.8023 48.6382 39.797 48.6521C39.2573 50.0443 38.3392 51.2923 37.1322 52.1953C37.094 52.2236 37.0791 52.261 37.0875 52.3074C37.3838 53.9515 38.1687 55.2344 39.442 56.1561C40.458 56.8914 41.5924 57.2617 42.845 57.2668C43.7028 57.2707 44.8961 57.2762 46.425 57.2833C47.2289 57.2872 47.8643 57.2404 48.3312 57.1431C50.7431 56.6414 52.5336 54.7195 52.9138 52.2842C52.9197 52.2468 52.9073 52.2165 52.8769 52.1933C51.6612 51.2717 50.7736 50.0932 50.214 48.6579C50.201 48.6231 50.1767 48.6118 50.1411 48.6241C46.7346 49.8222 43.3105 49.8203 39.869 48.6183ZM41.676 60.0395C38.202 59.5725 35.2756 56.9894 34.4402 53.5884C34.4318 53.5548 34.4104 53.5423 34.376 53.5507C33.669 53.7247 32.997 53.8281 32.2588 53.8204C31.613 53.8133 30.9705 53.8191 30.3312 53.8378C30.2949 53.8384 30.2767 53.8568 30.2767 53.8929L30.2777 67.1992C30.2777 67.2131 30.2804 67.2268 30.2857 67.2396C30.291 67.2524 30.2987 67.264 30.3085 67.2738C30.3182 67.2835 30.3298 67.2913 30.3425 67.2966C30.3553 67.3019 30.3689 67.3046 30.3827 67.3046H59.6118C59.6896 67.3046 59.7285 67.266 59.7285 67.1886L59.7304 53.8948C59.7304 53.8632 59.7145 53.8468 59.6828 53.8455C59.0811 53.821 58.4223 53.8126 57.7065 53.8204C56.9966 53.8271 56.3051 53.7247 55.6263 53.5449C55.6199 53.5431 55.6132 53.5427 55.6066 53.5435C55.6001 53.5444 55.5937 53.5466 55.588 53.5499C55.5823 53.5532 55.5773 53.5577 55.5734 53.5629C55.5694 53.5682 55.5666 53.5742 55.565 53.5806C55.3815 54.3592 55.0813 55.0997 54.6644 55.8022C53.0607 58.5072 50.2111 60.1439 47.0503 60.1217C45.939 60.1139 44.7846 60.1162 43.5871 60.1284C42.8123 60.1362 42.1752 60.1065 41.676 60.0395ZM27.361 54.3076C20.6008 56.0913 15.8762 62.1112 15.8762 69.0854C15.8768 71.7852 15.8765 74.4499 15.8752 77.0794C15.8752 77.0974 15.8824 77.1146 15.8951 77.1273C15.9079 77.14 15.9252 77.1471 15.9433 77.1471L21.8282 77.1461C21.8354 77.1461 21.8423 77.1433 21.8474 77.1382C21.8525 77.1331 21.8554 77.1263 21.8554 77.1191C21.8619 75.424 21.8613 73.699 21.8535 71.9441C21.8496 71.0701 21.9527 70.2803 22.3767 69.5369C23.0491 68.3587 24.045 67.6388 25.3644 67.3771C26.0033 67.2505 26.7046 67.3191 27.3698 67.2988C27.38 67.2983 27.3897 67.2939 27.3967 67.2865C27.4038 67.2792 27.4077 67.2694 27.4077 67.2592L27.4087 54.3444C27.4087 54.3386 27.4074 54.3328 27.4049 54.3276C27.4023 54.3224 27.3986 54.3178 27.394 54.3143C27.3894 54.3107 27.384 54.3083 27.3783 54.3071C27.3726 54.306 27.3667 54.3061 27.361 54.3076ZM72.2034 61.6801C70.1766 58.0925 66.726 55.3217 62.65 54.3163C62.617 54.3079 62.6004 54.3208 62.6004 54.355L62.6014 67.2515C62.6014 67.2856 62.6183 67.3027 62.652 67.3027C62.9612 67.3072 63.299 67.3062 63.6654 67.2998C66.2086 67.2544 68.1488 69.1453 68.1498 71.6676C68.1504 73.5534 68.1504 75.3628 68.1498 77.0959C68.1498 77.13 68.1667 77.1471 68.2004 77.1471H74.0814C74.117 77.1471 74.1349 77.1294 74.1349 77.0939C74.1284 74.5875 74.1284 72.0498 74.1349 69.4808C74.1368 68.8008 74.1112 68.1786 74.058 67.614C73.8564 65.491 73.2382 63.513 72.2034 61.6801ZM65.1641 71.0082C64.9345 70.4649 64.3919 70.1498 63.7918 70.1507C51.5059 70.1546 38.9798 70.1549 26.2134 70.1517C25.5958 70.1507 25.0862 70.4678 24.8275 71.0257C24.7478 71.1977 24.7108 71.5954 24.7167 72.2186C24.7316 73.9375 24.7319 75.5594 24.7176 77.0843C24.717 77.1249 24.7371 77.1452 24.7779 77.1452L65.2331 77.1442C65.2688 77.1442 65.2866 77.1294 65.2866 77.0997C65.2795 75.3886 65.2801 73.6078 65.2886 71.7575C65.2905 71.4597 65.249 71.21 65.1641 71.0082Z" fill="#1D231F"/>
</g>
</svg>
