<svg width="90" height="80" viewBox="0 0 90 80" fill="none" xmlns="http://www.w3.org/2000/svg">
<g id="&#208;&#161;&#208;&#190;&#208;&#177;&#209;&#129;&#209;&#130;&#208;&#178;&#208;&#181;&#208;&#189;&#208;&#189;&#208;&#190;&#208;&#181; &#208;&#191;&#209;&#128;&#208;&#190;&#208;&#184;&#208;&#183;&#208;&#178;&#208;&#190;&#208;&#180;&#209;&#129;&#209;&#130;&#208;&#178;&#208;&#190;">
<g id="Group 71">
<path id="Vector" d="M67.9725 20.1066L67.9714 21.076L67.9431 21.5002C67.94 21.5421 67.9204 21.5524 67.8841 21.531L63.5702 18.9656C63.5128 18.9313 63.4837 18.9481 63.4829 19.0159C63.4784 26.9804 63.4773 34.7936 63.4795 42.4556C63.4803 43.2757 63.1745 43.824 62.5621 44.1007C62.1062 44.3076 61.4326 44.2344 60.8985 44.2379L59.9255 44.2367C49.8137 44.2367 39.7129 44.2367 29.6231 44.2367C29.0379 44.2367 28.621 44.18 28.3723 44.0664C27.8211 43.8172 27.5456 43.3374 27.5456 42.6271C27.5493 34.6664 27.549 26.7979 27.5444 19.0216C27.5444 18.9546 27.5157 18.9382 27.4582 18.9725L23.1625 21.5276C23.1262 21.5489 23.1017 21.5394 23.0888 21.499C23.054 21.3839 23.0435 21.2342 23.0571 21.0497L23.0548 20.1054L23.0514 19.1108L23.0276 18.0968C30.119 13.8912 37.2113 9.68601 44.3042 5.48121C44.5409 5.34097 44.7699 5.21903 44.9915 5.11537C45.5403 4.85929 46.0438 5.06965 46.5247 5.35545C53.669 9.59608 60.7771 13.8096 67.8489 17.9962C67.8859 18.0181 67.9165 18.0493 67.9378 18.0868C67.9591 18.1243 67.9703 18.1667 67.9703 18.2099L67.9725 20.1066ZM32.7825 15.8183L32.0408 16.2607L30.5904 17.1147C30.5602 17.133 30.5451 17.1601 30.5451 17.1959V41.198C30.5451 41.2056 30.5481 41.2129 30.5534 41.2182C30.5587 41.2236 30.5659 41.2266 30.5734 41.2266H60.4313C60.4442 41.2266 60.4566 41.2214 60.4657 41.2122C60.4749 41.203 60.48 41.1905 60.48 41.1774L60.4812 37.1464V36.1701V21.0703L60.4789 20.1054V19.12L60.4777 18.1162L60.4687 17.189C60.4679 17.1494 60.4505 17.1193 60.4165 17.0987L45.5891 8.30613C45.5684 8.29399 45.5449 8.2876 45.5208 8.2876C45.4967 8.2876 45.4729 8.29399 45.4519 8.30613L32.7825 15.8183Z" fill="#1D231F"/>
<path id="Vector_2" d="M20.0161 44.0919L20.0184 45.0692L20.0195 46.1246L20.0241 47.9153C20.0241 48.0187 20.0563 48.0296 20.1208 47.9481C20.3955 47.6012 20.7112 47.2932 21.0678 47.0239C21.7045 46.524 22.4015 46.1963 23.1588 46.0409L23.9522 46.0013C25.2361 46.0817 26.3004 46.757 27.1917 47.6416C30.0213 50.4515 32.8488 53.2637 35.6739 56.0781C36.432 56.8322 36.9548 57.3786 37.2424 57.7172C39.1797 59.997 40.3628 62.6561 40.7915 65.6945C41.0897 67.8132 41.0818 69.8437 41.059 71.9444C41.0544 72.3871 41.0317 72.7272 40.9907 72.9647L40.8621 73.269C40.7194 73.4727 40.5411 73.6514 40.3271 73.8052C40.2186 73.8354 40.1298 73.8791 40.0607 73.9364C39.758 74.0119 39.4495 74.0202 39.1353 73.9613L38.77 73.8007C38.3078 73.4787 38.0699 73.0767 38.0563 72.5948C38.0449 72.2057 38.0422 71.3264 38.0483 69.9569L38.0381 69.0553C38.0373 67.5719 37.9087 66.1971 37.6522 64.9309C37.1753 62.5724 35.9983 60.6301 34.2033 58.8439C31.1596 55.8138 28.1079 52.7776 25.0483 49.7354C24.5634 49.2536 23.9579 48.7287 23.2487 49.1495C22.7851 49.4247 22.4004 49.8029 22.0946 50.2841C21.6256 51.0216 22.1674 51.6166 22.6682 52.1087C25.548 54.936 28.4312 57.7998 31.3178 60.7002C31.6547 61.0388 31.8695 61.328 31.9621 61.5679C32.3001 62.4434 31.7356 63.3257 30.85 63.5203C30.3347 63.6334 29.8555 63.4679 29.4124 63.0237C26.4461 60.0532 23.4635 57.0977 20.4646 54.1573C19.6352 53.3444 19.1199 52.3663 18.9188 51.223C18.9143 51.1988 18.8949 51.157 18.8608 51.0974C18.8395 51.0597 18.8115 51.0239 18.7765 50.99C18.3675 50.5789 17.9585 50.1683 17.5495 49.7581C17.1875 49.3946 17.0088 48.9753 17.0134 48.5002C17.0195 47.9806 17.0214 47.4764 17.0191 46.9877L17.0179 46.1789L17.0191 44.9731L17.0202 44.1699V37.0705L17.0179 36.1983L17.0191 35.0852L17.0202 34.3239C17.0187 33.1995 17.0123 32.0705 17.0009 30.9371C16.9933 30.1664 16.6389 29.6204 15.9377 29.2991C15.0715 28.902 14.0084 29.9348 14.0084 30.7595C14.0054 37.4984 14.0057 44.1024 14.0095 50.5714C14.0103 51.5533 14.0926 52.5126 14.2565 53.4492C14.4421 54.5069 14.9167 55.3655 15.6839 56.1811C16.2621 56.793 16.8176 57.4231 17.3617 58.069C21.1574 62.5795 24.9519 67.0904 28.7454 71.6016C28.9943 71.898 29.0884 72.2668 29.0277 72.708C28.9647 73.165 28.7207 73.5269 28.2958 73.7939L28.0738 73.9082C27.0164 74.2034 26.5736 73.6774 25.9703 72.9613C22.271 68.5677 18.5751 64.1715 14.8826 59.7726C14.2793 59.0543 13.569 58.3405 12.9339 57.5996C11.3472 55.7478 11.0467 53.189 11.0148 50.844L11.0091 50.111L11.0102 49.0047L11.0057 48.1597L11.0148 47.0805L11 46.016L11.0114 45.1077L11.0068 44.0658L11.0114 43.1224L11.008 42.1632L11.0148 41.0501L11.008 40.1123L11.0125 39.0569L11.0057 38.2028L11.0148 37.1655L11.0034 36.0852L11.0102 35.1406L11.0057 34.2187L11.0114 33.1791L11.0102 32.1848C11.0046 31.3975 10.9659 30.5434 11.1093 29.8206C11.3665 28.5254 12.4524 27.272 13.6077 26.6905C14.9661 26.0073 16.31 26.0473 17.6394 26.8104C18.7094 27.4247 19.62 28.5491 19.9114 29.7844C19.982 30.0823 20.0172 30.5528 20.0172 31.1961C20.0134 35.4955 20.0131 39.794 20.0161 44.0919Z" fill="#1D231F"/>
<path id="Vector_3" d="M79.9783 30.2607L79.9988 31.0878L79.9999 32.2465L79.9965 33.1732V36.1615L79.9931 37.1504C79.9969 41.8189 79.9885 46.4856 79.968 51.1504C79.9619 52.5233 79.8014 53.7691 79.4863 54.8877C79.191 55.937 78.6801 56.8837 77.9536 57.7278C77.3933 58.3784 76.7796 58.9939 76.2409 59.6355C72.3928 64.215 68.6092 68.7154 64.8901 73.1365C64.5659 73.522 64.3146 73.7569 64.1362 73.8414C63.3027 74.2374 62.3439 73.8199 62.0455 72.9577C61.8064 72.2675 62.1173 71.764 62.5568 71.2424C66.2228 66.9012 69.817 62.6268 73.3395 58.4191C74.1366 57.4664 74.8437 56.6638 75.4609 56.0113C76.1237 55.3105 76.545 54.4853 76.7249 53.5356C76.8532 52.8597 76.9341 52.1778 76.9675 51.4898C77.0122 50.562 77.0206 49.0711 76.9925 47.017L76.9959 46.1933L76.9971 44.9973V44.1894L76.9982 37.0169L76.9959 36.2124L76.9971 34.9666V34.2028C77.0001 33.2071 77.0005 32.211 76.9982 31.2146C76.9967 30.7348 76.942 30.381 76.8342 30.1532C76.6566 29.7753 76.3624 29.4913 75.9517 29.3012C75.1842 28.9459 74.3279 29.6237 74.0808 30.3139C74.0185 30.4874 73.987 30.7472 73.9863 31.0935C73.9817 36.1007 73.9817 41.1106 73.9863 46.1232L73.9874 47.1223C73.9866 47.6661 73.9847 48.1983 73.9817 48.7188C73.9802 49.0507 73.8227 49.3747 73.5091 49.6908C73.0696 50.1343 72.6213 50.5839 72.1643 51.0395C72.1096 51.0938 72.0766 51.1609 72.0652 51.2409C71.9597 51.9681 71.7039 52.6304 71.2977 53.2278C71.0715 53.5612 70.6179 54.0625 69.9369 54.7316C67.2328 57.3898 64.5428 60.0628 61.8668 62.7505C61.475 63.1443 61.1763 63.3781 60.9706 63.452C59.4344 64.0087 58.2536 62.1474 59.4117 60.9763C61.9951 58.3648 64.985 55.3943 68.3814 52.0646C68.6729 51.7787 68.8836 51.4913 69.0134 51.2024C69.3698 50.407 68.3347 49.4826 67.7187 49.1194C67.2336 48.832 66.7064 49.0401 66.326 49.3954C65.9912 49.7085 65.6629 50.0245 65.341 50.3436C62.5534 53.1083 59.7681 55.8755 56.985 58.6454C56.7687 58.8604 56.5383 59.0961 56.2938 59.3526C54.6768 61.0521 53.6675 63.0466 53.2659 65.336C53.0944 66.3121 52.9987 67.2373 52.979 68.1115C52.938 69.9257 52.9285 71.3261 52.9505 72.3128C52.9778 73.5269 52.0338 74.2771 50.8518 73.9037C50.7941 73.8546 50.7201 73.8147 50.6298 73.7837C50.172 73.4443 49.9405 72.9905 49.9351 72.4225C49.926 71.3487 49.9351 70.275 49.9351 69.2012C49.9363 65.5928 50.6742 62.0682 52.733 59.0415C53.9287 57.3352 55.3908 56.0045 56.8222 54.5811C59.193 52.2291 61.5604 49.8756 63.9244 47.5205C64.7557 46.6934 65.8329 46.0858 67.0332 45.9908L67.844 46.0315C68.55 46.168 69.207 46.4641 69.8151 46.9197C70.2319 47.226 70.5963 47.5737 70.9083 47.963C70.9477 48.012 70.9679 48.0052 70.9686 47.9426L70.9846 46.0937V45.0731V44.0548L70.9868 43.1168L70.9834 42.1335L70.9903 41.0665L70.9823 40.0719L70.9868 39.1067L70.9812 38.1902L70.9903 37.0712L70.9743 36.1196L70.988 35.0797L70.98 34.118L70.9868 33.1121L70.9857 32.1763C70.98 31.3979 70.931 30.4802 71.0859 29.799C71.2172 29.2242 71.4662 28.689 71.8329 28.1935C73.7676 25.5729 77.1064 25.548 79.0798 28.0973C79.577 28.74 79.8765 29.4611 79.9783 30.2607Z" fill="#1D231F"/>
<path id="Vector_4" d="M48.9234 25.1493C49.8705 24.2022 50.4025 22.9177 50.4025 21.5784C50.4025 20.239 49.8705 18.9545 48.9234 18.0075C47.9764 17.0604 46.6919 16.5284 45.3525 16.5284C44.0132 16.5284 42.7287 17.0604 41.7816 18.0075C40.8346 18.9545 40.3025 20.239 40.3025 21.5784C40.3025 22.9177 40.8346 24.2022 41.7816 25.1493C42.7287 26.0963 44.0132 26.6284 45.3525 26.6284C46.6919 26.6284 47.9764 26.0963 48.9234 25.1493ZM47.225 19.7059C47.7216 20.2025 48.0006 20.8761 48.0006 21.5784C48.0006 22.2807 47.7216 22.9542 47.225 23.4508C46.7284 23.9474 46.0549 24.2264 45.3525 24.2264C44.6502 24.2264 43.9767 23.9474 43.4801 23.4508C42.9835 22.9542 42.7045 22.2807 42.7045 21.5784C42.7045 20.8761 42.9835 20.2025 43.4801 19.7059C43.9767 19.2093 44.6502 18.9303 45.3525 18.9303C46.0549 18.9303 46.7284 19.2093 47.225 19.7059Z" fill="#1D231F" stroke="#1D231F" stroke-width="0.1"/>
</g>
</g>
</svg>
