<svg width="90" height="80" viewBox="0 0 90 80" fill="none" xmlns="http://www.w3.org/2000/svg">
<g id="&#208;&#161;&#208;&#190;&#208;&#177;&#209;&#129;&#209;&#130;&#208;&#178;&#208;&#181;&#208;&#189;&#208;&#189;&#208;&#190;&#208;&#181; &#208;&#191;&#209;&#128;&#208;&#190;&#208;&#184;&#208;&#183;&#208;&#178;&#208;&#190;&#208;&#180;&#209;&#129;&#209;&#130;&#208;&#178;&#208;&#190;">
<g id="Group 45">
<path id="Vector" d="M55.2884 63.0387C55.2943 62.696 55.123 62.5335 54.7743 62.5512L50.5379 62.7905C50.0593 62.8141 49.8229 63.0653 49.8288 63.5439L49.8643 70.6608C49.8761 72.5988 48.9101 73.5619 46.9661 73.5501L43.9527 73.5323C42.0147 73.5205 41.0487 72.5456 41.0546 70.6076L41.0812 63.5527C41.0812 63.1273 40.8685 62.8998 40.443 62.8703L36.2154 62.5867C35.9023 62.563 35.7427 62.7078 35.7368 63.021L35.6305 68.7818C35.6259 69.0484 35.5686 69.3114 35.4619 69.5559C35.3552 69.8004 35.2011 70.0215 35.0085 70.2067C34.8159 70.3919 34.5886 70.5375 34.3394 70.6352C34.0903 70.7328 33.8243 70.7807 33.5566 70.776L29.3112 70.6873C28.8191 70.6781 28.3503 70.4769 28.0056 70.1272C27.6608 69.7775 27.4677 69.3072 27.4678 68.8173L27.45 62.2499C27.4506 61.9953 27.3694 61.7467 27.2182 61.5398C27.0669 61.3328 26.8533 61.1781 26.6081 61.0977C26.0586 60.9263 25.4707 60.7757 24.8443 60.6457C24.0349 60.4743 23.5326 60.2144 23.3376 59.8657C23.0599 59.3694 23.1072 58.7106 23.4795 57.8893C23.6449 57.523 23.5297 57.3044 23.1338 57.2335L13.2251 55.4254C12.9857 55.3811 12.7607 55.2791 12.5696 55.1282C12.3785 54.9773 12.2271 54.7821 12.1284 54.5595C12.0298 54.3369 11.9869 54.0936 12.0035 53.8507C12.0201 53.6078 12.0956 53.3725 12.2236 53.1654L18.5162 42.9376C18.5499 42.8839 18.57 42.8229 18.5748 42.7596C18.5796 42.6963 18.569 42.6326 18.5439 42.5737C18.5187 42.5148 18.4798 42.4624 18.4303 42.4209C18.3808 42.3794 18.3222 42.3499 18.2592 42.3349L15.6447 41.7411C15.4191 41.6923 15.2091 41.5884 15.0333 41.4387C14.8576 41.2891 14.7216 41.0983 14.6373 40.8834C14.5531 40.6685 14.5234 40.4361 14.5507 40.2069C14.578 39.9777 14.6615 39.7588 14.7938 39.5697L22.9211 27.8796C23.1752 27.5191 23.0954 27.2651 22.6818 27.1173C21.1515 26.5501 20.6167 25.8559 21.0776 25.0346C24.481 18.9133 27.905 12.8304 31.3497 6.78587C31.4686 6.57738 31.6403 6.40391 31.8476 6.28296C32.0548 6.16201 32.2904 6.09785 32.5303 6.09695C32.7703 6.09605 33.0063 6.15845 33.2145 6.27784C33.4227 6.39724 33.5957 6.56941 33.7161 6.777L38.8743 15.631C39.0929 16.0033 39.3086 16.0033 39.5213 15.631L44.1743 7.48604C44.2904 7.28299 44.4587 7.11469 44.6618 6.99857C45.6308 6.45498 46.3841 6.66474 46.9218 7.62784C48.4226 10.3163 49.9411 12.9899 51.4773 15.6488C51.5099 15.7059 51.5569 15.7534 51.6137 15.7864C51.6706 15.8194 51.7351 15.8368 51.8008 15.8368C51.8666 15.8368 51.9311 15.8194 51.9879 15.7864C52.0448 15.7534 52.0918 15.7059 52.1243 15.6488L57.2648 6.67064C57.3806 6.46769 57.5478 6.29884 57.7497 6.18111C57.9515 6.06337 58.1808 6.00091 58.4144 6.00001C58.6481 5.99911 58.8779 6.05981 59.0806 6.17599C59.2833 6.29217 59.4518 6.45973 59.5692 6.66179L70.0894 24.9637C70.2274 25.2049 70.2712 25.4884 70.2122 25.7588C70.1532 26.0292 69.9957 26.2671 69.7704 26.426C69.2563 26.7924 68.6743 26.9726 68.0244 26.9667C67.9665 26.9666 67.9098 26.9822 67.8601 27.0118C67.8105 27.0415 67.7698 27.0841 67.7425 27.1351C67.7152 27.1861 67.7023 27.2435 67.7051 27.3013C67.7079 27.359 67.7264 27.4149 67.7585 27.463L76.0098 39.4013C76.1604 39.6183 76.2548 39.8693 76.2844 40.1318C76.314 40.3943 76.278 40.66 76.1796 40.9051C76.0812 41.1502 75.9235 41.3671 75.7206 41.5362C75.5177 41.7053 75.276 41.8214 75.0172 41.8741L72.7394 42.3349C72.3613 42.4118 72.2727 42.6156 72.4735 42.9465L78.7751 53.2186C78.8952 53.4159 78.9657 53.6394 78.9803 53.87C78.995 54.1006 78.9535 54.3312 78.8593 54.5422C78.7652 54.7531 78.6212 54.9381 78.4398 55.0811C78.2584 55.2242 78.045 55.3211 77.8179 55.3634L67.7851 57.2512C67.7221 57.2635 67.6629 57.2902 67.6118 57.3293C67.5607 57.3683 67.5192 57.4187 67.4902 57.4767C67.4612 57.5346 67.4456 57.5987 67.4445 57.664C67.4433 57.7293 67.4568 57.7942 67.4837 57.8539L68.0155 58.9972C68.0853 59.1484 68.1023 59.3184 68.0637 59.4794C68.0251 59.6404 67.9331 59.7829 67.8028 59.8835C66.8456 60.5984 65.7584 60.9766 64.5413 61.0179C63.7968 61.0416 63.4245 61.4227 63.4245 62.1613V68.383C63.4245 69.8661 62.686 70.6194 61.2088 70.643L57.4155 70.7051C55.9561 70.7287 55.2323 70.0108 55.2441 68.5514L55.2884 63.0387ZM64.2754 45.5345L60.9429 46.3321C60.8855 46.3457 60.8322 46.3728 60.7873 46.4111C60.7424 46.4494 60.7073 46.4978 60.6847 46.5523C60.6622 46.6068 60.653 46.6659 60.6578 46.7247C60.6627 46.7835 60.6814 46.8403 60.7125 46.8905L64.9135 53.7592C65.0537 53.9862 65.2574 54.1674 65.4997 54.2807C65.7421 54.394 66.0126 54.4345 66.2784 54.3973L74.4854 53.2363C74.5791 53.2238 74.6682 53.188 74.7446 53.1323C74.8209 53.0765 74.8822 53.0026 74.9227 52.9171C74.9632 52.8317 74.9817 52.7375 74.9766 52.6431C74.9714 52.5487 74.9427 52.4571 74.8931 52.3766L68.503 42.0602C68.3898 41.8779 68.3228 41.6708 68.3077 41.4568C68.2926 41.2428 68.3298 41.0283 68.4162 40.8319C68.5026 40.6355 68.6356 40.4632 68.8036 40.3297C68.9716 40.1963 69.1696 40.1058 69.3804 40.066L71.8443 39.6052C71.9227 39.59 71.996 39.5556 72.0577 39.5048C72.1193 39.4541 72.1673 39.3888 72.1972 39.3148C72.2272 39.2408 72.2382 39.1605 72.2291 39.0812C72.2201 39.0019 72.1914 38.9261 72.1456 38.8607L64.0538 27.1883C63.3566 26.1838 63.5545 25.4039 64.6476 24.8484C64.9312 24.7007 65.2473 24.6062 65.5959 24.5648C66.2163 24.488 66.367 24.1808 66.0479 23.6431L58.4524 10.6767C58.4452 10.6617 58.4339 10.6491 58.4198 10.6402C58.4056 10.6314 58.3893 10.6267 58.3727 10.6267C58.356 10.6267 58.3397 10.6314 58.3256 10.6402C58.3115 10.6491 58.3002 10.6617 58.2929 10.6767L53.6044 18.7065C53.556 18.7872 53.5296 18.8789 53.5281 18.9724C53.5265 19.0658 53.5498 19.1576 53.5956 19.2382L58.3018 27.463C58.3764 27.5972 58.4071 27.7515 58.3896 27.9041C58.3721 28.0567 58.3073 28.1999 58.2043 28.3138C57.5839 28.9756 56.8128 29.3567 55.8911 29.4572C55.8215 29.4642 55.7551 29.4895 55.6983 29.5304C55.6416 29.5712 55.5966 29.6263 55.5679 29.6901C55.5392 29.7538 55.5277 29.824 55.5347 29.8935C55.5416 29.9631 55.5667 30.0296 55.6075 30.0864L65.0376 43.5226C65.1604 43.695 65.2387 43.895 65.2656 44.105C65.2926 44.315 65.2673 44.5287 65.1921 44.7273C65.1169 44.9258 64.994 45.1033 64.8341 45.244C64.6743 45.3847 64.4824 45.4845 64.2754 45.5345ZM32.7678 28.3582C32.6609 28.2511 32.5917 28.1126 32.5709 27.9637C32.5501 27.8148 32.5788 27.6638 32.6525 27.5339L37.4562 19.1407C37.4805 19.1006 37.4933 19.0547 37.4933 19.0078C37.4933 18.9609 37.4805 18.915 37.4562 18.8749L32.7855 10.8185C32.7665 10.7833 32.7384 10.7539 32.704 10.7334C32.6697 10.713 32.6305 10.7021 32.5905 10.7021C32.5505 10.7021 32.5113 10.713 32.477 10.7334C32.4427 10.7539 32.4145 10.7833 32.3955 10.8185L24.8089 23.971C24.6021 24.3255 24.6996 24.5412 25.1014 24.618L26.3333 24.8573C26.5453 24.8996 26.7434 24.9939 26.9099 25.1319C27.0763 25.2698 27.2058 25.447 27.2867 25.6475C27.3676 25.8479 27.3973 26.0654 27.3732 26.2802C27.3492 26.495 27.272 26.7005 27.1487 26.8781L18.6669 39.0823C18.6396 39.1223 18.6226 39.1685 18.6176 39.2167C18.6126 39.2649 18.6196 39.3136 18.6381 39.3585C18.6565 39.4033 18.6858 39.4428 18.7233 39.4735C18.7609 39.5042 18.8054 39.5251 18.853 39.5343L22.0348 40.1813C22.201 40.2148 22.352 40.3011 22.4653 40.4272C22.5787 40.5533 22.6484 40.7126 22.6641 40.8814C22.7232 41.6023 22.4868 42.3497 21.955 43.1237C19.8338 46.2376 17.8781 49.3691 16.0878 52.5184C16.0465 52.5917 16.0238 52.674 16.0217 52.7581C16.0196 52.8422 16.0382 52.9256 16.0758 53.0008C16.1134 53.0761 16.1689 53.1409 16.2375 53.1897C16.306 53.2385 16.3855 53.2697 16.4689 53.2806L24.6316 54.3708C24.9144 54.4075 25.2014 54.3618 25.4579 54.2391C25.7144 54.1163 25.9292 53.9219 26.0763 53.6795L30.1 47.1475C30.295 46.8284 30.2241 46.5891 29.8873 46.4296C28.7529 45.889 26.9183 45.9421 26.2004 45.1002C25.6745 44.4916 25.7277 43.7412 26.3599 42.849C29.3733 38.6302 32.3571 34.3702 35.3114 30.0687C35.5359 29.7496 35.4532 29.5606 35.0633 29.5015C34.1711 29.3656 33.4059 28.9845 32.7678 28.3582ZM56.8039 44.3734C57.8911 43.7707 59.0788 43.4812 60.3668 43.5048C60.4689 43.5074 60.5697 43.4814 60.6578 43.4299C60.7459 43.3783 60.818 43.3033 60.8658 43.2131C60.9137 43.1229 60.9355 43.0211 60.9288 42.9193C60.922 42.8174 60.887 42.7194 60.8277 42.6363L51.5128 29.1292C51.3119 28.8397 51.2971 28.5413 51.4685 28.2341C52.0298 27.2414 52.9072 26.8574 54.1008 27.0819C54.1593 27.0942 54.2199 27.0889 54.2752 27.0667C54.3306 27.0446 54.3785 27.0065 54.413 26.9569C54.4476 26.9074 54.4675 26.8485 54.4703 26.7874C54.473 26.7262 54.4586 26.6654 54.4287 26.6122L45.6721 11.2705C45.6558 11.2406 45.6318 11.2155 45.6027 11.1978C45.5736 11.18 45.5404 11.1702 45.5063 11.1693C45.4722 11.1684 45.4385 11.1765 45.4085 11.1927C45.3785 11.2089 45.3533 11.2326 45.3354 11.2616L36.632 26.2754C36.4547 26.5826 36.5375 26.7776 36.8802 26.8603L38.5641 27.2414C38.7734 27.288 38.968 27.3852 39.131 27.5244C39.294 27.6637 39.4204 27.8408 39.4991 28.0402C39.5778 28.2396 39.6064 28.4552 39.5825 28.6683C39.5586 28.8813 39.4828 29.0852 39.3618 29.2622L30.2153 42.5654C30.1564 42.6519 30.1203 42.752 30.1105 42.8562C30.1007 42.9603 30.1176 43.065 30.1594 43.1602C30.2012 43.2554 30.2666 43.3379 30.3493 43.3998C30.432 43.4617 30.5293 43.5009 30.6318 43.5137L33.0514 43.8328C33.3142 43.8675 33.5639 43.9678 33.7777 44.1245C33.9915 44.2813 34.1627 44.4895 34.2755 44.7301C34.3883 44.9707 34.4392 45.2361 34.4236 45.502C34.4079 45.7679 34.3262 46.0259 34.1858 46.2523L27.131 57.5259C27.0893 57.5929 27.0645 57.6689 27.0587 57.7476C27.0529 57.8262 27.0663 57.9051 27.0977 57.9774C27.129 58.0497 27.1775 58.1134 27.2389 58.1629C27.3002 58.2124 27.3727 58.2462 27.45 58.2616C39.4386 60.6723 51.436 60.7077 63.4423 58.3679C63.9681 58.2675 64.0922 57.9898 63.8145 57.5348L56.4672 45.6851C56.3994 45.5779 56.3543 45.458 56.3346 45.3327C56.3149 45.2074 56.321 45.0794 56.3525 44.9566C56.384 44.8338 56.4404 44.7187 56.518 44.6184C56.5956 44.5181 56.6929 44.4347 56.8039 44.3734ZM32.7039 62.7095C32.703 62.6141 32.6834 62.5197 32.6461 62.4319C32.6088 62.344 32.5546 62.2644 32.4865 62.1975C32.4184 62.1306 32.3378 62.0777 32.2493 62.042C32.1608 62.0063 32.0662 61.9883 31.9707 61.9891L31.0845 61.9968C30.8918 61.9985 30.7076 62.0767 30.5725 62.2142C30.4374 62.3516 30.3625 62.5372 30.3642 62.7299L30.4032 67.2143C30.4041 67.3098 30.4237 67.4041 30.461 67.492C30.4983 67.5798 30.5525 67.6595 30.6206 67.7264C30.6887 67.7933 30.7693 67.8461 30.8578 67.8818C30.9463 67.9176 31.0409 67.9356 31.1364 67.9347L32.0226 67.927C32.2153 67.9253 32.3995 67.8471 32.5346 67.7097C32.6697 67.5722 32.7446 67.3867 32.743 67.1939L32.7039 62.7095ZM60.5782 62.7746C60.5798 62.671 60.5611 62.5681 60.5229 62.4718C60.4848 62.3755 60.4281 62.2876 60.356 62.2132C60.2839 62.1388 60.1979 62.0794 60.1028 62.0382C60.0077 61.9971 59.9055 61.9751 59.8019 61.9734L58.9334 61.9598C58.8299 61.9582 58.727 61.9769 58.6307 62.0151C58.5344 62.0532 58.4465 62.1099 58.3721 62.182C58.2977 62.2541 58.2382 62.3401 58.1971 62.4352C58.156 62.5303 58.1339 62.6325 58.1323 62.7361L58.0638 67.0961C58.0622 67.1997 58.081 67.3026 58.1191 67.3989C58.1572 67.4952 58.214 67.5831 58.286 67.6574C58.3581 67.7318 58.4442 67.7913 58.5392 67.8324C58.6343 67.8736 58.7365 67.8956 58.8401 67.8972L59.7086 67.9109C59.8122 67.9125 59.915 67.8937 60.0114 67.8556C60.1077 67.8174 60.1955 67.7607 60.2699 67.6886C60.3443 67.6166 60.4038 67.5305 60.4449 67.4355C60.4861 67.3404 60.5081 67.2381 60.5097 67.1346L60.5782 62.7746ZM46.9462 63.6748C46.9472 63.5758 46.9288 63.4777 46.8919 63.3859C46.855 63.2941 46.8004 63.2104 46.7311 63.1397C46.6619 63.0691 46.5794 63.0127 46.4884 62.9739C46.3974 62.9351 46.2997 62.9146 46.2007 62.9135L44.7473 62.8984C44.5475 62.8963 44.3551 62.9736 44.2124 63.1134C44.0696 63.2532 43.9883 63.444 43.9862 63.6437L43.9195 70.0069C43.9185 70.1059 43.9369 70.204 43.9738 70.2958C44.0107 70.3876 44.0653 70.4713 44.1346 70.542C44.2038 70.6127 44.2863 70.669 44.3773 70.7078C44.4683 70.7466 44.566 70.7672 44.665 70.7682L46.1184 70.7833C46.3182 70.7854 46.5106 70.7081 46.6533 70.5683C46.7961 70.4285 46.8774 70.2377 46.8795 70.038L46.9462 63.6748Z" fill="#1D231F"/>
</g>
</g>
</svg>
