<svg width="90" height="80" viewBox="0 0 90 80" fill="none" xmlns="http://www.w3.org/2000/svg">
<g id="installation">
<g id="Vector">
<mask id="path-1-inside-1_245_14231" fill="white">
<path d="M7.65705 43.3409C5.64372 37.4609 7.55039 33.6876 13.3771 32.0209C13.7504 31.9142 13.857 31.6842 13.697 31.3309C11.397 26.1509 13.987 20.4009 20.107 20.3709C35.647 20.2909 51.1837 20.1676 66.717 20.0009C73.667 19.9309 78.097 23.9209 75.317 31.4209C75.197 31.7409 75.3071 31.9476 75.6471 32.0409C81.2604 33.5876 83.1971 37.1942 81.4571 42.8609C81.3237 43.2809 81.4604 43.5842 81.8671 43.7709C85.6537 45.4842 87.6904 47.8842 87.977 50.9709C88.357 55.0509 85.077 59.1909 80.857 59.1909C57.4304 59.2176 34.007 59.2176 10.587 59.1909C5.72704 59.1909 1.46704 57.6709 1.03704 52.3509C0.690374 47.9776 2.77705 45.1942 7.29705 44.0009C7.65705 43.9076 7.77705 43.6876 7.65705 43.3409ZM61.717 24.2409C61.9637 23.6209 61.757 23.3109 61.097 23.3109L19.6771 23.2309C19.2168 23.2304 18.7612 23.3233 18.3379 23.5041C17.9146 23.6849 17.5324 23.9497 17.2145 24.2826C16.8966 24.6155 16.6496 25.0094 16.4884 25.4406C16.3273 25.8717 16.2554 26.3311 16.277 26.7909L16.337 27.9309C16.477 30.7642 17.9637 32.1776 20.7971 32.1709L61.5871 32.0809C62.0204 32.0809 62.1437 31.8842 61.9571 31.4909C60.8237 29.0909 60.7437 26.6742 61.717 24.2409ZM72.8971 27.6609C72.8971 27.0936 72.7853 26.5318 72.5682 26.0077C72.3511 25.4836 72.0329 25.0073 71.6317 24.6062C71.2306 24.205 70.7544 23.8868 70.2302 23.6697C69.7061 23.4526 69.1444 23.3409 68.577 23.3409C68.0097 23.3409 67.448 23.4526 66.9239 23.6697C66.3997 23.8868 65.9235 24.205 65.5224 24.6062C65.1212 25.0073 64.803 25.4836 64.5859 26.0077C64.3688 26.5318 64.257 27.0936 64.257 27.6609C64.257 28.2282 64.3688 28.79 64.5859 29.3141C64.803 29.8382 65.1212 30.3144 65.5224 30.7156C65.9235 31.1167 66.3997 31.435 66.9239 31.6521C67.448 31.8692 68.0097 31.9809 68.577 31.9809C69.1444 31.9809 69.7061 31.8692 70.2302 31.6521C70.7544 31.435 71.2306 31.1167 71.6317 30.7156C72.0329 30.3144 72.3511 29.8382 72.5682 29.3141C72.7853 28.79 72.8971 28.2282 72.8971 27.6609ZM56.007 43.4209C54.707 40.9942 54.6637 38.5509 55.877 36.0909C55.9196 36.0056 55.9397 35.9109 55.9354 35.8156C55.9311 35.7204 55.9025 35.6279 55.8525 35.5467C55.8024 35.4656 55.7325 35.3987 55.6493 35.3521C55.5661 35.3056 55.4724 35.2811 55.377 35.2809H13.6571C13.2038 35.2807 12.7551 35.3714 12.3377 35.5476C11.9202 35.7238 11.5426 35.982 11.2273 36.3066C10.9119 36.6313 10.6653 37.0159 10.5021 37.4375C10.3388 37.8591 10.2623 38.3092 10.277 38.7609L10.307 39.8309C10.387 42.6442 11.8337 44.0476 14.647 44.0409L55.6471 44.0209C56.1004 44.0209 56.2204 43.8209 56.007 43.4209ZM66.917 39.6109C66.917 38.4625 66.4609 37.3612 65.6488 36.5491C64.8368 35.7371 63.7354 35.2809 62.5871 35.2809C61.4387 35.2809 60.3373 35.7371 59.5253 36.5491C58.7132 37.3612 58.257 38.4625 58.257 39.6109C58.257 40.1795 58.3691 40.7426 58.5867 41.2679C58.8043 41.7932 59.1232 42.2706 59.5253 42.6727C59.9273 43.0747 60.4047 43.3937 60.93 43.6113C61.4554 43.8289 62.0184 43.9409 62.5871 43.9409C63.1557 43.9409 63.7187 43.8289 64.2441 43.6113C64.7694 43.3937 65.2467 43.0747 65.6488 42.6727C66.0509 42.2706 66.3699 41.7932 66.5875 41.2679C66.8051 40.7426 66.917 40.1795 66.917 39.6109ZM78.907 39.6209C78.907 39.0497 78.7945 38.484 78.5759 37.9562C78.3573 37.4285 78.0369 36.9489 77.633 36.545C77.229 36.141 76.7495 35.8206 76.2217 35.602C75.694 35.3834 75.1283 35.2709 74.5571 35.2709C73.4034 35.2709 72.2969 35.7292 71.4811 36.545C70.6654 37.3608 70.2071 38.4672 70.2071 39.6209C70.2071 40.7746 70.6654 41.881 71.4811 42.6968C72.2969 43.5126 73.4034 43.9709 74.5571 43.9709C75.1283 43.9709 75.694 43.8584 76.2217 43.6398C76.7495 43.4212 77.229 43.1007 77.633 42.6968C78.0369 42.2929 78.3573 41.8133 78.5759 41.2856C78.7945 40.7578 78.907 40.1922 78.907 39.6209ZM50.0471 47.4809C50.0583 47.4474 50.0617 47.4118 50.057 47.3769C50.0523 47.342 50.0396 47.3089 50.02 47.2804C50.0004 47.252 49.9744 47.229 49.9443 47.2134C49.9142 47.1978 49.8808 47.1901 49.8471 47.1909L7.65705 47.2509C7.21374 47.2509 6.77482 47.3388 6.36575 47.5097C5.95668 47.6805 5.58558 47.9309 5.27398 48.2462C4.96237 48.5615 4.71647 48.9355 4.55048 49.3466C4.3845 49.7577 4.30175 50.1976 4.30705 50.6409L4.32705 51.7309C4.36038 54.5442 5.78372 55.9542 8.59705 55.9609L49.607 56.0709C49.9004 56.0709 50.0237 55.9276 49.977 55.6409C49.407 52.2109 48.717 51.3009 50.0471 47.4809ZM60.9571 51.5709C60.9571 50.4092 60.4956 49.2952 59.6742 48.4738C58.8528 47.6524 57.7387 47.1909 56.577 47.1909C56.0019 47.1909 55.4323 47.3042 54.9009 47.5243C54.3695 47.7444 53.8866 48.0671 53.4799 48.4738C53.0732 48.8805 52.7506 49.3633 52.5304 49.8947C52.3103 50.4261 52.197 50.9957 52.197 51.5709C52.197 52.1461 52.3103 52.7157 52.5304 53.2471C52.7506 53.7785 53.0732 54.2613 53.4799 54.668C53.8866 55.0747 54.3695 55.3974 54.9009 55.6175C55.4323 55.8376 56.0019 55.9509 56.577 55.9509C57.7387 55.9509 58.8528 55.4894 59.6742 54.668C60.4956 53.8466 60.9571 52.7325 60.9571 51.5709ZM72.887 51.5609C72.887 50.4099 72.4298 49.306 71.6159 48.4921C70.802 47.6781 69.6981 47.2209 68.5471 47.2209C67.396 47.2209 66.2921 47.6781 65.4782 48.4921C64.6643 49.306 64.2071 50.4099 64.2071 51.5609C64.2071 52.7119 64.6643 53.8158 65.4782 54.6297C66.2921 55.4437 67.396 55.9009 68.5471 55.9009C69.6981 55.9009 70.802 55.4437 71.6159 54.6297C72.4298 53.8158 72.887 52.7119 72.887 51.5609ZM84.877 51.5609C84.877 50.4046 84.4177 49.2956 83.6 48.4779C82.7824 47.6603 81.6734 47.2009 80.5171 47.2009C79.3607 47.2009 78.2517 47.6603 77.4341 48.4779C76.6164 49.2956 76.157 50.4046 76.157 51.5609C76.157 52.7172 76.6164 53.8262 77.4341 54.6439C78.2517 55.4615 79.3607 55.9209 80.5171 55.9209C81.6734 55.9209 82.7824 55.4615 83.6 54.6439C84.4177 53.8262 84.877 52.7172 84.877 51.5609Z"/>
</mask>
<path d="M7.65705 43.3409C5.64372 37.4609 7.55039 33.6876 13.3771 32.0209C13.7504 31.9142 13.857 31.6842 13.697 31.3309C11.397 26.1509 13.987 20.4009 20.107 20.3709C35.647 20.2909 51.1837 20.1676 66.717 20.0009C73.667 19.9309 78.097 23.9209 75.317 31.4209C75.197 31.7409 75.3071 31.9476 75.6471 32.0409C81.2604 33.5876 83.1971 37.1942 81.4571 42.8609C81.3237 43.2809 81.4604 43.5842 81.8671 43.7709C85.6537 45.4842 87.6904 47.8842 87.977 50.9709C88.357 55.0509 85.077 59.1909 80.857 59.1909C57.4304 59.2176 34.007 59.2176 10.587 59.1909C5.72704 59.1909 1.46704 57.6709 1.03704 52.3509C0.690374 47.9776 2.77705 45.1942 7.29705 44.0009C7.65705 43.9076 7.77705 43.6876 7.65705 43.3409ZM61.717 24.2409C61.9637 23.6209 61.757 23.3109 61.097 23.3109L19.6771 23.2309C19.2168 23.2304 18.7612 23.3233 18.3379 23.5041C17.9146 23.6849 17.5324 23.9497 17.2145 24.2826C16.8966 24.6155 16.6496 25.0094 16.4884 25.4406C16.3273 25.8717 16.2554 26.3311 16.277 26.7909L16.337 27.9309C16.477 30.7642 17.9637 32.1776 20.7971 32.1709L61.5871 32.0809C62.0204 32.0809 62.1437 31.8842 61.9571 31.4909C60.8237 29.0909 60.7437 26.6742 61.717 24.2409ZM72.8971 27.6609C72.8971 27.0936 72.7853 26.5318 72.5682 26.0077C72.3511 25.4836 72.0329 25.0073 71.6317 24.6062C71.2306 24.205 70.7544 23.8868 70.2302 23.6697C69.7061 23.4526 69.1444 23.3409 68.577 23.3409C68.0097 23.3409 67.448 23.4526 66.9239 23.6697C66.3997 23.8868 65.9235 24.205 65.5224 24.6062C65.1212 25.0073 64.803 25.4836 64.5859 26.0077C64.3688 26.5318 64.257 27.0936 64.257 27.6609C64.257 28.2282 64.3688 28.79 64.5859 29.3141C64.803 29.8382 65.1212 30.3144 65.5224 30.7156C65.9235 31.1167 66.3997 31.435 66.9239 31.6521C67.448 31.8692 68.0097 31.9809 68.577 31.9809C69.1444 31.9809 69.7061 31.8692 70.2302 31.6521C70.7544 31.435 71.2306 31.1167 71.6317 30.7156C72.0329 30.3144 72.3511 29.8382 72.5682 29.3141C72.7853 28.79 72.8971 28.2282 72.8971 27.6609ZM56.007 43.4209C54.707 40.9942 54.6637 38.5509 55.877 36.0909C55.9196 36.0056 55.9397 35.9109 55.9354 35.8156C55.9311 35.7204 55.9025 35.6279 55.8525 35.5467C55.8024 35.4656 55.7325 35.3987 55.6493 35.3521C55.5661 35.3056 55.4724 35.2811 55.377 35.2809H13.6571C13.2038 35.2807 12.7551 35.3714 12.3377 35.5476C11.9202 35.7238 11.5426 35.982 11.2273 36.3066C10.9119 36.6313 10.6653 37.0159 10.5021 37.4375C10.3388 37.8591 10.2623 38.3092 10.277 38.7609L10.307 39.8309C10.387 42.6442 11.8337 44.0476 14.647 44.0409L55.6471 44.0209C56.1004 44.0209 56.2204 43.8209 56.007 43.4209ZM66.917 39.6109C66.917 38.4625 66.4609 37.3612 65.6488 36.5491C64.8368 35.7371 63.7354 35.2809 62.5871 35.2809C61.4387 35.2809 60.3373 35.7371 59.5253 36.5491C58.7132 37.3612 58.257 38.4625 58.257 39.6109C58.257 40.1795 58.3691 40.7426 58.5867 41.2679C58.8043 41.7932 59.1232 42.2706 59.5253 42.6727C59.9273 43.0747 60.4047 43.3937 60.93 43.6113C61.4554 43.8289 62.0184 43.9409 62.5871 43.9409C63.1557 43.9409 63.7187 43.8289 64.2441 43.6113C64.7694 43.3937 65.2467 43.0747 65.6488 42.6727C66.0509 42.2706 66.3699 41.7932 66.5875 41.2679C66.8051 40.7426 66.917 40.1795 66.917 39.6109ZM78.907 39.6209C78.907 39.0497 78.7945 38.484 78.5759 37.9562C78.3573 37.4285 78.0369 36.9489 77.633 36.545C77.229 36.141 76.7495 35.8206 76.2217 35.602C75.694 35.3834 75.1283 35.2709 74.5571 35.2709C73.4034 35.2709 72.2969 35.7292 71.4811 36.545C70.6654 37.3608 70.2071 38.4672 70.2071 39.6209C70.2071 40.7746 70.6654 41.881 71.4811 42.6968C72.2969 43.5126 73.4034 43.9709 74.5571 43.9709C75.1283 43.9709 75.694 43.8584 76.2217 43.6398C76.7495 43.4212 77.229 43.1007 77.633 42.6968C78.0369 42.2929 78.3573 41.8133 78.5759 41.2856C78.7945 40.7578 78.907 40.1922 78.907 39.6209ZM50.0471 47.4809C50.0583 47.4474 50.0617 47.4118 50.057 47.3769C50.0523 47.342 50.0396 47.3089 50.02 47.2804C50.0004 47.252 49.9744 47.229 49.9443 47.2134C49.9142 47.1978 49.8808 47.1901 49.8471 47.1909L7.65705 47.2509C7.21374 47.2509 6.77482 47.3388 6.36575 47.5097C5.95668 47.6805 5.58558 47.9309 5.27398 48.2462C4.96237 48.5615 4.71647 48.9355 4.55048 49.3466C4.3845 49.7577 4.30175 50.1976 4.30705 50.6409L4.32705 51.7309C4.36038 54.5442 5.78372 55.9542 8.59705 55.9609L49.607 56.0709C49.9004 56.0709 50.0237 55.9276 49.977 55.6409C49.407 52.2109 48.717 51.3009 50.0471 47.4809ZM60.9571 51.5709C60.9571 50.4092 60.4956 49.2952 59.6742 48.4738C58.8528 47.6524 57.7387 47.1909 56.577 47.1909C56.0019 47.1909 55.4323 47.3042 54.9009 47.5243C54.3695 47.7444 53.8866 48.0671 53.4799 48.4738C53.0732 48.8805 52.7506 49.3633 52.5304 49.8947C52.3103 50.4261 52.197 50.9957 52.197 51.5709C52.197 52.1461 52.3103 52.7157 52.5304 53.2471C52.7506 53.7785 53.0732 54.2613 53.4799 54.668C53.8866 55.0747 54.3695 55.3974 54.9009 55.6175C55.4323 55.8376 56.0019 55.9509 56.577 55.9509C57.7387 55.9509 58.8528 55.4894 59.6742 54.668C60.4956 53.8466 60.9571 52.7325 60.9571 51.5709ZM72.887 51.5609C72.887 50.4099 72.4298 49.306 71.6159 48.4921C70.802 47.6781 69.6981 47.2209 68.5471 47.2209C67.396 47.2209 66.2921 47.6781 65.4782 48.4921C64.6643 49.306 64.2071 50.4099 64.2071 51.5609C64.2071 52.7119 64.6643 53.8158 65.4782 54.6297C66.2921 55.4437 67.396 55.9009 68.5471 55.9009C69.6981 55.9009 70.802 55.4437 71.6159 54.6297C72.4298 53.8158 72.887 52.7119 72.887 51.5609ZM84.877 51.5609C84.877 50.4046 84.4177 49.2956 83.6 48.4779C82.7824 47.6603 81.6734 47.2009 80.5171 47.2009C79.3607 47.2009 78.2517 47.6603 77.4341 48.4779C76.6164 49.2956 76.157 50.4046 76.157 51.5609C76.157 52.7172 76.6164 53.8262 77.4341 54.6439C78.2517 55.4615 79.3607 55.9209 80.5171 55.9209C81.6734 55.9209 82.7824 55.4615 83.6 54.6439C84.4177 53.8262 84.877 52.7172 84.877 51.5609Z" fill="#1D231F" stroke="white" stroke-width="0.6" mask="url(#path-1-inside-1_245_14231)"/>
</g>
</g>
</svg>
