<svg width="90" height="80" viewBox="0 0 90 80" fill="none" xmlns="http://www.w3.org/2000/svg">
<g id="projects">
<g id="Group 49">
<path id="Vector" d="M23.25 18.8049L66.6509 18.8104C66.7343 18.81 66.8148 18.7796 66.8777 18.7248C66.9405 18.67 66.9817 18.5945 66.9936 18.512C67.3216 16.2789 68.2999 14.5654 69.9286 13.3715C73.6541 10.6465 79.1317 12.2771 80.6075 16.6824C80.8655 17.4489 80.9944 18.7883 80.9944 20.7008C80.9834 33.2442 80.9852 45.7877 81 58.3311C81.0036 61.1943 80.7365 63.1749 80.1985 64.273C78.7061 67.3241 76.0419 68.0095 72.6039 68.0151C54.2678 68.0593 35.9316 68.0593 17.5955 68.0151C11.8471 68.004 9.03362 65.782 9.02257 59.9341C8.99678 47.0221 8.99309 34.1102 9.01152 21.1983C9.01704 17.0472 9.52003 14.0237 13.45 12.4871C17.8277 10.7736 22.4375 13.7695 22.935 18.5175C22.9534 18.7091 23.0584 18.8049 23.25 18.8049ZM11.9908 54.1303C14.4836 52.5274 17.3413 52.544 19.8396 54.0474C19.8835 54.0729 19.9333 54.0865 19.9841 54.087C20.0348 54.0874 20.0846 54.0746 20.1284 54.0499C20.1722 54.0252 20.2085 53.9894 20.2335 53.9463C20.2585 53.9031 20.2714 53.8541 20.2708 53.8042C20.2339 42.3331 20.2358 30.8067 20.2763 19.225C20.2984 13.2665 11.6591 13.2223 11.6647 19.2195C11.6757 30.779 11.6739 42.3552 11.6591 53.9479C11.659 53.9866 11.6693 54.0247 11.6889 54.0581C11.7086 54.0914 11.7369 54.1189 11.7708 54.1376C11.8047 54.1562 11.8431 54.1654 11.8818 54.1641C11.9205 54.1628 11.9581 54.1512 11.9908 54.1303ZM78.3137 19.3576C78.3413 13.1836 69.6744 13.2444 69.6965 19.3576C69.737 30.8988 69.7444 42.4233 69.7186 53.9313C69.718 53.9715 69.7284 54.0111 69.7486 54.0458C69.7688 54.0806 69.7981 54.1092 69.8334 54.1285C69.8686 54.1478 69.9085 54.1572 69.9486 54.1555C69.9888 54.1539 70.0277 54.1414 70.0613 54.1193C72.6002 52.5421 75.1686 52.5016 77.7664 53.9977C78.1165 54.2003 78.2915 54.099 78.2915 53.6936C78.2547 42.3515 78.2621 30.9062 78.3137 19.3576ZM22.3656 61.0837C21.8461 61.3159 21.3265 61.3214 20.8069 61.1003C20.7259 61.064 20.6544 61.0097 20.5978 60.9416C20.5413 60.8736 20.5012 60.7936 20.4808 60.7079C20.2376 59.7074 20.1713 58.613 19.6628 57.7784C18.712 56.2031 17.0649 55.4071 15.2022 55.7885C11.0014 56.6508 10.2828 63.0736 13.964 64.8423C14.6936 65.1961 16.0313 65.373 17.9769 65.373C36.2209 65.3767 54.4612 65.3748 72.6978 65.3675C74.345 65.3675 75.5205 65.1629 76.2243 64.7539C80.4085 62.3385 78.0649 53.9811 72.6426 55.8935C70.3874 56.6895 70.0502 58.3201 69.5583 60.4702C69.4975 60.7413 69.3332 60.978 69.1002 61.1306C68.8672 61.2832 68.5836 61.3397 68.3091 61.2883C67.4358 61.1261 66.9991 60.6452 66.9991 59.8456C67.0139 47.2432 67.0231 34.5634 67.0268 21.8063C67.0268 21.7066 66.9872 21.611 66.9167 21.5405C66.8462 21.47 66.7506 21.4304 66.6509 21.4304L23.2555 21.4359C23.1837 21.4359 23.1148 21.4645 23.064 21.5153C23.0132 21.5661 22.9847 21.6349 22.9847 21.7068L22.9792 60.133C22.979 60.3342 22.9211 60.531 22.8122 60.6997C22.7034 60.8683 22.5483 61.0017 22.3656 61.0837Z" fill="#1D231F"/>
<path id="Vector_2" d="M50.9808 30.838C51.0084 29.8486 51.4396 29.4672 52.44 29.4451C53.9914 29.4156 55.5906 29.4193 57.2378 29.4561C57.9711 29.4708 58.3377 29.8449 58.3377 30.5782V37.2497C58.3377 37.3204 58.3536 37.3903 58.3842 37.4543C58.4148 37.5184 58.4593 37.575 58.5146 37.62L61.7536 40.3063C62.0358 40.5412 62.2238 40.8698 62.2827 41.2315C62.3416 41.5932 62.2676 41.9635 62.0742 42.2741C61.1419 43.7591 60.1857 45.1741 59.2055 46.5191C58.9107 46.9244 58.498 47.1197 57.9674 47.105C57.9098 47.1035 57.8526 47.1136 57.799 47.1346C57.7454 47.1556 57.6966 47.1871 57.6554 47.2273C57.6141 47.2675 57.5814 47.3155 57.559 47.3685C57.5367 47.4216 57.5252 47.4786 57.5252 47.5361L57.5362 56.3302C57.5362 56.6087 57.425 56.8758 57.227 57.0728C57.029 57.2697 56.7605 57.3804 56.4805 57.3804H33.6857C32.8897 57.3804 32.4917 56.9806 32.4917 56.1809V47.4532C32.4917 47.3058 32.4199 47.2155 32.2762 47.1824L31.121 46.9226C31.03 46.9033 30.9439 46.8659 30.8679 46.8127C30.7919 46.7595 30.7276 46.6916 30.6788 46.6131L27.7658 41.9314C27.6312 41.7155 27.5794 41.4579 27.62 41.206C27.6606 40.9541 27.7909 40.7249 27.9869 40.5606L44.0992 27.0849C44.3531 26.8716 44.6741 26.7547 45.0057 26.7547C45.3373 26.7547 45.6583 26.8716 45.9122 27.0849L50.5828 31.0204C50.8408 31.2378 50.9734 31.177 50.9808 30.838ZM53.4902 34.8398C53.4458 35.0245 53.3549 35.1947 53.2259 35.3342C53.097 35.4738 52.9344 35.5781 52.7534 35.6373C52.5725 35.6965 52.3792 35.7086 52.1918 35.6726C52.0045 35.6365 51.8293 35.5534 51.6828 35.4312L45.2821 30.0641C45.2037 29.9989 45.1049 29.9633 45.0029 29.9633C44.901 29.9633 44.8022 29.9989 44.7238 30.0641L31.1596 41.3842C31.048 41.4766 30.9735 41.6061 30.9501 41.7485C30.9267 41.8909 30.956 42.0364 31.0325 42.158L31.7013 43.2358C31.9151 43.5785 32.1767 43.6209 32.4862 43.363L43.9776 33.8891C44.6593 33.3253 45.3429 33.3253 46.0283 33.8891L57.5307 43.3851C57.8513 43.6467 58.1166 43.6006 58.3267 43.2469L58.9568 42.1912C59.0423 42.0496 59.0733 41.8819 59.0437 41.7198C59.0141 41.5578 58.9262 41.4128 58.7965 41.3123C58.0669 40.7448 57.2783 40.1 56.4308 39.3777C55.1871 38.3275 55.6625 34.3147 55.668 32.6565C55.6717 32.2216 55.458 32.0134 55.0268 32.0319L54.2364 32.0595C54.1535 32.062 54.0721 32.0818 53.997 32.1176C53.922 32.1533 53.855 32.2044 53.8001 32.2675C53.7452 32.3307 53.7037 32.4046 53.6779 32.4848C53.6522 32.565 53.6429 32.6498 53.6505 32.7338C53.7168 33.434 53.6634 34.136 53.4902 34.8398ZM54.8997 44.9106C54.8998 44.8568 54.8879 44.8035 54.865 44.7548C54.842 44.7061 54.8086 44.663 54.767 44.6287L45.2379 36.7799C45.1725 36.726 45.0904 36.6965 45.0057 36.6965C44.921 36.6965 44.8389 36.726 44.7736 36.7799L35.261 44.6066C35.2194 44.6409 35.186 44.684 35.163 44.7327C35.1401 44.7814 35.1282 44.8347 35.1283 44.8885V54.3735C35.1283 54.4702 35.1667 54.563 35.2351 54.6314C35.3036 54.6999 35.3964 54.7383 35.4931 54.7383L54.5183 54.7328C54.6151 54.7328 54.7078 54.6943 54.7763 54.6259C54.8447 54.5575 54.8831 54.4647 54.8831 54.368L54.8997 44.9106Z" fill="#1D231F"/>
</g>
</g>
</svg>
