<svg width="90" height="80" viewBox="0 0 90 80" fill="none" xmlns="http://www.w3.org/2000/svg">
<g id="designer">
<g id="Group 50">
<path id="Vector" d="M54.6679 18.8086C55.3046 24.0554 51.6688 29.0095 46.3055 29.532C42.8778 29.8658 39.5899 28.2082 37.704 25.3535C36.3899 23.3644 35.864 21.1747 36.1264 18.7845C36.1278 18.7729 36.126 18.7612 36.121 18.7506C36.1161 18.74 36.1083 18.7311 36.0985 18.7247C36.0182 18.672 35.9362 18.6236 35.8524 18.5796C33.062 17.1277 33.3345 13.2551 36.0829 11.9462C36.0985 11.9387 36.1121 11.9276 36.1225 11.9138C36.1329 11.9001 36.1398 11.884 36.1427 11.867C36.5154 9.6799 37.2017 7.59221 38.7847 5.92299C39.8261 4.82467 41.0572 4.03406 42.478 3.55115C42.5251 3.53497 42.5661 3.50524 42.596 3.46575C43.9461 1.65523 46.4942 1.50306 48.0664 3.11482C48.1953 3.24759 48.3459 3.51078 48.5532 3.58609C51.4398 4.63343 53.5453 7.01536 54.3434 9.95164C54.5173 10.5924 54.6617 11.2329 54.7766 11.8732C54.78 11.8923 54.788 11.9103 54.7999 11.9256C54.8118 11.9409 54.8273 11.953 54.845 11.9609C57.7626 13.2932 57.6795 17.5151 54.7029 18.7488C54.676 18.7602 54.6643 18.7801 54.6679 18.8086ZM44.502 11.617H46.3731C46.3881 11.617 46.4025 11.611 46.4132 11.6004C46.4238 11.5897 46.4298 11.5753 46.4298 11.5603V5.42844C46.4298 5.29641 46.4046 5.16567 46.3558 5.04368C46.3069 4.9217 46.2353 4.81087 46.1451 4.71751C46.0548 4.62414 45.9476 4.55009 45.8297 4.49956C45.7118 4.44903 45.5854 4.42303 45.4577 4.42303H45.4174C45.1596 4.42303 44.9123 4.52895 44.73 4.71751C44.5477 4.90606 44.4453 5.16179 44.4453 5.42844V11.5603C44.4453 11.5753 44.4513 11.5897 44.4619 11.6004C44.4726 11.611 44.487 11.617 44.502 11.617ZM41.9105 6.49829C40.0611 7.67839 39.1186 9.47183 38.7514 11.5914C38.7472 11.6136 38.7565 11.6247 38.7793 11.6247H41.9004C41.9278 11.6247 41.9415 11.611 41.9415 11.5836V6.51537C41.9415 6.51175 41.9406 6.50818 41.9387 6.50506C41.9369 6.50194 41.9342 6.49936 41.9311 6.49762C41.9279 6.49587 41.9243 6.49501 41.9207 6.49513C41.917 6.49525 41.9135 6.49634 41.9105 6.49829ZM52.1781 11.6131C51.8116 9.49745 50.9009 7.73041 49.0671 6.52081C49.0641 6.51881 49.0605 6.51766 49.0568 6.51747C49.0531 6.51728 49.0495 6.51807 49.0463 6.51975C49.0431 6.52143 49.0405 6.52394 49.0387 6.527C49.0369 6.53006 49.036 6.53356 49.0361 6.53711V11.596C49.0361 11.6036 49.039 11.6109 49.0443 11.6163C49.0495 11.6217 49.0566 11.6247 49.064 11.6247H52.168C52.1758 11.6247 52.1791 11.6209 52.1781 11.6131ZM54.4785 15.1363C54.3916 14.6464 54.0041 14.1852 53.4692 14.1868C48.1903 14.2008 42.911 14.2 37.631 14.1845C37.3961 14.1839 37.2097 14.2158 37.072 14.28C35.9152 14.8211 36.2801 16.5322 37.5534 16.5322C42.7443 16.5322 47.9352 16.532 53.1261 16.5315C53.4128 16.5315 53.6245 16.503 53.7611 16.4461C54.2821 16.2287 54.5779 15.6969 54.4785 15.1363ZM42.5184 26.3597C45.0486 27.5871 48.113 27.0794 50.1152 25.1144C51.6913 23.5678 52.4252 21.6514 52.3171 19.3653C52.3124 19.2638 52.2974 19.1595 52.272 19.0524C52.2663 19.0286 52.2511 19.0167 52.2262 19.0167H38.6403C38.6139 19.0167 38.5984 19.0293 38.5938 19.0547C38.5741 19.1598 38.5606 19.283 38.5534 19.4243C38.395 22.3396 39.8833 25.081 42.5184 26.3597Z" fill="#1D231F"/>
<path id="Vector_2" d="M27.2711 38.7298C27.7866 38.274 28.3782 38.4153 28.9162 38.3936C28.9607 38.3921 29.0034 38.3682 29.0443 38.3222C30.9333 36.1988 33.1654 34.4147 35.6381 33.0226C40.5837 30.2362 46.4687 29.6616 51.8529 31.5529C55.7914 32.9356 59.0235 35.2772 61.8278 38.333C61.8457 38.3526 61.8674 38.3683 61.8918 38.379C61.9161 38.3897 61.9424 38.3952 61.9691 38.3952C62.5312 38.3952 63.1795 38.3004 63.6407 38.663C63.6434 38.6652 63.6467 38.6668 63.6501 38.6675C63.6536 38.6683 63.6572 38.6683 63.6606 38.6675C63.664 38.6666 63.6672 38.665 63.67 38.6628C63.6727 38.6605 63.6749 38.6577 63.6764 38.6545C65.1988 35.5699 68.6677 34.0661 71.9658 34.1957C74.7903 34.3067 77.659 35.8176 78.718 38.5403C78.8489 38.8768 78.9763 39.3773 79.1 40.0419C80.8711 49.551 82.6444 59.0596 84.4197 68.5677C84.4554 68.7586 84.5186 68.9735 84.6092 69.2121C85.1935 70.7529 85.1226 72.2754 84.3964 73.7795C82.9166 76.8439 79.3142 78.4688 76.0325 78.3307C73.2414 78.2126 70.4829 76.7903 69.3036 74.1677C69.1568 73.8408 69.0427 73.4092 68.9208 73.0272C68.7384 72.4542 68.6933 71.7656 68.601 71.1716C68.5993 71.1596 68.5932 71.1486 68.584 71.1406C68.5747 71.1326 68.5628 71.1282 68.5505 71.1282H22.2409C22.2322 71.1282 22.2239 71.1313 22.2173 71.1368C22.2108 71.1424 22.2065 71.1501 22.2052 71.1584C22.1167 71.7252 22.1547 72.3673 22.0654 72.8517C21.3838 76.5799 17.4933 78.4921 14.0299 78.3112C11.1588 78.1614 8.32582 76.7779 6.84682 74.2624C5.99383 72.8116 5.78525 71.2656 6.22105 69.6243C6.26816 69.4478 6.30827 69.2703 6.34139 69.0917C8.14726 59.4418 9.95027 49.7914 11.7504 40.1405C11.8819 39.4334 12.0025 38.9311 12.1122 38.6335C12.6146 37.2702 13.6417 36.1576 14.8847 35.417C18.9545 32.9939 25.1003 34.2788 27.2175 38.7189C27.2304 38.7463 27.2483 38.75 27.2711 38.7298ZM32.507 38.3765L58.2968 38.3757C58.2998 38.3758 58.3027 38.3749 58.3052 38.3732C58.3077 38.3716 58.3096 38.3692 58.3107 38.3664C58.3118 38.3636 58.312 38.3606 58.3113 38.3577C58.3106 38.3548 58.3091 38.3521 58.3069 38.3501C56.4281 36.625 54.2744 35.1452 51.908 34.1685C46.2101 31.8169 39.9711 32.754 35.0139 36.3494C34.1439 36.9803 33.3059 37.6496 32.5 38.3571C32.4982 38.3585 32.4969 38.3605 32.4963 38.3627C32.4956 38.3649 32.4957 38.3672 32.4965 38.3693C32.4973 38.3715 32.4987 38.3733 32.5006 38.3746C32.5025 38.3759 32.5047 38.3766 32.507 38.3765ZM9.69381 65.7191C11.3211 64.9489 13.0322 64.6839 14.8272 64.9241C16.3101 65.1229 17.6662 65.6216 18.8955 66.4202C19.352 66.7173 19.7883 67.0796 20.2045 67.5071C20.2236 67.5268 20.2353 67.5232 20.2394 67.4963C20.3403 66.8029 20.4273 66.105 20.5616 65.4249C22.0885 57.6916 23.6154 49.9583 25.1422 42.225C25.2333 41.7628 25.2742 41.4013 25.2649 41.1404C25.1997 39.3447 23.7719 37.9876 22.2199 37.288C20.7376 36.6203 19.2073 36.4746 17.6292 36.8509C16.3218 37.163 15.0493 37.9534 14.4678 39.2026C14.3399 39.4774 14.218 39.927 14.1021 40.5512C12.5421 48.962 10.9816 57.3725 9.42052 65.7828C9.41586 65.8081 9.4257 65.8172 9.45002 65.81C9.53698 65.7851 9.61824 65.7548 9.69381 65.7191ZM70.5862 67.591C70.5898 67.6184 70.6014 67.6223 70.6211 67.6026C73.4083 64.7463 77.7599 64.1042 81.3414 65.7416C81.3672 65.753 81.3776 65.745 81.3724 65.7176C79.8093 57.3171 78.2475 48.9162 76.687 40.5147C76.5705 39.89 76.4484 39.4402 76.3205 39.1653C75.7957 38.0349 74.6187 37.2391 73.4417 36.9154C71.1475 36.2842 68.3789 36.8028 66.7314 38.6063C66.2703 39.111 65.9638 39.5941 65.8122 40.0558C65.667 40.4976 65.5335 41.0807 65.6336 41.5426C65.6864 41.7848 65.6748 41.9968 65.7167 42.2103C66.6603 47.0741 68.1574 54.7276 70.2081 65.171C70.3626 65.9575 70.4658 66.7734 70.5862 67.591ZM28.6398 40.9735C28.344 41.3951 28.0498 41.819 27.7695 42.253C27.7027 42.3555 27.7416 42.5053 27.719 42.621C26.0483 51.2849 24.377 59.9509 22.7052 68.6189C22.7045 68.6219 22.7045 68.6251 22.7052 68.6281C22.706 68.6312 22.7074 68.634 22.7094 68.6365C22.7114 68.6389 22.7139 68.6409 22.7168 68.6423C22.7197 68.6437 22.7229 68.6445 22.7261 68.6445H68.1421C68.1587 68.6445 68.1654 68.6365 68.1623 68.6205C66.4884 59.94 64.8164 51.2694 63.1461 42.6086C63.1383 42.5692 63.1345 42.481 63.1345 42.3438C63.1345 42.3169 63.1269 42.2926 63.1119 42.2709L62.2191 40.9619C62.2148 40.9556 62.209 40.9505 62.2023 40.947C62.1955 40.9435 62.188 40.9417 62.1803 40.9417H28.7004C28.6745 40.9417 28.6543 40.9523 28.6398 40.9735ZM10.9368 67.9023C9.80172 68.4318 8.93063 69.254 8.61697 70.462C8.12397 72.3649 9.43605 74.0598 11.0005 74.9216C11.0341 74.9402 11.0429 74.9322 11.0269 74.8975C10.3794 73.4891 10.3545 71.7796 11.2862 70.5016C12.1666 69.2936 13.922 68.9799 15.0858 69.9085C15.8443 70.5133 16.234 71.7182 15.3459 72.4084C15.0446 72.6429 14.5066 72.8013 14.1588 72.5862C13.5617 72.2174 13.8707 71.448 14.474 71.4511C14.4942 71.4512 14.514 71.4463 14.5318 71.4367C14.5496 71.4271 14.5646 71.4132 14.5756 71.3963C14.5866 71.3793 14.5931 71.3599 14.5946 71.3398C14.5961 71.3197 14.5926 71.2995 14.5842 71.2811C14.4274 70.9338 14.1901 70.7268 13.8723 70.66C13.3102 70.5412 12.7388 70.66 12.3552 71.1103C11.4515 72.1685 11.7 74.1988 12.6751 75.1584C12.9484 75.4278 13.3125 75.7639 13.7116 75.8113C15.8451 76.0636 18.6501 75.2523 19.4498 72.9985C19.4876 72.8924 19.5119 72.7712 19.5228 72.6351C19.5492 72.3207 19.5919 71.9915 19.5655 71.7058C19.3598 69.424 17.182 67.9559 15.1502 67.5009C13.7846 67.195 12.2031 67.3115 10.9368 67.9023ZM76.2832 71.3161C77.1792 71.1802 77.2747 72.6413 76.2173 72.5629C74.6948 72.4488 74.6723 70.7501 75.5635 69.896C76.343 69.1499 77.3415 69.0055 78.3244 69.3829C79.527 69.8448 80.1985 71.1445 80.2715 72.4131C80.3233 73.324 80.1124 74.2215 79.6388 75.1056C79.6217 75.1371 79.6294 75.1452 79.6621 75.1296C81.0937 74.441 82.4578 73.0031 82.4795 71.3145C82.4803 71.1957 82.3872 71.0529 82.3584 70.9403C82.3206 70.7917 82.2836 70.6427 82.2474 70.4931C81.7847 68.5871 79.9198 67.5879 78.0806 67.3876C75.8555 67.1453 73.5512 67.9046 72.1467 69.6996C70.6351 71.6336 71.3936 74.0559 73.4875 75.1428C74.503 75.6697 75.5938 75.9058 76.7599 75.8509C76.9111 75.8436 77.0506 75.8056 77.1784 75.7368C77.4859 75.5711 77.7666 75.3713 78.0208 75.1374C78.3163 74.8646 78.5435 74.5429 78.7025 74.1724C79.1357 73.1615 79.2118 71.9791 78.5448 71.0521C78.0868 70.4162 77.1831 70.1965 76.5472 70.7035C76.3593 70.8533 76.2569 71.0443 76.2429 71.2796C76.2413 71.308 76.2548 71.3202 76.2832 71.3161Z" fill="#1D231F"/>
<path id="Vector 10" d="M49 44H57.1849C57.6595 44 58.0687 44.3335 58.1644 44.7983L61.5 61" stroke="#1D231F" stroke-width="2" stroke-linecap="round"/>
<path id="Vector 7" d="M32.5 44.5L28.7325 63.8085C28.612 64.426 29.0848 65 29.714 65H60" stroke="#1D231F" stroke-width="2" stroke-linecap="round"/>
<path id="Vector 8" d="M39 52.5L36.5 60" stroke="#1D231F" stroke-width="2" stroke-linecap="round"/>
<path id="Vector 9" d="M45 52.5H56" stroke="#1D231F" stroke-width="2" stroke-linecap="round"/>
</g>
</g>
</svg>
