<svg width="90" height="80" viewBox="0 0 90 80" fill="none" xmlns="http://www.w3.org/2000/svg">
<g id="location">
<path id="Vector" d="M33.6247 37.8953C33.5671 31.2265 33.5723 24.5809 33.6404 17.9585C33.6457 17.4173 33.7635 16.8891 33.994 16.3737C35.4556 13.1037 39.3451 12.2457 42.4018 13.6294C42.7475 13.784 42.999 13.6887 43.1561 13.3434C43.989 11.4649 45.812 10.1507 47.8943 10.0193C51.2051 9.80798 53.3895 11.3335 54.4477 14.5957C54.5525 14.9255 54.7672 15.0235 55.092 14.8895C59.0366 13.2583 62.5019 15.4229 63.4055 19.2881C63.5705 20.0225 63.4527 20.9115 63.4605 21.6768C63.4657 21.9963 63.6255 22.1149 63.9398 22.0324C67.0751 21.2285 70.9096 22.6122 70.9411 26.1759C71.0196 35.0041 71.0196 43.0464 70.9411 50.3027C70.8075 62.9188 62.2976 69.5516 50.1417 68.9641C36.98 68.3224 30.3402 61.2645 26.0106 50.0785C24.5962 46.4195 22.6867 43.1237 20.2823 40.1913C20.171 40.0574 20.0896 39.9021 20.0436 39.7356C19.9976 39.569 19.9878 39.395 20.0151 39.225C20.2928 37.55 21.3378 36.3544 23.1503 35.638C26.8199 34.1847 30.1752 35.3829 32.9961 38.1582C33.4204 38.5756 33.6299 38.488 33.6247 37.8953ZM44.0912 40.9179C44.0074 40.9076 43.9236 40.9025 43.8398 40.9025C43.5139 40.8964 43.2033 40.7653 42.9742 40.5371C42.7452 40.3089 42.6159 40.0017 42.6139 39.6811C42.572 32.9968 42.5432 26.2172 42.5275 19.3422C42.5197 14.7658 36.6106 14.8199 36.5949 19.1644C36.574 27.6473 36.5975 35.6999 36.6656 43.3221C36.6814 45.4557 35.8118 47.1049 34.0569 48.2696C33.8054 48.4345 33.5383 48.4629 33.2554 48.3546C31.1181 47.512 32.7682 45.6413 33.4204 44.5667C33.5828 44.3039 33.588 44.041 33.4361 43.7782C31.4088 40.199 28.5958 37.0682 24.054 38.4365C23.9412 38.471 23.8384 38.5314 23.7539 38.6127C23.6695 38.694 23.6058 38.7938 23.5683 38.904C23.5307 39.0142 23.5202 39.1315 23.5377 39.2465C23.5552 39.3614 23.6002 39.4706 23.669 39.5651C26.0158 42.7604 27.9121 46.3087 29.358 50.21C33.1611 60.4837 40.7281 66.413 52.4911 65.9183C59.7307 65.609 64.5187 62.5735 66.855 56.8118C67.7875 54.5133 68.2066 50.7743 68.1123 45.5949C67.9918 38.89 67.9735 32.6902 68.0573 26.9954C68.0782 25.7843 67.4863 25.055 66.2814 24.8077C66.0667 24.7664 65.8493 24.7613 65.6292 24.7922C64.1939 24.9932 63.4762 25.8049 63.4762 27.2273V39.4723C63.4762 40.2557 63.0938 40.7556 62.329 40.9721C62.1823 41.0133 62.0356 41.0159 61.889 40.9798C60.9722 40.7633 60.5139 40.1913 60.5139 39.2636L60.506 20.5018C60.506 18.5382 59.5107 17.4895 57.5201 17.3555C57.3262 17.3452 57.135 17.3632 56.9464 17.4096C55.3644 17.8064 54.5734 18.8062 54.5734 20.409L54.5891 37.7948C54.5891 38.7895 54.0889 39.3358 53.0883 39.4337C52.7111 39.4698 52.3497 39.3718 52.0039 39.1399C51.8471 39.0352 51.7191 38.8935 51.6313 38.7276C51.5436 38.5616 51.4988 38.3766 51.501 38.1891C51.5272 31.1131 51.5115 23.6661 51.4539 15.848C51.4434 13.9464 50.4717 13.0367 48.5387 13.1192C48.502 13.1192 48.4627 13.1218 48.4208 13.1269C46.4878 13.2094 45.5187 14.2015 45.5134 16.1032C45.4715 24.5964 45.4899 32.4196 45.5685 39.5728C45.5703 39.7593 45.5324 39.9441 45.4573 40.1153C45.3823 40.2866 45.2716 40.4405 45.1325 40.5671C44.9934 40.6938 44.8289 40.7904 44.6496 40.8509C44.4702 40.9113 44.28 40.9341 44.0912 40.9179Z" fill="#1D231F"/>
</g>
</svg>
