<svg xmlns="http://www.w3.org/2000/svg" width="206" height="39" viewBox="0 0 206 39" fill="none">
<g clip-path="url(#clip0_773_928)">
<path d="M62.884 34.8171V21.1204H66.7973V31.256H72.9413V34.8171H62.884Z" fill="black"/>
<path d="M48.6935 34.8171L52.509 21.1204H59.2204L63.0164 34.8171H59.1226L56.4615 24.525H55.1897L52.5286 34.8171H48.6935ZM51.3741 32.1561L52.2546 29.0058H59.4356L60.3357 32.1561H51.3741Z" fill="black"/>
<path d="M42.835 34.8171V24.6816H38.6869V21.1204H50.9161V24.6816H46.7484V34.8171H42.835Z" fill="black"/>
<path d="M34.5414 34.8171V21.1204H38.4547V34.8171H34.5414Z" fill="black"/>
<path d="M26.6759 35.15C25.2802 35.15 24.0083 34.8369 22.8604 34.2108C21.7125 33.5716 20.8059 32.7107 20.1406 31.628C19.4884 30.5322 19.1623 29.3126 19.1623 27.969C19.1623 26.6254 19.4884 25.4122 20.1406 24.3295C20.8059 23.2338 21.7125 22.3729 22.8604 21.7467C24.0083 21.1076 25.2802 20.788 26.6759 20.788C27.8891 20.788 28.9913 21.0032 29.9827 21.4337C30.9741 21.8511 31.7959 22.4381 32.4481 23.1947C33.1134 23.9513 33.57 24.8187 33.8178 25.7971H29.6501C29.4414 25.4579 29.2001 25.1774 28.9261 24.9557C28.6522 24.7209 28.3261 24.5448 27.9478 24.4274C27.5825 24.31 27.1586 24.2513 26.6759 24.2513C25.9976 24.2513 25.3911 24.4078 24.8562 24.7209C24.3344 25.0209 23.9235 25.4514 23.6235 26.0123C23.3235 26.5602 23.1735 27.1928 23.1735 27.9103C23.1735 28.6538 23.3235 29.3126 23.6235 29.8865C23.9235 30.4474 24.3344 30.8909 24.8562 31.2171C25.3911 31.5301 25.9976 31.6867 26.6759 31.6867C27.3021 31.6867 27.8434 31.5954 28.3 31.4127C28.7696 31.2171 29.1544 30.9366 29.4544 30.5714C29.7544 30.2061 29.9566 29.7626 30.061 29.2408L30.8045 29.9061H26.0302V27.1863H34.0526V28.1451C34.0526 29.4495 33.7395 30.6366 33.1134 31.7062C32.5003 32.7759 31.6329 33.6173 30.511 34.2303C29.4022 34.8434 28.1239 35.15 26.6759 35.15Z" fill="black"/>
<path d="M14.7432 34.8171V21.1204H18.6565V34.8171H14.7432Z" fill="black"/>
<path d="M1.40363 34.8171V21.1204H6.68666C8.18678 21.1204 9.5108 21.4139 10.6587 22.0009C11.8066 22.5749 12.6871 23.3836 13.3002 24.4272C13.9264 25.4577 14.2394 26.6382 14.2394 27.9688C14.2394 29.2993 13.9264 30.4864 13.3002 31.5299C12.6871 32.5604 11.8066 33.3692 10.6587 33.9562C9.5108 34.5302 8.18678 34.8171 6.68666 34.8171H1.40363ZM6.68666 31.3538C7.37802 31.3538 7.99111 31.2169 8.52594 30.9429C9.06076 30.669 9.47819 30.2777 9.77821 29.7689C10.0782 29.2602 10.2282 28.6601 10.2282 27.9688C10.2282 27.2774 10.0782 26.6774 9.77821 26.1686C9.47819 25.6599 9.06076 25.2686 8.52594 24.9946C7.99111 24.7207 7.37802 24.5837 6.68666 24.5837H5.31698V31.3538H6.68666Z" fill="black"/>
<path d="M70.3159 17.0296V3.33283H75.8728L79.571 12.0988H80.0014V3.33283H83.7974V17.0296H78.26L74.5619 8.26366H74.1118V17.0296H70.3159Z" fill="black"/>
<path d="M56.1254 17.0296L59.9409 3.33283H66.6524L70.4483 17.0296H66.5545L63.8934 6.73745H62.6216L59.9605 17.0296H56.1254ZM58.8061 14.3685L59.6866 11.2182H66.8676L67.7677 14.3685H58.8061Z" fill="black"/>
<path d="M39.2229 17.0296V3.33283H45.1908L47.5583 10.6899H48.028L50.4347 3.33283H56.246V17.0296H52.4696V7.55926H52.0196L49.8868 14.0359H45.5821L43.4689 7.55926H43.0189V17.0296H39.2229Z" fill="black"/>
<path d="M27.1459 17.0296V3.33283H33.329C34.4378 3.33283 35.4162 3.54154 36.2641 3.95897C37.125 4.37639 37.7837 4.9634 38.2403 5.71998C38.7099 6.46352 38.9447 7.3375 38.9447 8.34193C38.9447 9.33331 38.7099 10.2073 38.2403 10.9639C37.7837 11.7074 37.125 12.2879 36.2641 12.7053C35.4162 13.1227 34.4378 13.3315 33.329 13.3315H29.1417V10.1029H33.016C33.4204 10.1029 33.7726 10.0312 34.0726 9.88771C34.3726 9.74422 34.6009 9.54203 34.7574 9.28114C34.927 9.0072 35.0118 8.69413 35.0118 8.34193C35.0118 7.79406 34.8292 7.36359 34.4639 7.05052C34.1117 6.72441 33.6291 6.56135 33.016 6.56135H30.9223V11.4335L31.0593 11.5118V17.0296H27.1459Z" fill="black"/>
<path d="M19.0702 17.3619C17.6484 17.3619 16.3569 17.0489 15.196 16.4227C14.0481 15.7966 13.1415 14.9422 12.4762 13.8595C11.824 12.7638 11.4979 11.5376 11.4979 10.1809C11.4979 8.82431 11.824 7.60464 12.4762 6.52195C13.1415 5.42621 14.0481 4.56527 15.196 3.93913C16.3569 3.31299 17.6484 2.99993 19.0702 2.99993C20.4921 2.99993 21.7769 3.31299 22.9249 3.93913C24.0858 4.56527 24.9924 5.42621 25.6447 6.52195C26.3099 7.60464 26.6426 8.82431 26.6426 10.1809C26.6426 11.5376 26.3099 12.7638 25.6447 13.8595C24.9924 14.9422 24.0858 15.7966 22.9249 16.4227C21.7769 17.0489 20.4921 17.3619 19.0702 17.3619ZM19.0702 13.8595C19.7746 13.8595 20.3942 13.7095 20.9291 13.4095C21.4769 13.0964 21.8944 12.6594 22.1813 12.0985C22.4814 11.5376 22.6314 10.8984 22.6314 10.1809C22.6314 9.46349 22.4814 8.82431 22.1813 8.26339C21.8944 7.70248 21.4769 7.27201 20.9291 6.97198C20.3942 6.65891 19.7746 6.50238 19.0702 6.50238C18.3658 6.50238 17.7397 6.65891 17.1918 6.97198C16.657 7.27201 16.2395 7.70248 15.9395 8.26339C15.6525 8.82431 15.5091 9.46349 15.5091 10.1809C15.5091 10.8984 15.6525 11.5376 15.9395 12.0985C16.2395 12.6594 16.657 13.0964 17.1918 13.4095C17.7397 13.7095 18.3658 13.8595 19.0702 13.8595Z" fill="black"/>
<path d="M4.63217 17.0296V6.89399H0.484009V3.33283H12.7133V6.89399H8.54552V17.0296H4.63217Z" fill="black"/>
<path d="M175.229 24.7151H171.195C171.26 25.0777 171.415 25.3612 171.659 25.5656C171.903 25.77 172.207 25.8722 172.569 25.8722C173.143 25.8722 173.555 25.6513 173.805 25.2096H175.121C175.028 25.5327 174.863 25.8293 174.626 26.0996C174.395 26.3634 174.102 26.5743 173.746 26.7326C173.39 26.8908 172.994 26.9699 172.559 26.9699C172.058 26.9699 171.6 26.8545 171.185 26.6238C170.776 26.393 170.45 26.0766 170.206 25.6744C169.968 25.2656 169.85 24.814 169.85 24.3196C169.85 23.8251 169.968 23.3768 170.206 22.9746C170.45 22.5659 170.776 22.2461 171.185 22.0154C171.6 21.7846 172.058 21.6692 172.559 21.6692C173.054 21.6692 173.502 21.7813 173.904 22.0055C174.313 22.2296 174.636 22.5527 174.873 22.9746C175.111 23.39 175.229 23.8745 175.229 24.4283V24.7151ZM172.569 22.7669C172.226 22.7669 171.936 22.8592 171.699 23.0438C171.462 23.2284 171.3 23.4823 171.214 23.8053H173.914C173.835 23.4955 173.677 23.2449 173.439 23.0537C173.209 22.8625 172.919 22.7669 172.569 22.7669Z" fill="black"/>
<path d="M165.866 26.861H163.898V21.7779H165.154L165.144 25.5359H165.371L166.875 21.7779H168.862V26.861H167.587L167.596 23.1031H167.359L165.866 26.861Z" fill="black"/>
<path d="M161.343 23.736V21.7779H162.609V26.861H161.343V24.8733H159.128V26.861H157.852V21.7779H159.128V23.736H161.343Z" fill="black"/>
<path d="M156.851 24.7151H152.816C152.882 25.0777 153.037 25.3612 153.281 25.5656C153.525 25.77 153.828 25.8722 154.19 25.8722C154.764 25.8722 155.176 25.6513 155.427 25.2096H156.742C156.65 25.5327 156.485 25.8293 156.247 26.0996C156.017 26.3634 155.723 26.5743 155.367 26.7326C155.011 26.8908 154.616 26.9699 154.181 26.9699C153.679 26.9699 153.221 26.8545 152.806 26.6238C152.397 26.393 152.071 26.0766 151.827 25.6744C151.59 25.2656 151.471 24.814 151.471 24.3196C151.471 23.8251 151.59 23.3768 151.827 22.9746C152.071 22.5659 152.397 22.2461 152.806 22.0154C153.221 21.7846 153.679 21.6692 154.181 21.6692C154.675 21.6692 155.123 21.7813 155.525 22.0055C155.934 22.2296 156.257 22.5527 156.495 22.9746C156.732 23.39 156.851 23.8745 156.851 24.4283V24.7151ZM154.19 22.7669C153.848 22.7669 153.558 22.8592 153.32 23.0438C153.083 23.2284 152.921 23.4823 152.836 23.8053H155.535C155.456 23.4955 155.298 23.2449 155.061 23.0537C154.83 22.8625 154.54 22.7669 154.19 22.7669Z" fill="black"/>
<path d="M151.341 26.861H149.907L148.621 24.8238H148.018V26.861H146.782V24.8238H146.169L144.883 26.861H143.459L145.2 24.1613L143.597 21.7779H144.992L146.228 23.7064H146.782V21.7779H148.018V23.7064H148.562L149.808 21.7779H151.173L149.59 24.1415L151.341 26.861Z" fill="black"/>
<path d="M139.743 26.861H137.775V21.7779H139.031L139.021 25.5359H139.248L140.751 21.7779H142.739V26.861H141.463L141.473 23.1031H141.236L139.743 26.861Z" fill="black"/>
<path d="M135.851 24.2008C136.095 24.247 136.313 24.3821 136.504 24.6063C136.702 24.8238 136.8 25.0876 136.8 25.3974C136.8 25.826 136.642 26.1787 136.326 26.4556C136.016 26.7259 135.564 26.861 134.971 26.861H132.182V21.7779H134.951C135.492 21.7779 135.904 21.8999 136.187 22.1438C136.471 22.3812 136.613 22.6943 136.613 23.0833C136.613 23.3404 136.54 23.5613 136.395 23.7459C136.25 23.9305 136.069 24.0657 135.851 24.1514V24.2008ZM133.438 22.7866V23.8052H134.704C134.895 23.8052 135.04 23.7624 135.139 23.6767C135.245 23.5844 135.297 23.4591 135.297 23.3009C135.297 23.1427 135.245 23.0174 135.139 22.9251C135.04 22.8328 134.895 22.7866 134.704 22.7866H133.438ZM134.823 25.8523C135.04 25.8523 135.205 25.8029 135.317 25.704C135.436 25.6051 135.495 25.4699 135.495 25.2985C135.495 25.1271 135.436 24.992 135.317 24.8931C135.198 24.7876 135.034 24.7348 134.823 24.7348H133.438V25.8523H134.823Z" fill="black"/>
<path d="M129.766 21.7779L130.834 25.7435H131.447V28.0576H130.241V26.861H126.779V28.0576H125.583V25.7435H126.186L127.264 21.7779H129.766ZM129.538 25.7435L128.797 22.9053H128.213L127.472 25.7435H129.538Z" fill="black"/>
<path d="M122.649 26.9699C122.135 26.9699 121.673 26.8578 121.265 26.6337C120.856 26.4029 120.533 26.0865 120.296 25.6843C120.065 25.2821 119.949 24.8272 119.949 24.3196C119.949 23.8119 120.065 23.357 120.296 22.9548C120.526 22.5527 120.846 22.2395 121.255 22.0154C121.67 21.7846 122.135 21.6692 122.649 21.6692C123.163 21.6692 123.625 21.7846 124.034 22.0154C124.442 22.2395 124.762 22.5527 124.993 22.9548C125.224 23.357 125.339 23.8119 125.339 24.3196C125.339 24.8272 125.224 25.2821 124.993 25.6843C124.762 26.0865 124.442 26.4029 124.034 26.6337C123.625 26.8578 123.163 26.9699 122.649 26.9699ZM122.649 25.8227C123.071 25.8227 123.404 25.6876 123.648 25.4173C123.899 25.147 124.024 24.7811 124.024 24.3196C124.024 23.8581 123.899 23.4922 123.648 23.2219C123.404 22.9515 123.071 22.8164 122.649 22.8164C122.227 22.8164 121.891 22.9515 121.641 23.2219C121.39 23.4922 121.265 23.8581 121.265 24.3196C121.265 24.7811 121.387 25.147 121.631 25.4173C121.881 25.6876 122.221 25.8227 122.649 25.8227Z" fill="black"/>
<path d="M114.007 28.7599V21.778H115.213V22.5098H115.263C115.408 22.2659 115.629 22.0648 115.925 21.9066C116.222 21.7483 116.555 21.6692 116.924 21.6692C117.346 21.6692 117.735 21.7813 118.091 22.0055C118.447 22.223 118.731 22.5329 118.942 22.9351C119.153 23.3372 119.258 23.7987 119.258 24.3196C119.258 24.847 119.153 25.3118 118.942 25.714C118.731 26.1161 118.447 26.426 118.091 26.6435C117.735 26.8611 117.346 26.9699 116.924 26.9699C116.555 26.9699 116.229 26.8941 115.945 26.7424C115.668 26.5908 115.464 26.4128 115.332 26.2084H115.283V28.7599H114.007ZM116.608 25.8524C117.017 25.8524 117.34 25.7173 117.577 25.4469C117.821 25.1766 117.943 24.8008 117.943 24.3196C117.943 23.8383 117.821 23.4658 117.577 23.2021C117.34 22.9318 117.017 22.7966 116.608 22.7966C116.199 22.7966 115.876 22.9318 115.639 23.2021C115.401 23.4658 115.283 23.8383 115.283 24.3196C115.283 24.8008 115.401 25.1766 115.639 25.4469C115.876 25.7173 116.199 25.8524 116.608 25.8524Z" fill="black"/>
<path d="M109.276 26.861H108V21.7779H112.717V26.861H111.451V22.9251H109.276V26.861Z" fill="black"/>
<path d="M170.82 16.9721H168.852V11.889H170.108L170.098 15.647H170.325L171.829 11.889H173.816V16.9721H172.541L172.551 13.2142H172.313L170.82 16.9721Z" fill="black"/>
<path d="M162.197 17.0805C161.775 17.0805 161.386 16.9718 161.03 16.7542C160.674 16.5366 160.391 16.2268 160.18 15.8246C159.969 15.4224 159.863 14.9576 159.863 14.4302C159.863 13.9094 159.969 13.4479 160.18 13.0457C160.391 12.6435 160.674 12.3337 161.03 12.1161C161.386 11.892 161.775 11.7799 162.197 11.7799C162.566 11.7799 162.899 11.859 163.196 12.0172C163.493 12.1755 163.717 12.3765 163.869 12.6205H163.918V11.8887H165.115V16.9718H163.918V16.2498H163.869C163.717 16.4938 163.493 16.6949 163.196 16.8531C162.906 17.0047 162.573 17.0805 162.197 17.0805ZM162.533 15.9631C162.929 15.9631 163.245 15.8279 163.483 15.5576C163.727 15.2873 163.849 14.9115 163.849 14.4302C163.849 13.9555 163.727 13.583 163.483 13.3127C163.245 13.0424 162.929 12.9073 162.533 12.9073C162.118 12.9073 161.788 13.0424 161.545 13.3127C161.301 13.5764 161.179 13.9489 161.179 14.4302C161.179 14.9115 161.301 15.2873 161.545 15.5576C161.788 15.8279 162.118 15.9631 162.533 15.9631Z" fill="black"/>
<path d="M159.784 16.9721H158.311L156.896 14.935H156.095V16.9721H154.82V11.889H156.095V13.7977H156.896L158.261 11.889H159.665L157.915 14.3218L159.784 16.9721Z" fill="black"/>
<path d="M152.413 16.9721H151.147V13.0362H149.485V11.889H154.084V13.0362H152.413V16.9721Z" fill="black"/>
<path d="M146.551 17.0805C146.037 17.0805 145.575 16.9685 145.166 16.7443C144.758 16.5136 144.435 16.1971 144.197 15.7949C143.967 15.3928 143.851 14.9379 143.851 14.4302C143.851 13.9226 143.967 13.4677 144.197 13.0655C144.428 12.6633 144.748 12.3502 145.157 12.126C145.572 11.8953 146.037 11.7799 146.551 11.7799C147.065 11.7799 147.527 11.8953 147.935 12.126C148.344 12.3502 148.664 12.6633 148.895 13.0655C149.125 13.4677 149.241 13.9226 149.241 14.4302C149.241 14.9379 149.125 15.3928 148.895 15.7949C148.664 16.1971 148.344 16.5136 147.935 16.7443C147.527 16.9685 147.065 17.0805 146.551 17.0805ZM146.551 15.9334C146.973 15.9334 147.306 15.7982 147.55 15.5279C147.8 15.2576 147.926 14.8917 147.926 14.4302C147.926 13.9687 147.8 13.6028 147.55 13.3325C147.306 13.0622 146.973 12.927 146.551 12.927C146.129 12.927 145.793 13.0622 145.542 13.3325C145.292 13.6028 145.166 13.9687 145.166 14.4302C145.166 14.8917 145.288 15.2576 145.532 15.5279C145.783 15.7982 146.122 15.9334 146.551 15.9334Z" fill="black"/>
<path d="M140.614 17.0807C140.08 17.0807 139.612 16.9621 139.21 16.7247C138.807 16.4808 138.498 16.138 138.28 15.6962C138.062 15.2545 137.954 14.737 137.954 14.1436V13.659C137.967 12.9206 138.089 12.324 138.32 11.8691C138.557 11.4076 138.88 11.0615 139.289 10.8307C139.704 10.5934 140.215 10.4252 140.822 10.3263L142.75 10L142.73 11.1669L140.851 11.5032C140.489 11.5625 140.195 11.6482 139.971 11.7603C139.753 11.8724 139.582 12.0339 139.457 12.2449C139.332 12.4492 139.243 12.7294 139.19 13.0855H139.239C139.622 12.5844 140.179 12.3339 140.911 12.3339C141.326 12.3339 141.705 12.4361 142.048 12.6404C142.397 12.8448 142.671 13.125 142.869 13.481C143.073 13.837 143.175 14.2392 143.175 14.6875C143.175 15.1424 143.066 15.5512 142.849 15.9138C142.638 16.2764 142.338 16.5632 141.949 16.7742C141.56 16.9785 141.115 17.0807 140.614 17.0807ZM140.594 15.983C140.983 15.983 141.293 15.8677 141.524 15.6369C141.761 15.3996 141.88 15.0798 141.88 14.6776C141.88 14.2755 141.761 13.959 141.524 13.7283C141.286 13.4909 140.97 13.3723 140.574 13.3723C140.179 13.3723 139.866 13.4909 139.635 13.7283C139.404 13.9656 139.289 14.2887 139.289 14.6974C139.289 15.093 139.407 15.4062 139.645 15.6369C139.882 15.8677 140.198 15.983 140.594 15.983Z" fill="black"/>
<path d="M133.92 17.0805C133.498 17.0805 133.109 16.9718 132.753 16.7542C132.397 16.5366 132.114 16.2268 131.903 15.8246C131.692 15.4224 131.586 14.9576 131.586 14.4302C131.586 13.9094 131.692 13.4479 131.903 13.0457C132.114 12.6435 132.397 12.3337 132.753 12.1161C133.109 11.892 133.498 11.7799 133.92 11.7799C134.29 11.7799 134.623 11.859 134.919 12.0172C135.216 12.1755 135.44 12.3765 135.592 12.6205H135.641V11.8887H136.838V16.9718H135.641V16.2498H135.592C135.44 16.4938 135.216 16.6949 134.919 16.8531C134.629 17.0047 134.296 17.0805 133.92 17.0805ZM134.257 15.9631C134.652 15.9631 134.969 15.8279 135.206 15.5576C135.45 15.2873 135.572 14.9115 135.572 14.4302C135.572 13.9555 135.45 13.583 135.206 13.3127C134.969 13.0424 134.652 12.9073 134.257 12.9073C133.841 12.9073 133.512 13.0424 133.268 13.3127C133.024 13.5764 132.902 13.9489 132.902 14.4302C132.902 14.9115 133.024 15.2873 133.268 15.5576C133.512 15.8279 133.841 15.9631 134.257 15.9631Z" fill="black"/>
<path d="M125.644 18.8705V11.8887H126.851V12.6205H126.9C127.045 12.3765 127.266 12.1755 127.563 12.0172C127.86 11.859 128.193 11.7799 128.562 11.7799C128.984 11.7799 129.373 11.892 129.729 12.1161C130.085 12.3337 130.368 12.6435 130.579 13.0457C130.79 13.4479 130.896 13.9094 130.896 14.4302C130.896 14.9576 130.79 15.4224 130.579 15.8246C130.368 16.2268 130.085 16.5366 129.729 16.7542C129.373 16.9718 128.984 17.0805 128.562 17.0805C128.193 17.0805 127.866 17.0047 127.583 16.8531C127.306 16.7015 127.101 16.5234 126.97 16.3191H126.92V18.8705H125.644ZM128.245 15.9631C128.654 15.9631 128.977 15.8279 129.214 15.5576C129.458 15.2873 129.58 14.9115 129.58 14.4302C129.58 13.9489 129.458 13.5764 129.214 13.3127C128.977 13.0424 128.654 12.9073 128.245 12.9073C127.837 12.9073 127.513 13.0424 127.276 13.3127C127.039 13.5764 126.92 13.9489 126.92 14.4302C126.92 14.9115 127.039 15.2873 127.276 15.5576C127.513 15.8279 127.837 15.9631 128.245 15.9631Z" fill="black"/>
<path d="M122.416 17.0805C121.902 17.0805 121.467 17.0014 121.111 16.8432C120.761 16.685 120.497 16.474 120.319 16.2103C120.148 15.9466 120.059 15.6565 120.052 15.34H121.328C121.394 15.8015 121.753 16.0323 122.406 16.0323C122.742 16.0323 122.986 15.9762 123.138 15.8642C123.289 15.7455 123.365 15.5972 123.365 15.4191C123.365 15.2411 123.293 15.1027 123.148 15.0038C123.003 14.9049 122.782 14.8555 122.485 14.8555H121.842V13.9061H122.475C122.746 13.9061 122.943 13.8599 123.069 13.7676C123.194 13.6687 123.257 13.5369 123.257 13.3721C123.257 13.016 122.97 12.838 122.396 12.838C122.099 12.838 121.882 12.8875 121.743 12.9864C121.605 13.0853 121.516 13.227 121.476 13.4116H120.201C120.207 13.1347 120.29 12.8743 120.448 12.6304C120.606 12.3798 120.85 12.1755 121.18 12.0172C121.509 11.859 121.925 11.7799 122.426 11.7799C122.9 11.7799 123.299 11.8458 123.622 11.9777C123.945 12.1029 124.183 12.271 124.334 12.482C124.493 12.693 124.572 12.927 124.572 13.1842C124.572 13.4808 124.493 13.7182 124.334 13.8962C124.176 14.0742 123.982 14.2061 123.751 14.2918V14.3412C123.975 14.3874 124.186 14.5126 124.384 14.717C124.582 14.9148 124.681 15.1785 124.681 15.5081C124.681 15.7982 124.598 16.0619 124.433 16.2993C124.269 16.5366 124.015 16.7278 123.672 16.8729C123.336 17.0113 122.917 17.0805 122.416 17.0805Z" fill="black"/>
<path d="M116.266 17.0805C115.844 17.0805 115.455 16.9718 115.099 16.7542C114.743 16.5366 114.46 16.2268 114.249 15.8246C114.038 15.4224 113.932 14.9576 113.932 14.4302C113.932 13.9094 114.038 13.4479 114.249 13.0457C114.46 12.6435 114.743 12.3337 115.099 12.1161C115.455 11.892 115.844 11.7799 116.266 11.7799C116.635 11.7799 116.968 11.859 117.265 12.0172C117.562 12.1755 117.786 12.3765 117.937 12.6205H117.987V11.8887H119.184V16.9718H117.987V16.2498H117.937C117.786 16.4938 117.562 16.6949 117.265 16.8531C116.975 17.0047 116.642 17.0805 116.266 17.0805ZM116.602 15.9631C116.998 15.9631 117.314 15.8279 117.552 15.5576C117.796 15.2873 117.918 14.9115 117.918 14.4302C117.918 13.9555 117.796 13.583 117.552 13.3127C117.314 13.0424 116.998 12.9073 116.602 12.9073C116.187 12.9073 115.857 13.0424 115.613 13.3127C115.37 13.5764 115.248 13.9489 115.248 14.4302C115.248 14.9115 115.37 15.2873 115.613 15.5576C115.857 15.8279 116.187 15.9631 116.602 15.9631Z" fill="black"/>
<path d="M110.918 10.0494C111.452 10.0494 111.92 10.1516 112.322 10.3559C112.731 10.5537 113.047 10.8339 113.271 11.1965C113.496 11.5591 113.608 11.9745 113.608 12.4426C113.608 12.9107 113.496 13.326 113.271 13.6886C113.047 14.0512 112.731 14.3347 112.322 14.5391C111.92 14.7369 111.452 14.8358 110.918 14.8358H109.533V16.9719H108.149V10.0494H110.918ZM110.878 13.5601C111.3 13.5601 111.623 13.4645 111.847 13.2733C112.072 13.0755 112.184 12.7986 112.184 12.4426C112.184 12.0866 112.068 11.8097 111.838 11.6119C111.613 11.4141 111.294 11.3152 110.878 11.3152H109.514V13.5601H110.878Z" fill="black"/>
<path d="M95 1H204.987C204.457 21.5246 187.652 38 167 38H95V1Z" stroke="black" stroke-width="2"/>
</g>
<defs>
<clipPath id="clip0_773_928">
<rect width="206" height="39" fill="white"/>
</clipPath>
</defs>
</svg>