<svg width="150" height="150" viewBox="0 0 150 150" fill="none" xmlns="http://www.w3.org/2000/svg">
<g id="Group 6">
<circle id="Ellipse 1" cx="75" cy="75" r="75" fill="#F9F9F9"/>
<g id="Group 3">
<path id="Vector" d="M52.0398 48.2433C59.5737 40.7936 67.0857 33.3658 74.5352 26C74.5352 26 78.7733 30.1964 84.3969 35.7644C90.0205 41.3325 97.0296 48.2723 97.0296 48.2723C97.0011 48.3852 97.0032 48.4479 96.9733 48.4848C95.7495 49.9902 95.5828 50.004 94.1922 48.6235C91.8897 46.3375 89.5985 44.041 87.2975 41.7539C87.0613 41.5195 86.7904 41.3195 86.4016 40.9895V53.7718C85.1706 52.5143 83.6816 51.875 83.7765 49.8534C83.9277 46.6419 83.78 43.4178 83.8137 40.1995C83.8273 38.8818 83.4162 37.8452 82.4549 36.9119C80.0319 34.5579 77.664 32.1461 75.3107 29.7216C74.7465 29.1406 74.3675 29.1503 73.817 29.715C71.3458 32.249 68.8586 34.7682 66.3479 37.2635C65.6286 37.9787 65.3234 38.799 65.3234 39.7852C65.3237 43.1379 65.2725 46.4914 65.3257 49.8429C65.3431 50.9249 65.0984 51.77 64.2222 52.4317C63.7571 52.7831 63.3485 53.2099 62.768 53.7355V40.9367C62.2839 41.3651 61.9627 41.6219 61.6726 41.9104C59.3916 44.1783 57.1184 46.4539 54.8394 48.7236C53.5525 50.0055 53.1349 49.9469 52.0398 48.2433Z" fill="#1D231F"/>
<path id="Vector_2" d="M95.7681 71.9807C95.8233 72.0946 95.8428 72.1178 95.846 72.1429C96.1137 74.3758 96.0086 74.4658 93.7801 74.4565C88.7886 74.4362 83.7965 74.4467 78.805 74.4417C78.5152 74.4415 78.2257 74.4162 77.8053 74.3961C77.8053 73.2005 77.8027 72.0574 77.8058 70.9142C77.8116 68.6614 77.8877 66.4061 77.7951 64.1573C77.7581 63.2594 77.5239 62.2756 77.0731 61.5109C76.4288 60.4176 74.8844 60.0962 73.5268 60.4995C72.3151 60.8596 71.471 61.8104 71.4274 63.1546C71.3464 65.6458 71.3702 68.141 71.3589 70.6342C71.3551 71.4923 71.3829 72.3505 71.3836 73.2086C71.3844 74.4457 71.3797 74.4536 70.164 74.4539C65.3867 74.4544 60.6098 74.4499 55.8325 74.4473C55.269 74.447 54.7059 74.4496 54.1425 74.4423C53.5092 74.4344 53.2196 74.1109 53.2449 73.4756C53.2638 73.0006 53.2486 72.524 53.2486 71.9729C53.8352 71.9357 54.3106 71.8792 54.7861 71.88C58.9729 71.8856 63.1594 71.9027 67.3462 71.9131C68.6782 71.9164 68.8066 71.7607 68.8296 70.4412C68.8755 67.8171 68.7576 65.1716 69.0607 62.5759C69.417 59.5258 71.5032 57.8153 74.4713 57.8252C77.6165 57.8356 79.7735 59.4881 80.1033 62.5193C80.3604 64.8814 80.342 67.2796 80.3359 69.6616C80.3304 71.9241 80.2707 71.9167 82.4857 71.9067C86.511 71.8888 90.5368 71.8809 94.5627 71.8792C94.9818 71.8789 95.401 71.9483 95.7681 71.9807Z" fill="#1D231F"/>
<path id="Vector_3" d="M62.9129 65.4096C62.9293 62.7483 63.0219 60.1252 64.4172 57.7055C66.7685 53.6271 71.3941 51.293 76.1807 51.8905C80.7758 52.4637 84.8325 55.9427 85.9235 60.443C86.2792 61.9094 86.2664 63.4707 86.364 64.9923C86.4204 65.8725 86.3544 66.7603 86.3558 67.6447C86.3566 68.1506 86.1796 68.4437 85.6197 68.4792C83.8829 68.5891 83.8189 68.5293 83.7928 66.7732C83.7731 65.4333 83.745 64.0929 83.6785 62.7548C83.4464 58.1106 79.4403 54.368 74.6699 54.3193C69.9619 54.2711 65.8653 58.0208 65.5904 62.6686C65.4968 64.2461 65.4971 65.8292 65.4533 67.41C65.4266 68.3714 65.3171 68.475 64.3753 68.4611C64.134 68.4574 63.8928 68.4719 63.6515 68.4727C63.1638 68.4745 62.9042 68.2536 62.9103 67.742C62.9199 66.9646 62.9129 66.187 62.9129 65.4096Z" fill="#587410"/>
<path id="Vector_4" d="M74.5056 45.959C75.2829 45.959 76.0603 45.9703 76.8368 45.9553C77.3825 45.9445 77.7795 45.7333 77.7644 45.1017C77.7347 43.8974 77.7582 42.6884 77.6534 41.4907C77.5149 39.9073 76.2375 38.9749 74.3801 38.9946C72.6595 39.0129 71.4246 39.9947 71.3026 41.5322C71.2117 42.6779 71.2384 43.8327 71.1961 44.9828C71.1702 45.6767 71.5337 45.9538 72.1747 45.9584C72.9515 45.9637 73.7285 45.9596 74.5056 45.959ZM80.2756 49.2756C75.9898 48.2613 74.9134 47.8027 68.857 49.2227C68.8238 49.1862 68.7597 49.1484 68.7597 49.1107C68.7615 46.5118 68.6716 43.9084 68.8018 41.3159C68.9307 38.754 70.9031 36.8402 73.4896 36.4883C76.3501 36.0995 78.9875 37.471 79.892 39.8426C80.0329 40.212 80.1168 40.6207 80.1371 41.0156C80.2051 42.3532 80.2501 43.6922 80.271 45.0316C80.2924 46.4193 80.2756 47.8079 80.2756 49.2756Z" fill="#587410"/>
<path id="Vector_5" d="M59.3394 49.4801V53.8944C59.3394 58.4545 59.3229 63.0146 59.356 67.5744C59.3613 68.2911 59.135 68.4929 58.4479 68.503C57.2111 68.5217 56.9466 68.4487 56.9036 67.6365C56.8377 66.3787 56.841 65.1171 56.8368 63.857C56.8247 60.3701 56.8508 56.8831 56.8041 53.3968C56.7875 52.182 57.1011 51.2036 58.0942 50.447C58.4866 50.1481 58.7755 49.7126 59.1112 49.3394C59.1873 49.3863 59.263 49.4331 59.3394 49.4801Z" fill="#1D231F"/>
<path id="Vector_6" d="M89.9007 68.4707V49.3984C91.2684 50.0816 92.3026 51.6897 92.3042 53.096C92.311 57.782 92.3192 62.4677 92.3221 67.1537C92.3229 68.4428 92.2994 68.4596 91.0242 68.4704C90.681 68.473 90.3375 68.4707 89.9007 68.4707Z" fill="#1D231F"/>
</g>
<g id="Group 1">
<path id="Vector_7" d="M54.2546 89.4998C55.3092 89.4998 56.3897 89.4626 57.4664 89.5127C58.1882 89.5462 58.3663 89.2405 58.3507 88.583C58.3178 87.1996 58.3435 85.8143 58.3435 84.4297C58.3432 82.1707 58.3425 82.1707 56.0698 82.2451C56.037 82.2461 56.0039 82.2471 55.971 82.2444C55.4516 82.2003 55.2198 82.4 55.1515 82.9572C54.892 85.0752 54.5767 87.1866 54.2546 89.4998ZM59.7537 91.6236C59.466 91.5911 59.243 91.5442 59.0196 91.5436C56.8454 91.5381 54.6707 91.5403 52.4142 91.5403C52.3384 92.2743 52.2413 92.9205 52.2117 93.5702C52.1769 94.3237 51.6644 94.2576 51.1598 94.2609C50.6724 94.2633 50.2358 94.2758 50.2247 93.5755C50.2089 92.5533 50.0893 91.5316 50.0918 90.5102C50.0925 90.2054 50.3177 89.6639 50.5031 89.6349C51.8792 89.4211 52.0785 88.3244 52.2611 87.3075C52.5688 85.5882 52.7643 83.8484 52.9793 82.1138C53.203 80.3104 53.3244 80.1776 55.1102 80.172C56.5969 80.1669 58.0837 80.197 59.5704 80.1788C60.4133 80.1684 60.755 80.5414 60.7479 81.3766C60.7257 83.7866 60.7465 86.1973 60.7358 88.6077C60.7339 89.1125 60.7647 89.4815 61.4211 89.5784C61.6598 89.6138 61.9984 90.0927 62.0049 90.376C62.0284 91.3961 61.9003 92.4191 61.887 93.4416C61.8775 94.1946 61.4436 94.2558 60.8484 94.2747C60.2075 94.2947 59.8418 94.1439 59.8564 93.4166C59.8685 92.8315 59.793 92.245 59.7537 91.6236Z" fill="#1D231F"/>
<path id="Vector_8" d="M88.8279 82.2579V84.4697C89.6387 84.4697 90.3576 84.4847 91.0765 84.4651C91.7596 84.4466 92.2077 84.1117 92.2451 83.3975C92.2826 82.6624 91.8312 82.3079 91.1583 82.2679C90.4121 82.2235 89.6609 82.2579 88.8279 82.2579ZM88.8074 89.3742C89.7733 89.3742 90.6592 89.4307 91.5365 89.357C92.2894 89.2933 92.7034 88.7734 92.734 88.0178C92.7664 87.2393 92.4427 86.6994 91.6302 86.496C89.2452 85.8982 88.649 86.3586 88.7444 88.7553C88.7512 88.9157 88.7768 89.0756 88.8074 89.3742ZM93.6233 85.2757C95.1445 86.5174 95.5755 87.696 95.0645 89.2072C94.5892 90.6125 93.2008 91.5034 91.3883 91.5314C90.1021 91.5509 88.8142 91.5128 87.5281 91.5428C86.707 91.562 86.3203 91.2721 86.3288 90.3972C86.3578 87.3634 86.3527 84.3288 86.3339 81.2946C86.3288 80.5084 86.6303 80.1347 87.4378 80.1519C88.8892 80.1819 90.3423 80.1494 91.792 80.2016C93.0134 80.2456 94.0935 80.6477 94.5585 81.9005C95.0168 83.1384 94.734 84.2326 93.6965 85.0971C93.6522 85.1335 93.6471 85.2147 93.6233 85.2757Z" fill="#1D231F"/>
<path id="Vector_9" d="M76.5233 85.7475C76.6306 86.4847 76.6732 87.0806 76.8078 87.6553C77.0974 88.9044 77.8487 89.5267 79.0105 89.5486C80.2097 89.5711 81.1518 88.9587 81.3358 87.6951C81.5146 86.4775 81.4976 85.2 81.3494 83.9742C81.2165 82.8658 80.3937 82.2491 79.4057 82.1719C78.2643 82.0825 77.4006 82.565 76.9986 83.6651C76.7431 84.3665 76.6596 85.1309 76.5233 85.7475ZM84.1909 85.8706C84.1193 86.4815 84.0869 87.0094 83.9898 87.5252C83.3459 90.984 80.2643 92.6796 76.9748 91.3982C75.8692 90.9678 75.0702 90.1998 74.6478 89.105C73.8301 86.9915 73.7773 84.848 74.6818 82.7505C75.5642 80.703 77.3751 79.795 79.8861 80.0387C81.9252 80.2365 83.4447 81.5981 83.8979 83.6988C84.058 84.4356 84.104 85.1968 84.1909 85.8706Z" fill="#1D231F"/>
<path id="Vector_10" d="M39.3365 91.3542C39.1801 91.4423 39.1535 91.4676 39.1242 91.4719C37.0219 91.7746 36.9998 91.7603 36.426 89.7376C36.3362 89.4199 36.2465 89.1024 36.1555 88.7851C35.4998 86.4888 35.0324 86.1859 32.4899 86.5099V91.4612H30.1099C30.0799 91.2574 30.0283 91.0686 30.0279 90.8796C30.0222 87.6115 30.0552 84.3427 30.0003 81.0758C29.985 80.144 30.4853 80.1347 31.117 80.1827C31.7051 80.227 32.5156 79.8883 32.452 81.0446C32.3887 82.1896 32.4381 83.3413 32.4381 84.4622C34.6348 84.8714 35.3015 84.4761 35.8317 82.5518C35.9013 82.2975 35.9676 82.0421 36.0352 81.7871C36.5316 79.9219 36.6637 79.8436 38.7725 80.2864C38.199 82.0397 38.291 84.0108 36.7528 85.3881C38.897 86.889 38.4239 89.4107 39.3365 91.3542Z" fill="#1D231F"/>
<path id="Vector_11" d="M101.536 86.3489V86.3271C101.172 86.3271 100.809 86.3396 100.446 86.3243C99.8496 86.2989 99.7696 86.7124 99.8718 87.1101C100.068 87.8669 99.2806 88.9525 100.345 89.3492C101.035 89.6063 101.921 89.4507 102.698 89.3395C103.538 89.2193 103.911 88.5994 103.875 87.7642C103.841 86.9652 103.432 86.4604 102.623 86.3564C102.267 86.311 101.899 86.3489 101.536 86.3489ZM99.8564 84.3588C101.068 84.3588 102.127 84.2794 103.17 84.3749C105.337 84.5738 106.427 85.8428 106.401 87.987C106.376 89.8313 104.96 91.3782 103.032 91.497C101.485 91.5925 99.928 91.5249 98.3744 91.5285C97.7662 91.5299 97.4647 91.2333 97.4647 90.617C97.4664 87.3473 97.4494 84.077 97.4868 80.8074C97.4902 80.5878 97.8667 80.2145 98.1086 80.1804C99.7355 79.9513 99.8564 80.0771 99.8564 81.6842C99.8564 82.5039 99.8564 83.3233 99.8564 84.3588Z" fill="#1D231F"/>
<path id="Vector_12" d="M49.1287 91.4878C47.1037 91.4878 45.1571 91.5668 43.2212 91.4585C42.02 91.3912 41.178 90.4533 41.1303 89.1808C41.0484 86.971 41.053 84.7538 41.1293 82.5437C41.1741 81.2582 42.1097 80.3172 43.428 80.2296C45.0736 80.1201 46.7308 80.1598 48.382 80.1746C49.3469 80.1831 48.9225 80.9599 48.9987 81.4361C49.0811 81.9489 48.8939 82.2405 48.2994 82.2257C47.1427 82.1967 45.9848 82.2058 44.8278 82.2191C43.6978 82.2318 43.0284 83.2509 43.5229 84.2562C43.612 84.4377 44 84.5535 44.2534 84.5589C45.6022 84.5882 46.9522 84.5729 48.3839 84.5729V86.5489C47.0432 86.5489 45.6996 86.5816 44.3586 86.5355C43.6646 86.5118 43.3772 86.7425 43.4646 87.4364C43.4932 87.6642 43.481 87.8991 43.4674 88.1295C43.4123 89.0417 43.8103 89.4761 44.7504 89.4494C45.8073 89.4189 46.8664 89.4436 47.9243 89.4472C49.2155 89.4514 49.2174 89.4526 49.1888 90.7756C49.1845 90.9709 49.1566 91.1655 49.1287 91.4878Z" fill="#1D231F"/>
<path id="Vector_13" d="M115.026 84.5566H119.815V86.5485C118.498 86.5485 117.214 86.5994 115.938 86.5306C115.084 86.4845 114.801 86.8003 114.91 87.6027C114.946 87.8626 114.916 88.1309 114.919 88.3951C114.927 89.0751 115.248 89.436 115.953 89.4335C117.077 89.4299 118.203 89.4439 119.328 89.4457C120.679 89.4478 120.68 89.4454 120.629 90.8349C120.622 91.027 120.59 91.218 120.561 91.4759C118.546 91.4759 116.57 91.5592 114.604 91.4444C113.439 91.3762 112.611 90.4301 112.573 89.2232C112.502 86.9789 112.507 84.7287 112.582 82.4842C112.623 81.2795 113.512 80.3386 114.73 80.2502C116.44 80.1265 118.164 80.168 119.883 80.1888C120.07 80.1908 120.377 80.4981 120.414 80.7038C120.496 81.1437 120.44 81.6102 120.44 82.2185C119.195 82.2185 118.052 82.2178 116.909 82.2188C114.956 82.2203 114.742 82.4689 115.026 84.5566Z" fill="#1D231F"/>
<path id="Vector_14" d="M66.3165 85.4047C67.2204 85.4047 68.0364 85.4573 68.8439 85.3901C69.6547 85.3225 70.0329 84.7494 70.084 83.9794C70.1385 83.161 69.7978 82.4915 68.9665 82.3726C68.113 82.2507 67.2272 82.3456 66.3165 82.3456V85.4047ZM66.2743 91.4927H63.9697C63.9333 91.1718 63.8728 90.8883 63.8725 90.6042C63.8663 87.5655 63.8936 84.5266 63.8566 81.4882C63.8449 80.52 64.1691 80.1022 65.1745 80.149C66.5594 80.213 67.9529 80.1182 69.3345 80.2098C71.2697 80.3378 72.5405 81.6841 72.6103 83.5323C72.6836 85.5103 71.4894 87.0018 69.5627 87.3111C69.1726 87.3738 68.7723 87.3738 68.3771 87.377C66.2749 87.393 66.2749 87.3901 66.2743 89.5362V91.4927Z" fill="#1D231F"/>
<path id="Vector_15" d="M109.866 91.4681C107.544 91.7027 107.548 91.7027 107.551 89.5201C107.555 86.6799 107.582 83.8389 107.538 80.9993C107.521 79.9993 108.168 80.1627 108.727 80.1917C109.239 80.2181 109.986 79.8827 109.977 80.9282C109.952 84.3297 109.963 87.7315 109.957 91.1329C109.957 91.2252 109.909 91.3171 109.866 91.4681Z" fill="#1D231F"/>
</g>
<g id="Group 2">
<path id="Vector_16" d="M81.612 107.058C82.6227 107.058 83.5082 107.119 84.3804 107.04C85.1827 106.966 85.5763 106.381 85.6103 105.607C85.6444 104.829 85.285 104.185 84.501 104.085C83.5768 103.968 82.6266 104.058 81.6628 104.058C81.6416 104.426 81.6162 104.685 81.6137 104.945C81.6077 105.599 81.612 106.253 81.612 107.058ZM86.7704 97.8847V99.8793C85.5848 99.8793 84.4402 99.8779 83.2952 99.8798C81.4105 99.8818 81.4105 99.8829 81.7304 102.023C82.6789 102.023 83.663 101.972 84.6409 102.033C87.2287 102.194 88.6358 104.082 88.0276 106.515C87.6597 107.979 86.319 109.102 84.6952 109.174C83.1763 109.24 81.6524 109.182 80.131 109.206C79.433 109.218 79.1671 108.829 79.1657 108.227C79.1582 105.119 79.1485 102.011 79.209 98.9046C79.2158 98.5602 79.6536 97.938 79.9076 97.9293C82.176 97.8523 84.4483 97.8847 86.7704 97.8847Z" fill="#1D231F"/>
<path id="Vector_17" d="M61.3299 103.059C62.2798 103.059 63.0968 103.101 63.9078 103.047C64.6376 102.998 64.9923 102.485 65.1074 101.804C65.2296 101.079 65.0255 100.353 64.3248 100.176C63.4547 99.957 62.4937 99.9243 61.612 100.063C61.4287 100.092 61.4018 101.222 61.3367 101.848C61.2994 102.204 61.3299 102.568 61.3299 103.059ZM61.3266 105.031C61.3266 106.212 61.2762 107.261 61.3399 108.303C61.4144 109.518 60.5582 109.147 59.9379 109.208C59.2516 109.274 58.8504 109.152 58.8664 108.273C58.9216 105.237 58.8823 102.199 58.8937 99.1625C58.8983 97.9997 59.0618 97.8424 60.2146 97.8313C61.4697 97.8194 62.7254 97.806 63.9797 97.8398C66.2152 97.901 67.6034 99.2365 67.6229 101.301C67.6431 103.467 66.3248 104.885 64.1058 105.022C63.2261 105.076 62.3402 105.031 61.3266 105.031Z" fill="#1D231F"/>
<path id="Vector_18" d="M92.5284 107.04C93.5028 107.04 94.4227 107.119 95.3221 107.016C96.104 106.927 96.4959 106.31 96.5044 105.542C96.5112 104.83 96.2114 104.171 95.4516 104.086C94.4976 103.979 93.5232 104.06 92.5284 104.06V107.04ZM92.4687 101.986C93.4602 101.986 94.3136 101.968 95.1671 101.989C97.6815 102.054 98.9932 103.28 98.9966 105.546C99 107.705 97.4294 109.17 95.0479 109.202C93.7259 109.22 92.4023 109.183 91.0804 109.21C90.3513 109.225 90.0497 108.873 90.048 108.198C90.0463 104.959 90.0378 101.72 90.0787 98.4813C90.0821 98.264 90.4432 97.9583 90.7022 97.8618C90.9918 97.7533 91.3546 97.8568 91.6834 97.8292C92.2967 97.7777 92.4926 98.0616 92.4756 98.6461C92.4466 99.727 92.4687 100.809 92.4687 101.986Z" fill="#1D231F"/>
<path id="Vector_19" d="M68.1828 97.7806C69.0182 97.7806 69.6541 97.7004 70.2533 97.8147C70.551 97.8712 70.9031 98.2364 71.0221 98.5428C71.711 100.323 72.3384 102.128 73.0877 104.205C73.3583 103.428 73.5538 102.898 73.7269 102.361C74.1027 101.198 74.523 100.045 74.8175 98.8618C75.035 97.9876 75.4872 97.6558 76.359 97.7653C76.7674 97.8164 77.188 97.7738 77.7641 97.7738C77.4793 98.6032 77.266 99.25 77.035 99.8901C76.1403 102.377 75.2548 104.866 74.3368 107.344C73.6349 109.238 71.667 110.093 69.8173 109.307C69.6259 109.225 69.4405 108.876 69.4412 108.652C69.4426 108.272 69.5943 107.892 69.6906 107.481C70.8086 107.417 72.1995 107.905 72.3225 106.534C71.6966 105.643 71.1462 105.078 70.8538 104.401C69.9386 102.286 69.1213 100.129 68.1828 97.7806Z" fill="#1D231F"/>
<path id="Vector_20" d="M48 103.67C48.0583 100.556 49.5236 98.2495 52.0873 97.8537C53.3681 97.6562 54.7439 98.0139 56.0674 98.1881C56.4701 98.241 56.8486 98.5698 56.5072 99.0461C56.1958 99.4804 56.3759 100.466 55.3492 100.168C55.2858 100.149 55.226 100.118 55.1626 100.101C53.139 99.5652 52.0307 99.8252 51.2421 101.019C50.3972 102.299 50.3471 105.163 51.2941 106.209C51.7193 106.678 52.4336 107.075 53.0514 107.132C53.8742 107.21 54.7543 107.003 55.566 106.768C56.1294 106.604 56.392 106.673 56.6547 107.193C57.2234 108.321 57.199 108.653 55.9415 108.929C54.6415 109.214 53.2557 109.374 51.9384 109.252C49.9931 109.072 48.8063 107.799 48.3433 105.915C48.1632 105.183 48.1109 104.42 48 103.67Z" fill="#1D231F"/>
<path id="Vector_21" d="M100.199 97.9204H102.484C102.513 98.1923 102.567 98.472 102.567 98.7524C102.574 101.915 102.533 105.078 102.598 108.24C102.618 109.282 102.058 109.217 101.361 109.211C100.678 109.205 100.099 109.304 100.121 108.247C100.187 105.086 100.146 101.922 100.152 98.7599C100.152 98.5033 100.179 98.2473 100.199 97.9204Z" fill="#1D231F"/>
</g>
</g>
</svg>
