<svg width="16" height="16" viewBox="0 0 16 16" fill="none" xmlns="http://www.w3.org/2000/svg">
<g id="fa-brands:telegram" clip-path="url(#clip0_245_13302)">
<path id="Vector" d="M8.3372 0.666626C4.10057 0.666626 0.667969 4.10405 0.667969 8.34663C0.667969 12.5892 4.10057 16.0266 8.3372 16.0266C12.5738 16.0266 16.0064 12.5892 16.0064 8.34663C16.0064 4.10405 12.5738 0.666626 8.3372 0.666626ZM12.1038 5.92805L10.8452 11.8677C10.7524 12.2888 10.5019 12.391 10.1525 12.1928L8.23515 10.7776L7.31051 11.6695C7.20846 11.7717 7.12187 11.8584 6.92396 11.8584L7.06002 9.9043L10.6132 6.68985C10.7678 6.55359 10.5792 6.47617 10.3751 6.61243L5.98386 9.38095L4.09129 8.78946C3.68 8.6594 3.67072 8.37759 4.17788 8.1794L11.5719 5.32417C11.9151 5.2003 12.2151 5.40779 12.1038 5.92805Z" fill="#1D231F"/>
</g>
<defs>
<clipPath id="clip0_245_13302">
<rect width="16" height="16" fill="white"/>
</clipPath>
</defs>
</svg>
