<svg width="44" height="53" viewBox="0 0 44 53" fill="none" xmlns="http://www.w3.org/2000/svg">
<g clip-path="url(#clip0_245_13359)">
<path fill-rule="evenodd" clip-rule="evenodd" d="M21.8857 0C27.6901 0 33.2568 2.31463 37.3612 6.4347C39.3935 8.47475 41.0056 10.8966 42.1054 13.5621C43.2053 16.2276 43.7714 19.0844 43.7714 21.9694C43.7714 24.8545 43.2053 27.7113 42.1054 30.3768C41.0056 33.0422 39.3935 35.4641 37.3612 37.5042L23.6484 51.2695C23.1809 51.7387 22.5468 52.0022 21.8857 52.0022C21.2246 52.0022 20.5905 51.7387 20.123 51.2695L6.41017 37.5042C2.30581 33.3841 0 27.7961 0 21.9694C0 16.1428 2.30581 10.5548 6.41017 6.4347C10.5145 2.31463 16.0812 0 21.8857 0Z" fill="#587410"/>
<path d="M10 18.9378C14.019 14.984 18.0263 11.0419 22.0003 7.13257C22.0003 7.13257 24.2611 9.35971 27.261 12.3148C30.261 15.27 34 18.9532 34 18.9532C33.9848 19.0131 33.9859 19.0464 33.97 19.066C33.3172 19.8649 33.2282 19.8723 32.4864 19.1396C31.2581 17.9263 30.0359 16.7075 28.8084 15.4937C28.6824 15.3693 28.5379 15.2631 28.3305 15.088V21.872C27.6738 21.2046 26.8795 20.8653 26.9301 19.7924C27.0108 18.0879 26.932 16.3767 26.9499 14.6687C26.9572 13.9694 26.7379 13.4192 26.2251 12.9238C24.9325 11.6745 23.6694 10.3945 22.414 9.10774C22.113 8.79939 21.9108 8.80452 21.6171 9.10422C20.2989 10.4491 18.9721 11.7861 17.6327 13.1105C17.249 13.49 17.0862 13.9254 17.0862 14.4488C17.0863 16.2282 17.0591 18.008 17.0874 19.7868C17.0967 20.361 16.9662 20.8096 16.4988 21.1607C16.2506 21.3472 16.0327 21.5738 15.723 21.8527V15.06C15.4648 15.2873 15.2934 15.4236 15.1387 15.5768C13.9218 16.7804 12.7092 17.9881 11.4935 19.1927C10.8069 19.8731 10.5842 19.842 10 18.9378Z" fill="white"/>
<path d="M33.3218 31.5358C33.3512 31.5962 33.3616 31.6085 33.3633 31.6218C33.5061 32.8069 33.45 32.8547 32.2612 32.8497C29.5985 32.839 26.9354 32.8445 24.2727 32.8419C24.1181 32.8417 23.9637 32.8283 23.7394 32.8177C23.7394 32.1831 23.738 31.5765 23.7397 30.9697C23.7428 29.7741 23.7833 28.5771 23.7339 27.3836C23.7142 26.9071 23.5893 26.3849 23.3488 25.9791C23.0051 25.3988 22.1812 25.2282 21.457 25.4423C20.8106 25.6334 20.3603 26.138 20.3371 26.8514C20.2939 28.1736 20.3066 29.4979 20.3005 30.8211C20.2985 31.2765 20.3133 31.732 20.3137 32.1874C20.3142 32.844 20.3116 32.8482 19.6631 32.8483C17.1146 32.8486 14.5664 32.8462 12.0179 32.8448C11.7173 32.8447 11.4169 32.8461 11.1164 32.8422C10.7785 32.838 10.624 32.6663 10.6375 32.3291C10.6476 32.077 10.6395 31.8241 10.6395 31.5316C10.9525 31.5119 11.206 31.4819 11.4597 31.4823C13.6931 31.4853 15.9265 31.4943 18.1599 31.4998C18.8705 31.5016 18.939 31.419 18.9513 30.7187C18.9757 29.326 18.9128 27.9219 19.0745 26.5443C19.2646 24.9255 20.3775 24.0177 21.9608 24.023C23.6387 24.0285 24.7894 24.9055 24.9653 26.5143C25.1024 27.7679 25.0926 29.0407 25.0894 30.3049C25.0864 31.5057 25.0546 31.5018 26.2362 31.4965C28.3835 31.4869 30.5311 31.4828 32.6787 31.4819C32.9023 31.4817 33.1259 31.5185 33.3218 31.5358Z" fill="white"/>
<path d="M15.8003 28.0484C15.809 26.636 15.8584 25.2438 16.6027 23.9596C17.857 21.795 20.3246 20.5563 22.878 20.8734C25.3293 21.1776 27.4934 23.0241 28.0754 25.4125C28.2651 26.1908 28.2583 27.0194 28.3103 27.8269C28.3404 28.2941 28.3053 28.7653 28.306 29.2347C28.3064 29.5031 28.212 29.6587 27.9133 29.6776C26.9868 29.7359 26.9527 29.7042 26.9388 28.7722C26.9282 28.061 26.9132 27.3496 26.8778 26.6394C26.754 24.1746 24.6169 22.1883 22.0721 22.1624C19.5606 22.1368 17.3752 24.127 17.2286 26.5937C17.1787 27.4309 17.1788 28.2711 17.1554 29.1101C17.1412 29.6204 17.0828 29.6754 16.5804 29.668C16.4516 29.666 16.323 29.6737 16.1942 29.6741C15.9341 29.6751 15.7956 29.5578 15.7989 29.2863C15.804 28.8737 15.8003 28.461 15.8003 28.0484Z" fill="white"/>
<path d="M21.9828 17.7253C22.3974 17.7253 22.8121 17.7313 23.2264 17.7234C23.5175 17.7176 23.7292 17.6055 23.7212 17.2704C23.7053 16.6312 23.7179 15.9895 23.662 15.3538C23.5881 14.5135 22.9066 14.0186 21.9158 14.0291C20.998 14.0388 20.3392 14.5599 20.2741 15.3759C20.2256 15.984 20.2398 16.5968 20.2173 17.2072C20.2035 17.5755 20.3974 17.7225 20.7393 17.725C21.1537 17.7278 21.5682 17.7256 21.9828 17.7253ZM25.0608 19.4856C22.7745 18.9472 22.2003 18.7038 18.9695 19.4575C18.9518 19.4381 18.9176 19.418 18.9176 19.398C18.9185 18.0187 18.8706 16.637 18.9401 15.2611C19.0088 13.9014 20.061 12.8857 21.4407 12.6989C22.9667 12.4926 24.3737 13.2205 24.8562 14.4792C24.9313 14.6752 24.9761 14.8921 24.9869 15.1017C25.0232 15.8116 25.0472 16.5223 25.0583 17.2331C25.0698 17.9696 25.0608 18.7066 25.0608 19.4856Z" fill="white"/>
<path d="M13.8938 19.5944V21.9372C13.8938 24.3574 13.885 26.7775 13.9027 29.1976C13.9055 29.578 13.7848 29.6851 13.4183 29.6905C12.7585 29.7003 12.6174 29.6616 12.5944 29.2306C12.5593 28.563 12.561 27.8934 12.5588 27.2247C12.5523 25.3741 12.5663 23.5234 12.5413 21.673C12.5325 21.0283 12.6998 20.5091 13.2296 20.1075C13.4389 19.9489 13.593 19.7177 13.7721 19.5197C13.8127 19.5446 13.8531 19.5694 13.8938 19.5944Z" fill="white"/>
<path d="M30.1934 29.6734V19.5511C30.923 19.9137 31.4746 20.7672 31.4755 21.5136C31.4791 24.0006 31.4835 26.4874 31.485 28.9745C31.4855 29.6586 31.4729 29.6675 30.7927 29.6733C30.6096 29.6747 30.4264 29.6734 30.1934 29.6734Z" fill="white"/>
</g>
<defs>
<clipPath id="clip0_245_13359">
<rect width="44" height="53" fill="white"/>
</clipPath>
</defs>
</svg>
