<svg width="91" height="86" viewBox="0 0 91 86" fill="none" xmlns="http://www.w3.org/2000/svg">
<g id="&#208;&#155;&#208;&#190;&#208;&#179;&#208;&#190; &#208;&#178;&#208;&#181;&#208;&#186;&#209;&#130;&#208;&#190;&#209;&#128; ">
<g id="Group 3">
<path id="Vector" d="M22.0398 22.2433C29.5737 14.7936 37.0857 7.36583 44.5352 0C44.5352 0 48.7733 4.19636 54.3969 9.76438C60.0205 15.3325 67.0296 22.2723 67.0296 22.2723C67.0011 22.3852 67.0032 22.4479 66.9733 22.4848C65.7495 23.9902 65.5828 24.004 64.1922 22.6235C61.8897 20.3375 59.5985 18.041 57.2975 15.7539C57.0613 15.5195 56.7904 15.3195 56.4016 14.9895V27.7718C55.1706 26.5143 53.6816 25.875 53.7765 23.8534C53.9277 20.6419 53.78 17.4178 53.8137 14.1995C53.8273 12.8818 53.4162 11.8452 52.4549 10.9119C50.0319 8.55792 47.664 6.14611 45.3107 3.72159C44.7465 3.1406 44.3675 3.15027 43.817 3.71496C41.3458 6.24902 38.8586 8.76816 36.3479 11.2635C35.6286 11.9787 35.3234 12.799 35.3234 13.7852C35.3237 17.1379 35.2725 20.4914 35.3257 23.8429C35.3431 24.9249 35.0984 25.77 34.2222 26.4317C33.7571 26.7831 33.3485 27.2099 32.768 27.7355V14.9367C32.2839 15.3651 31.9627 15.6219 31.6726 15.9104C29.3916 18.1783 27.1184 20.4539 24.8394 22.7236C23.5525 24.0055 23.1349 23.9469 22.0398 22.2433Z" fill="#1D231F"/>
<path id="Vector_2" d="M65.7682 45.9805C65.8233 46.0943 65.8428 46.1175 65.846 46.1427C66.1137 48.3756 66.0087 48.4655 63.7802 48.4563C58.7886 48.436 53.7966 48.4465 48.805 48.4415C48.5152 48.4412 48.2258 48.4159 47.8053 48.3959C47.8053 47.2002 47.8027 46.0572 47.8059 44.914C47.8117 42.6612 47.8877 40.4058 47.7951 38.157C47.7582 37.2592 47.5239 36.2754 47.0732 35.5107C46.4288 34.4173 44.8845 34.0959 43.5269 34.4993C42.3151 34.8594 41.471 35.8101 41.4275 37.1543C41.3465 39.6456 41.3702 42.1408 41.3589 44.634C41.3552 45.4921 41.3829 46.3503 41.3836 47.2084C41.3845 48.4455 41.3798 48.4534 40.164 48.4536C35.3867 48.4542 30.6098 48.4496 25.8325 48.447C25.269 48.4467 24.7059 48.4494 24.1425 48.442C23.5092 48.4342 23.2196 48.1107 23.2449 47.4754C23.2639 47.0003 23.2487 46.5238 23.2487 45.9726C23.8353 45.9355 24.3106 45.879 24.7861 45.8798C28.9729 45.8853 33.1594 45.9025 37.3462 45.9128C38.6783 45.9161 38.8067 45.7605 38.8296 44.441C38.8755 41.8169 38.7576 39.1713 39.0607 36.5757C39.417 33.5256 41.5032 31.815 44.4713 31.825C47.6165 31.8354 49.7736 33.4878 50.1033 36.519C50.3604 38.8811 50.3421 41.2794 50.336 43.6614C50.3304 45.9239 50.2707 45.9164 52.4857 45.9065C56.5111 45.8885 60.5368 45.8806 64.5628 45.879C64.9818 45.8787 65.4011 45.948 65.7682 45.9805Z" fill="#1D231F"/>
<path id="Vector_3" d="M32.9129 39.4093C32.9293 36.7481 33.0219 34.1249 34.4172 31.7052C36.7685 27.6268 41.3941 25.2928 46.1807 25.8902C50.7758 26.4635 54.8325 29.9425 55.9235 34.4428C56.2792 35.9092 56.2664 37.4705 56.364 38.992C56.4204 39.8722 56.3544 40.76 56.3558 41.6445C56.3566 42.1503 56.1796 42.4434 55.6197 42.4789C53.8829 42.5889 53.8189 42.5291 53.7928 40.773C53.7731 39.4331 53.745 38.0927 53.6785 36.7546C53.4464 32.1104 49.4403 28.3678 44.6699 28.319C39.9619 28.2708 35.8653 32.0206 35.5904 36.6684C35.4968 38.2458 35.4971 39.829 35.4533 41.4098C35.4266 42.3712 35.3171 42.4748 34.3753 42.4609C34.134 42.4571 33.8928 42.4716 33.6515 42.4725C33.1638 42.4743 32.9042 42.2534 32.9103 41.7417C32.9199 40.9643 32.9129 40.1868 32.9129 39.4093Z" fill="#587410"/>
<path id="Vector_4" d="M44.5056 19.959C45.2829 19.959 46.0603 19.9703 46.8368 19.9553C47.3825 19.9445 47.7795 19.7333 47.7644 19.1017C47.7347 17.8974 47.7582 16.6884 47.6534 15.4907C47.5149 13.9073 46.2375 12.9749 44.3801 12.9946C42.6595 13.0129 41.4246 13.9947 41.3026 15.5322C41.2117 16.6779 41.2384 17.8327 41.1961 18.9828C41.1702 19.6767 41.5337 19.9538 42.1747 19.9584C42.9515 19.9637 43.7285 19.9596 44.5056 19.959ZM50.2756 23.2756C45.9898 22.2613 44.9134 21.8027 38.857 23.2227C38.8238 23.1862 38.7597 23.1484 38.7597 23.1107C38.7615 20.5118 38.6716 17.9084 38.8018 15.3159C38.9307 12.754 40.9031 10.8402 43.4896 10.4883C46.3501 10.0995 48.9875 11.471 49.892 13.8426C50.0329 14.212 50.1168 14.6207 50.1371 15.0156C50.2051 16.3532 50.2501 17.6922 50.271 19.0316C50.2924 20.4193 50.2756 21.8079 50.2756 23.2756Z" fill="#587410"/>
<path id="Vector_5" d="M29.3394 23.4804V27.8947C29.3394 32.4548 29.3229 37.0148 29.356 41.5746C29.3613 42.2914 29.135 42.4932 28.4479 42.5033C27.2111 42.5219 26.9466 42.449 26.9036 41.6368C26.8377 40.3789 26.841 39.1173 26.8368 37.8573C26.8247 34.3704 26.8508 30.8833 26.8041 27.397C26.7875 26.1822 27.1011 25.2038 28.0942 24.4473C28.4866 24.1484 28.7755 23.7128 29.1112 23.3396C29.1873 23.3866 29.263 23.4334 29.3394 23.4804Z" fill="#1D231F"/>
<path id="Vector_6" d="M59.9008 42.4707V23.3984C61.2684 24.0816 62.3026 25.6897 62.3043 27.096C62.311 31.782 62.3192 36.4677 62.3221 41.1537C62.3229 42.4428 62.2994 42.4596 61.0242 42.4704C60.681 42.473 60.3375 42.4707 59.9008 42.4707Z" fill="#1D231F"/>
</g>
<g id="Group 1">
<path id="Vector_7" d="M24.2546 65.5C25.3092 65.5 26.3897 65.4629 27.4664 65.5129C28.1882 65.5465 28.3663 65.2407 28.3507 64.5832C28.3178 63.1998 28.3435 61.8145 28.3435 60.4299C28.3432 58.1709 28.3425 58.1709 26.0698 58.2453C26.037 58.2463 26.0039 58.2474 25.971 58.2446C25.4516 58.2005 25.2198 58.4002 25.1515 58.9574C24.892 61.0755 24.5767 63.1869 24.2546 65.5ZM29.7537 67.6238C29.466 67.5913 29.243 67.5445 29.0196 67.5438C26.8454 67.5384 24.6707 67.5406 22.4142 67.5406C22.3384 68.2745 22.2413 68.9208 22.2117 69.5704C22.1769 70.3239 21.6644 70.2579 21.1598 70.2611C20.6724 70.2635 20.2358 70.2761 20.2247 69.5757C20.2089 68.5535 20.0893 67.5319 20.0918 66.5104C20.0925 66.2057 20.3177 65.6641 20.5031 65.6352C21.8792 65.4214 22.0785 64.3246 22.2611 63.3077C22.5688 61.5884 22.7643 59.8487 22.9793 58.1141C23.203 56.3106 23.3244 56.1778 25.1102 56.1722C26.5969 56.1671 28.0837 56.1973 29.5704 56.179C30.4133 56.1686 30.755 56.5417 30.7479 57.3769C30.7257 59.7869 30.7465 62.1976 30.7358 64.6079C30.7339 65.1127 30.7647 65.4818 31.4211 65.5787C31.6598 65.6141 31.9984 66.093 32.0049 66.3763C32.0284 67.3964 31.9003 68.4194 31.887 69.4419C31.8775 70.1949 31.4436 70.256 30.8484 70.2749C30.2075 70.295 29.8418 70.1441 29.8564 69.4169C29.8685 68.8317 29.793 68.2452 29.7537 67.6238Z" fill="#1D231F"/>
<path id="Vector_8" d="M58.8279 58.2579V60.4697C59.6387 60.4697 60.3576 60.4847 61.0765 60.4651C61.7596 60.4466 62.2077 60.1117 62.2451 59.3975C62.2826 58.6624 61.8312 58.3079 61.1583 58.2679C60.4121 58.2235 59.6609 58.2579 58.8279 58.2579ZM58.8074 65.3742C59.7733 65.3742 60.6592 65.4307 61.5365 65.357C62.2894 65.2933 62.7034 64.7734 62.734 64.0178C62.7664 63.2393 62.4427 62.6994 61.6302 62.496C59.2452 61.8982 58.649 62.3586 58.7444 64.7553C58.7512 64.9157 58.7768 65.0756 58.8074 65.3742ZM63.6233 61.2757C65.1445 62.5174 65.5755 63.696 65.0645 65.2072C64.5892 66.6125 63.2008 67.5034 61.3883 67.5314C60.1021 67.5509 58.8142 67.5128 57.5281 67.5428C56.707 67.562 56.3203 67.2721 56.3288 66.3972C56.3578 63.3634 56.3527 60.3288 56.3339 57.2946C56.3288 56.5084 56.6303 56.1347 57.4378 56.1519C58.8892 56.1819 60.3423 56.1494 61.792 56.2016C63.0134 56.2456 64.0935 56.6477 64.5585 57.9005C65.0168 59.1384 64.734 60.2326 63.6965 61.0971C63.6522 61.1335 63.6471 61.2147 63.6233 61.2757Z" fill="#1D231F"/>
<path id="Vector_9" d="M46.5233 61.7475C46.6306 62.4847 46.6732 63.0806 46.8078 63.6553C47.0974 64.9044 47.8487 65.5267 49.0105 65.5486C50.2097 65.5711 51.1518 64.9587 51.3358 63.6951C51.5146 62.4775 51.4976 61.2 51.3494 59.9742C51.2165 58.8658 50.3937 58.2491 49.4057 58.1719C48.2643 58.0825 47.4006 58.565 46.9986 59.6651C46.7431 60.3665 46.6596 61.1309 46.5233 61.7475ZM54.1909 61.8706C54.1193 62.4815 54.0869 63.0094 53.9898 63.5252C53.3459 66.984 50.2643 68.6796 46.9748 67.3982C45.8692 66.9678 45.0702 66.1998 44.6478 65.105C43.8301 62.9915 43.7773 60.848 44.6818 58.7505C45.5642 56.703 47.3751 55.795 49.8861 56.0387C51.9252 56.2365 53.4447 57.5981 53.8979 59.6988C54.058 60.4356 54.104 61.1968 54.1909 61.8706Z" fill="#1D231F"/>
<path id="Vector_10" d="M9.33648 67.354C9.1801 67.442 9.15353 67.4674 9.12423 67.4716C7.02191 67.7743 6.99977 67.76 6.42602 65.7373C6.33624 65.4197 6.24647 65.1021 6.1555 64.7848C5.49982 62.4885 5.03237 62.1857 2.48987 62.5096V67.4609H0.10988C0.0798984 67.2571 0.0282839 67.0683 0.0279432 66.8793C0.0221512 63.6113 0.0551965 60.3424 0.00034316 57.0756C-0.0149885 56.1438 0.485334 56.1344 1.117 56.1824C1.70505 56.2267 2.51559 55.8881 2.45205 57.0444C2.38868 58.1893 2.43808 59.341 2.43808 60.4619C4.63477 60.8712 5.30153 60.4759 5.83167 58.5516C5.90134 58.2972 5.9676 58.0419 6.03523 57.7868C6.53164 55.9216 6.66366 55.8433 8.77245 56.2861C8.19905 58.0395 8.29103 60.0106 6.75276 61.3879C8.89698 62.8888 8.42391 65.4105 9.33648 67.354Z" fill="#1D231F"/>
<path id="Vector_11" d="M71.5361 62.3489V62.3271C71.1715 62.3271 70.8087 62.3396 70.4459 62.3243C69.8496 62.2989 69.7696 62.7124 69.8718 63.1101C70.0677 63.8669 69.2806 64.9525 70.3453 65.3492C71.0353 65.6063 71.9211 65.4507 72.6979 65.3395C73.5377 65.2193 73.9108 64.5994 73.875 63.7642C73.841 62.9652 73.4321 62.4604 72.6229 62.3564C72.2669 62.311 71.899 62.3489 71.5361 62.3489ZM69.8564 60.3588C71.0676 60.3588 72.1272 60.2794 73.1698 60.3749C75.3367 60.5738 76.4269 61.8428 76.4014 63.987C76.3758 65.8313 74.9602 67.3782 73.0318 67.497C71.485 67.5925 69.928 67.5249 68.3744 67.5285C67.7662 67.5299 67.4647 67.2333 67.4647 66.617C67.4664 63.3473 67.4494 60.077 67.4868 56.8074C67.4902 56.5878 67.8667 56.2145 68.1086 56.1804C69.7355 55.9513 69.8564 56.0771 69.8564 57.6842C69.8564 58.5039 69.8564 59.3233 69.8564 60.3588Z" fill="#1D231F"/>
<path id="Vector_12" d="M19.1287 67.4878C17.1037 67.4878 15.1571 67.5668 13.2212 67.4585C12.02 67.3912 11.178 66.4533 11.1303 65.1808C11.0484 62.971 11.053 60.7538 11.1293 58.5437C11.1741 57.2582 12.1097 56.3172 13.428 56.2296C15.0736 56.1201 16.7308 56.1598 18.382 56.1746C19.3469 56.1831 18.9225 56.9599 18.9987 57.4361C19.0811 57.9489 18.8939 58.2405 18.2994 58.2257C17.1427 58.1967 15.9848 58.2058 14.8278 58.2191C13.6978 58.2318 13.0284 59.2509 13.5229 60.2562C13.612 60.4377 14 60.5535 14.2534 60.5589C15.6022 60.5882 16.9522 60.5729 18.3839 60.5729V62.5489C17.0432 62.5489 15.6996 62.5816 14.3586 62.5355C13.6646 62.5118 13.3772 62.7425 13.4646 63.4364C13.4932 63.6642 13.481 63.8991 13.4674 64.1295C13.4123 65.0417 13.8103 65.4761 14.7504 65.4494C15.8073 65.4189 16.8664 65.4436 17.9243 65.4472C19.2155 65.4514 19.2174 65.4526 19.1888 66.7756C19.1845 66.9709 19.1566 67.1655 19.1287 67.4878Z" fill="#1D231F"/>
<path id="Vector_13" d="M85.0263 60.5569H89.8149V62.5487C88.498 62.5487 87.2136 62.5996 85.9377 62.5309C85.0842 62.4847 84.8014 62.8005 84.9104 63.6029C84.9462 63.8629 84.9155 64.1312 84.9189 64.3954C84.9275 65.0754 85.2477 65.4363 85.953 65.4337C87.0773 65.4301 88.2033 65.4441 89.3276 65.446C90.6785 65.448 90.6802 65.4456 90.6291 66.8352C90.6223 67.0272 90.59 67.2182 90.561 67.4762C88.5457 67.4762 86.5697 67.5594 84.6038 67.4447C83.4386 67.3764 82.6107 66.4303 82.5732 65.2235C82.5017 62.9791 82.5068 60.729 82.5817 58.4844C82.6226 57.2798 83.5118 56.3388 84.7299 56.2505C86.4402 56.1267 88.1641 56.1683 89.883 56.189C90.0704 56.1911 90.377 56.4984 90.4145 56.704C90.4963 57.1439 90.4401 57.6104 90.4401 58.2187C89.1948 58.2187 88.0517 58.218 86.9087 58.219C84.9564 58.2206 84.7418 58.4691 85.0263 60.5569Z" fill="#1D231F"/>
<path id="Vector_14" d="M36.3165 61.4047C37.2204 61.4047 38.0364 61.4573 38.8439 61.3901C39.6547 61.3225 40.0329 60.7494 40.084 59.9794C40.1385 59.161 39.7978 58.4915 38.9665 58.3726C38.113 58.2507 37.2272 58.3456 36.3165 58.3456V61.4047ZM36.2743 67.4927H33.9697C33.9333 67.1718 33.8728 66.8883 33.8725 66.6042C33.8663 63.5655 33.8936 60.5266 33.8566 57.4882C33.8449 56.52 34.1691 56.1022 35.1745 56.149C36.5594 56.213 37.9529 56.1182 39.3345 56.2098C41.2697 56.3378 42.5405 57.6841 42.6103 59.5323C42.6836 61.5103 41.4894 63.0018 39.5627 63.3111C39.1726 63.3738 38.7723 63.3738 38.3771 63.377C36.2749 63.393 36.2749 63.3901 36.2743 65.5362V67.4927Z" fill="#1D231F"/>
<path id="Vector_15" d="M79.8663 67.4681C77.5444 67.7027 77.5478 67.7027 77.5512 65.5201C77.5546 62.6799 77.5819 59.8389 77.5376 56.9993C77.5206 55.9993 78.1679 56.1627 78.7267 56.1917C79.2394 56.2181 79.9856 55.8827 79.9771 56.9282C79.9515 60.3297 79.9634 63.7315 79.9566 67.1329C79.9566 67.2252 79.9089 67.3171 79.8663 67.4681Z" fill="#1D231F"/>
</g>
<g id="Group 2">
<path id="Vector_16" d="M51.612 83.0575C52.6227 83.0575 53.5082 83.119 54.3804 83.0397C55.1827 82.9663 55.5763 82.3812 55.6103 81.6069C55.6444 80.8288 55.285 80.1846 54.501 80.0852C53.5768 79.9679 52.6266 80.0578 51.6628 80.0578C51.6416 80.4257 51.6162 80.6852 51.6137 80.9448C51.6077 81.5989 51.612 82.2535 51.612 83.0575ZM56.7704 73.8847V75.8793C55.5848 75.8793 54.4402 75.8779 53.2952 75.8798C51.4105 75.8818 51.4105 75.8829 51.7304 78.0229C52.6789 78.0229 53.663 77.9721 54.6409 78.0329C57.2287 78.1943 58.6358 80.0825 58.0276 82.5146C57.6597 83.9786 56.319 85.1017 54.6952 85.1735C53.1763 85.2404 51.6524 85.1819 50.131 85.2064C49.433 85.218 49.1671 84.8295 49.1657 84.2268C49.1582 81.1189 49.1485 78.0111 49.209 74.9046C49.2158 74.5602 49.6536 73.938 49.9076 73.9293C52.176 73.8523 54.4483 73.8847 56.7704 73.8847Z" fill="#1D231F"/>
<path id="Vector_17" d="M31.3299 79.0594C32.2798 79.0594 33.0968 79.1013 33.9078 79.047C34.6376 78.9983 34.9923 78.4847 35.1074 77.8037C35.2296 77.0789 35.0255 76.3532 34.3248 76.1761C33.4547 75.957 32.4937 75.9243 31.612 76.0633C31.4287 76.0919 31.4018 77.2218 31.3367 77.8479C31.2994 78.2043 31.3299 78.5676 31.3299 79.0594ZM31.3266 81.0305C31.3266 82.212 31.2762 83.2606 31.3399 84.3027C31.4144 85.5184 30.5582 85.1474 29.9379 85.2075C29.2516 85.2741 28.8504 85.1517 28.8664 84.2732C28.9216 81.2374 28.8823 78.1995 28.8937 75.1625C28.8983 73.9997 29.0618 73.8424 30.2146 73.8313C31.4697 73.8194 32.7254 73.806 33.9797 73.8398C36.2152 73.901 37.6034 75.2365 37.6229 77.3008C37.6431 79.4672 36.3248 80.885 34.1058 81.0217C33.2261 81.0756 32.3402 81.0305 31.3266 81.0305Z" fill="#1D231F"/>
<path id="Vector_18" d="M62.5284 83.0402C63.5028 83.0402 64.4227 83.1192 65.3221 83.0162C66.104 82.9268 66.4959 82.3098 66.5044 81.5418C66.5112 80.8293 66.2114 80.1712 65.4516 80.0857C64.4976 79.9788 63.5232 80.06 62.5284 80.06V83.0402ZM62.4687 77.9856C63.4602 77.9856 64.3136 77.9673 65.1671 77.9891C67.6815 78.0538 68.9932 79.2799 68.9966 81.5454C69 83.7048 67.4294 85.1694 65.0479 85.2016C63.7259 85.2195 62.4023 85.1824 61.0804 85.2094C60.3513 85.2249 60.0497 84.8732 60.048 84.1973C60.0463 80.9586 60.0378 77.7195 60.0787 74.481C60.0821 74.2638 60.4432 73.958 60.7022 73.8615C60.9918 73.7531 61.3546 73.8566 61.6834 73.829C62.2967 73.7774 62.4926 74.0614 62.4756 74.6458C62.4466 75.7267 62.4687 76.8092 62.4687 77.9856Z" fill="#1D231F"/>
<path id="Vector_19" d="M38.1828 73.7804C39.0182 73.7804 39.6541 73.7002 40.2533 73.8144C40.551 73.8709 40.9031 74.2361 41.0221 74.5426C41.711 76.323 42.3384 78.1279 43.0877 80.2049C43.3583 79.4278 43.5538 78.8976 43.7269 78.3603C44.1027 77.1976 44.523 76.0452 44.8175 74.8616C45.035 73.9874 45.4872 73.6556 46.359 73.7651C46.7674 73.8161 47.188 73.7736 47.7641 73.7736C47.4793 74.603 47.266 75.2498 47.035 75.8899C46.1403 78.3765 45.2548 80.8658 44.3368 83.3436C43.6349 85.2378 41.667 86.0926 39.8173 85.3064C39.6259 85.2248 39.4405 84.8758 39.4412 84.6513C39.4426 84.2713 39.5943 83.8915 39.6906 83.4808C40.8086 83.4165 42.1995 83.9044 42.3225 82.5341C41.6966 81.6425 41.1462 81.0773 40.8538 80.4009C39.9386 78.2859 39.1213 76.1289 38.1828 73.7804Z" fill="#1D231F"/>
<path id="Vector_20" d="M18 79.6697C18.0583 76.5554 19.5236 74.2491 22.0873 73.8532C23.3681 73.6558 24.7439 74.0134 26.0674 74.1876C26.4701 74.2405 26.8486 74.5693 26.5072 75.0456C26.1958 75.4799 26.3759 76.4657 25.3492 76.1674C25.2858 76.1487 25.226 76.1177 25.1626 76.1008C23.139 75.5647 22.0307 75.8247 21.2421 77.019C20.3972 78.2984 20.3471 81.1626 21.2941 82.2081C21.7193 82.6771 22.4336 83.0741 23.0514 83.132C23.8742 83.2093 24.7543 83.0026 25.566 82.7671C26.1294 82.6037 26.392 82.6727 26.6547 83.1928C27.2234 84.3205 27.199 84.6525 25.9415 84.9283C24.6415 85.2132 23.2557 85.3731 21.9384 85.2516C19.9931 85.0719 18.8063 83.7983 18.3433 81.9144C18.1632 81.1823 18.1109 80.4191 18 79.6697Z" fill="#1D231F"/>
<path id="Vector_21" d="M70.1993 73.9202H72.4837C72.5127 74.192 72.5672 74.4718 72.5672 74.7522C72.574 77.9143 72.5331 81.078 72.5978 84.2395C72.6183 85.2821 72.0578 85.2167 71.3611 85.2106C70.678 85.2048 70.0988 85.3038 70.1209 84.247C70.1874 81.0855 70.1465 77.9218 70.1516 74.7596C70.1516 74.5031 70.1788 74.247 70.1993 73.9202Z" fill="#1D231F"/>
</g>
</g>
</svg>
