<svg width="45" height="60" viewBox="0 0 45 60" fill="none" xmlns="http://www.w3.org/2000/svg">
<path d="M45 0L45 43.1378C45 44.132 44.5075 45.0616 43.6849 45.62L24.1849 58.8563C23.1677 59.5468 21.8323 59.5468 20.8151 58.8563L1.31513 45.62C0.49254 45.0616 1.88563e-06 44.132 1.92908e-06 43.1378L3.8147e-06 -1.96701e-06L45 0Z" fill="#FE7637"/>
<path d="M17.8552 25.85C17.0552 25.85 16.3052 25.65 15.6052 25.25C14.9052 24.85 14.3452 24.3 13.9252 23.6C13.5052 22.9 13.2952 22.12 13.2952 21.26C13.2952 20.4 13.5052 19.62 13.9252 18.92C14.3452 18.2 14.9052 17.64 15.6052 17.24C16.3052 16.84 17.0552 16.64 17.8552 16.64C18.6752 16.64 19.4352 16.84 20.1352 17.24C20.8352 17.64 21.3952 18.2 21.8152 18.92C22.2352 19.62 22.4452 20.4 22.4452 21.26C22.4452 22.12 22.2352 22.9 21.8152 23.6C21.3952 24.3 20.8352 24.85 20.1352 25.25C19.4352 25.65 18.6752 25.85 17.8552 25.85ZM17.9152 38H15.1852L28.1152 17H30.8152L17.9152 38ZM17.8552 23.69C18.4752 23.69 19.0052 23.47 19.4452 23.03C19.9052 22.59 20.1352 22 20.1352 21.26C20.1352 20.5 19.9152 19.9 19.4752 19.46C19.0352 19.02 18.4952 18.8 17.8552 18.8C17.2352 18.8 16.7052 19.03 16.2652 19.49C15.8252 19.93 15.6052 20.52 15.6052 21.26C15.6052 22 15.8252 22.59 16.2652 23.03C16.7052 23.47 17.2352 23.69 17.8552 23.69ZM28.1452 38.36C27.3252 38.36 26.5652 38.16 25.8652 37.76C25.1652 37.36 24.6052 36.81 24.1852 36.11C23.7652 35.39 23.5552 34.6 23.5552 33.74C23.5552 32.88 23.7652 32.1 24.1852 31.4C24.6052 30.7 25.1652 30.15 25.8652 29.75C26.5652 29.35 27.3252 29.15 28.1452 29.15C28.9452 29.15 29.6952 29.35 30.3952 29.75C31.0952 30.15 31.6552 30.7 32.0752 31.4C32.4952 32.1 32.7052 32.88 32.7052 33.74C32.7052 34.6 32.4952 35.39 32.0752 36.11C31.6552 36.81 31.0952 37.36 30.3952 37.76C29.6952 38.16 28.9452 38.36 28.1452 38.36ZM28.1452 36.2C28.7652 36.2 29.2952 35.98 29.7352 35.54C30.1752 35.08 30.3952 34.48 30.3952 33.74C30.3952 33 30.1752 32.41 29.7352 31.97C29.2952 31.53 28.7652 31.31 28.1452 31.31C27.5252 31.31 26.9852 31.53 26.5252 31.97C26.0852 32.41 25.8652 33 25.8652 33.74C25.8652 34.48 26.0852 35.08 26.5252 35.54C26.9852 35.98 27.5252 36.2 28.1452 36.2Z" fill="white"/>
</svg>
